<svg width="48" height="48" viewBox="0 0 48 48" fill="none" xmlns="http://www.w3.org/2000/svg">
<rect width="48" height="48" rx="24" fill="white"/>
<path fill-rule="evenodd" clip-rule="evenodd" d="M15.7744 12.1806C12.9502 14.1459 10.9232 17.0576 10.0601 20.3884C9.19713 23.7191 9.55527 27.2488 11.0697 30.3384C12.5842 33.4279 15.1548 35.8731 18.3162 37.2311C21.4776 38.5891 25.0209 38.7703 28.3042 37.7419L28.8423 39.4595C25.1485 40.6166 21.1624 40.4128 17.6058 38.8849C14.0492 37.3572 11.1572 34.6063 9.45345 31.1306C7.7497 27.6549 7.34679 23.684 8.31768 19.9369C9.28856 16.1898 11.5691 12.9142 14.7463 10.7031L15.7744 12.1806Z" fill="#05BBC2"/>
<path fill-rule="evenodd" clip-rule="evenodd" d="M32.225 35.8194C35.0492 33.8541 37.0764 30.9424 37.9394 27.6116C38.8024 24.2809 38.4442 20.7512 36.9298 17.6616C35.4154 14.5721 32.8447 12.1269 29.6833 10.7689C26.5218 9.41086 22.9787 9.2297 19.6952 10.2582L19.1572 8.5405C22.8511 7.38343 26.8371 7.58724 30.3937 9.11504C33.9503 10.6428 36.8423 13.3937 38.546 16.8694C40.2498 20.3451 40.6527 24.316 39.6818 28.0631C38.711 31.8102 36.4305 35.0858 33.2532 37.2969L32.225 35.8194Z" fill="#05BBC2"/>
<path fill-rule="evenodd" clip-rule="evenodd" d="M15.0002 11.4001H8.7002V9.6001H16.8002V17.7001H15.0002V11.4001Z" fill="#05BBC2"/>
<path fill-rule="evenodd" clip-rule="evenodd" d="M33.0002 36.5998H39.3002V38.3998H31.2002V30.2998H33.0002V36.5998Z" fill="#05BBC2"/>
<path fill-rule="evenodd" clip-rule="evenodd" d="M29.1336 18.6378C28.4917 16.7168 26.7597 15.3376 24.7202 15.3376V14.1001H22.3802V15.3376C19.7955 15.3376 17.7002 17.5538 17.7002 20.2876C17.7002 23.0214 19.7955 25.2376 22.3802 25.2376V30.1876C21.3631 30.1876 20.4949 29.5007 20.173 28.5378C19.9577 27.8933 19.2893 27.5556 18.6801 27.7834C18.0707 28.0111 17.7514 28.7181 17.9668 29.3624C18.6087 31.2834 20.3407 32.6626 22.3802 32.6626V33.9001H24.7202V32.6626C27.3048 32.6626 29.4002 30.4464 29.4002 27.7126C29.4002 24.9788 27.3048 22.7626 24.7202 22.7626V17.8126C25.7373 17.8126 26.6055 18.4995 26.9274 19.4624C27.1427 20.1069 27.8111 20.4446 28.4203 20.2168C29.0297 19.9891 29.3489 19.2821 29.1336 18.6378ZM22.3802 17.8126C21.0878 17.8126 20.0402 18.9207 20.0402 20.2876C20.0402 21.6545 21.0878 22.7626 22.3802 22.7626V17.8126ZM24.7202 30.1876C26.0126 30.1876 27.0602 29.0795 27.0602 27.7126C27.0602 26.3457 26.0126 25.2376 24.7202 25.2376V30.1876Z" fill="#05BBC2"/>
</svg>
