<svg width="48" height="48" viewBox="0 0 48 48" fill="none" xmlns="http://www.w3.org/2000/svg">
<rect width="48" height="48" rx="24" fill="white"/>
<path fill-rule="evenodd" clip-rule="evenodd" d="M10.7 27.1333C10.7 26.7322 10.9197 26.2898 11.5042 25.8104C12.0883 25.3311 12.9423 24.8987 13.9585 24.5369C15.9884 23.8141 18.4417 23.45 20.05 23.45C21.6583 23.45 24.1116 23.8141 26.1414 24.5369C26.4265 24.6385 26.6989 24.7455 26.9561 24.8576C27.4827 24.4561 28.0465 24.1008 28.6413 23.7977C28.0493 23.4626 27.39 23.1769 26.7117 22.9354C24.4927 22.1452 21.846 21.75 20.05 21.75C18.254 21.75 15.6073 22.1452 13.3883 22.9354C12.28 23.3301 11.2224 23.8426 10.4259 24.496C9.62974 25.1492 9 26.0271 9 27.1333V31.95H22.73C22.82 31.3671 22.9556 30.7991 23.133 30.25H10.7V27.1333Z" fill="#05BBC2"/>
<path fill-rule="evenodd" clip-rule="evenodd" d="M20.0496 19.2C22.3981 19.2 24.2996 17.2985 24.2996 14.95C24.2996 12.6015 22.3981 10.7 20.0496 10.7C17.7011 10.7 15.7996 12.6015 15.7996 14.95C15.7996 17.2985 17.7011 19.2 20.0496 19.2ZM25.9996 14.95C25.9996 18.2374 23.337 20.9 20.0496 20.9C16.7622 20.9 14.0996 18.2374 14.0996 14.95C14.0996 11.6626 16.7622 9 20.0496 9C23.337 9 25.9996 11.6626 25.9996 14.95Z" fill="#05BBC2"/>
<path fill-rule="evenodd" clip-rule="evenodd" d="M29.3857 23.4497H33.6647V24.1799C33.7292 24.8844 33.8279 25.4136 33.9673 25.7973C34.1071 26.1823 34.2725 26.3793 34.4435 26.4798C34.6134 26.5797 34.8621 26.6272 35.26 26.559C35.6579 26.4908 36.1623 26.3138 36.8033 26.0164L37.4607 25.6375L39.6002 29.3369L39.0697 29.6427C38.4612 30.0653 38.0296 30.427 37.7519 30.7498C37.4731 31.0737 37.3803 31.3221 37.3784 31.5248C37.3764 31.7261 37.4631 31.9713 37.7349 32.2914C38.0066 32.6112 38.4334 32.9703 39.0408 33.3901L39.6002 33.7125L39.3721 34.107L37.4607 37.4119L36.7746 37.0164C36.1218 36.7196 35.6145 36.5492 35.2194 36.4917C34.8271 36.4347 34.5885 36.4945 34.4246 36.6077C34.2531 36.7262 34.0872 36.9554 33.9521 37.3917C33.8174 37.827 33.7283 38.42 33.6752 39.2011L33.6647 39.2011V39.5997H29.3857V38.6883C29.3161 38.0121 29.2115 37.5129 29.0681 37.1577C28.9255 36.8042 28.76 36.6304 28.5868 36.5442C28.408 36.4552 28.1436 36.4211 27.727 36.5064C27.3131 36.5911 26.7936 36.7844 26.1399 37.0948L25.5897 37.4119L23.4502 33.7125L24.2513 33.2508C24.7857 32.8643 25.1608 32.5318 25.3995 32.2353C25.6385 31.9384 25.7167 31.7082 25.715 31.5171C25.7134 31.3255 25.6309 31.0935 25.3847 30.7947C25.139 30.4965 24.7551 30.1624 24.2093 29.7744L23.4502 29.3369L25.5897 25.6375L26.0505 25.9031C26.7193 26.2219 27.2533 26.4243 27.6807 26.5168C28.1118 26.61 28.3881 26.5813 28.5749 26.4945C28.753 26.4119 28.9206 26.2434 29.0648 25.8971C29.2104 25.5475 29.3165 25.0522 29.3857 24.3763V23.4497ZM25.9204 36.228C26.5333 35.945 27.0749 35.7437 27.5504 35.6464C28.071 35.5399 28.5576 35.5488 28.9792 35.7586C29.4065 35.9712 29.6909 36.3519 29.8838 36.8297C30.0743 37.3019 30.19 37.9036 30.2628 38.6218L30.265 38.6438V38.7219H32.8313C32.8888 38.1003 32.9768 37.5692 33.112 37.1325C33.2763 36.6016 33.5255 36.1614 33.9242 35.8859C34.3307 35.6051 34.8179 35.5462 35.3462 35.6231C35.8623 35.6981 36.4574 35.9077 37.1367 36.2165L38.4075 34.0191C37.839 33.6174 37.3847 33.2365 37.0642 32.859C36.7143 32.447 36.4943 32.0039 36.4991 31.5162C36.5038 31.03 36.7313 30.5887 37.0848 30.1778C37.4044 29.8064 37.8522 29.4303 38.4093 29.0333L37.1352 26.8304C36.4829 27.1308 35.9093 27.3383 35.4089 27.4242C34.8904 27.5131 34.4086 27.4781 33.9973 27.2363C33.587 26.9951 33.3203 26.5912 33.1407 26.0966C32.969 25.624 32.8628 25.031 32.7954 24.3275H30.265V24.4205L30.2628 24.4424C30.1905 25.1616 30.0728 25.7634 29.8768 26.234C29.6779 26.7117 29.3837 27.0871 28.9459 27.2904C28.5168 27.4897 28.023 27.489 27.4944 27.3747C27.0343 27.2751 26.5126 27.0818 25.9249 26.8135L24.6514 29.0156L24.6848 29.0349L24.7016 29.0468C25.2815 29.4577 25.7433 29.8481 26.0639 30.2371C26.3865 30.6287 26.5905 31.0491 26.5944 31.5097C26.5983 31.9708 26.401 32.3926 26.0849 32.7852C25.7712 33.1748 25.3173 33.5653 24.7481 33.9755L24.7299 33.9886L24.6514 34.0338L25.9204 36.228Z" fill="#05BBC2"/>
<path fill-rule="evenodd" clip-rule="evenodd" d="M31.5244 32.7999C32.2286 32.7999 32.7994 32.2291 32.7994 31.5249C32.7994 30.8208 32.2286 30.2499 31.5244 30.2499C30.8202 30.2499 30.2494 30.8208 30.2494 31.5249C30.2494 32.2291 30.8202 32.7999 31.5244 32.7999ZM31.5244 33.6499C32.698 33.6499 33.6494 32.6985 33.6494 31.5249C33.6494 30.3513 32.698 29.3999 31.5244 29.3999C30.3508 29.3999 29.3994 30.3513 29.3994 31.5249C29.3994 32.6985 30.3508 33.6499 31.5244 33.6499Z" fill="#05BBC2"/>
<path fill-rule="evenodd" clip-rule="evenodd" d="M31.5252 34.4997C33.1682 34.4997 34.5002 33.1678 34.5002 31.5247C34.5002 29.8817 33.1682 28.5497 31.5252 28.5497C29.8821 28.5497 28.5502 29.8817 28.5502 31.5247C28.5502 33.1678 29.8821 34.4997 31.5252 34.4997ZM31.5252 35.3497C33.6377 35.3497 35.3502 33.6372 35.3502 31.5247C35.3502 29.4122 33.6377 27.6997 31.5252 27.6997C29.4127 27.6997 27.7002 29.4122 27.7002 31.5247C27.7002 33.6372 29.4127 35.3497 31.5252 35.3497Z" fill="#05BBC2"/>
</svg>
