<svg width="48" height="48" viewBox="0 0 48 48" fill="none" xmlns="http://www.w3.org/2000/svg">
<rect width="48" height="48" rx="24" fill="white"/>
<path fill-rule="evenodd" clip-rule="evenodd" d="M14.0999 10.5002C13.6028 10.5002 13.1999 10.9031 13.1999 11.4002V39.3002C13.1999 39.7973 13.6028 40.2002 14.0999 40.2002H33.8999C34.397 40.2002 34.7999 39.7973 34.7999 39.3002V11.4002C34.7999 10.9031 34.397 10.5002 33.8999 10.5002H28.8749V8.7002H33.8999C35.3911 8.7002 36.5999 9.90902 36.5999 11.4002V39.3002C36.5999 40.7914 35.3911 42.0002 33.8999 42.0002H14.0999C12.6087 42.0002 11.3999 40.7914 11.3999 39.3002V11.4002C11.3999 9.90903 12.6087 8.7002 14.0999 8.7002H28.8749V10.5002H14.0999Z" fill="#05BBC2"/>
<path fill-rule="evenodd" clip-rule="evenodd" d="M15 16.125C15 13.8468 16.7268 12 18.8571 12H29.1429C31.2732 12 33 13.8468 33 16.125V18.875C33 21.1532 31.2732 23 29.1429 23H18.8571C16.7268 23 15 21.1532 15 18.875V16.125ZM18.7895 14C18.0794 14 16.8947 14.5 16.8947 16.125V19C16.8947 20.5 18.0794 21 18.7895 21H29.1429C30.6316 21 31.1053 19.7594 31.1053 19V16.125C31.1053 14.5 29.9206 14 29.2105 14H18.7895Z" fill="#05BBC2"/>
<path fill-rule="evenodd" clip-rule="evenodd" d="M19.6 25.8C19.6 26.7941 18.7941 27.6 17.8 27.6C16.8059 27.6 16 26.7941 16 25.8C16 24.8059 16.8059 24 17.8 24C18.7941 24 19.6 24.8059 19.6 25.8ZM18.88 25.8C18.88 26.3965 18.3965 26.88 17.8 26.88C17.2035 26.88 16.72 26.3965 16.72 25.8C16.72 25.2035 17.2035 24.72 17.8 24.72C18.3965 24.72 18.88 25.2035 18.88 25.8Z" fill="#05BBC2"/>
<path fill-rule="evenodd" clip-rule="evenodd" d="M19.6 25.8C19.6 26.7941 18.7941 27.6 17.8 27.6C16.8059 27.6 16 26.7941 16 25.8C16 24.8059 16.8059 24 17.8 24C18.7941 24 19.6 24.8059 19.6 25.8ZM18.88 25.8C18.88 26.3965 18.3965 26.88 17.8 26.88C17.2035 26.88 16.72 26.3965 16.72 25.8C16.72 25.2035 17.2035 24.72 17.8 24.72C18.3965 24.72 18.88 25.2035 18.88 25.8Z" fill="#05BBC2"/>
<path fill-rule="evenodd" clip-rule="evenodd" d="M19.6 30.8C19.6 31.7941 18.7941 32.6 17.8 32.6C16.8059 32.6 16 31.7941 16 30.8C16 29.8059 16.8059 29 17.8 29C18.7941 29 19.6 29.8059 19.6 30.8ZM18.88 30.8C18.88 31.3965 18.3965 31.88 17.8 31.88C17.2035 31.88 16.72 31.3965 16.72 30.8C16.72 30.2035 17.2035 29.72 17.8 29.72C18.3965 29.72 18.88 30.2035 18.88 30.8Z" fill="#05BBC2"/>
<path fill-rule="evenodd" clip-rule="evenodd" d="M25.6 25.8C25.6 26.7941 24.7941 27.6 23.8 27.6C22.8059 27.6 22 26.7941 22 25.8C22 24.8059 22.8059 24 23.8 24C24.7941 24 25.6 24.8059 25.6 25.8ZM24.88 25.8C24.88 26.3965 24.3965 26.88 23.8 26.88C23.2035 26.88 22.72 26.3965 22.72 25.8C22.72 25.2035 23.2035 24.72 23.8 24.72C24.3965 24.72 24.88 25.2035 24.88 25.8Z" fill="#05BBC2"/>
<path fill-rule="evenodd" clip-rule="evenodd" d="M25.6 25.8C25.6 26.7941 24.7941 27.6 23.8 27.6C22.8059 27.6 22 26.7941 22 25.8C22 24.8059 22.8059 24 23.8 24C24.7941 24 25.6 24.8059 25.6 25.8ZM24.88 25.8C24.88 26.3965 24.3965 26.88 23.8 26.88C23.2035 26.88 22.72 26.3965 22.72 25.8C22.72 25.2035 23.2035 24.72 23.8 24.72C24.3965 24.72 24.88 25.2035 24.88 25.8Z" fill="#05BBC2"/>
<path fill-rule="evenodd" clip-rule="evenodd" d="M31.6 25.8C31.6 26.7941 30.7941 27.6 29.8 27.6C28.8059 27.6 28 26.7941 28 25.8C28 24.8059 28.8059 24 29.8 24C30.7941 24 31.6 24.8059 31.6 25.8ZM30.88 25.8C30.88 26.3965 30.3965 26.88 29.8 26.88C29.2035 26.88 28.72 26.3965 28.72 25.8C28.72 25.2035 29.2035 24.72 29.8 24.72C30.3965 24.72 30.88 25.2035 30.88 25.8Z" fill="#05BBC2"/>
<path fill-rule="evenodd" clip-rule="evenodd" d="M25.6 30.8C25.6 31.7941 24.7941 32.6 23.8 32.6C22.8059 32.6 22 31.7941 22 30.8C22 29.8059 22.8059 29 23.8 29C24.7941 29 25.6 29.8059 25.6 30.8ZM24.88 30.8C24.88 31.3965 24.3965 31.88 23.8 31.88C23.2035 31.88 22.72 31.3965 22.72 30.8C22.72 30.2035 23.2035 29.72 23.8 29.72C24.3965 29.72 24.88 30.2035 24.88 30.8Z" fill="#05BBC2"/>
<path fill-rule="evenodd" clip-rule="evenodd" d="M31.6 25.8C31.6 26.7941 30.7941 27.6 29.8 27.6C28.8059 27.6 28 26.7941 28 25.8C28 24.8059 28.8059 24 29.8 24C30.7941 24 31.6 24.8059 31.6 25.8ZM30.88 25.8C30.88 26.3965 30.3965 26.88 29.8 26.88C29.2035 26.88 28.72 26.3965 28.72 25.8C28.72 25.2035 29.2035 24.72 29.8 24.72C30.3965 24.72 30.88 25.2035 30.88 25.8Z" fill="#05BBC2"/>
<path fill-rule="evenodd" clip-rule="evenodd" d="M31.6 30.8C31.6 31.7941 30.7941 32.6 29.8 32.6C28.8059 32.6 28 31.7941 28 30.8C28 29.8059 28.8059 29 29.8 29C30.7941 29 31.6 29.8059 31.6 30.8ZM30.88 30.8C30.88 31.3965 30.3965 31.88 29.8 31.88C29.2035 31.88 28.72 31.3965 28.72 30.8C28.72 30.2035 29.2035 29.72 29.8 29.72C30.3965 29.72 30.88 30.2035 30.88 30.8Z" fill="#05BBC2"/>
<path fill-rule="evenodd" clip-rule="evenodd" d="M31.6 35.8C31.6 36.7941 30.7941 37.6 29.8 37.6C28.8059 37.6 28 36.7941 28 35.8C28 34.8059 28.8059 34 29.8 34C30.7941 34 31.6 34.8059 31.6 35.8ZM30.88 35.8C30.88 36.3965 30.3965 36.88 29.8 36.88C29.2035 36.88 28.72 36.3965 28.72 35.8C28.72 35.2035 29.2035 34.72 29.8 34.72C30.3965 34.72 30.88 35.2035 30.88 35.8Z" fill="#05BBC2"/>
<path fill-rule="evenodd" clip-rule="evenodd" d="M16 35.5C16 34.6716 16.7675 34 17.7143 34H22.2857C23.2325 34 24 34.6716 24 35.5V36.5C24 37.3284 23.2325 38 22.2857 38H17.7143C16.7675 38 16 37.3284 16 36.5V35.5ZM17.7143 35C17.3987 35 17.1429 35.2239 17.1429 35.5V36.5C17.1429 36.7761 17.3987 37 17.7143 37H22.2857C22.6013 37 22.8571 36.7761 22.8571 36.5V35.5C22.8571 35.2239 22.6013 35 22.2857 35H17.7143Z" fill="#05BBC2"/>
<path fill-rule="evenodd" clip-rule="evenodd" d="M25.9544 16.9167C25.8447 16.5286 25.5486 16.25 25.2 16.25V16H24.8V16.25C24.3582 16.25 24 16.6977 24 17.25C24 17.8023 24.3582 18.25 24.8 18.25V19.25C24.6261 19.25 24.4777 19.1112 24.4227 18.9167C24.3859 18.7865 24.2716 18.7183 24.1675 18.7643C24.0633 18.8103 24.0088 18.9531 24.0456 19.0833C24.1553 19.4714 24.4514 19.75 24.8 19.75V20H25.2V19.75C25.6418 19.75 26 19.3023 26 18.75C26 18.1977 25.6418 17.75 25.2 17.75V16.75C25.3738 16.75 25.5223 16.8888 25.5773 17.0833C25.6141 17.2135 25.7284 17.2817 25.8325 17.2357C25.9366 17.1897 25.9912 17.0469 25.9544 16.9167ZM24.8 16.75C24.5791 16.75 24.4 16.9739 24.4 17.25C24.4 17.5261 24.5791 17.75 24.8 17.75V16.75ZM25.2 19.25C25.4209 19.25 25.6 19.0261 25.6 18.75C25.6 18.4739 25.4209 18.25 25.2 18.25V19.25Z" fill="#05BBC2"/>
<path fill-rule="evenodd" clip-rule="evenodd" d="M28.9544 16.9167C28.8447 16.5286 28.5486 16.25 28.2 16.25V16H27.8V16.25C27.3582 16.25 27 16.6977 27 17.25C27 17.8023 27.3582 18.25 27.8 18.25V19.25C27.6261 19.25 27.4777 19.1112 27.4227 18.9167C27.3859 18.7865 27.2716 18.7183 27.1675 18.7643C27.0633 18.8103 27.0088 18.9531 27.0456 19.0833C27.1553 19.4714 27.4514 19.75 27.8 19.75V20H28.2V19.75C28.6418 19.75 29 19.3023 29 18.75C29 18.1977 28.6418 17.75 28.2 17.75V16.75C28.3738 16.75 28.5223 16.8888 28.5773 17.0833C28.6141 17.2135 28.7284 17.2817 28.8325 17.2357C28.9366 17.1897 28.9912 17.0469 28.9544 16.9167ZM27.8 16.75C27.5791 16.75 27.4 16.9739 27.4 17.25C27.4 17.5261 27.5791 17.75 27.8 17.75V16.75ZM28.2 19.25C28.4209 19.25 28.6 19.0261 28.6 18.75C28.6 18.4739 28.4209 18.25 28.2 18.25V19.25Z" fill="#05BBC2"/>
</svg>
