<svg width="48" height="48" viewBox="0 0 48 48" fill="none" xmlns="http://www.w3.org/2000/svg">
<rect width="48" height="48" rx="24" fill="white"/>
<path d="M31.401 22.9012C31.7329 22.5693 31.7329 22.0311 31.401 21.6991C31.0691 21.3672 30.5309 21.3672 30.1989 21.6991L24 27.8981L21.201 25.0991C20.8691 24.7672 20.3309 24.7672 19.9989 25.0991C19.667 25.4311 19.667 25.9693 19.9989 26.3012L24 30.3022L31.401 22.9012Z" fill="#05BBC2"/>
<path fill-rule="evenodd" clip-rule="evenodd" d="M35.9 16.3501V34.2001C35.9 35.6085 34.7584 36.7501 33.35 36.7501H18.05C16.6416 36.7501 15.5 35.6085 15.5 34.2001V10.4001C15.5 8.99178 16.6416 7.8501 18.05 7.8501H27.4L35.9 16.3501ZM27.4 17.2001C26.9305 17.2001 26.55 16.8196 26.55 16.3501V9.5501H18.05C17.5805 9.5501 17.2 9.93066 17.2 10.4001V34.2001C17.2 34.6696 17.5805 35.0501 18.05 35.0501H33.35C33.8195 35.0501 34.2 34.6696 34.2 34.2001V17.2001H27.4ZM28.25 11.1043L32.6459 15.5001H28.25V11.1043Z" fill="#05BBC2"/>
<path d="M13.7996 12.9502V35.9002C13.7996 37.3086 14.9412 38.4502 16.3496 38.4502H32.4996V40.1502H16.3496C14.0024 40.1502 12.0996 38.2474 12.0996 35.9002V12.9502H13.7996Z" fill="#05BBC2"/>
</svg>
