<svg width="48" height="48" viewBox="0 0 48 48" fill="none" xmlns="http://www.w3.org/2000/svg">
<rect width="48" height="48" rx="24" fill="white"/>
<path fill-rule="evenodd" clip-rule="evenodd" d="M10.7 39.675V11.625H9V40.525C9 40.9945 9.38056 41.375 9.85 41.375H38.75V39.675H10.7Z" fill="#05BBC2"/>
<path fill-rule="evenodd" clip-rule="evenodd" d="M37.7022 22.3691L29.2022 32.5691C28.9783 32.8379 28.6124 32.9419 28.2805 32.8313L18.6309 29.6148L10.5023 39.3691L9.19629 38.2808L17.6963 28.0808C17.9203 27.812 18.2861 27.7079 18.618 27.8185L28.2677 31.0351L36.3963 21.2808L37.7022 22.3691Z" fill="#05BBC2"/>
<path fill-rule="evenodd" clip-rule="evenodd" d="M28.7493 10.1251C28.1459 8.37881 26.5175 7.125 24.6 7.125V6H22.4V7.125C19.97 7.125 18 9.13976 18 11.625C18 14.1102 19.97 16.125 22.4 16.125V20.625C21.4438 20.625 20.6275 20.0005 20.3249 19.1251C20.1225 18.5392 19.494 18.2322 18.9212 18.4393C18.3484 18.6463 18.0482 19.2891 18.2507 19.8749C18.8541 21.6212 20.4825 22.875 22.4 22.875V24H24.6V22.875C27.03 22.875 29 20.8602 29 18.375C29 15.8898 27.03 13.875 24.6 13.875V9.375C25.5562 9.375 26.3725 9.99949 26.6751 10.8749C26.8775 11.4608 27.506 11.7678 28.0788 11.5607C28.6516 11.3537 28.9518 10.7109 28.7493 10.1251ZM22.4 9.375C21.1849 9.375 20.2 10.3823 20.2 11.625C20.2 12.8677 21.1849 13.875 22.4 13.875V9.375ZM24.6 20.625C25.8151 20.625 26.8 19.6177 26.8 18.375C26.8 17.1323 25.8151 16.125 24.6 16.125V20.625Z" fill="#05BBC2"/>
</svg>
