<svg width="48" height="48" viewBox="0 0 48 48" fill="none" xmlns="http://www.w3.org/2000/svg">
<rect width="48" height="48" rx="24" fill="white"/>
<path fill-rule="evenodd" clip-rule="evenodd" d="M14.9995 23.1002C14.9995 22.6031 15.4024 22.2002 15.8995 22.2002H32.0995C32.5966 22.2002 32.9995 22.6031 32.9995 23.1002V36.6002C32.9995 37.0973 32.5966 37.5002 32.0995 37.5002H15.8995C15.4024 37.5002 14.9995 37.0973 14.9995 36.6002V23.1002ZM16.7995 28.5002V31.2002H20.3995V28.5002H16.7995ZM16.7995 35.7002V33.0002H20.3995V35.7002H16.7995ZM22.1995 35.7002V33.0002H25.7995V35.7002H22.1995ZM27.5995 35.7002V33.0002H31.1995V35.7002H27.5995ZM27.5995 28.5002V31.2002H31.1995V28.5002H27.5995ZM22.1995 31.2002H25.7995V28.5002H22.1995V31.2002ZM16.7995 26.7002H31.1995V24.0002H16.7995V26.7002Z" fill="#05BBC2"/>
<path fill-rule="evenodd" clip-rule="evenodd" d="M11.3999 6.9C11.3999 6.40295 11.8028 6 12.2999 6H30.2999C30.5386 6 30.7675 6.09482 30.9363 6.2636L36.3363 11.6636C36.505 11.8324 36.5999 12.0613 36.5999 12.3V41.1C36.5999 41.5971 36.197 42 35.6999 42H12.2999C11.8028 42 11.3999 41.5971 11.3999 41.1V6.9ZM13.1999 7.8V40.2H34.7999V13.2H30.2999C29.8028 13.2 29.3999 12.7971 29.3999 12.3V7.8H13.1999ZM31.1999 9.07279V11.4H33.5271L31.1999 9.07279Z" fill="#05BBC2"/>
<path fill-rule="evenodd" clip-rule="evenodd" d="M21.8633 13.2917C21.5341 12.3216 20.6459 11.625 19.6 11.625V11H18.4V11.625C17.0745 11.625 16 12.7443 16 14.125C16 15.5057 17.0745 16.625 18.4 16.625V19.125C17.8784 19.125 17.4332 18.7781 17.2681 18.2917C17.1577 17.9662 16.8149 17.7957 16.5025 17.9107C16.19 18.0257 16.0263 18.3828 16.1367 18.7083C16.4659 19.6784 17.3541 20.375 18.4 20.375V21H19.6V20.375C20.9255 20.375 22 19.2557 22 17.875C22 16.4943 20.9255 15.375 19.6 15.375V12.875C20.1216 12.875 20.5668 13.2219 20.7319 13.7083C20.8423 14.0338 21.1851 14.2043 21.4975 14.0893C21.81 13.9743 21.9737 13.6172 21.8633 13.2917ZM18.4 12.875C17.7372 12.875 17.2 13.4346 17.2 14.125C17.2 14.8154 17.7372 15.375 18.4 15.375V12.875ZM19.6 19.125C20.2628 19.125 20.8 18.5654 20.8 17.875C20.8 17.1846 20.2628 16.625 19.6 16.625V19.125Z" fill="#05BBC2"/>
</svg>
