<svg width="48" height="48" viewBox="0 0 48 48" fill="none" xmlns="http://www.w3.org/2000/svg">
<rect width="48" height="48" rx="24" fill="white"/>
<path d="M37.9724 27.9747C39.1759 26.0853 39.9048 23.8642 39.9913 21.4791C39.997 21.3201 39.9999 21.1604 39.9999 21C39.9999 13.8203 34.1796 8 26.9999 8C24.4334 8 22.0406 8.74375 20.0252 10.0275C18.6578 10.1048 17.3335 10.3437 16.0713 10.7254C17.0118 9.72549 18.0879 8.85463 19.2704 8.14227C19.3125 8.1169 19.3547 8.09173 19.3971 8.06676C21.613 6.76136 24.1937 6.00916 26.9495 6.00008L26.9653 6.00004L26.9999 6C35.2842 6 41.9999 12.7157 41.9999 21C41.9999 21.1346 41.9982 21.2689 41.9946 21.4027L41.9933 21.4513C41.9187 23.9751 41.2207 26.3424 40.048 28.4045C40.0102 28.4709 39.9719 28.537 39.9332 28.6028C39.2072 29.8352 38.31 30.9547 37.2745 31.9286C37.6562 30.6664 37.8952 29.3422 37.9724 27.9747Z" fill="#05BBC2"/>
<path fill-rule="evenodd" clip-rule="evenodd" d="M25.7721 22.6668C25.2235 21.1145 23.7432 20 22 20V19H20V20C17.7909 20 16 21.7909 16 24C16 26.2091 17.7909 28 20 28V32C19.1307 32 18.3886 31.4449 18.1135 30.6668C17.9295 30.146 17.3582 29.8731 16.8375 30.0572C16.3167 30.2412 16.0438 30.8125 16.2279 31.3332C16.7765 32.8855 18.2568 34 20 34V35H22V34C24.2091 34 26 32.2091 26 30C26 27.7909 24.2091 26 22 26V22C22.8693 22 23.6114 22.5551 23.8865 23.3332C24.0705 23.854 24.6418 24.1269 25.1625 23.9428C25.6833 23.7588 25.9562 23.1875 25.7721 22.6668ZM20 22C18.8954 22 18 22.8954 18 24C18 25.1046 18.8954 26 20 26V22ZM22 32C23.1046 32 24 31.1046 24 30C24 28.8954 23.1046 28 22 28V32Z" fill="#05BBC2"/>
<path fill-rule="evenodd" clip-rule="evenodd" d="M36 27C36 35.2843 29.2843 42 21 42C12.7157 42 6 35.2843 6 27C6 18.7157 12.7157 12 21 12C29.2843 12 36 18.7157 36 27ZM34 27C34 34.1797 28.1797 40 21 40C13.8203 40 8 34.1797 8 27C8 19.8203 13.8203 14 21 14C28.1797 14 34 19.8203 34 27Z" fill="#05BBC2"/>
</svg>
