<svg width="48" height="48" viewBox="0 0 48 48" fill="none" xmlns="http://www.w3.org/2000/svg">
<path fill-rule="evenodd" clip-rule="evenodd" d="M23.871 16.5029H26.5003C27.0525 16.5029 27.5003 16.0552 27.5003 15.5029C27.5003 14.9506 27.0525 14.5029 26.5003 14.5029H23.871C23.5216 14.503 23.1151 14.56 22.7211 14.7523C21.2961 15.4476 20.4895 16.6497 20.0469 17.8209C19.8973 18.2165 19.7862 18.6158 19.7047 19.0029H21.7624C21.807 18.8436 21.8585 18.6846 21.9177 18.528C22.2396 17.6764 22.7627 16.9573 23.5981 16.5497C23.6446 16.527 23.7303 16.5029 23.871 16.5029ZM18.0003 20.0029C17.448 20.0029 16.9876 20.4588 17.1368 20.9906C17.7145 23.05 20.0633 24.6522 23.0003 24.9523V26.5105C22.3053 26.5275 21.5831 26.5829 20.9707 26.7612C20.4922 26.9005 19.9851 27.1393 19.5971 27.575C19.1909 28.0312 19.0002 28.6074 19.0002 29.25C19.0002 29.8932 19.1904 30.47 19.596 30.9272C19.9838 31.3641 20.4908 31.6038 20.9698 31.7437C21.2899 31.8372 21.6399 31.897 22.0002 31.9353V29.9217C21.8291 29.8972 21.6724 29.8653 21.5307 29.8239C21.2597 29.7448 21.1417 29.6558 21.092 29.5997C21.0601 29.5638 21.0002 29.4833 21.0002 29.25C21.0002 29.0191 21.0596 28.9401 21.0909 28.905C21.1404 28.8493 21.2583 28.7605 21.5298 28.6814C21.9137 28.5697 22.4076 28.5277 23.0003 28.5121V29.9938L23.0002 31.9954L23.0003 34.0029H20.0003V36.0029H28.0003V34.0029H25.0003V28.4661C26.102 28.3797 26.995 28.1376 27.6669 27.7046C28.6125 27.0953 29.0002 26.1881 29.0002 25.2252C29.0002 24.7019 28.8855 24.199 28.6294 23.7536C29.7542 23.0448 30.5576 22.0819 30.8637 20.9906C31.0129 20.4588 30.5525 20.0029 30.0003 20.0029H18.0003ZM26.5835 26.0235C26.3002 26.2061 25.8091 26.3795 25.0003 26.4584V24.9523C25.6207 24.8889 26.2149 24.7674 26.7717 24.5957C26.9365 24.7528 27.0002 24.9436 27.0002 25.2252C27.0002 25.5956 26.888 25.8272 26.5835 26.0235Z" fill="#05BBC2"/>
<path fill-rule="evenodd" clip-rule="evenodd" d="M32 32H42V16H32V6H16V16H6V32H16V42H32V32ZM30 40V30H40V18H30V8H18V18H8V30H18V40H30Z" fill="#05BBC2"/>
</svg>
