<svg width="48" height="48" viewBox="0 0 48 48" fill="none" xmlns="http://www.w3.org/2000/svg">
<path d="M7.5825 36.945C7.5825 37.3594 7.24687 37.694 6.83344 37.694H4.42781C4.01437 37.694 3.67875 37.3584 3.67875 36.945C3.67875 36.5316 4.01437 36.1959 4.42781 36.1959H6.8325C7.24687 36.195 7.5825 36.5306 7.5825 36.945ZM23.5031 36.195H21.0984C20.685 36.195 20.3494 36.5306 20.3494 36.944C20.3494 37.3575 20.685 37.6931 21.0984 37.6931H23.5031C23.9166 37.6931 24.2522 37.3575 24.2522 36.944C24.2522 36.5306 23.9166 36.195 23.5031 36.195ZM12.7641 21.0234H15.1659C15.5803 21.0234 15.915 20.6878 15.915 20.2744C15.915 19.8609 15.5794 19.5253 15.1659 19.5253H12.7641C12.3497 19.5253 12.015 19.8609 12.015 20.2744C12.015 20.6878 12.3506 21.0234 12.7641 21.0234ZM48 15.7481V34.9781C48 36.0056 47.1647 36.8409 46.1372 36.8409H34.8422V39.4134C34.8422 40.5197 33.9422 41.4197 32.8359 41.4197H18.6797C18.2044 41.4197 17.7666 41.2528 17.4225 40.9744C17.0784 41.2519 16.6416 41.4197 16.1653 41.4197H2.00906C0.900938 41.4197 0 40.5197 0 39.4134V25.2572C0 24.1509 0.900938 23.2509 2.00906 23.2509H8.40375C8.36156 23.0887 8.33625 22.9191 8.33625 22.7437V8.58749C8.33625 7.48124 9.23625 6.58124 10.3425 6.58124H24.4988C25.605 6.58124 26.505 7.48124 26.505 8.58749V22.7437C26.505 22.9191 26.4797 23.0887 26.4375 23.2509H31.2084V15.7491C31.2084 14.7216 32.0438 13.8862 33.0713 13.8862H35.2594C35.5575 13.4934 36.0197 13.2403 36.5391 13.2403H36.9938C37.3088 12.0422 38.3587 11.16 39.6028 11.16C40.8478 11.16 41.8997 12.0431 42.2147 13.2403H42.6694C43.1878 13.2403 43.6491 13.4934 43.9472 13.8862H46.1344C47.1637 13.8853 48 14.7215 48 15.7481ZM36.4106 14.925V16.0331C36.4106 16.14 36.4791 16.2187 36.5409 16.2187H42.6722C42.7322 16.2187 42.7997 16.1391 42.7997 16.0331V14.925C42.7997 14.8181 42.7322 14.7394 42.6722 14.7394H41.5641C41.1506 14.7394 40.815 14.4037 40.815 13.9903C40.815 13.2562 40.2722 12.6591 39.6056 12.6591C38.94 12.6591 38.3991 13.2562 38.3991 13.9903C38.3991 14.4047 38.0634 14.7394 37.65 14.7394H36.5419C36.4791 14.7384 36.4106 14.8181 36.4106 14.925ZM24.5822 29.4694L25.3125 28.9322C25.5769 28.7381 25.9369 28.7372 26.2003 28.9322L26.9334 29.4712V24.75H24.5813V29.4694H24.5822ZM16.245 12.8006L16.9781 12.2615C17.2425 12.0675 17.6025 12.0675 17.8659 12.2615L18.5963 12.7987V8.07936H16.2441V12.8006H16.245ZM10.3434 23.2509H16.1663H18.6806H24.5006C24.7762 23.2509 25.0078 23.0184 25.0078 22.7437V8.58749C25.0078 8.31186 24.7753 8.0803 24.5006 8.0803H20.0972V14.2828C20.0972 14.5659 19.9378 14.8237 19.6856 14.9512C19.5787 15.0056 19.4625 15.0319 19.3472 15.0319C19.1897 15.0319 19.0341 14.9822 18.9028 14.8856L17.4225 13.7962L15.9403 14.8856C15.7125 15.0534 15.4106 15.0778 15.1584 14.9503C14.9062 14.8228 14.7478 14.5641 14.7478 14.2819V8.07936H10.3444C10.0697 8.07936 9.83719 8.31186 9.83719 8.58655V22.7428C9.83531 23.0184 10.0678 23.2509 10.3434 23.2509ZM7.90875 29.4712L8.64188 28.9322C8.90625 28.7381 9.26531 28.7381 9.52969 28.9322L10.2628 29.4712V24.75H7.90875V29.4712ZM16.6734 39.4134V25.2572C16.6734 24.9816 16.4409 24.75 16.1663 24.75H11.7628V30.9525C11.7628 31.2347 11.6034 31.4934 11.3522 31.6209C11.2453 31.6753 11.1291 31.7016 11.0138 31.7016C10.8572 31.7016 10.7006 31.6528 10.5694 31.5562L9.08625 30.4659L7.60312 31.5553C7.37531 31.7231 7.07344 31.7475 6.82125 31.62C6.56906 31.4925 6.41062 31.2337 6.41062 30.9516V24.7491H2.00906C1.72781 24.7491 1.49906 24.9769 1.49906 25.2562V39.4125C1.49906 39.6928 1.72781 39.9197 2.00906 39.9197H16.1653C16.4409 39.9206 16.6734 39.6881 16.6734 39.4134ZM33.3441 36.8409H33.0731C32.0456 36.8409 31.2103 36.0056 31.2103 34.9781V24.7491H28.4334V30.9516C28.4334 31.2337 28.2741 31.4925 28.0228 31.62C27.9159 31.6744 27.7997 31.7006 27.6844 31.7006C27.5278 31.7006 27.3713 31.6519 27.24 31.5553L25.7578 30.4659L24.2775 31.5553C24.0497 31.7231 23.7469 31.7484 23.4947 31.6209C23.2425 31.4934 23.0831 31.2347 23.0831 30.9525V24.75H18.6797C18.3994 24.75 18.1725 24.9778 18.1725 25.2572V39.4134C18.1725 39.6937 18.4003 39.9206 18.6797 39.9206H32.8359C33.1106 39.9206 33.3431 39.6881 33.3431 39.4134V36.8409H33.3441ZM46.5009 15.7481C46.5009 15.5512 46.3341 15.3844 46.1372 15.3844H44.2978V16.0331C44.2978 16.9622 43.5684 17.7178 42.6712 17.7178H36.54C35.6419 17.7178 34.9106 16.9622 34.9106 16.0331V15.3844H33.0713C32.8744 15.3844 32.7075 15.5512 32.7075 15.7481V34.9781C32.7075 35.175 32.8744 35.3419 33.0713 35.3419H46.1353C46.3322 35.3419 46.4991 35.175 46.4991 34.9781V15.7481H46.5009ZM37.23 25.1156L35.9925 26.355L35.2894 25.6519C34.9969 25.3594 34.5225 25.3594 34.23 25.6519C33.9375 25.9444 33.9375 26.4187 34.23 26.7112L35.4628 27.9441C35.6034 28.0847 35.7938 28.1634 35.9925 28.1634C36.1912 28.1634 36.3825 28.0847 36.5222 27.9431L38.2894 26.1731C38.5819 25.8806 38.5819 25.4053 38.2884 25.1137C37.995 24.8222 37.5225 24.8222 37.23 25.1156ZM44.4497 25.7803H40.3575C39.9441 25.7803 39.6084 26.1159 39.6084 26.5294C39.6084 26.9428 39.9441 27.2784 40.3575 27.2784H44.4497C44.8631 27.2784 45.1987 26.9428 45.1987 26.5294C45.1987 26.1159 44.8631 25.7803 44.4497 25.7803ZM35.4637 22.7578C35.61 22.9041 35.8022 22.9772 35.9934 22.9772C36.1847 22.9772 36.3769 22.9041 36.5231 22.7578L38.2903 20.9906C38.5828 20.6981 38.5828 20.2237 38.2903 19.9312C37.9978 19.6387 37.5234 19.6387 37.2309 19.9312L35.9934 21.1687L35.2903 20.4656C34.9978 20.1731 34.5234 20.1731 34.2309 20.4656C33.9384 20.7581 33.9384 21.2325 34.2309 21.525L35.4637 22.7578ZM44.4497 20.5931H40.3575C39.9441 20.5931 39.6084 20.9287 39.6084 21.3422C39.6084 21.7556 39.9441 22.0912 40.3575 22.0912H44.4497C44.8631 22.0912 45.1987 21.7556 45.1987 21.3422C45.1987 20.9287 44.8631 20.5931 44.4497 20.5931ZM37.2309 30.3028L35.9934 31.5403L35.2903 30.8391C34.9978 30.5466 34.5225 30.5475 34.23 30.84C33.9375 31.1334 33.9384 31.6078 34.2309 31.9003L35.4637 33.1303C35.61 33.2766 35.8013 33.3487 35.9934 33.3487C36.1856 33.3487 36.3769 33.2756 36.5231 33.1294L38.2903 31.3622C38.5828 31.0697 38.5828 30.5953 38.2903 30.3028C37.9978 30.0094 37.5234 30.0094 37.2309 30.3028ZM44.4497 30.9675H40.3575C39.9441 30.9675 39.6084 31.3031 39.6084 31.7165C39.6084 32.13 39.9441 32.4656 40.3575 32.4656H44.4497C44.8631 32.4656 45.1987 32.13 45.1987 31.7165C45.1987 31.3031 44.8631 30.9675 44.4497 30.9675Z" fill="#05BBC2"/>
</svg>
