<svg width="48" height="48" viewBox="0 0 48 48" fill="none" xmlns="http://www.w3.org/2000/svg">
<g clip-path="url(#clip0_2993_23908)">
<path fill-rule="evenodd" clip-rule="evenodd" d="M6.81839 12.8638C6.36652 13.3157 6.36652 14.0483 6.81839 14.5002C7.27026 14.9521 8.00288 14.9521 8.45475 14.5002L9.27345 13.6815L13.3638 17.7719L10.0911 21.0447C9.63924 21.4966 9.63924 22.2293 10.0911 22.6811C10.5429 23.133 11.2755 23.133 11.7274 22.6811L13.3633 21.0452L15.4392 23.1211C15.9478 23.0414 16.4692 23 17.0002 23C17.4132 23 17.8203 23.0251 18.2202 23.0737L14.7775 19.631L20.1309 14.2774L31.9002 26.047L26.8243 31.123C26.9397 31.731 27.0002 32.3584 27.0002 33C27.0002 33.5311 26.9588 34.0525 26.879 34.5612L27.2729 34.9551C28.9504 36.6327 31.4018 37.0647 33.4779 36.2511L34.6363 37.4095C35.2422 38.0154 36.1003 38.2151 36.8725 38.0086L39.5457 40.6818C39.9975 41.1337 40.7301 41.1337 41.182 40.6818C41.6339 40.23 41.6339 39.4973 41.182 39.0454L38.5085 36.3718C38.7144 35.5999 38.5146 34.7423 37.9091 34.1367L36.7506 32.9783C37.5642 30.9021 37.1322 28.4507 35.4547 26.7731L21.5451 12.8632L23.1819 11.2264C23.6338 10.7745 23.6338 10.0418 23.1819 9.58995C22.7301 9.13807 21.9974 9.13808 21.5456 9.58995L18.2728 12.8627L14.1825 8.77229L15.0001 7.95462C15.452 7.50274 15.452 6.7701 15.0001 6.31822C14.5483 5.86634 13.8157 5.86634 13.3638 6.31822L6.81839 12.8638ZM32.7484 34.3883L34.8879 32.2488C35.4209 30.8901 35.1384 29.2853 34.0405 28.1873L33.5365 27.6834L28.1831 33.0369L28.6871 33.5409C29.785 34.6389 31.3897 34.9214 32.7484 34.3883ZM36.0505 35.9953L35.2266 35.1713C35.3041 35.1017 35.3801 35.0296 35.4547 34.9551C35.5292 34.8805 35.6013 34.8045 35.6709 34.727L36.4949 35.551C36.6176 35.6737 36.6176 35.8726 36.4949 35.9953C36.3722 36.118 36.1732 36.118 36.0505 35.9953ZM16.8587 14.277L12.7683 10.1865L10.6876 12.2673L14.778 16.3577L16.8587 14.277Z" fill="#05BBC2"/>
<path fill-rule="evenodd" clip-rule="evenodd" d="M14.2426 28.8284C14.7674 28.4808 15.3616 28.2296 16 28.1V27C15.4477 27 15 26.5523 15 26C15 25.4477 15.4477 25 16 25H18C18.5523 25 19 25.4477 19 26C19 26.5523 18.5523 27 18 27V28.1C18.6383 28.2296 19.2326 28.4808 19.7574 28.8284L20.5858 27.9999C20.1953 27.6094 20.1953 26.9763 20.5858 26.5857C20.9763 26.1952 21.6095 26.1952 22 26.5857L23.4142 27.9999C23.8048 28.3905 23.8048 29.0236 23.4142 29.4142C23.0237 29.8047 22.3905 29.8047 22 29.4142L21.1716 30.2426C21.5192 30.7674 21.7704 31.3616 21.9 32H23C23 31.4477 23.4477 31 24 31C24.5523 31 25 31.4477 25 32V34C25 34.5523 24.5523 35 24 35C23.4477 35 23 34.5523 23 34H21.9C21.7704 34.6384 21.5192 35.2326 21.1716 35.7574L22 36.5859C22.3905 36.1954 23.0237 36.1954 23.4142 36.5859C23.8048 36.9764 23.8048 37.6096 23.4142 38.0001L22 39.4143C21.6095 39.8048 20.9763 39.8048 20.5858 39.4143C20.1953 39.0238 20.1953 38.3906 20.5858 38.0001L19.7574 37.1716C19.2326 37.5192 18.6383 37.7704 18 37.9V39C18.5523 39 19 39.4477 19 40C19 40.5523 18.5523 41 18 41H16C15.4477 41 15 40.5523 15 40C15 39.4477 15.4477 39 16 39V37.9C15.3616 37.7704 14.7674 37.5192 14.2426 37.1716L13.4141 38.0001C13.8047 38.3906 13.8047 39.0238 13.4141 39.4143C13.0236 39.8048 12.3904 39.8048 11.9999 39.4143L10.5857 38.0001C10.1952 37.6096 10.1952 36.9764 10.5857 36.5859C10.9762 36.1954 11.6094 36.1954 11.9999 36.5859L12.8284 35.7574C12.4808 35.2326 12.2296 34.6384 12.1 34H11C11 34.5523 10.5523 35 10 35C9.44772 35 9 34.5523 9 34V32C9 31.4477 9.44772 31 10 31C10.5523 31 11 31.4477 11 32H12.1C12.2296 31.3616 12.4808 30.7674 12.8284 30.2426L12 29.4143C11.6095 29.8048 10.9763 29.8048 10.5858 29.4143C10.1953 29.0238 10.1953 28.3906 10.5858 28.0001L11.2835 27.3024L11.2929 27.2929L11.3023 27.2836L12 26.5859C12.3905 26.1954 13.0237 26.1954 13.4142 26.5859C13.8048 26.9764 13.8048 27.6096 13.4142 28.0001L14.2426 28.8284ZM14 33C14 31.3432 15.3431 30 17 30C18.6568 30 20 31.3432 20 33C20 34.6569 18.6568 36 17 36C15.3431 36 14 34.6569 14 33Z" fill="#05BBC2"/>
</g>
<defs>
<clipPath id="clip0_2993_23908">
<rect width="48" height="48" fill="white"/>
</clipPath>
</defs>
</svg>
