<svg width="60" height="60" viewBox="0 0 60 60" fill="none" xmlns="http://www.w3.org/2000/svg">
<rect width="60" height="60" rx="30" fill="white"/>
<path fill-rule="evenodd" clip-rule="evenodd" d="M29.999 7.5C21.0244 7.5 13.749 14.7754 13.749 23.75C13.749 30.5056 17.8715 36.2985 23.738 38.75H23.7504V38.7551C25.674 39.5571 27.7847 40 29.999 40C32.2142 40 34.326 39.5568 36.2504 38.754V38.75H36.26C42.1265 36.2985 46.249 30.5056 46.249 23.75C46.249 14.7754 38.9736 7.5 29.999 7.5ZM38.7504 40.3366C44.6969 37.1927 48.749 30.9445 48.749 23.75C48.749 13.3946 40.3544 5 29.999 5C19.6437 5 11.249 13.3946 11.249 23.75C11.249 30.9456 15.3024 37.1946 21.2504 40.3381V53.75C21.2504 54.211 21.5041 54.6346 21.9106 54.8521C22.317 55.0696 22.8102 55.0457 23.1937 54.7901L30.0004 50.2524L36.807 54.7901C37.1906 55.0457 37.6837 55.0696 38.0902 54.8521C38.4966 54.6346 38.7504 54.211 38.7504 53.75V40.3366ZM36.2504 41.4326C34.2951 42.1239 32.191 42.5 29.999 42.5C27.8081 42.5 25.7049 42.1243 23.7504 41.4336V51.4144L29.307 47.7099C29.7269 47.43 30.2739 47.43 30.6937 47.7099L36.2504 51.4144V41.4326ZM30.0004 15C25.1679 15 21.2504 18.9175 21.2504 23.75C21.2504 28.5825 25.1679 32.5 30.0004 32.5C34.8329 32.5 38.7504 28.5825 38.7504 23.75C38.7504 18.9175 34.8329 15 30.0004 15ZM18.7504 23.75C18.7504 17.5367 23.7872 12.5 30.0004 12.5C36.2136 12.5 41.2504 17.5367 41.2504 23.75C41.2504 29.9633 36.2136 35 30.0004 35C23.7872 35 18.7504 29.9633 18.7504 23.75Z" fill="#05BBC2"/>
<path d="M34.9995 21.5C35.2802 21.2359 35.2802 20.4622 34.9995 20.1981C34.7188 19.934 34.1157 19.934 33.835 20.1981L28.5932 25.1307L26.2265 22.9035C25.9458 22.6394 25.2802 22.6394 24.9995 22.9035C24.7188 23.1677 24.7189 23.7359 24.9996 24L28.5932 27.5L34.9995 21.5Z" fill="#05BBC2"/>
</svg>
