<svg width="100" height="61" viewBox="0 0 100 61" fill="none" xmlns="http://www.w3.org/2000/svg">
<g clip-path="url(#clip0_2149_24450)">
<path d="M28.1584 22.701C28.1584 23.9357 28.2913 24.9369 28.5239 25.671C28.7898 26.4052 29.1221 27.206 29.5874 28.0737C29.7536 28.3406 29.82 28.6076 29.82 28.8412C29.82 29.1749 29.6206 29.5086 29.1886 29.8423L27.0949 31.2439C26.7958 31.4441 26.4967 31.5442 26.2309 31.5442C25.8985 31.5442 25.5662 31.3773 25.2339 31.077C24.7686 30.5765 24.3698 30.0425 24.0375 29.5086C23.7051 28.9413 23.3728 28.3073 23.0073 27.5397C20.4151 30.6098 17.1582 32.1449 13.2367 32.1449C10.4451 32.1449 8.21853 31.344 6.59011 29.7422C4.96169 28.1404 4.13086 26.0047 4.13086 23.3351C4.13086 20.4986 5.12785 18.196 7.15507 16.4608C9.18229 14.7255 11.8742 13.8579 15.2972 13.8579C16.4271 13.8579 17.5903 13.958 18.8199 14.1248C20.0495 14.2917 21.3124 14.5587 22.6417 14.859V12.4229C22.6417 9.8868 22.11 8.11817 21.0797 7.08368C20.0163 6.0492 18.2217 5.54864 15.6627 5.54864C14.4996 5.54864 13.3032 5.68213 12.0736 5.98246C10.8439 6.28279 9.64755 6.64987 8.48439 7.11705C7.95266 7.35065 7.55387 7.48413 7.32124 7.55087C7.0886 7.61761 6.92244 7.65098 6.78951 7.65098C6.32424 7.65098 6.09161 7.31728 6.09161 6.6165V4.98135C6.09161 4.44742 6.15808 4.04697 6.32424 3.81338C6.49041 3.57979 6.78951 3.3462 7.25477 3.1126C8.41793 2.51194 9.81372 2.01138 11.4421 1.61093C13.0706 1.17712 14.7987 0.976897 16.6265 0.976897C20.5812 0.976897 23.4725 1.8779 25.3336 3.6799C27.1614 5.4819 28.0919 8.21828 28.0919 11.889V22.701H28.1584ZM14.6657 27.7733C15.7624 27.7733 16.8924 27.5731 18.0888 27.1727C19.2851 26.7722 20.3486 26.0381 21.2459 25.037C21.7776 24.4029 22.1764 23.7021 22.3758 22.9013C22.5752 22.1004 22.7082 21.1326 22.7082 19.998V18.5965C21.7444 18.3629 20.7142 18.1627 19.6507 18.0292C18.5873 17.8957 17.557 17.829 16.5268 17.829C14.3002 17.829 12.6718 18.2628 11.5751 19.1638C10.4784 20.0648 9.94665 21.3328 9.94665 23.0014C9.94665 24.5698 10.3454 25.7377 11.1763 26.5386C11.9739 27.3729 13.137 27.7733 14.6657 27.7733ZM41.3519 31.3773C40.7537 31.3773 40.3549 31.2772 40.0891 31.0436C39.8232 30.8434 39.5906 30.3762 39.3912 29.7422L31.5814 3.94686C31.382 3.27946 31.2823 2.84564 31.2823 2.61205C31.2823 2.07812 31.5482 1.77779 32.0799 1.77779H35.3367C35.9682 1.77779 36.4002 1.8779 36.6328 2.11149C36.8987 2.31171 37.0981 2.7789 37.2975 3.41294L42.8806 25.5042L48.065 3.41294C48.2312 2.74553 48.4306 2.31171 48.6964 2.11149C48.9623 1.91127 49.4276 1.77779 50.0258 1.77779H52.6844C53.3158 1.77779 53.7479 1.8779 54.0137 2.11149C54.2796 2.31171 54.5122 2.7789 54.6452 3.41294L59.896 25.7711L65.6453 3.41294C65.8447 2.74553 66.0773 2.31171 66.31 2.11149C66.5758 1.91127 67.0079 1.77779 67.6061 1.77779H70.6967C71.2285 1.77779 71.5276 2.04475 71.5276 2.61205C71.5276 2.7789 71.4943 2.94575 71.4611 3.14597C71.4279 3.3462 71.3614 3.61316 71.2285 3.98023L63.2193 29.7756C63.0199 30.443 62.7873 30.8768 62.5214 31.077C62.2555 31.2772 61.8235 31.4107 61.2585 31.4107H58.4005C57.7691 31.4107 57.337 31.3106 57.0712 31.077C56.8053 30.8434 56.5727 30.4096 56.4397 29.7422L51.2886 8.21828L46.1707 29.7088C46.0046 30.3762 45.8052 30.81 45.5393 31.0436C45.2734 31.2772 44.8082 31.3773 44.21 31.3773H41.3519ZM84.0564 32.2783C82.3283 32.2783 80.6002 32.0781 78.9385 31.6777C77.2769 31.2772 75.9808 30.8434 75.1167 30.3429C74.585 30.0425 74.2194 29.7088 74.0865 29.4085C73.9536 29.1082 73.8871 28.7744 73.8871 28.4741V26.7722C73.8871 26.0714 74.153 25.7377 74.6515 25.7377C74.8509 25.7377 75.0503 25.7711 75.2497 25.8379C75.4491 25.9046 75.7482 26.0381 76.0805 26.1716C77.2104 26.6721 78.44 27.0726 79.7361 27.3395C81.0655 27.6065 82.3616 27.74 83.6909 27.74C85.7846 27.74 87.413 27.3729 88.5429 26.6387C89.6728 25.9046 90.271 24.8367 90.271 23.4686C90.271 22.5342 89.9719 21.7667 89.3737 21.1326C88.7755 20.4986 87.6456 19.9313 86.0172 19.3974L81.1984 17.8957C78.7724 17.1282 76.9778 15.9936 75.8811 14.4919C74.7844 13.0236 74.2195 11.3885 74.2195 9.6532C74.2195 8.25165 74.5185 7.01694 75.1167 5.94909C75.7149 4.88124 76.5125 3.94686 77.5095 3.21271C78.5065 2.4452 79.6364 1.8779 80.9658 1.47745C82.2951 1.07701 83.6909 0.910156 85.1531 0.910156C85.8843 0.910156 86.6486 0.943527 87.3798 1.04364C88.1441 1.14375 88.842 1.27723 89.5399 1.41071C90.2046 1.57756 90.836 1.74442 91.4342 1.94464C92.0324 2.14486 92.4977 2.34508 92.83 2.54531C93.2952 2.81227 93.6276 3.07923 93.827 3.37957C94.0264 3.64653 94.1261 4.0136 94.1261 4.48079V6.0492C94.1261 6.74998 93.8602 7.11705 93.3617 7.11705C93.0958 7.11705 92.6638 6.98357 92.0989 6.71661C90.2046 5.84898 88.0776 5.41516 85.7181 5.41516C83.8238 5.41516 82.3283 5.7155 81.2981 6.34953C80.2679 6.98357 79.7361 7.95131 79.7361 9.3195C79.7361 10.2539 80.0685 11.0548 80.7331 11.6888C81.3978 12.3228 82.6274 12.9569 84.3888 13.5242L89.1079 15.0258C91.5006 15.7934 93.2288 16.8612 94.259 18.2294C95.2892 19.5976 95.7877 21.166 95.7877 22.9013C95.7877 24.3362 95.4886 25.6376 94.9237 26.7722C94.3255 27.9068 93.5279 28.9079 92.4976 29.7088C91.4674 30.5431 90.2378 31.1437 88.8088 31.5776C87.3133 32.0447 85.7513 32.2783 84.0564 32.2783Z" fill="#252F3E"/>
<path d="M90.3382 48.497C79.4045 56.606 63.5191 60.9108 49.8603 60.9108C30.718 60.9108 13.47 53.8029 0.44267 41.9897C-0.587555 41.0554 0.342971 39.7873 1.5726 40.5214C15.6634 48.7306 33.0443 53.7028 51.0234 53.7028C63.1535 53.7028 76.48 51.1666 88.743 45.9608C90.5708 45.1266 92.1328 47.1622 90.3382 48.497ZM94.8911 43.2912C93.4953 41.4892 85.6523 42.4236 82.0964 42.8574C81.0329 42.9909 80.8668 42.0565 81.8305 41.3557C88.0783 36.9508 98.3474 38.2189 99.5437 39.6872C100.74 41.1888 99.2114 51.5003 93.3624 56.4391C92.4651 57.2066 91.601 56.8062 91.9998 55.8051C93.3292 52.5014 96.2869 45.0598 94.8911 43.2912Z" fill="#FF9900"/>
</g>
<defs>
<clipPath id="clip0_2149_24450">
<rect width="99.9222" height="60" fill="white" transform="translate(0 0.910156)"/>
</clipPath>
</defs>
</svg>
