<svg width="60" height="60" viewBox="0 0 60 60" fill="none" xmlns="http://www.w3.org/2000/svg">
<rect width="60" height="60" rx="30" fill="white"/>
<path d="M25.5049 27.753C26.7482 27.753 27.7559 26.7452 27.7559 25.502C27.7559 24.2589 26.7482 23.251 25.5049 23.251C24.2617 23.251 23.2539 24.2589 23.2539 25.502C23.2539 26.7452 24.2617 27.753 25.5049 27.753Z" fill="#05BBC2"/>
<path fill-rule="evenodd" clip-rule="evenodd" d="M14.2618 37.5105V52.5H35.6522V44.3601H41.0184C41.3535 44.3601 41.6732 44.2941 41.9654 44.1745L38.989 41.8601H33.1522V50H16.7618V36.5022L16.0624 35.7763C14.0098 33.645 10.0001 28.6642 10 22.4688C9.99997 20.4306 10.7692 17.3106 13.0821 14.7318C15.1243 12.455 18.5487 10.4005 24.2539 10.0519V18.8659C21.1224 19.452 18.7525 22.1996 18.7525 25.5005C18.7525 29.2284 21.7751 32.2505 25.5039 32.2505C26.9229 32.2505 28.2397 31.8129 29.3265 31.0651L46.9149 44.7181C46.8879 44.8748 46.8737 45.0356 46.8737 45.1999C46.8737 46.7535 48.1333 48.013 49.6869 48.013C51.2405 48.013 52.5 46.7535 52.5 45.1999C52.5 43.6463 51.2405 42.3867 49.6869 42.3867C49.2205 42.3867 48.7806 42.5003 48.3934 42.7011L31.1004 29.2773C31.8295 28.1994 32.2554 26.8996 32.2554 25.5005C32.2554 22.1995 29.8854 19.452 26.7539 18.8659V10.0068C29.9324 10.0649 32.135 10.4915 33.8013 11.116C35.5665 11.7777 36.8748 12.715 38.1934 13.9377L38.3708 14.1021C39.6639 15.3005 40.0494 15.6578 40.2675 16.2389C41.8956 20.5759 44.1609 26.6059 45.5591 30.327H41.0184V33.9375L43.5184 35.8815V32.827H45.559C47.3053 32.827 48.5148 31.0856 47.9005 29.451C46.5025 25.7301 44.2364 19.6983 42.608 15.3603C42.1717 14.1983 41.3269 13.4222 40.2647 12.4469C40.1436 12.3357 40.0197 12.2219 39.8932 12.1046C36.939 9.36521 33.5737 7.5 25.9976 7.5C11.257 7.5 7.49994 17.344 7.5 22.4688C7.50009 29.6776 12.1039 35.27 14.2618 37.5105ZM25.5039 29.7505C27.8524 29.7505 29.7554 27.8472 29.7554 25.5005C29.7554 23.1538 27.8524 21.2505 25.5039 21.2505C23.1554 21.2505 21.2525 23.1538 21.2525 25.5005C21.2525 27.8472 23.1554 29.7505 25.5039 29.7505Z" fill="#05BBC2"/>
</svg>
