<svg width="60" height="60" viewBox="0 0 60 60" fill="none" xmlns="http://www.w3.org/2000/svg">
<rect width="60" height="60" rx="30" fill="white"/>
<path fill-rule="evenodd" clip-rule="evenodd" d="M13.375 49.5938V14.5312H11.25V50.6562C11.25 51.2431 11.7257 51.7188 12.3125 51.7188H48.4375V49.5938H13.375Z" fill="#05BBC2"/>
<path fill-rule="evenodd" clip-rule="evenodd" d="M47.1285 27.9615L36.5035 40.7115C36.2236 41.0475 35.7663 41.1775 35.3514 41.0393L23.2893 37.0186L13.1286 49.2115L11.4961 47.8511L22.1211 35.1011C22.4011 34.7651 22.8584 34.635 23.2733 34.7733L35.3353 38.794L45.4961 26.6011L47.1285 27.9615Z" fill="#05BBC2"/>
<path fill-rule="evenodd" clip-rule="evenodd" d="M46.0653 18.399L35.4403 31.149C35.1536 31.493 34.6819 31.6203 34.261 31.4673L23.2433 27.4608L13.0978 38.621L11.5254 37.1915L22.1504 25.504C22.4404 25.1851 22.8945 25.0729 23.2996 25.2202L34.2857 29.2151L44.4329 17.0386L46.0653 18.399Z" fill="#05BBC2"/>
<path fill-rule="evenodd" clip-rule="evenodd" d="M46.1111 27.6389H41.25V26.25H47.5V32.5H46.1111V27.6389Z" fill="#05BBC2"/>
<path fill-rule="evenodd" clip-rule="evenodd" d="M44.8611 17.6389H40V16.25H46.25V22.5H44.8611V17.6389Z" fill="#05BBC2"/>
</svg>
