<svg width="60" height="60" viewBox="0 0 60 60" fill="none" xmlns="http://www.w3.org/2000/svg">
<rect width="60" height="60" rx="30" fill="white"/>
<path fill-rule="evenodd" clip-rule="evenodd" d="M13.1 46.9V12.25H11V47.95C11 48.5299 11.4701 49 12.05 49H47.75V46.9H13.1Z" fill="#05BBC2"/>
<path fill-rule="evenodd" clip-rule="evenodd" d="M16.25 31.1501C16.25 30.5702 16.7201 30.1001 17.3 30.1001H23.6C24.1799 30.1001 24.65 30.5702 24.65 31.1501V47.9501C24.65 48.53 24.1799 49.0001 23.6 49.0001H17.3C16.7201 49.0001 16.25 48.53 16.25 47.9501V31.1501ZM18.35 32.2001V46.9001H22.55V32.2001H18.35Z" fill="#05BBC2"/>
<path fill-rule="evenodd" clip-rule="evenodd" d="M26.75 26.9499C26.75 26.37 27.2201 25.8999 27.8 25.8999H34.1C34.6799 25.8999 35.15 26.37 35.15 26.9499V47.9499C35.15 48.5298 34.6799 48.9999 34.1 48.9999H27.8C27.2201 48.9999 26.75 48.5298 26.75 47.9499V26.9499ZM28.85 27.9999V46.8999H33.05V27.9999H28.85Z" fill="#05BBC2"/>
<path fill-rule="evenodd" clip-rule="evenodd" d="M37.25 18.55C37.25 17.9701 37.7201 17.5 38.3 17.5H44.6C45.1799 17.5 45.65 17.9701 45.65 18.55V47.95C45.65 48.5299 45.1799 49 44.6 49H38.3C37.7201 49 37.25 48.5299 37.25 47.95V18.55ZM39.35 19.6V46.9H43.55V19.6H39.35Z" fill="#05BBC2"/>
</svg>
