<svg width="60" height="60" viewBox="0 0 60 60" fill="none" xmlns="http://www.w3.org/2000/svg">
<rect width="60" height="60" rx="30" fill="white"/>
<path d="M47.4662 34.9684C48.9706 32.6066 49.8817 29.8302 49.9898 26.8489C49.997 26.6501 50.0006 26.4505 50.0006 26.25C50.0006 17.2754 42.7252 10 33.7506 10C30.5425 10 27.5515 10.9297 25.0322 12.5344C23.323 12.631 21.6676 12.9296 20.0898 13.4067C21.2655 12.1569 22.6106 11.0683 24.0887 10.1778C24.1413 10.1461 24.1941 10.1147 24.2471 10.0835C27.017 8.4517 30.2428 7.51145 33.6876 7.5001L33.7073 7.50005L33.7506 7.5C44.106 7.5 52.5006 15.8946 52.5006 26.25C52.5006 26.4182 52.4985 26.5861 52.494 26.7534L52.4923 26.8141C52.3991 29.9689 51.5266 32.928 50.0607 35.5056C50.0135 35.5886 49.9656 35.6713 49.9172 35.7535C49.0097 37.294 47.8882 38.6934 46.5938 39.9108C47.071 38.333 47.3697 36.6778 47.4662 34.9684Z" fill="#05BBC2"/>
<path fill-rule="evenodd" clip-rule="evenodd" d="M32.2151 28.3335C31.5294 26.3931 29.679 25 27.5 25V23.75H25V25C22.2386 25 20 27.2386 20 30C20 32.7614 22.2386 35 25 35V40C23.9134 40 22.9858 39.3061 22.6419 38.3335C22.4119 37.6825 21.6977 37.3414 21.0469 37.5715C20.3959 37.8015 20.0547 38.5156 20.2849 39.1665C20.9706 41.1069 22.821 42.5 25 42.5V43.75H27.5V42.5C30.2614 42.5 32.5 40.2614 32.5 37.5C32.5 34.7386 30.2614 32.5 27.5 32.5V27.5C28.5866 27.5 29.5142 28.1939 29.8581 29.1665C30.0881 29.8175 30.8023 30.1586 31.4531 29.9285C32.1041 29.6985 32.4453 28.9844 32.2151 28.3335ZM25 27.5C23.6193 27.5 22.5 28.6193 22.5 30C22.5 31.3807 23.6193 32.5 25 32.5V27.5ZM27.5 40C28.8807 40 30 38.8807 30 37.5C30 36.1193 28.8807 35 27.5 35V40Z" fill="#05BBC2"/>
<path fill-rule="evenodd" clip-rule="evenodd" d="M45 33.75C45 44.1054 36.6054 52.5 26.25 52.5C15.8946 52.5 7.5 44.1054 7.5 33.75C7.5 23.3946 15.8946 15 26.25 15C36.6054 15 45 23.3946 45 33.75ZM42.5 33.75C42.5 42.7246 35.2246 50 26.25 50C17.2754 50 10 42.7246 10 33.75C10 24.7754 17.2754 17.5 26.25 17.5C35.2246 17.5 42.5 24.7754 42.5 33.75Z" fill="#05BBC2"/>
</svg>
