<svg width="60" height="60" viewBox="0 0 60 60" fill="none" xmlns="http://www.w3.org/2000/svg">
<rect width="60" height="60" rx="30" fill="white"/>
<path fill-rule="evenodd" clip-rule="evenodd" d="M35 20C35 22.7625 32.7625 25 30 25C27.2375 25 25 22.7625 25 20C25 17.2375 27.2375 15 30 15C32.7625 15 35 17.2375 35 20ZM32.5 20C32.5 21.3818 31.3818 22.5 30 22.5C28.6183 22.5 27.5 21.3818 27.5 20C27.5 18.6183 28.6183 17.5 30 17.5C31.3818 17.5 32.5 18.6183 32.5 20Z" fill="#05BBC2"/>
<path fill-rule="evenodd" clip-rule="evenodd" d="M22.5 21.875C22.5 24.9827 19.9827 27.5 16.875 27.5C13.7672 27.5 11.25 24.9827 11.25 21.875C11.25 18.7671 13.7672 16.25 16.875 16.25C19.9827 16.25 22.5 18.7671 22.5 21.875ZM20 21.875C20 23.6021 18.6021 25 16.875 25C15.1479 25 13.75 23.6021 13.75 21.875C13.75 20.1479 15.1479 18.75 16.875 18.75C18.6021 18.75 20 20.1479 20 21.875Z" fill="#05BBC2"/>
<path fill-rule="evenodd" clip-rule="evenodd" d="M5 36.8181C5 32.2841 13.3281 30 17.5 30C18.5015 30 19.7425 30.1316 21.0504 30.3944C22.6663 29.1369 25.8412 27.5 30 27.5C34.1588 27.5 37.3338 29.1369 38.9496 30.3944C40.2575 30.1316 41.4985 30 42.5 30C46.6719 30 55 32.2841 55 36.8181V45H5V36.8181ZM7.5 36.8181C7.5 36.5223 7.61735 36.1282 8.14024 35.6017C8.68596 35.0522 9.55032 34.4962 10.6867 33.9996C12.9727 33.0005 15.7568 32.5 17.5 32.5C19.2432 32.5 22.0273 33.0005 24.3134 33.9996C25.4496 34.4962 26.314 35.0522 26.8598 35.6017C27.3826 36.1282 27.5 36.5223 27.5 36.8181V42.5H7.5V36.8181ZM35.6885 31.3068C34.2905 30.6191 32.344 30 30 30C27.656 30 25.7095 30.6191 24.3115 31.3068C27.3619 32.4271 30 34.2663 30 36.8181C30 34.2663 32.6381 32.4271 35.6885 31.3068ZM33.1402 35.6017C32.6174 36.1282 32.5 36.5223 32.5 36.8181V42.5H52.5V36.8181C52.5 36.5223 52.3826 36.1282 51.8597 35.6017C51.314 35.0522 50.4496 34.4962 49.3134 33.9996C47.0272 33.0005 44.2433 32.5 42.5 32.5C40.7567 32.5 37.9727 33.0005 35.6866 33.9996C34.5504 34.4962 33.686 35.0522 33.1402 35.6017Z" fill="#05BBC2"/>
<path fill-rule="evenodd" clip-rule="evenodd" d="M43.125 27.5C46.2329 27.5 48.75 24.9827 48.75 21.875C48.75 18.7671 46.2329 16.25 43.125 16.25C40.0172 16.25 37.5 18.7671 37.5 21.875C37.5 24.9827 40.0172 27.5 43.125 27.5ZM43.125 25C44.8521 25 46.25 23.6021 46.25 21.875C46.25 20.1479 44.8521 18.75 43.125 18.75C41.3979 18.75 40 20.1479 40 21.875C40 23.6021 41.3979 25 43.125 25Z" fill="#05BBC2"/>
</svg>
