<svg width="60" height="60" viewBox="0 0 60 60" fill="none" xmlns="http://www.w3.org/2000/svg">
<rect width="60" height="60" rx="30" fill="white"/>
<path fill-rule="evenodd" clip-rule="evenodd" d="M11 11V40.75H34.7863V38.625H13.125V13.125H41.8125V15.3775H43.9375V11H11ZM43.9375 21.625C43.9375 22.7986 42.9861 23.75 41.8125 23.75C40.6389 23.75 39.6875 22.7986 39.6875 21.625C39.6875 20.4514 40.6389 19.5 41.8125 19.5C42.9861 19.5 43.9375 20.4514 43.9375 21.625ZM46.0625 21.625C46.0625 23.9722 44.1597 25.875 41.8125 25.875C39.4653 25.875 37.5625 23.9722 37.5625 21.625C37.5625 19.2778 39.4653 17.375 41.8125 17.375C44.1597 17.375 46.0625 19.2778 46.0625 21.625Z" fill="#05BBC2"/>
<path fill-rule="evenodd" clip-rule="evenodd" d="M36.5974 27.8186C37.1903 27.2531 37.9782 26.9375 38.7976 26.9375H43.1343C44.6897 26.9375 46.1379 27.4668 47.2538 28.5205C48.3276 29.5344 48.8857 30.8336 49.1143 32.0649C49.4735 34.0006 49.1012 36.1165 48.1867 37.9913V46.5938C48.1867 47.9758 47.127 49.127 45.7495 49.241C44.3722 49.355 43.1376 48.3937 42.9103 47.0304L42.343 43.6261L41.7756 47.0304C41.5484 48.3937 40.3137 49.355 38.9364 49.241C37.5591 49.127 36.4992 47.9758 36.4992 46.5938V40.2232C36.4991 40.2182 36.4991 40.2132 36.4991 40.2081V36.5985C36.0183 36.876 35.4693 37.0255 34.9054 37.0255H29.4844C27.724 37.0255 26.2969 35.5985 26.2969 33.838C26.2969 32.0777 27.724 30.6505 29.4844 30.6505H33.6289L36.5974 27.8186ZM38.6241 40.193C38.6242 40.198 38.6242 40.203 38.6242 40.2081V46.5938C38.6242 46.8702 38.8362 47.1003 39.1117 47.1232C39.3871 47.146 39.634 46.9537 39.6795 46.6811L40.7875 40.0334C40.8728 39.5211 41.3161 39.1456 41.8355 39.1456H42.8505C43.3699 39.1456 43.8131 39.5211 43.8986 40.0334L45.0064 46.6811C45.0519 46.9537 45.2988 47.146 45.5743 47.1232C45.8497 47.1003 46.0617 46.8702 46.0617 46.5938V37.7394C46.0617 37.5694 46.1025 37.4018 46.1808 37.2508C47.0013 35.6667 47.2994 33.9316 47.025 32.4527C46.8583 31.5545 46.4685 30.7016 45.7949 30.0656C45.1073 29.4163 44.1956 29.0625 43.1343 29.0625H38.798C38.5249 29.0625 38.2618 29.1677 38.0642 29.3562L34.7877 32.4818C34.5901 32.6703 34.3275 32.7755 34.0543 32.7755H29.4844C28.8977 32.7755 28.4219 33.2512 28.4219 33.838C28.4219 34.4248 28.8977 34.9005 29.4844 34.9005H34.9054C35.1785 34.9005 35.4412 34.7953 35.6388 34.6068L36.8283 33.4721C37.1359 33.1786 37.5889 33.0968 37.9798 33.2642C38.3706 33.4315 38.6241 33.8157 38.6241 34.2409V40.193Z" fill="#05BBC2"/>
</svg>
