<svg width="60" height="60" viewBox="0 0 60 60" fill="none" xmlns="http://www.w3.org/2000/svg">
<rect width="60" height="60" rx="30" fill="white"/>
<path d="M39.6961 18.5424C36.8101 15.8334 33.0337 14.478 29.0713 14.7318C21.9991 15.186 16.3183 20.8584 15.8569 27.9276C15.6157 31.6866 16.8307 35.3172 19.2841 38.1576C19.6471 38.5722 20.3797 39.735 21.2017 42.855C21.4135 43.665 21.7609 44.4114 22.2253 45.0876V49.0038C22.2253 51.3858 23.7139 53.4228 25.8079 54.2448C26.0011 55.7892 27.8029 57 30.0001 57C32.1487 57 33.9175 55.842 34.1755 54.3468C36.4147 53.6016 38.0359 51.4908 38.0359 49.0044V44.5638C38.3473 44.0148 38.5963 43.4286 38.7619 42.7992C39.5383 39.8022 40.2565 38.6748 40.6141 38.2698C42.9091 35.6808 44.1727 32.346 44.1727 28.8798C44.1733 24.981 42.5413 21.2124 39.6961 18.5424ZM35.6359 49.0044C35.6359 50.787 34.1857 52.2372 32.4031 52.2372H27.8581C26.0755 52.2372 24.6253 50.787 24.6253 49.0044V46.0314H35.6359V49.0044ZM38.8177 36.6792C37.9147 37.6992 37.1365 39.504 36.4399 42.192C36.3025 42.7122 36.0901 43.194 35.8063 43.6308H30.5977V35.0964C33.1405 34.6668 35.0857 32.4552 35.0857 29.7918C35.0857 26.8224 32.6701 24.4062 29.7001 24.4062C26.7301 24.4062 24.3145 26.8218 24.3145 29.7918C24.3145 32.4534 26.2567 34.6638 28.7971 35.0952V43.6308H24.1321C23.8585 43.209 23.6539 42.7458 23.5225 42.2448C22.7899 39.4638 21.9943 37.6098 21.0949 36.582C19.0603 34.227 18.0505 31.2078 18.2515 28.0818C18.6343 22.2138 23.3515 17.5032 29.2237 17.1264C32.5165 16.9188 35.6557 18.0408 38.0533 20.2914C40.4515 22.542 41.7727 25.5918 41.7727 28.8786C41.7733 31.7592 40.7239 34.5288 38.8177 36.6792ZM29.7001 33.3774C27.7231 33.3774 26.1145 31.7688 26.1145 29.7918C26.1145 27.8148 27.7231 26.2062 29.7001 26.2062C31.6771 26.2062 33.2857 27.8148 33.2857 29.7918C33.2857 31.7688 31.6771 33.3774 29.7001 33.3774ZM10.5061 27.5646H5.43547C4.83907 27.5646 4.35547 28.0482 4.35547 28.6446C4.35547 29.241 4.83907 29.7246 5.43547 29.7246H10.5061C11.1025 29.7246 11.5861 29.241 11.5861 28.6446C11.5861 28.0482 11.1025 27.5646 10.5061 27.5646ZM54.5647 27.5646H49.4941C48.8977 27.5646 48.4141 28.0482 48.4141 28.6446C48.4141 29.241 48.8977 29.7246 49.4941 29.7246H54.5647C55.1611 29.7246 55.6447 29.241 55.6447 28.6446C55.6447 28.0482 55.1617 27.5646 54.5647 27.5646ZM15.4519 41.6658L11.8663 45.2514C11.4445 45.6726 11.4445 46.3566 11.8663 46.7784C12.0775 46.9896 12.3535 47.0946 12.6301 47.0946C12.9061 47.0946 13.1827 46.989 13.3939 46.7784L16.9795 43.1928C17.4013 42.7716 17.4013 42.0876 16.9795 41.6658C16.5583 41.2446 15.8743 41.244 15.4519 41.6658ZM43.7845 15.9402C44.0605 15.9402 44.3371 15.8346 44.5483 15.624L48.1339 12.0384C48.5557 11.6172 48.5557 10.9332 48.1339 10.5114C47.7127 10.0902 47.0287 10.0896 46.6063 10.5114L43.0207 14.097C42.5989 14.5182 42.5989 15.2022 43.0207 15.624C43.2319 15.8352 43.5079 15.9402 43.7845 15.9402ZM28.9201 4.08V9.1506C28.9201 9.747 29.4037 10.2306 30.0001 10.2306C30.5965 10.2306 31.0801 9.747 31.0801 9.1506V4.08C31.0801 3.4836 30.5965 3 30.0001 3C29.4037 3 28.9201 3.4836 28.9201 4.08ZM44.5483 41.6658C44.1265 41.244 43.4425 41.244 43.0207 41.6658C42.5989 42.0876 42.5989 42.7716 43.0207 43.1928L46.6063 46.7784C46.8175 46.9896 47.0941 47.0946 47.3701 47.0946C47.6461 47.0946 47.9227 46.989 48.1339 46.7784C48.5557 46.3566 48.5557 45.6726 48.1339 45.2514L44.5483 41.6658ZM15.4519 15.624C15.6631 15.8352 15.9397 15.9402 16.2157 15.9402C16.4917 15.9402 16.7683 15.8346 16.9795 15.624C17.4013 15.2022 17.4013 14.5182 16.9795 14.097L13.3939 10.5114C12.9721 10.0896 12.2881 10.0896 11.8663 10.5114C11.4445 10.9332 11.4445 11.6172 11.8663 12.0384L15.4519 15.624Z" fill="#05BBC2"/>
</svg>
