<svg width="60" height="60" viewBox="0 0 60 60" fill="none" xmlns="http://www.w3.org/2000/svg">
<rect width="60" height="60" rx="30" fill="white"/>
<path fill-rule="evenodd" clip-rule="evenodd" d="M29.9391 32.4996C29.9591 32.4999 29.9791 32.5 29.9991 32.5H30.0141H30.0391C36.9426 32.5 42.5391 26.9035 42.5391 20C42.5391 13.0965 36.9426 7.5 30.0391 7.5L30.0141 7.50003L29.9991 7.5C29.9791 7.5 29.9591 7.50012 29.9391 7.50039C23.0816 7.5541 17.5391 13.1297 17.5391 20C17.5391 26.8703 23.0816 32.4459 29.9391 32.4996ZM39.9617 21.25H37.4621C37.3941 22.3919 37.2338 23.4886 36.9939 24.5193H38.9621C39.4716 23.5153 39.8166 22.4136 39.9617 21.25ZM37.1617 27.0193H36.2058C36.0211 27.4722 35.8188 27.9041 35.6008 28.3119C36.1643 27.9341 36.6872 27.5006 37.1617 27.0193ZM34.4157 24.5193C34.6883 23.5225 34.8776 22.4236 34.9571 21.25H31.2891V24.5193H34.4157ZM31.2891 27.0193H33.4562C33.3602 27.2043 33.2609 27.3823 33.1587 27.5526C32.5351 28.5919 31.8873 29.2335 31.2891 29.5976V27.0193ZM28.7891 24.5193V21.25H25.0411C25.1206 22.4236 25.3098 23.5225 25.5824 24.5193H28.7891ZM26.5421 27.0193H28.7891V29.6449C28.1689 29.2901 27.4909 28.6384 26.8396 27.5526C26.7373 27.3823 26.6381 27.2043 26.5421 27.0193ZM23.0042 24.5193C22.7644 23.4886 22.6042 22.3919 22.5361 21.25H20.1164C20.2616 22.4136 20.6066 23.5153 21.1161 24.5193H23.0042ZM22.9164 27.0193H23.7923C23.9643 27.4409 24.1513 27.844 24.3522 28.2266C23.8363 27.8694 23.3557 27.4648 22.9164 27.0193ZM37.4621 18.75C37.3941 17.6081 37.2338 16.5114 36.9939 15.4807H38.9621C39.4716 16.4847 39.8166 17.5864 39.9617 18.75H37.4621ZM37.1617 12.9807H36.2058C36.0211 12.5277 35.8188 12.0959 35.6008 11.6881C36.1643 12.0659 36.6872 12.4994 37.1617 12.9807ZM31.2891 12.9807H33.4562C33.3602 12.7957 33.2609 12.6178 33.1587 12.4474C32.5351 11.4081 31.8873 10.7664 31.2891 10.4024V12.9807ZM34.4157 15.4807H31.2891V18.75H34.9571C34.8776 17.5764 34.6883 16.4775 34.4157 15.4807ZM28.7891 10.3552V12.9807H26.5421C26.6381 12.7957 26.7373 12.6178 26.8396 12.4474C27.4909 11.3616 28.1689 10.7099 28.7891 10.3552ZM28.7891 15.4807H25.5824C25.3098 16.4775 25.1206 17.5764 25.0411 18.75H28.7891V15.4807ZM24.3522 11.7734C24.1513 12.156 23.9643 12.5591 23.7923 12.9807H22.9166C23.3557 12.5352 23.8363 12.1307 24.3522 11.7734ZM23.0042 15.4807H21.1161C20.6066 16.4847 20.2616 17.5864 20.1164 18.75H22.5361C22.6042 17.6081 22.7644 16.5114 23.0042 15.4807Z" fill="#05BBC2"/>
<path fill-rule="evenodd" clip-rule="evenodd" d="M10.9124 21.2509C9.61457 21.2201 8.31362 22.0166 7.89115 23.2564C7.7857 23.5659 7.72756 23.9709 7.68741 24.3404C7.64368 24.743 7.60982 25.2257 7.58355 25.7527C7.53091 26.8085 7.50632 28.0929 7.50108 29.37C7.49075 31.892 7.55547 34.5174 7.6468 35.3311C7.80672 36.7562 8.6262 38.0837 9.33917 39.2387L9.41857 39.3674C9.63481 39.7182 9.84893 40.0657 10.0588 40.4252C11.001 42.0392 12.0264 43.1266 12.9554 44.1117L12.9764 44.1341C13.4984 44.6876 13.982 45.202 14.4395 45.7761C14.0122 46.2246 13.75 46.8317 13.75 47.5V50C13.75 51.3807 14.8692 52.5 16.25 52.5H26.25C27.6307 52.5 28.75 51.3807 28.75 50V47.5C28.75 46.1782 27.7242 45.096 26.4252 45.006C26.2561 43.5862 26.0372 41.6685 26.0172 41.1224C25.9999 40.6527 25.8424 40.1936 25.6956 39.8447C25.5392 39.4731 25.3437 39.1087 25.1626 38.7997C24.9797 38.4875 24.7997 38.2117 24.6662 38.0147C24.5991 37.9157 24.5427 37.8352 24.5024 37.7784C24.4822 37.7499 24.4659 37.7274 24.4542 37.7112L24.4402 37.6919L24.436 37.686L24.4337 37.683L24.4204 37.6649L20.3666 32.553L20.3297 32.5141L20.3287 32.5131L20.3234 32.5072L20.2941 32.4756C20.2674 32.4462 20.2264 32.4007 20.1744 32.3414C20.0701 32.2224 19.923 32.0489 19.7571 31.8372C19.4185 31.4051 19.0316 30.8519 18.7616 30.2991C18.4764 29.7154 17.9369 29.1536 17.108 29.1117C16.4007 29.0759 15.8476 29.4505 15.5246 29.7391C15.3535 29.8919 15.191 30.0702 15.0417 30.2661C15.0226 30.0244 15.0039 29.7732 14.9845 29.5134L14.9784 29.4319C14.8557 27.7834 14.7074 25.7899 14.2232 24.1942C13.6564 22.3257 12.3954 21.286 10.9124 21.2509ZM23.4271 38.4241L24.4337 37.683C24.4336 37.6829 24.4335 37.6827 23.4271 38.4241ZM23.9069 45C23.7442 43.6255 23.5415 41.8287 23.5189 41.2141C23.5184 41.2095 23.5147 41.1747 23.4954 41.1044C23.474 41.0272 23.44 40.9301 23.3912 40.8141C23.2927 40.58 23.1554 40.3191 23.0056 40.0635C22.8579 39.8112 22.7092 39.5832 22.5969 39.4176C22.5411 39.3352 22.4952 39.2697 22.4641 39.2259L22.4314 39.1802L18.4719 34.1872L18.4485 34.1619C18.4109 34.1206 18.3581 34.0621 18.2936 33.9885C18.165 33.8416 17.9881 33.6329 17.7894 33.3794C17.5097 33.0225 17.1717 32.5579 16.8632 32.0382L16.8552 32.0529C16.7421 32.2607 16.68 32.4515 16.6607 32.5765C16.5926 33.02 16.6279 33.3249 16.6626 33.4902C16.6802 33.5744 16.6986 33.6262 16.706 33.6455L16.7074 33.649L18.9962 38.1961L16.8697 39.4946L16.8392 39.4529L16.7525 39.3335C16.6775 39.2301 16.5697 39.0812 16.4379 38.8981C16.1742 38.5321 15.8139 38.0282 15.4271 37.4779C14.6684 36.3977 13.7614 35.0726 13.3135 34.2784C12.9784 33.684 12.8232 32.8972 12.7245 32.1865C12.6214 31.4437 12.5571 30.5815 12.4934 29.7265L12.4914 29.6991C12.3612 27.9515 12.2262 26.2229 11.8309 24.92C11.6583 24.3507 11.4361 24.0645 11.2759 23.9259C11.1231 23.7936 10.9798 23.7531 10.8531 23.7501C10.5121 23.7421 10.2861 23.9794 10.2573 24.0636C10.2552 24.0716 10.2435 24.1144 10.2274 24.2067C10.2095 24.3089 10.191 24.443 10.1728 24.6105C10.1364 24.9455 10.1055 25.3749 10.0804 25.8772C10.0305 26.8799 10.0062 28.1222 10.0011 29.3802C9.99061 31.9287 10.0588 34.4074 10.1312 35.0524C10.2217 35.8589 10.7232 36.7196 11.5467 38.0556L11.55 38.0609C11.7631 38.4065 11.9917 38.7774 12.2179 39.1649C13.0086 40.5194 13.8617 41.429 14.7952 42.419L14.8157 42.4407C15.5117 43.1787 16.2661 43.9787 16.9787 45H23.9069ZM17.2501 31.5574C17.2501 31.5569 17.2455 31.5592 17.2361 31.5659C17.2454 31.5611 17.2501 31.5577 17.2501 31.5574ZM26.25 50V47.5H16.25V50H26.25Z" fill="#05BBC2"/>
<path fill-rule="evenodd" clip-rule="evenodd" d="M52.1089 23.2564C51.6864 22.0166 50.3855 21.2201 49.0876 21.2509C47.6046 21.286 46.3436 22.3257 45.7767 24.1942C45.2927 25.7899 45.1444 27.7832 45.0216 29.4317L45.0155 29.5134C44.9963 29.7732 44.9775 30.0244 44.9584 30.2661C44.809 30.0702 44.6465 29.8919 44.4755 29.7391C44.1525 29.4505 43.5993 29.0759 42.8921 29.1117C42.0631 29.1536 41.5237 29.7154 41.2385 30.2991C40.9684 30.8519 40.5815 31.4051 40.243 31.8372C40.0771 32.0489 39.93 32.2224 39.8256 32.3414C39.7738 32.4007 39.7327 32.4462 39.7059 32.4756L39.6768 32.5072L39.6712 32.5131L39.6702 32.5141L39.6335 32.553L35.5798 37.6649L35.5662 37.683L35.5641 37.686L35.5597 37.6919L35.5457 37.7112C35.5341 37.7274 35.5179 37.7499 35.4976 37.7784C35.4572 37.8352 35.401 37.9157 35.3338 38.0147C35.2003 38.2117 35.0204 38.4875 34.8374 38.7997C34.6564 39.1087 34.4608 39.4731 34.3044 39.8447C34.1576 40.1936 34.0001 40.6527 33.9829 41.1224C33.9628 41.6685 33.7439 43.5862 33.5748 45.006C32.2759 45.096 31.25 46.1782 31.25 47.5V50C31.25 51.3807 32.3694 52.5 33.75 52.5H43.75C45.1307 52.5 46.25 51.3807 46.25 50V47.5C46.25 46.8317 45.9878 46.2246 45.5606 45.7761C46.0181 45.202 46.5016 44.6876 47.0236 44.1341L47.0447 44.1117C47.9736 43.1266 48.999 42.0391 49.9412 40.4252C50.1511 40.0657 50.3652 39.7182 50.5815 39.3674L50.6609 39.2387C51.3739 38.0837 52.1934 36.7562 52.3532 35.3311C52.4446 34.5174 52.5092 31.892 52.499 29.37C52.4937 28.0929 52.4691 26.8085 52.4165 25.7527C52.3903 25.2257 52.3564 24.743 52.3126 24.3404C52.2725 23.9709 52.2144 23.5659 52.1089 23.2564ZM36.573 38.4241C35.5665 37.6827 35.5664 37.6829 35.5662 37.683L36.573 38.4241ZM43.0214 45C43.734 43.9787 44.4882 43.1787 45.1842 42.4407L45.2047 42.419C46.1382 41.429 46.9914 40.5194 47.7821 39.1649C48.0083 38.7776 48.2366 38.4071 48.4496 38.0616L48.4533 38.0556C49.2769 36.7196 49.7784 35.8589 49.8689 35.0524C49.9412 34.4074 50.0094 31.9287 49.999 29.3802C49.9939 28.1222 49.9696 26.8799 49.9196 25.8772C49.8945 25.3749 49.8636 24.9455 49.8273 24.6105C49.809 24.443 49.7905 24.3089 49.7726 24.2067C49.7565 24.1144 49.7449 24.0716 49.7428 24.0636C49.714 23.9794 49.4879 23.7421 49.1469 23.7501C49.0203 23.7531 48.877 23.7936 48.7241 23.9259C48.5639 24.0645 48.3418 24.3507 48.1691 24.92C47.7739 26.2229 47.6389 27.9515 47.5086 29.6991L47.5066 29.7265C47.4429 30.5815 47.3787 31.4437 47.2755 32.1865C47.1769 32.8972 47.0216 33.684 46.6865 34.2784C46.2388 35.0726 45.3317 36.3977 44.5729 37.4779C44.1861 38.0282 43.8258 38.5321 43.5623 38.8981C43.4304 39.0812 43.3225 39.2301 43.2475 39.3335L43.1607 39.4529L43.1302 39.4946L41.0038 38.1961L43.2926 33.649L43.2941 33.6455C43.3015 33.6262 43.3197 33.5744 43.3374 33.4902C43.3721 33.3249 43.4074 33.02 43.3392 32.5765C43.3201 32.4515 43.2579 32.2607 43.1448 32.0529L43.1367 32.0382C42.8282 32.5579 42.4903 33.0225 42.2106 33.3794C42.012 33.6329 41.835 33.8416 41.7064 33.9885C41.642 34.0621 41.5892 34.1206 41.5515 34.1619L41.5281 34.1872L37.5686 39.1802L37.536 39.2259C37.5049 39.2697 37.4589 39.3352 37.4031 39.4176C37.2908 39.5832 37.1423 39.8112 36.9944 40.0635C36.8448 40.3191 36.7072 40.58 36.6089 40.8141C36.56 40.9301 36.526 41.0272 36.5048 41.1044C36.4853 41.1747 36.4817 41.2095 36.4812 41.2141C36.4586 41.8287 36.2558 43.6255 36.0931 45H43.0214ZM42.7499 31.5574C42.7499 31.5569 42.7545 31.5592 42.7639 31.5659C42.7546 31.5611 42.75 31.5577 42.7499 31.5574ZM33.75 50V47.5H43.75V50H33.75Z" fill="#05BBC2"/>
</svg>
