<svg width="30" height="31" viewBox="0 0 30 31" fill="none" xmlns="http://www.w3.org/2000/svg">
<path d="M15 0.692139C6.71625 0.692139 0 7.40839 0 15.6921C0 23.9759 6.71625 30.6921 15 30.6921C23.2837 30.6921 30 23.9759 30 15.6921C30 7.40839 23.2837 0.692139 15 0.692139ZM23.3838 12.8259L13.9338 22.2759C13.6988 22.5109 13.3812 22.6421 13.05 22.6421C12.7187 22.6421 12.4 22.5109 12.1663 22.2759L7.85 17.9596C7.36125 17.4709 7.36125 16.6809 7.85 16.1921C8.33875 15.7034 9.12875 15.7034 9.6175 16.1921L13.05 19.6246L21.6162 11.0584C22.105 10.5696 22.895 10.5696 23.3838 11.0584C23.8725 11.5471 23.8725 12.3371 23.3838 12.8259Z" fill="#1AAAB0"/>
</svg>
