<svg width="48" height="48" viewBox="0 0 48 48" fill="none" xmlns="http://www.w3.org/2000/svg">
<g clip-path="url(#clip0_3084_19178)">
<rect width="48" height="48" rx="24" fill="white"/>
<path d="M48 0H0V48H48V0Z" fill="white"/>
<path fill-rule="evenodd" clip-rule="evenodd" d="M36.0539 15.5139C36.5156 15.5988 36.8211 16.0419 36.7362 16.5036C35.497 23.2428 32.5059 27.9159 28.2907 30.8869C24.0951 33.8441 18.7799 35.0499 12.9947 35.0499H9.5502C9.08076 35.0499 8.7002 34.6694 8.7002 34.1999C8.7002 33.7304 9.08076 33.3499 9.5502 33.3499H12.9947C18.5633 33.3499 23.4953 32.187 27.3113 29.4974C31.1076 26.8216 33.8923 22.5696 35.0642 16.1962C35.1491 15.7345 35.5922 15.429 36.0539 15.5139Z" fill="#05BBC2"/>
<path fill-rule="evenodd" clip-rule="evenodd" d="M36.4233 14.6749C36.659 14.7334 36.8584 14.8898 36.9713 15.1048L39.2026 19.3548C39.4208 19.7705 39.2607 20.2843 38.8451 20.5025C38.4294 20.7207 37.9156 20.5607 37.6974 20.145L35.9107 16.7418L32.9807 18.7509C32.5935 19.0165 32.0644 18.9178 31.799 18.5306C31.5335 18.1434 31.6321 17.6144 32.0193 17.3489L35.7381 14.7989C35.9383 14.6616 36.1877 14.6164 36.4233 14.6749Z" fill="#05BBC2"/>
<path fill-rule="evenodd" clip-rule="evenodd" d="M10.4002 8.69995V37.6H39.3002V39.3H9.5502C9.08076 39.3 8.7002 38.9194 8.7002 38.45V8.69995H10.4002Z" fill="#05BBC2"/>
<path fill-rule="evenodd" clip-rule="evenodd" d="M18.1118 9.32828C18.5141 8.92597 19.0598 8.69995 19.6287 8.69995H21.5717C22.1406 8.69995 22.6863 8.92597 23.0886 9.32828C23.4909 9.73058 23.7169 10.2762 23.7169 10.8452V13.2333H26.105C26.6739 13.2333 27.2196 13.4593 27.6219 13.8616C28.0242 14.2639 28.2502 14.8096 28.2502 15.3785V17.3214C28.2502 17.8903 28.0242 18.436 27.6219 18.8383C27.2196 19.2406 26.6739 19.4666 26.105 19.4666H23.7169V21.8547C23.7169 22.4236 23.4909 22.9693 23.0886 23.3716C22.6863 23.7739 22.1406 24 21.5717 24H19.6287C19.0598 24 18.5141 23.7739 18.1118 23.3716C17.7095 22.9693 17.4835 22.4236 17.4835 21.8547V19.4666H15.0954C14.5265 19.4666 13.9808 19.2406 13.5785 18.8383C13.1762 18.436 12.9502 17.8903 12.9502 17.3214V15.3785C12.9502 14.8096 13.1762 14.2639 13.5785 13.8616C13.9808 13.4593 14.5265 13.2333 15.0954 13.2333H17.4835V10.8452C17.4835 10.2762 17.7095 9.73058 18.1118 9.32828ZM19.6287 10.4C19.5107 10.4 19.3974 10.4469 19.314 10.5304C19.2304 10.6139 19.1835 10.7271 19.1835 10.8452V14.0833C19.1835 14.5527 18.803 14.9333 18.3335 14.9333H15.0954C14.9774 14.9333 14.8641 14.9802 14.7806 15.0637C14.6971 15.1472 14.6502 15.2604 14.6502 15.3785V17.3214C14.6502 17.4395 14.6971 17.5527 14.7806 17.6362C14.8641 17.7197 14.9774 17.7666 15.0954 17.7666H18.3335C18.803 17.7666 19.1835 18.1472 19.1835 18.6166V21.8547C19.1835 21.9728 19.2304 22.086 19.314 22.1696C19.3974 22.253 19.5107 22.3 19.6287 22.3H21.5717C21.6897 22.3 21.8029 22.253 21.8864 22.1696C21.97 22.086 22.0169 21.9728 22.0169 21.8547V18.6166C22.0169 18.1472 22.3974 17.7666 22.8669 17.7666H26.105C26.223 17.7666 26.3363 17.7197 26.4198 17.6362C26.5033 17.5527 26.5502 17.4395 26.5502 17.3214V15.3785C26.5502 15.2604 26.5033 15.1472 26.4198 15.0637C26.3363 14.9802 26.223 14.9333 26.105 14.9333H22.8669C22.3974 14.9333 22.0169 14.5527 22.0169 14.0833V10.8452C22.0169 10.7271 21.97 10.6139 21.8864 10.5304C21.8029 10.4469 21.6897 10.4 21.5717 10.4H19.6287Z" fill="#05BBC2"/>
</g>
<defs>
<clipPath id="clip0_3084_19178">
<rect width="48" height="48" rx="24" fill="white"/>
</clipPath>
</defs>
</svg>
