<svg width="48" height="48" viewBox="0 0 48 48" fill="none" xmlns="http://www.w3.org/2000/svg">
<rect width="48" height="48" rx="24" fill="white"/>
<path fill-rule="evenodd" clip-rule="evenodd" d="M17.4 16C17.4 16 17.8989 15.9339 18.6222 15.7445C20.5301 15.2449 24 13.8879 24 10.625C24 8.62297 22.347 7 20.3078 7H16.6922C14.653 7 13 8.62297 13 10.625C13 12.627 14.653 14.25 16.6922 14.25H17.4V16ZM18.6222 13.05H16.6922C15.328 13.05 14.2222 11.9643 14.2222 10.625C14.2222 9.28571 15.328 8.2 16.6922 8.2H20.3078C21.672 8.2 22.7778 9.28571 22.7778 10.625C22.7778 12.1748 21.673 13.207 20.1691 13.9191C19.6361 14.1715 19.096 14.3602 18.6222 14.498V13.05Z" fill="#05BBC2"/>
<path fill-rule="evenodd" clip-rule="evenodd" d="M10.5876 18.4075C10.5953 18.3704 10.6045 18.326 10.6162 18.2714C10.6704 18.0184 10.7597 17.6465 10.9434 17.28C11.1306 16.9067 11.421 16.5283 11.8763 16.2795C12.3301 16.0314 12.8992 15.9385 13.6026 16.0412C14.3789 16.1547 15.9386 16.4361 17.3162 17.2041C18.7022 17.9767 20.0001 19.3053 20 21.5187C20 22.6622 19.596 23.8891 19.2054 24.689C19.0174 25.0739 18.794 25.4412 18.5707 25.6394C18.5195 25.6849 18.4468 25.7412 18.3556 25.7814C17.8399 27.6441 16.2607 29 14.3925 29C12.6672 29 11.1884 27.8437 10.5661 26.1997L10.5534 26.2016L10.3698 25.9573C10.3699 25.9575 10.3698 25.9573 10.7693 25.5966L10.3698 25.9573L10.3691 25.9564L10.3681 25.955L10.3654 25.9514L10.3567 25.9396C10.3497 25.9299 10.3399 25.9165 10.3278 25.8993C10.3036 25.8651 10.2699 25.8164 10.2289 25.7543C10.1471 25.6303 10.0358 25.4523 9.91344 25.2303C9.67022 24.7888 9.37628 24.1603 9.18885 23.4271C9.00133 22.6935 8.91515 21.8337 9.11199 20.9467C9.30366 20.0831 9.75521 19.2331 10.5736 18.4746C10.5778 18.4548 10.5824 18.4328 10.5876 18.4075ZM11.457 25.576C11.878 26.9086 13.0333 27.8655 14.3925 27.8655C15.9075 27.8655 17.1692 26.6767 17.443 25.1038L17.501 25.125C17.4989 25.0916 17.4981 25.0595 17.4981 25.0294C17.4981 24.09 17.3792 23.4346 17.2682 23.0267C17.2436 22.9361 17.2192 22.8576 17.1966 22.7906L17.175 22.7914L17.1543 22.7922C16.879 22.8009 16.4882 22.7855 15.9993 22.695C15.1106 22.5306 13.9069 22.1199 12.49 21.1688C12.459 21.2449 12.4279 21.3304 12.3971 21.4257C12.2953 21.7407 12.212 22.1144 12.1398 22.5089C12.0761 22.8567 12.0237 23.2064 11.9744 23.535L11.955 23.6641C11.902 24.0161 11.8486 24.361 11.7863 24.6114C11.6781 25.0462 11.567 25.3547 11.457 25.576ZM10.7328 24.5197C10.5373 24.1476 10.3243 23.6633 10.1857 23.121C10.0312 22.5167 9.97431 21.8617 10.1179 21.2148C10.2576 20.5852 10.5958 19.923 11.2912 19.2959C11.4162 19.203 11.4733 19.0781 11.4887 19.0444L11.489 19.0438C11.5218 18.9719 11.5419 18.8992 11.5538 18.8528C11.5704 18.7879 11.5886 18.7002 11.6053 18.6199C11.6118 18.5885 11.6181 18.5582 11.6239 18.531C11.6729 18.3026 11.7369 18.0535 11.8507 17.8263C11.9612 17.6059 12.1128 17.4179 12.3384 17.2946C12.5655 17.1705 12.9162 17.0854 13.4658 17.1658C14.2181 17.2757 15.6325 17.5382 16.8469 18.2152C18.0529 18.8875 18.9648 19.9049 18.9648 21.5187C18.9648 22.262 18.7368 23.1067 18.4628 23.7738C18.4111 23.3392 18.3368 22.9838 18.2602 22.7024C18.1901 22.4446 18.1182 22.25 18.0607 22.1143C18.0319 22.0465 18.0068 21.9936 17.9873 21.9549C17.9775 21.9355 17.9692 21.9198 17.9625 21.9076L17.9538 21.8919L17.9504 21.886L17.949 21.8835L17.948 21.8819C17.9479 21.8816 17.9478 21.8814 17.5127 22.1887L17.9478 21.8814L17.7565 21.5562L17.4137 21.6319L17.4065 21.6333C17.3974 21.6348 17.3807 21.6376 17.3565 21.6407C17.3082 21.647 17.2301 21.6548 17.1243 21.6582C16.9128 21.6649 16.59 21.6538 16.1716 21.5764C15.3369 21.4219 14.1104 21.0013 12.6203 19.9138L12.2581 19.6494L11.9583 19.995C11.7112 20.2798 11.5435 20.6687 11.4212 21.0472C11.2958 21.4356 11.2011 21.8689 11.1248 22.2859C11.0573 22.6546 11.0018 23.0249 10.9528 23.3516L10.9336 23.4793C10.878 23.8485 10.833 24.1303 10.7875 24.3129C10.7688 24.3881 10.7505 24.4569 10.7328 24.5197ZM17.9175 24.7592L17.9195 24.7576L17.9175 24.7592ZM17.9195 24.7576L17.9191 24.7579L17.9195 24.7576ZM17.9191 24.7579L17.9175 24.7592L17.9191 24.7579Z" fill="#05BBC2"/>
<path fill-rule="evenodd" clip-rule="evenodd" d="M11.288 29.3664C11.1763 29.1856 11.0385 28.9623 10.8056 29.0054C7.95334 29.5328 5 31.0548 5 32.6728V35H24V32.6728C24 31.3983 22.1676 30.1835 19.9956 29.4672C19.9948 29.4659 19.994 29.4646 19.9932 29.4632C19.9908 29.4592 19.9884 29.4551 19.9859 29.4512L19.9684 29.4583C19.3912 29.2694 18.7906 29.1156 18.1944 29.0054C17.9291 28.9563 17.6548 29.2529 17.5344 29.4387H15.3894C14.9213 29.4388 14.6825 29.4387 14.4484 29.4387H14.435C14.1958 29.4387 13.9567 29.4386 13.4782 29.4387H11.3333C11.3186 29.416 11.3036 29.3916 11.288 29.3664ZM18.4071 29.9325C18.6377 29.9842 18.8673 30.0425 19.0939 30.1068C19.1002 30.2534 19.0865 30.4264 19.0569 30.6028C19.027 30.781 18.9825 30.9519 18.933 31.0898C18.9263 31.1084 18.9197 31.1261 18.9131 31.1428H18.1944C17.9945 31.1428 17.8118 31.2345 17.7224 31.3797L17.1946 32.2369C17.1579 32.2964 17.1389 32.362 17.1389 32.4286V33.2857C17.1389 33.5224 17.3752 33.7143 17.6667 33.7143H18.7222V32.8571H18.1944V32.5297L18.5206 32H19.9794L20.3056 32.5297V32.8571H19.7778V33.7143H20.8333C21.1248 33.7143 21.3611 33.5224 21.3611 33.2857V32.4286C21.3611 32.362 21.3421 32.2964 21.3054 32.2369L20.7776 31.3797C20.6882 31.2345 20.5055 31.1428 20.3056 31.1428H20.0066C20.0457 31.0079 20.0785 30.8636 20.1028 30.7186C20.1174 30.6316 20.1293 30.5426 20.1376 30.4535C20.6521 30.651 21.1307 30.8773 21.5446 31.1226C22.5593 31.7238 22.9444 32.2858 22.9444 32.6728V34.1429H6.05556V32.6728C6.05556 32.2858 6.44069 31.7238 7.45538 31.1226C7.96532 30.8205 8.57332 30.547 9.22597 30.3208C9.23278 30.4535 9.24851 30.5883 9.27041 30.7186C9.30646 30.9333 9.36092 31.1462 9.42684 31.3298L9.43122 31.3419C8.98842 31.5698 8.69444 31.9713 8.69444 32.4286C8.69444 33.1387 9.4033 33.7143 10.2778 33.7143C11.1523 33.7143 11.8611 33.1387 11.8611 32.4286C11.8611 31.7695 11.2505 31.2263 10.4636 31.1516C10.4559 31.1323 10.448 31.1117 10.4402 31.0898C10.3907 30.9519 10.3462 30.781 10.3163 30.6028C10.2863 30.4241 10.2727 30.2487 10.2795 30.1009C10.2812 30.0651 10.2839 30.0332 10.2874 30.005C10.3507 29.9892 10.4142 29.9738 10.4777 29.9589L10.6961 30.2959H13.4784C13.9676 30.2958 14.2031 30.2958 14.4417 30.2959C14.6749 30.2959 14.9109 30.2959 15.3894 30.2959H18.1715L18.4071 29.9325ZM10.2778 32.8634C10.5619 32.8634 10.8056 32.6747 10.8056 32.4286C10.8056 32.1825 10.5619 31.9937 10.2778 31.9937C9.99362 31.9937 9.75 32.1825 9.75 32.4286C9.75 32.6747 9.99362 32.8634 10.2778 32.8634Z" fill="#05BBC2"/>
<path fill-rule="evenodd" clip-rule="evenodd" d="M26 35.5C26 32.6862 30.7177 32 33.5 32C36.2823 32 41 32.6862 41 35.5V39H26V35.5ZM27.2366 37.8333L27.2111 35.6478C27.2111 35.628 27.2111 34.9167 27.2111 34.9167C27.5342 34.614 28.1367 34.0541 28.8846 33.75C30.3841 33.1402 32.4411 33.1667 33.5861 33.1667C34.731 33.1667 36.6159 33.1402 38.1154 33.75C38.8633 34.0541 39.638 34.5912 39.9611 34.8939C39.9611 34.9167 39.9611 35.4593 39.9611 35.6478L39.9356 37.8333H27.2366Z" fill="#05BBC2"/>
<path fill-rule="evenodd" clip-rule="evenodd" d="M27.75 23.7035C28.4818 23.9245 29 24 29 24V22.25H29.2239C31.3094 22.25 33 20.627 33 18.625C33 16.623 31.3094 15 29.2239 15H26.7761C24.6906 15 23 16.623 23 18.625C23 21.8026 25.9916 23.1727 27.75 23.7035ZM29.2239 21.05H27.75V22.4374C27.3857 22.3114 26.9886 22.1497 26.5961 21.9452C25.2944 21.2672 24.25 20.2493 24.25 18.625C24.25 17.2857 25.3809 16.2 26.7761 16.2H29.2239C30.6191 16.2 31.75 17.2857 31.75 18.625C31.75 19.9643 30.6191 21.05 29.2239 21.05Z" fill="#05BBC2"/>
<path fill-rule="evenodd" clip-rule="evenodd" d="M37 26.5C37 28.433 35.433 30 33.5 30C31.567 30 30 28.433 30 26.5C30 24.567 31.567 23 33.5 23C35.433 23 37 24.567 37 26.5ZM35.6 26.5C35.6 27.6598 34.6598 28.6 33.5 28.6C32.3402 28.6 31.4 27.6598 31.4 26.5C31.4 25.3402 32.3402 24.4 33.5 24.4C34.6598 24.4 35.6 25.3402 35.6 26.5Z" fill="#05BBC2"/>
</svg>
