<svg width="48" height="48" viewBox="0 0 48 48" fill="none" xmlns="http://www.w3.org/2000/svg">
<rect width="48" height="48" rx="24" fill="white"/>
<path fill-rule="evenodd" clip-rule="evenodd" d="M32.4996 25.7C31.5602 25.7 30.7996 26.4606 30.7996 27.4C30.7996 28.3394 31.5602 29.1 32.4996 29.1C33.439 29.1 34.1996 28.3394 34.1996 27.4C34.1996 26.4606 33.439 25.7 32.4996 25.7ZM29.0996 27.4C29.0996 25.5217 30.6213 24 32.4996 24C34.3779 24 35.8996 25.5217 35.8996 27.4C35.8996 29.2783 34.3779 30.8 32.4996 30.8C30.6213 30.8 29.0996 29.2783 29.0996 27.4Z" fill="#05BBC2"/>
<path fill-rule="evenodd" clip-rule="evenodd" d="M27.6498 34.9369C27.4092 35.179 27.4002 35.3119 27.4002 35.359V37.5999H37.6002V35.359C37.6002 35.3119 37.5912 35.179 37.3506 34.9369C37.0946 34.679 36.6661 34.3975 36.0705 34.1373C34.87 33.6126 33.4019 33.3499 32.5002 33.3499C31.5985 33.3499 30.1304 33.6126 28.9299 34.1373C28.3343 34.3975 27.9058 34.679 27.6498 34.9369ZM32.5002 31.6499C30.2307 31.6499 25.7002 32.8924 25.7002 35.359V39.2999H39.3002V35.359C39.3002 32.8924 34.7697 31.6499 32.5002 31.6499Z" fill="#05BBC2"/>
<path fill-rule="evenodd" clip-rule="evenodd" d="M16.3504 35.8999C16.3504 36.3563 16.5035 36.7849 16.7732 37.0883C17.029 37.3761 17.4311 37.5999 18.0504 37.5999H26.5501L26.5503 39.2999H18.0504C16.9697 39.2999 16.0968 38.8862 15.5026 38.2178C14.9223 37.5649 14.6504 36.7185 14.6504 35.8999V31.6504L16.3504 31.6499V35.8999Z" fill="#05BBC2"/>
<path fill-rule="evenodd" clip-rule="evenodd" d="M15.5005 29.5981L20.3515 34.4492L19.1494 35.6512L15.5005 32.0023L11.8515 35.6512L10.6494 34.4492L15.5005 29.5981Z" fill="#05BBC2"/>
<path fill-rule="evenodd" clip-rule="evenodd" d="M12.1002 11.2502C12.1002 9.84187 13.2418 8.7002 14.6502 8.7002H21.4502C22.8586 8.7002 24.0002 9.84187 24.0002 11.2502V12.1002H27.4002V28.2502H8.7002V12.1002H12.1002V11.2502ZM12.1002 13.8002H10.4002V15.5002H12.1002V13.8002ZM12.1002 17.2002H10.4002V26.5502H14.6502V21.4502H21.4502V26.5502H25.7002V17.2002H24.0002V18.0502C24.0002 19.4586 22.8586 20.6002 21.4502 20.6002H14.6502C13.2418 20.6002 12.1002 19.4586 12.1002 18.0502V17.2002ZM24.0002 15.5002H25.7002V13.8002H24.0002V15.5002ZM19.7502 26.5502V23.1502H16.3502V26.5502H19.7502ZM14.6502 10.4002C14.1807 10.4002 13.8002 10.7808 13.8002 11.2502V18.0502C13.8002 18.5196 14.1807 18.9002 14.6502 18.9002H21.4502C21.9197 18.9002 22.3002 18.5196 22.3002 18.0502V11.2502C22.3002 10.7808 21.9197 10.4002 21.4502 10.4002H14.6502ZM17.2002 13.8002V11.2502H18.9002V13.8002H21.4502V15.5002H18.9002V18.0502H17.2002V15.5002H14.6502V13.8002H17.2002Z" fill="#05BBC2"/>
</svg>
