<svg width="48" height="48" viewBox="0 0 48 48" fill="none" xmlns="http://www.w3.org/2000/svg">
<rect width="48" height="48" rx="24" fill="white"/>
<path fill-rule="evenodd" clip-rule="evenodd" d="M10.325 37.675V9.625H8.625V38.525C8.625 38.9945 9.00556 39.375 9.475 39.375H38.375V37.675H10.325Z" fill="#05BBC2"/>
<path fill-rule="evenodd" clip-rule="evenodd" d="M37.3272 20.3691L28.8272 30.5691C28.6033 30.8379 28.2374 30.9419 27.9055 30.8313L18.2559 27.6148L10.1273 37.3691L8.82129 36.2808L17.3213 26.0808C17.5453 25.812 17.9111 25.7079 18.243 25.8185L27.8927 29.0351L36.0213 19.2808L37.3272 20.3691Z" fill="#05BBC2"/>
<path fill-rule="evenodd" clip-rule="evenodd" d="M36.4776 12.7192L27.9776 22.9192C27.7483 23.1944 27.3709 23.2962 27.0342 23.1738L18.22 19.9687L10.1036 28.8968L8.8457 27.7532L17.3457 18.4032C17.5777 18.148 17.941 18.0583 18.2651 18.1762L27.0539 21.3721L35.1717 11.6309L36.4776 12.7192Z" fill="#05BBC2"/>
</svg>
