<svg width="48" height="48" viewBox="0 0 48 48" fill="none" xmlns="http://www.w3.org/2000/svg">
<rect width="48" height="48" rx="24" fill="white"/>
<path fill-rule="evenodd" clip-rule="evenodd" d="M29.7109 27C30.8155 27 31.7109 26.1045 31.7109 25C31.7109 23.8954 30.8155 23 29.7109 23C28.6064 23 27.7109 23.8954 27.7109 25C27.7109 26.1045 28.6064 27 29.7109 27ZM29.7109 26C30.2632 26 30.7109 25.5523 30.7109 25C30.7109 24.4477 30.2632 24 29.7109 24C29.1586 24 28.7109 24.4477 28.7109 25C28.7109 25.5523 29.1586 26 29.7109 26Z" fill="#05BBC2"/>
<path d="M31.711 38.5001V36.4644L32.711 37.8929V38.5001C32.711 39.3128 32.0636 39.9778 31.2511 39.9995C30.7162 40.0138 30.2378 39.7459 29.961 39.3296C29.6841 39.7459 29.2057 40.0138 28.6708 39.9995C27.8583 39.9778 27.2109 39.3128 27.2109 38.5001V32.8211C26.9209 32.9774 26.5776 33.0396 26.2284 32.9752C25.4137 32.8251 24.875 32.0429 25.0251 31.2282C25.1419 30.5945 25.2602 30.0412 25.4092 29.5871C25.5561 29.1393 25.7793 28.6364 26.1972 28.2332C26.6527 27.7935 27.1771 27.6251 27.6252 27.5564C27.9949 27.4998 28.407 27.4999 28.7469 27.5H28.7658L30.1463 28.5001L28.7656 28.5C28.4036 28.4999 28.0635 28.5009 27.7766 28.5449C27.4568 28.5939 27.1511 28.7023 26.8916 28.9528C26.6442 29.1914 26.4852 29.5155 26.3594 29.8989C26.2328 30.2847 26.1242 30.7817 26.0085 31.4094C25.9585 31.681 26.1381 31.9417 26.4096 31.9918C26.6812 32.0418 26.9419 31.8622 26.992 31.5907C27.077 31.1293 27.1529 30.7703 27.2277 30.4889L28.2109 30.6174V38.5001C28.2109 38.771 28.4267 38.9926 28.6976 38.9999C28.9684 39.0071 29.1957 38.7974 29.2102 38.5268L29.4797 33.5001H30.4422L30.7117 38.5268C30.7262 38.7974 30.9535 39.0071 31.2244 38.9999C31.4952 38.9926 31.711 38.771 31.711 38.5001Z" fill="#05BBC2"/>
<path d="M30.1461 28.5H30.7105C30.7166 28.5 30.7231 28.5001 30.7291 28.5003L30.7327 28.5005L30.7363 28.5006C31.2332 28.511 31.6797 28.6826 32.0521 28.9642L32.5788 28.1024C32.0759 27.7418 31.4657 27.5162 30.7606 27.5008C30.7441 27.5003 30.7275 27.5 30.7108 27.5L28.7656 27.5L30.1461 28.5Z" fill="#05BBC2"/>
<path fill-rule="evenodd" clip-rule="evenodd" d="M36.2109 26.7853C37.3155 26.7853 38.2109 25.9379 38.2109 24.8927C38.2109 23.8474 37.3155 23 36.2109 23C35.1063 23 34.2109 23.8474 34.2109 24.8927C34.2109 25.9379 35.1063 26.7853 36.2109 26.7853ZM36.2109 25.839C36.7632 25.839 37.2109 25.4153 37.2109 24.8927C37.2109 24.37 36.7632 23.9463 36.2109 23.9463C35.6586 23.9463 35.2109 24.37 35.2109 24.8927C35.2109 25.4153 35.6586 25.839 36.2109 25.839Z" fill="#05BBC2"/>
<path fill-rule="evenodd" clip-rule="evenodd" d="M36.9504 27.7314C37.1655 27.7315 37.5408 27.754 37.9341 27.9414C38.5995 28.2584 38.9793 28.7776 39.2048 29.2362L39.2461 29.3201C39.3246 29.4793 39.3461 29.5228 39.3574 29.5689C39.3616 29.5863 39.3644 29.604 39.3683 29.6284C39.3752 29.6723 39.3855 29.7378 39.4138 29.8617C39.5014 30.2454 39.5035 30.2551 39.5534 30.4977C39.6011 30.7296 39.6944 31.1835 39.9583 32.4268C40.1213 33.1955 39.5951 33.9437 38.7829 34.098C38.6528 34.1227 38.5233 34.1307 38.3969 34.1235L38.8899 36.2936C38.9645 36.6999 38.7479 37.1435 38.2849 37.2998C37.8312 37.4529 37.0088 37.6678 35.961 37.6678C34.9132 37.6678 34.0908 37.4529 33.6371 37.2998C33.1741 37.1435 32.9575 36.6999 33.0321 36.2936L33.3017 34.8267C33.1754 34.8338 33.046 34.8259 32.9159 34.8012C32.1037 34.6468 31.5775 33.8986 31.7406 33.13C32.0043 31.887 32.0977 31.4332 32.1454 31.2012C32.1953 30.9587 32.1974 30.9485 32.2851 30.5648C32.3774 30.1606 32.5017 29.6749 32.7174 29.2363C32.943 28.7777 33.3227 28.2585 33.9881 27.9415C34.3814 27.754 34.7566 27.7316 34.9715 27.7315L36.7155 27.7315L36.7191 27.7315L36.9504 27.7314ZM36.9502 28.6778L36.7102 28.6779L36.7065 28.6778L34.9719 28.6778C34.8295 28.6779 34.6325 28.6939 34.4378 28.7867C34.0413 28.9756 33.7927 29.2927 33.6241 29.6356C33.459 29.9714 33.3532 30.3677 33.2625 30.7648C33.1763 31.142 33.1751 31.1478 33.1282 31.376L33.127 31.3816C33.0789 31.6155 32.9853 32.071 32.721 33.3163C32.6667 33.5725 32.8421 33.8219 33.1128 33.8734C33.2383 33.8972 33.3626 33.8745 33.4654 33.817L34.0585 30.73L35.0424 30.8993L34.7293 32.529L34.7413 32.5164L34.023 36.425C34.4096 36.5509 35.0943 36.7215 35.961 36.7215C36.8277 36.7215 37.5125 36.5509 37.899 36.425L37.1804 32.5146L37.1911 32.5205L36.8796 30.8993L37.8635 30.73L38.2484 33.1219C38.3482 33.1734 38.4665 33.1929 38.586 33.1702C38.8568 33.1188 39.0322 32.8694 38.9778 32.6131C38.7136 31.3679 38.6199 30.9123 38.5718 30.6784L38.5707 30.6729C38.5237 30.4446 38.5226 30.4389 38.4364 30.0616C38.3994 29.8997 38.397 29.8548 38.396 29.8357C38.3958 29.8306 38.3956 29.8274 38.3949 29.8242C38.3937 29.8185 38.3907 29.8132 38.3823 29.7981C38.37 29.7759 38.3459 29.7325 38.2982 29.6355C38.1296 29.2927 37.8809 28.9755 37.4844 28.7866C37.2898 28.6938 37.0926 28.6778 36.9502 28.6778Z" fill="#05BBC2"/>
<path d="M33.7109 39.2902V38.1411C34.3637 38.2262 34.9646 38.2787 35.552 38.2996L35.1802 39.4912C35.0747 39.8295 34.7226 40.0431 34.3536 39.9927C33.9847 39.9422 33.7109 39.643 33.7109 39.2902Z" fill="#05BBC2"/>
<path d="M36.7465 39.5054L36.3438 38.3084C36.9477 38.3005 37.5559 38.2589 38.2112 38.1846V39.2901C38.2112 39.64 37.9416 39.9377 37.5762 39.9914C37.2109 40.0452 36.8587 39.8388 36.7465 39.5054Z" fill="#05BBC2"/>
<path fill-rule="evenodd" clip-rule="evenodd" d="M14.8845 32.4793C14.8845 32.89 15.0223 33.2758 15.265 33.5488C15.4953 33.8079 15.8571 34.0093 16.4145 34.0093H24.0642L24.0644 35.5393H16.4145C15.4419 35.5393 14.6562 35.167 14.1215 34.5654C13.5992 33.9778 13.3545 33.2161 13.3545 32.4793V28.6548L14.8845 28.6543V32.4793Z" fill="#05BBC2"/>
<path fill-rule="evenodd" clip-rule="evenodd" d="M14.1198 26.8076L18.4858 31.1735L17.4039 32.2554L14.1198 28.9713L10.8358 32.2554L9.75391 31.1735L14.1198 26.8076Z" fill="#05BBC2"/>
<path fill-rule="evenodd" clip-rule="evenodd" d="M11.06 10.295C11.06 9.02751 12.0875 8 13.355 8H19.475C20.7425 8 21.77 9.02751 21.77 10.295V11.06H24.83V25.595H8V11.06H11.06V10.295ZM11.06 12.59H9.53V14.12H11.06V12.59ZM11.06 15.65H9.53V24.065H13.355V19.475H19.475V24.065H23.3V15.65H21.77V16.415C21.77 17.6825 20.7425 18.71 19.475 18.71H13.355C12.0875 18.71 11.06 17.6825 11.06 16.415V15.65ZM21.77 14.12H23.3V12.59H21.77V14.12ZM17.945 24.065V21.005H14.885V24.065H17.945ZM13.355 9.53C12.9325 9.53 12.59 9.87251 12.59 10.295V16.415C12.59 16.8375 12.9325 17.18 13.355 17.18H19.475C19.8975 17.18 20.24 16.8375 20.24 16.415V10.295C20.24 9.87251 19.8975 9.53 19.475 9.53H13.355ZM15.65 12.59V10.295H17.18V12.59H19.475V14.12H17.18V16.415H15.65V14.12H13.355V12.59H15.65Z" fill="#05BBC2"/>
</svg>
