<svg width="100" height="100" viewBox="0 0 100 100" fill="none" xmlns="http://www.w3.org/2000/svg">
<path d="M80.1581 19.7063C76.0371 19.642 72.4198 22.9482 72.4198 27.1721V39.6196C70.4996 39.5821 68.6771 40.3455 67.3999 41.6402C65.9548 43.0853 64.8152 44.2242 63.9168 45.1217C62.4933 46.5437 60.7305 47.6655 58.6773 48.4558C54.9874 49.876 52.5082 53.487 52.5082 57.4415V73.5838C52.3172 73.5838 48.4868 73.5838 47.4915 73.5838V57.4414C47.4915 53.4794 45.0064 49.8659 41.308 48.4495C39.2666 47.6679 37.5056 46.5458 36.0743 45.1143C32.3554 41.3954 32.2724 41.2509 31.5006 40.7443C30.3049 39.9654 28.9484 39.5861 27.58 39.6144V27.4238C27.58 23.4366 24.514 20.0578 20.5998 19.7316C16.2118 19.3658 12.5 22.8293 12.5 27.1721V50.0054C12.498 50.5038 12.5864 57.9394 19.3105 63.4262C23.5627 66.8958 24.3809 71.1869 24.4683 73.5838H20.6989C19.4861 73.5838 18.5028 74.5671 18.5028 75.7799V85.2965C18.5028 86.5093 19.4861 87.4926 20.6989 87.4926H79.3011C80.514 87.4926 81.4973 86.5093 81.4973 85.2965V75.7799C81.4973 74.5671 80.514 73.5838 79.3011 73.5838H75.5319C75.6193 71.1869 76.4375 66.8958 80.6895 63.4262C87.4136 57.9396 87.5019 50.5038 87.5 50.0054V27.2765C87.5 23.1692 84.2064 19.7732 80.1581 19.7063ZM22.0874 60.023C16.9605 55.8396 16.8927 50.2572 16.8923 50.0344C16.8926 50.0198 16.8924 41.4483 16.8924 27.1721C16.8924 25.3843 18.4113 23.9565 20.2354 24.1088C21.891 24.2467 23.1879 25.7029 23.1879 27.4238V41.3308C20.2243 43.9268 20.027 48.5286 22.8605 51.3642L30.1412 58.6451C30.9988 59.5028 32.3893 59.5028 33.247 58.6451C34.1047 57.7876 34.1047 56.397 33.247 55.5394L25.9668 48.259C24.7658 47.057 25.0723 44.9583 26.729 44.2192C27.3738 43.9366 28.0637 43.9551 28.6545 44.1896C29.2929 44.4457 29.3626 44.6142 32.9685 48.2201C34.8388 50.0905 37.1161 51.5477 39.7372 52.5513C41.7484 53.3216 43.0994 55.2867 43.0994 57.4414V73.5836H28.8553C28.7621 70.3277 27.7009 64.6035 22.0874 60.023ZM47.7845 83.1002H22.895V77.9759H47.7845V83.1002ZM77.105 83.1002H52.2156V77.9759H77.105V83.1002ZM83.1078 50.0217C83.1075 50.2572 83.0395 55.8396 77.9128 60.023C72.2993 64.6035 71.2381 70.3277 71.1449 73.5836H56.9006V57.4414C56.9006 55.2908 58.2486 53.327 60.2551 52.5548C62.8845 51.5427 65.161 50.0873 67.0211 48.2289C70.6285 44.6258 70.6487 44.53 71.155 44.2757C71.7889 43.9571 72.5653 43.9119 73.2644 44.2163C74.8808 44.9152 75.2663 47.025 74.0339 48.2583L66.753 55.5392C65.8954 56.3967 65.8954 57.7873 66.753 58.645C67.6106 59.5026 69.0012 59.5026 69.8588 58.645L77.1404 51.3635C79.9209 48.5807 79.8224 43.9732 76.8122 41.3272V27.1721C76.8122 25.4499 78.3813 24.0652 80.0855 24.098C81.752 24.1255 83.1078 25.5514 83.1078 27.2764V50.0217Z" fill="#05BBC2"/>
<path d="M48.4281 39.706C49.2856 40.5636 50.6762 40.5637 51.5339 39.706C65.0102 26.2297 63.3281 27.9039 63.4734 27.7667C66.9536 24.2781 66.9513 18.6084 63.4657 15.1229C59.9776 11.6348 54.3022 11.6351 50.8146 15.1229L49.9809 15.9564L49.1474 15.1229C45.6595 11.6348 39.9841 11.6348 36.4963 15.1229C33.0051 18.614 32.9947 24.2727 36.4963 27.7743L48.4281 39.706ZM39.602 18.2286C41.3775 16.4533 44.2662 16.4531 46.0417 18.2286L48.4281 20.6149C49.2856 21.4725 50.6762 21.4725 51.5339 20.6149L53.9203 18.2285C55.6957 16.4533 58.5843 16.4531 60.36 18.2285C62.1172 19.9858 62.1585 22.8645 60.3648 24.6633C60.3529 24.6781 58.3537 26.6744 49.9809 35.0472L39.6019 24.6683C37.8147 22.8809 37.8303 20.0005 39.602 18.2286Z" fill="#05BBC2"/>
</svg>
