<svg width="100" height="100" viewBox="0 0 100 100" fill="none" xmlns="http://www.w3.org/2000/svg">
<path d="M66.1598 30.904C61.3498 26.389 55.0558 24.13 48.4518 24.553C36.6648 25.31 27.1968 34.764 26.4278 46.546C26.0258 52.811 28.0508 58.862 32.1398 63.596C32.7448 64.287 33.9658 66.225 35.3358 71.425C35.6888 72.775 36.2678 74.019 37.0418 75.146V81.673C37.0418 85.643 39.5228 89.038 43.0128 90.408C43.3348 92.982 46.3378 95 49.9998 95C53.5808 95 56.5288 93.07 56.9588 90.578C60.6908 89.336 63.3928 85.818 63.3928 81.674V74.273C63.9118 73.358 64.3268 72.381 64.6028 71.332C65.8968 66.337 67.0938 64.458 67.6898 63.783C71.5148 59.468 73.6208 53.91 73.6208 48.133C73.6218 41.635 70.9018 35.354 66.1598 30.904ZM59.3928 81.674C59.3928 84.645 56.9758 87.062 54.0048 87.062H46.4298C43.4588 87.062 41.0418 84.645 41.0418 81.674V76.719H59.3928V81.674ZM64.6958 61.132C63.1908 62.832 61.8938 65.84 60.7328 70.32C60.5038 71.187 60.1498 71.99 59.6768 72.718H50.9958V58.494C55.2338 57.778 58.4758 54.092 58.4758 49.653C58.4758 44.704 54.4498 40.677 49.4998 40.677C44.5498 40.677 40.5238 44.703 40.5238 49.653C40.5238 54.089 43.7608 57.773 47.9948 58.492V72.718H40.2198C39.7638 72.015 39.4228 71.243 39.2038 70.408C37.9828 65.773 36.6568 62.683 35.1578 60.97C31.7668 57.045 30.0838 52.013 30.4188 46.803C31.0568 37.023 38.9188 29.172 48.7058 28.544C54.1938 28.198 59.4258 30.068 63.4218 33.819C67.4188 37.57 69.6208 42.653 69.6208 48.131C69.6218 52.932 67.8728 57.548 64.6958 61.132ZM49.4998 55.629C46.2048 55.629 43.5238 52.948 43.5238 49.653C43.5238 46.358 46.2048 43.677 49.4998 43.677C52.7948 43.677 55.4758 46.358 55.4758 49.653C55.4758 52.948 52.7948 55.629 49.4998 55.629ZM17.5098 45.941H9.05879C8.06479 45.941 7.25879 46.747 7.25879 47.741C7.25879 48.735 8.06479 49.541 9.05879 49.541H17.5098C18.5038 49.541 19.3098 48.735 19.3098 47.741C19.3098 46.747 18.5038 45.941 17.5098 45.941ZM90.9408 45.941H82.4898C81.4958 45.941 80.6898 46.747 80.6898 47.741C80.6898 48.735 81.4958 49.541 82.4898 49.541H90.9408C91.9348 49.541 92.7408 48.735 92.7408 47.741C92.7408 46.747 91.9358 45.941 90.9408 45.941ZM25.7528 69.443L19.7768 75.419C19.0738 76.121 19.0738 77.261 19.7768 77.964C20.1288 78.316 20.5888 78.491 21.0498 78.491C21.5098 78.491 21.9708 78.315 22.3228 77.964L28.2988 71.988C29.0018 71.286 29.0018 70.146 28.2988 69.443C27.5968 68.741 26.4568 68.74 25.7528 69.443ZM72.9738 26.567C73.4338 26.567 73.8948 26.391 74.2468 26.04L80.2228 20.064C80.9258 19.362 80.9258 18.222 80.2228 17.519C79.5208 16.817 78.3808 16.816 77.6768 17.519L71.7008 23.495C70.9978 24.197 70.9978 25.337 71.7008 26.04C72.0528 26.392 72.5128 26.567 72.9738 26.567ZM48.1998 6.8V15.251C48.1998 16.245 49.0058 17.051 49.9998 17.051C50.9938 17.051 51.7998 16.245 51.7998 15.251V6.8C51.7998 5.806 50.9938 5 49.9998 5C49.0058 5 48.1998 5.806 48.1998 6.8ZM74.2468 69.443C73.5438 68.74 72.4038 68.74 71.7008 69.443C70.9978 70.146 70.9978 71.286 71.7008 71.988L77.6768 77.964C78.0288 78.316 78.4898 78.491 78.9498 78.491C79.4098 78.491 79.8708 78.315 80.2228 77.964C80.9258 77.261 80.9258 76.121 80.2228 75.419L74.2468 69.443ZM25.7528 26.04C26.1048 26.392 26.5658 26.567 27.0258 26.567C27.4858 26.567 27.9468 26.391 28.2988 26.04C29.0018 25.337 29.0018 24.197 28.2988 23.495L22.3228 17.519C21.6198 16.816 20.4798 16.816 19.7768 17.519C19.0738 18.222 19.0738 19.362 19.7768 20.064L25.7528 26.04Z" fill="#05BBC2"/>
</svg>
