<svg width="100" height="100" viewBox="0 0 100 100" fill="none" xmlns="http://www.w3.org/2000/svg">
<path d="M83.5242 30.5985C83.4831 28.4387 83.4439 26.3982 83.4439 24.4243C83.4439 22.8778 82.1906 21.6241 80.6437 21.6241C68.6682 21.6241 59.5504 18.1824 51.9502 10.7929C50.863 9.73552 49.1328 9.73589 48.046 10.7929C40.4466 18.1824 31.3303 21.6241 19.3555 21.6241C17.809 21.6241 16.5553 22.8778 16.5553 24.4243C16.5553 26.3986 16.5164 28.4398 16.475 30.6C16.0912 50.7003 15.5655 78.2285 49.081 89.8457C49.3781 89.9487 49.688 90.0002 49.9979 90.0002C50.3078 90.0002 50.6181 89.9487 50.9149 89.8457C84.433 78.2282 83.908 50.6992 83.5242 30.5985ZM49.9983 84.2284C21.2544 73.7867 21.689 50.9127 22.0746 30.7068C22.0978 29.4941 22.1202 28.3188 22.1359 27.1666C33.3516 26.6932 42.3205 23.2945 49.9983 16.6061C57.6768 23.2945 66.6472 26.6936 77.8637 27.1666C77.8794 28.3184 77.9018 29.493 77.9249 30.705C78.3102 50.9116 78.7445 73.7863 49.9983 84.2284Z" fill="#05BBC2"/>
<path d="M59.6412 40.2726L46.126 53.7872L40.3587 48.0199C39.2651 46.9267 37.492 46.9267 36.3988 48.0199C35.3052 49.1138 35.3052 50.8865 36.3988 51.9801L44.146 59.7273C44.6926 60.2739 45.4095 60.5472 46.126 60.5472C46.8424 60.5472 47.5593 60.2739 48.1059 59.7273L63.6007 44.2329C64.6947 43.1393 64.6947 41.3662 63.6011 40.273C62.5079 39.1794 60.7348 39.1791 59.6412 40.2726Z" fill="#05BBC2"/>
</svg>
