<svg width="100" height="100" viewBox="0 0 100 100" fill="none" xmlns="http://www.w3.org/2000/svg">
<path d="M90.0371 52.375L77.4199 33.4492C76.9813 32.7911 76.2426 32.3957 75.4516 32.3957H50.2221C50.2206 32.3957 50.2188 32.3955 50.2172 32.3955C50.2157 32.3955 50.2139 32.3957 50.2124 32.3957H24.9829C24.1918 32.3957 23.4532 32.7911 23.0146 33.4492L10.3974 52.375C9.75029 53.3456 9.90738 54.6429 10.7672 55.4312L48.6188 90.1284C49.0708 90.5429 49.6441 90.7502 50.2172 90.7502C50.7904 90.7502 51.3637 90.5429 51.8158 90.1284L89.6674 55.4312C90.5273 54.6429 90.6842 53.3456 90.0371 52.375ZM42.0203 51.3214L50.2172 39.0262L58.4142 51.3214H42.0203ZM59.457 56.0529L50.2172 81.462L40.9775 56.0529H59.457ZM54.6377 37.1271H71.0312L62.8344 49.4221L54.6377 37.1271ZM37.6001 49.4221L29.4033 37.1271H45.7968L37.6001 49.4221ZM33.1798 51.3214H16.786L24.9829 39.0262L33.1798 51.3214ZM35.9431 56.0529L44.6909 80.1093L18.4475 56.0529H35.9431ZM64.4914 56.0529H81.987L55.7436 80.1093L64.4914 56.0529ZM67.2547 51.3214L75.4516 39.0262L83.6485 51.3214H67.2547Z" fill="#05BBC2"/>
<path d="M75.418 27.5393C76.0235 27.5393 76.629 27.3083 77.0908 26.8463L83.782 20.1551C84.7059 19.2314 84.7059 17.7334 83.782 16.8095C82.8582 15.8858 81.3603 15.8858 80.4364 16.8095L73.7452 23.5007C72.8213 24.4244 72.8213 25.9224 73.7452 26.8463C74.2071 27.3083 74.8126 27.5393 75.418 27.5393Z" fill="#05BBC2"/>
<path d="M50.2173 24.1943C51.5238 24.1943 52.583 23.1351 52.583 21.8286V12.3657C52.583 11.0592 51.5238 10 50.2173 10C48.9108 10 47.8516 11.0592 47.8516 12.3657V21.8286C47.8516 23.1351 48.9108 24.1943 50.2173 24.1943Z" fill="#05BBC2"/>
<path d="M23.3439 26.8481C23.8059 27.3101 24.4113 27.5411 25.0167 27.5411C25.622 27.5411 26.2276 27.3101 26.6894 26.8481C27.6133 25.9244 27.6133 24.4264 26.6894 23.5025L19.9985 16.8115C19.0747 15.8877 17.5768 15.8877 16.6529 16.8115C15.729 17.7352 15.729 19.2332 16.6529 20.1571L23.3439 26.8481Z" fill="#05BBC2"/>
</svg>
