<svg width="48" height="48" viewBox="0 0 48 48" fill="none" xmlns="http://www.w3.org/2000/svg">
<rect width="48" height="48" rx="24" fill="#05BBC2"/>
<path fill-rule="evenodd" clip-rule="evenodd" d="M10.3032 9.64081C8.68223 9.64081 7.36816 10.9705 7.36816 12.6108V30.4308C7.36816 32.0711 8.68223 33.4008 10.3032 33.4008H20.0867V35.3808H16.1732V37.3608H31.8269V35.3808H27.9136V33.4008H37.6971C39.3181 33.4008 40.6322 32.0711 40.6322 30.4308V12.6108C40.6322 10.9705 39.3181 9.64081 37.6971 9.64081H10.3032ZM22.0434 35.3808H25.9569V33.4008H22.0434V35.3808ZM9.32487 12.6108C9.32487 12.0641 9.76289 11.6208 10.3032 11.6208H37.6971C38.2374 11.6208 38.6755 12.0641 38.6755 12.6108V30.4308C38.6755 30.9775 38.2374 31.4208 37.6971 31.4208H10.3032C9.76289 31.4208 9.32487 30.9775 9.32487 30.4308V12.6108ZM16.1732 13.6008H14.2165V15.5808H12.2598V17.5608H14.2165V19.5408H16.1732V17.5608H18.13V15.5808H16.1732V13.6008ZM13.2382 21.5208C12.6978 21.5208 12.2597 21.964 12.2597 22.5108V26.4708C12.2597 27.0176 12.6978 27.4608 13.2382 27.4608H17.1516C17.6918 27.4608 18.1299 27.0176 18.1299 26.4708V22.5108C18.1299 21.964 17.6918 21.5208 17.1516 21.5208H13.2382ZM14.2165 25.4808V23.5008H16.1731V25.4808H14.2165ZM21.0653 14.5908C21.0653 14.044 21.5033 13.6008 22.0437 13.6008H25.957C26.4974 13.6008 26.9354 14.044 26.9354 14.5908V18.5508C26.9354 19.0976 26.4974 19.5408 25.957 19.5408H22.0437C21.5033 19.5408 21.0653 19.0976 21.0653 18.5508V14.5908ZM23.022 15.5808V17.5608H24.9787V15.5808H23.022ZM22.0437 21.5208C21.5033 21.5208 21.0653 21.964 21.0653 22.5108V26.4708C21.0653 27.0176 21.5033 27.4608 22.0437 27.4608H25.957C26.4974 27.4608 26.9354 27.0176 26.9354 26.4708V22.5108C26.9354 21.964 26.4974 21.5208 25.957 21.5208H22.0437ZM23.022 25.4808V23.5008H24.9787V25.4808H23.022ZM29.8703 14.5908C29.8703 14.044 30.3084 13.6008 30.8487 13.6008H34.7621C35.3024 13.6008 35.7405 14.044 35.7405 14.5908V18.5508C35.7405 19.0976 35.3024 19.5408 34.7621 19.5408H30.8487C30.3084 19.5408 29.8703 19.0976 29.8703 18.5508V14.5908ZM31.8271 15.5808V17.5608H33.7838V15.5808H31.8271Z" fill="white"/>
</svg>
