<svg width="48" height="48" viewBox="0 0 48 48" fill="none" xmlns="http://www.w3.org/2000/svg">
<rect width="48" height="48" rx="24" fill="#05BBC2"/>
<path d="M43.1998 14.3635V13.7576C43.1998 11.4762 41.3437 9.62012 39.0623 9.62012H8.93729C6.65584 9.62012 4.7998 11.4762 4.7998 13.7576V14.3635V14.368V34.2427C4.7998 36.524 6.65584 38.38 8.93729 38.38H39.0626C41.3438 38.38 43.1998 36.524 43.1998 34.2427V14.368C43.1998 14.3665 43.1998 14.365 43.1998 14.3635ZM8.93729 11.8701H39.0623C40.103 11.8701 40.9498 12.7168 40.9498 13.7576V13.7581L25.8825 23.803C24.8796 24.4716 23.1202 24.4715 22.1174 23.803L7.04982 13.7581V13.7575C7.04982 12.7168 7.8965 11.8701 8.93729 11.8701ZM39.0626 36.13H8.93729C7.8965 36.13 7.04982 35.2834 7.04982 34.2427V16.4622L20.8694 25.6751C21.7472 26.2603 22.8733 26.5529 23.9999 26.5529C25.1262 26.5529 26.2528 26.2603 27.1306 25.6751L40.9499 16.4622V34.2427C40.9498 35.2834 40.1032 36.13 39.0626 36.13Z" fill="white"/>
</svg>
