<svg width="60" height="60" viewBox="0 0 60 60" fill="none" xmlns="http://www.w3.org/2000/svg">
<rect width="60" height="60" rx="30" fill="white"/>
<path d="M46.0539 43.1659V39.3448C46.0539 38.6153 45.4625 38.0238 44.733 38.0238H38.2866V35.3518H40.3256C40.3463 35.3518 40.3669 35.3514 40.3874 35.3504C42.8256 35.317 45.1123 34.3463 46.8318 32.6135C48.5643 30.8676 49.5185 28.5515 49.5185 26.0916C49.5185 21.032 45.4394 16.9071 40.3972 16.8324C39.866 11.5983 35.4334 7.5 30.0615 7.5C25.7441 7.5 21.886 10.1955 20.3611 14.1643C14.9081 14.6007 10.6045 19.1777 10.6045 24.741C10.6045 30.5918 15.3645 35.3517 21.2153 35.3517C21.2283 35.3517 21.2413 35.3517 21.2544 35.3515C21.2637 35.3517 21.2731 35.3517 21.2825 35.3517H21.6882V38.0237H15.2419C14.5124 38.0237 13.9209 38.6152 13.9209 39.3447V43.1658C11.9365 43.74 10.481 45.572 10.481 47.739C10.481 50.3642 12.6167 52.4999 15.2419 52.4999C17.867 52.4999 20.0028 50.3641 20.0028 47.739C20.0028 45.5721 18.5471 43.74 16.5628 43.1658V40.6656H23.0093C23.7388 40.6656 24.3302 40.0742 24.3302 39.3447V35.3517H28.6665V43.1658C26.6821 43.74 25.2265 45.572 25.2265 47.739C25.2265 50.3642 27.3623 52.4999 29.9874 52.4999C32.6126 52.4999 34.7484 50.3641 34.7484 47.739C34.7484 45.5721 33.2927 43.74 31.3084 43.1658V35.3517H35.6447V39.3447C35.6447 40.0742 36.2361 40.6656 36.9656 40.6656H43.4121V43.1658C41.4277 43.74 39.9721 45.572 39.9721 47.739C39.9721 50.3642 42.1079 52.4999 44.733 52.4999C47.3581 52.4999 49.4939 50.3641 49.4939 47.739C49.494 45.5721 48.0383 43.7401 46.0539 43.1659ZM17.3609 47.7391C17.3609 48.9076 16.4103 49.8581 15.2419 49.8581C14.0735 49.8581 13.1228 48.9075 13.1228 47.7391C13.1228 46.5706 14.0735 45.6199 15.2419 45.6199C16.4103 45.6199 17.3609 46.5705 17.3609 47.7391ZM32.1065 47.7391C32.1065 48.9076 31.1559 49.8581 29.9874 49.8581C28.819 49.8581 27.8684 48.9075 27.8684 47.7391C27.8684 46.5706 28.819 45.6199 29.9874 45.6199C31.1559 45.6199 32.1065 46.5705 32.1065 47.7391ZM21.2749 32.7091L21.2152 32.7099C16.8211 32.7099 13.2463 29.135 13.2463 24.741C13.2463 20.3469 16.8211 16.7721 21.2152 16.7721L21.3094 16.7734C21.3146 16.7734 21.3198 16.7735 21.3251 16.7735C21.9175 16.7735 22.4384 16.3786 22.5975 15.8067C23.5258 12.4714 26.595 10.1419 30.0615 10.1419C34.3332 10.1419 37.8086 13.6172 37.8086 17.889C37.8086 17.9761 37.8067 18.0698 37.8024 18.184C37.7877 18.5755 37.9473 18.9532 38.2385 19.2152C38.5295 19.4773 38.9215 19.5967 39.3097 19.5412C39.6241 19.4962 39.9434 19.4733 40.2584 19.4733C43.9077 19.4733 46.8766 22.4423 46.8766 26.0916C46.8766 29.7104 43.9329 32.679 40.3145 32.7092C40.3026 32.7092 40.2907 32.7095 40.2787 32.71H21.3295C21.3115 32.7092 21.2941 32.7094 21.2749 32.7091ZM44.733 49.8581C43.5645 49.8581 42.614 48.9075 42.614 47.7391C42.614 46.5706 43.5646 45.6199 44.733 45.6199C45.9014 45.6199 46.8521 46.5706 46.8521 47.7391C46.8521 48.9075 45.9015 49.8581 44.733 49.8581Z" fill="#05BBC2"/>
</svg>
