<svg width="60" height="60" viewBox="0 0 60 60" fill="none" xmlns="http://www.w3.org/2000/svg">
<rect width="60" height="60" rx="30" fill="white"/>
<path d="M47 23.6962H36V17.1962C35.9984 15.8706 35.4711 14.5997 34.5338 13.6624C33.5964 12.725 32.3256 12.1978 31 12.1962H13C11.6744 12.1978 10.4036 12.725 9.46622 13.6624C8.52888 14.5997 8.00159 15.8706 8 17.1962V29.1962C8.00159 30.5218 8.52888 31.7926 9.46622 32.7299C10.4036 33.6673 11.6744 34.1946 13 34.1962V36.2862C12.9993 36.6807 13.1159 37.0665 13.3351 37.3945C13.5543 37.7226 13.8662 37.9779 14.231 38.1282C14.5974 38.2808 15.0009 38.3209 15.3902 38.2434C15.7795 38.1659 16.1369 37.9744 16.417 37.6932C16.4535 37.6581 16.487 37.6199 16.517 37.5792L19.005 34.1962H24V40.6962C24.0016 42.0218 24.5289 43.2926 25.4662 44.2299C26.4036 45.1673 27.6744 45.6946 29 45.6962H40.086L43.586 49.1962C43.8657 49.4758 44.222 49.6662 44.6099 49.7433C44.9978 49.8205 45.3999 49.7809 45.7653 49.6295C46.1307 49.4782 46.443 49.2219 46.6628 48.8931C46.8826 48.5643 46.9999 48.1777 47 47.7822V45.6962C48.3256 45.6946 49.5964 45.1673 50.5338 44.2299C51.4711 43.2926 51.9984 42.0218 52 40.6962V28.6962C51.9984 27.3706 51.4711 26.0997 50.5338 25.1624C49.5964 24.225 48.3256 23.6978 47 23.6962ZM18.5 32.1962C18.3442 32.197 18.1907 32.2342 18.0518 32.3049C17.9129 32.3755 17.7924 32.4777 17.7 32.6032L15 36.2632V33.1962C15 32.931 14.8946 32.6766 14.7071 32.4891C14.5196 32.3015 14.2652 32.1962 14 32.1962H13C12.2044 32.1962 11.4413 31.8801 10.8787 31.3175C10.3161 30.7549 10 29.9918 10 29.1962V17.1962C10 16.4005 10.3161 15.6375 10.8787 15.0748C11.4413 14.5122 12.2044 14.1962 13 14.1962H31C31.7956 14.1962 32.5587 14.5122 33.1213 15.0748C33.6839 15.6375 34 16.4005 34 17.1962V23.6962H29C27.9361 23.6993 26.9015 24.0447 26.049 24.6812L22.91 17.7812C22.8305 17.6066 22.7024 17.4586 22.541 17.3548C22.3797 17.251 22.1919 17.1958 22 17.1958C21.8081 17.1958 21.6203 17.251 21.459 17.3548C21.2976 17.4586 21.1695 17.6066 21.09 17.7812L16.09 28.7812C16.0358 28.9009 16.0057 29.0302 16.0015 29.1616C15.9973 29.2929 16.0191 29.4239 16.0655 29.5468C16.1119 29.6698 16.1822 29.7824 16.2722 29.8782C16.3622 29.974 16.4702 30.0511 16.59 30.1052C16.7185 30.1647 16.8584 30.1958 17 30.1962C17.1919 30.1961 17.3798 30.1408 17.5411 30.0369C17.7025 29.933 17.8305 29.7849 17.91 29.6102L19.462 26.1962H24.54L24.611 26.3512C24.2158 27.07 24.0058 27.8759 24 28.6962V32.1962H18.5ZM23.631 24.1962H20.371L22 20.6122L23.631 24.1962ZM50 40.6962C50 41.4918 49.6839 42.2549 49.1213 42.8175C48.5587 43.3801 47.7957 43.6962 47 43.6962H46C45.7348 43.6962 45.4804 43.8015 45.2929 43.9891C45.1054 44.1766 45 44.431 45 44.6962V47.7822L41.207 43.9892C41.0195 43.8016 40.7652 43.6962 40.5 43.6962H29C28.2044 43.6962 27.4413 43.3801 26.8787 42.8175C26.3161 42.2549 26 41.4918 26 40.6962V28.6962C26 27.9005 26.3161 27.1375 26.8787 26.5748C27.4413 26.0122 28.2044 25.6962 29 25.6962H47C47.7957 25.6962 48.5587 26.0122 49.1213 26.5748C49.6839 27.1375 50 27.9005 50 28.6962V40.6962Z" fill="#05BBC2"/>
<path d="M43 31.1962H39V29.1962C39 28.931 38.8946 28.6766 38.7071 28.4891C38.5196 28.3015 38.2652 28.1962 38 28.1962C37.7348 28.1962 37.4804 28.3015 37.2929 28.4891C37.1054 28.6766 37 28.931 37 29.1962V31.1962H33C32.7348 31.1962 32.4804 31.3015 32.2929 31.4891C32.1054 31.6766 32 31.931 32 32.1962C32 32.4614 32.1054 32.7157 32.2929 32.9033C32.4804 33.0908 32.7348 33.1962 33 33.1962H40.42C40.1751 34.8951 39.3111 36.4436 37.994 37.5442C37.2247 36.9016 36.6029 36.1008 36.171 35.1962C36.1166 35.0745 36.0385 34.9648 35.9412 34.8738C35.8438 34.7827 35.7293 34.712 35.6042 34.6659C35.4792 34.6197 35.3462 34.599 35.213 34.605C35.0798 34.611 34.9492 34.6435 34.8288 34.7007C34.7084 34.7579 34.6007 34.8386 34.5119 34.9381C34.4231 35.0375 34.3552 35.1537 34.3119 35.2798C34.2687 35.4059 34.2512 35.5394 34.2603 35.6723C34.2694 35.8053 34.305 35.9351 34.365 36.0542C34.8297 37.0176 35.4649 37.889 36.24 38.6262C35.3513 39.0047 34.3949 39.1986 33.429 39.1962C33.2995 39.1968 33.1714 39.2233 33.0523 39.2742C32.9332 39.3251 32.8255 39.3994 32.7355 39.4926C32.6456 39.5858 32.5752 39.6961 32.5286 39.8169C32.482 39.9377 32.46 40.0667 32.464 40.1962C32.4721 40.4651 32.585 40.7202 32.7785 40.907C32.9721 41.0938 33.231 41.1976 33.5 41.1962C35.0893 41.1956 36.6496 40.771 38.02 39.9662C39.4031 40.7676 40.9725 41.1918 42.571 41.1962C42.7005 41.1956 42.8286 41.169 42.9477 41.1181C43.0668 41.0672 43.1745 40.993 43.2645 40.8997C43.3544 40.8065 43.4248 40.6963 43.4714 40.5754C43.518 40.4546 43.54 40.3256 43.536 40.1962C43.5279 39.9273 43.415 39.6722 43.2215 39.4854C43.0279 39.2985 42.769 39.1947 42.5 39.1962C41.5645 39.1925 40.6393 39 39.78 38.6302C41.2696 37.1817 42.2101 35.261 42.441 33.1962H43C43.2652 33.1962 43.5196 33.0908 43.7071 32.9033C43.8946 32.7157 44 32.4614 44 32.1962C44 31.931 43.8946 31.6766 43.7071 31.4891C43.5196 31.3015 43.2652 31.1962 43 31.1962Z" fill="#05BBC2"/>
</svg>
