<svg width="60" height="60" viewBox="0 0 60 60" fill="none" xmlns="http://www.w3.org/2000/svg">
<rect width="60" height="60" rx="30" fill="white"/>
<path fill-rule="evenodd" clip-rule="evenodd" d="M13.1544 10.0231C12.1784 10.0347 10.6285 10.0463 8.12476 10.0463V7.54633C10.621 7.54633 12.1606 7.53477 13.1246 7.52327C13.6364 7.51716 13.9996 7.51078 14.2572 7.50626C14.4708 7.50251 14.6121 7.50003 14.7054 7.50003C23.2453 7.50003 30.2926 14.0536 30.2926 22.2867V23.6572L33.1468 27.6996C34.7861 30.0214 32.9289 32.9069 30.2926 32.9084V33.741C30.2926 35.0731 29.1706 36.0322 27.9397 36.0322H27.0887L28.3842 36.9067C29.4279 37.1047 30.2926 37.9867 30.2926 39.1561V41.03C30.2926 43.0262 29.1673 44.7382 27.5523 45.6695C26.4563 46.3015 25.3112 46.3635 24.3911 46.2491C23.4953 46.1377 22.6733 45.843 22.0633 45.5961L19.2641 44.4634V50.2087C19.2641 51.5409 18.1421 52.5 16.9112 52.5H14.3748V50H16.7641V42.6091C16.7641 42.1935 16.9707 41.805 17.3153 41.5726C17.6599 41.3404 18.0976 41.2945 18.4829 41.4504L23.0011 43.2786C23.5462 43.4992 24.1289 43.6972 24.6996 43.7681C25.2732 43.8395 25.8231 43.7807 26.3036 43.5037C27.2199 42.9752 27.7926 42.0486 27.7926 41.03V39.3561C27.5954 39.3327 27.4059 39.2627 27.2403 39.1509L23.8459 36.8596C23.5017 36.6271 23.2953 36.2389 23.2953 35.8235C23.2953 35.3417 23.4101 34.8327 23.7511 34.401C24.0882 33.974 24.5309 33.7694 24.9004 33.667C25.2586 33.5677 25.6276 33.5424 25.9292 33.5337C26.1361 33.5279 26.3709 33.5295 26.5834 33.531C26.6731 33.5316 26.7588 33.5322 26.8368 33.5322H27.7926V31.6584C27.7926 30.968 28.3522 30.4084 29.0426 30.4084H30.2904C30.7099 30.4084 31.0033 30.1967 31.1477 29.9421C31.2882 29.6941 31.2931 29.4085 31.1046 29.1416L28.0214 24.7751C27.8724 24.5641 27.7926 24.3122 27.7926 24.0541V22.2867C27.7926 15.5676 22.0019 10 14.7054 10C14.6214 10 14.5084 10.0021 14.3271 10.0054C14.0868 10.0097 13.7266 10.0163 13.1544 10.0231Z" fill="#05BBC2"/>
<path d="M26.2498 24.375C26.2498 25.4106 25.4103 26.25 24.3748 26.25C23.3393 26.25 22.4998 25.4106 22.4998 24.375C22.4998 23.3395 23.3393 22.5 24.3748 22.5C25.4103 22.5 26.2498 23.3395 26.2498 24.375Z" fill="#05BBC2"/>
<path fill-rule="evenodd" clip-rule="evenodd" d="M35.6191 40.1044C36.5061 39.586 37.105 38.6156 37.105 37.4995C37.105 36.3833 36.5061 35.4129 35.6191 34.8945L36.8804 32.736C38.5104 33.6885 39.605 35.4671 39.605 37.4995C39.605 39.5319 38.5104 41.3104 36.8804 42.2629L35.6191 40.1044Z" fill="#05BBC2"/>
<path fill-rule="evenodd" clip-rule="evenodd" d="M39.7275 43.3293C41.2437 42.2324 42.368 40.0839 42.368 37.4999C42.368 34.916 41.2437 32.7675 39.7275 31.6706L41.1928 29.6451C43.4523 31.2798 44.868 34.2366 44.868 37.4999C44.868 40.7633 43.4523 43.7201 41.1929 45.3548L39.7275 43.3293Z" fill="#05BBC2"/>
<path fill-rule="evenodd" clip-rule="evenodd" d="M47.6312 37.4999C47.6312 33.5233 46.051 30.19 43.894 28.4795L45.4474 26.5206C48.3244 28.8021 50.1312 32.9306 50.1312 37.4999C50.1312 42.0693 48.3244 46.1978 45.4474 48.4793L43.894 46.5204C46.051 44.8099 47.6312 41.4766 47.6312 37.4999Z" fill="#05BBC2"/>
</svg>
