<svg width="60" height="60" viewBox="0 0 60 60" fill="none" xmlns="http://www.w3.org/2000/svg">
<rect width="60" height="60" rx="30" fill="white"/>
<path d="M20.112 9.755C12.604 9.755 6.49243 15.8666 6.49243 23.3746C6.49243 30.8826 12.604 36.9942 20.112 36.9942C27.62 36.9942 33.7323 30.8826 33.7323 23.3746C33.7323 15.8666 27.62 9.755 20.112 9.755ZM20.112 12.1287C26.337 12.1287 31.3579 17.1496 31.3579 23.3746C31.3579 29.5996 26.337 34.6204 20.112 34.6204C13.8871 34.6204 8.86617 29.5996 8.86617 23.3746C8.86617 17.1496 13.8871 12.1287 20.112 12.1287Z" fill="#05BBC2"/>
<path d="M38.4602 20.8673C37.5558 20.9257 36.6451 21.0691 35.739 21.3033C35.4342 21.3821 35.1733 21.5788 35.0135 21.8501C34.8537 22.1213 34.8083 22.4449 34.8871 22.7497C34.9659 23.0545 35.1626 23.3154 35.4339 23.4752C35.7051 23.635 36.0287 23.6804 36.3335 23.6016C42.4192 22.0282 48.6803 25.3264 50.5801 31.0322C52.4798 36.738 49.4042 42.845 43.5004 44.9528C37.5965 47.0606 31.0344 44.3334 28.5894 38.8171C28.5263 38.6745 28.4356 38.5458 28.3227 38.4382C28.2097 38.3307 28.0767 38.2464 27.9312 38.1903C27.7857 38.1342 27.6306 38.1073 27.4747 38.1112C27.3188 38.1151 27.1652 38.1496 27.0226 38.2129C26.7348 38.3405 26.5095 38.5771 26.3962 38.8708C26.2829 39.1645 26.2909 39.4912 26.4185 39.779C29.3816 46.4645 37.2594 49.7021 44.299 47.1888C51.3386 44.6756 55.1385 37.208 52.8327 30.2827C50.8152 24.2231 44.7907 20.4584 38.4602 20.8673Z" fill="#05BBC2"/>
<path d="M41.958 26.4115C41.6638 26.4134 41.3766 26.4271 41.0966 26.452C38.8569 26.6511 37.0805 27.5678 35.8836 28.9129C35.1421 29.7461 34.6232 30.6879 34.3074 31.6871L32.7818 31.6811C32.1642 31.6783 31.6614 32.177 31.6592 32.7945C31.6567 33.4119 32.1553 33.9144 32.7727 33.9166L33.9354 33.9212C33.9242 34.2962 33.9366 34.6738 33.9725 35.0517L32.7635 35.0464C32.1464 35.0436 31.6438 35.5413 31.6409 36.1584C31.6381 36.7757 32.1365 37.2784 32.7538 37.281L34.4602 37.2887C35.0088 38.8696 35.9838 40.324 37.3854 41.2698C39.3661 42.6062 42.1601 42.9353 45.3315 41.6717C45.9052 41.4434 46.185 40.793 45.9562 40.2195C45.7277 39.6463 45.078 39.3669 44.5048 39.5953C41.8489 40.6535 39.9816 40.3248 38.6357 39.4167C37.8487 38.8858 37.2287 38.1581 36.8061 37.2991L41.21 37.3189C41.8273 37.3217 42.33 36.8233 42.3326 36.206C42.3351 35.5889 41.8368 35.0867 41.2197 35.0841L36.1949 35.0618C36.1625 34.6883 36.1594 34.3085 36.1868 33.93L42.0244 33.953C42.6418 33.9558 43.1443 33.4575 43.1469 32.8401C43.1493 32.2228 42.6507 31.7205 42.0334 31.7182L36.7314 31.697C36.9453 31.2165 37.2189 30.775 37.5535 30.399C38.6487 29.1683 40.3874 28.3741 43.2141 28.7214C43.8269 28.7968 44.3847 28.3609 44.4597 27.748C44.5348 27.1354 44.099 26.5779 43.4863 26.5029C42.958 26.4379 42.4483 26.4083 41.958 26.4115Z" fill="#05BBC2"/>
<path d="M23.079 51.4398C25.5323 51.4301 28.0058 50.4844 29.764 48.7621C30.2912 48.1265 29.836 47.0462 29.0126 46.9803C28.2142 46.867 27.7716 47.7072 27.1322 48.0101C24.7738 49.5476 21.564 49.5993 19.1686 48.1128C17.3264 47.0337 16.0327 45.1129 15.6438 43.0223C16.4067 43.0003 17.1801 43.0798 17.9347 42.9727C18.5483 42.7325 18.0775 42.1448 17.7442 41.8866C16.7341 40.8843 15.7544 39.8481 14.7239 38.8684C14.2965 38.6336 14.0423 39.1845 13.751 39.4057C12.7922 40.3643 11.8153 41.3111 10.8686 42.2773C10.5599 42.8565 11.2963 43.1101 11.7503 43.0137C12.2928 43.0148 12.8353 43.0162 13.3778 43.0173C13.8364 46.4773 16.2934 49.5799 19.5723 50.7901C20.6884 51.218 21.8836 51.4429 23.079 51.4398ZM37.7796 8.55582C35.3263 8.56549 32.8527 9.51123 31.0946 11.2335C30.5674 11.8691 31.0226 12.9494 31.846 13.0153C32.6444 13.1285 33.087 12.2883 33.7264 11.9855C36.0848 10.4479 39.2945 10.3963 41.69 11.8828C43.5322 12.9619 44.8258 14.8827 45.2148 16.9733C44.4518 16.9953 43.6784 16.9158 42.9238 17.0229C42.3103 17.2631 42.781 17.8508 43.1143 18.109C44.1245 19.1113 45.1041 20.1475 46.1347 21.1272C46.562 21.362 46.8163 20.8111 47.1076 20.5899C48.0664 19.6313 49.0433 18.6845 49.99 17.7183C50.2986 17.1391 49.5623 16.8854 49.1083 16.9818C48.5658 16.9808 48.0233 16.9794 47.4808 16.9783C47.0222 13.5183 44.5652 10.4157 41.2863 9.20548C40.1701 8.77761 38.9749 8.55273 37.7796 8.55582Z" fill="#05BBC2"/>
<path d="M20.1134 14.2472C19.7986 14.2472 19.4967 14.3723 19.2741 14.5949C19.0516 14.8174 18.9265 15.1193 18.9265 15.4341V15.985C17.6648 16.3778 16.5946 17.3886 16.2167 18.6725C15.8077 19.9675 16.078 21.5019 17.0094 22.5074C18.4091 23.5821 19.8167 24.6469 21.2164 25.7217C22.087 26.4075 21.9862 27.9034 21.03 28.4644C20.1377 29.0753 18.783 28.5816 18.4828 27.5452C18.2095 26.791 17.131 26.5585 16.5703 27.1309C16.1049 27.5436 16.1149 28.2579 16.4187 28.7627C16.8902 29.8122 17.8415 30.5902 18.9265 30.9272V31.3194C18.9265 31.6342 19.0516 31.936 19.2741 32.1586C19.4967 32.3812 19.7986 32.5063 20.1134 32.5063C20.4281 32.5063 20.73 32.3812 20.9526 32.1586C21.1752 31.936 21.3002 31.6342 21.3003 31.3194V30.934C22.9611 30.4444 24.2083 28.8086 24.195 27.0653C24.2258 25.672 23.4678 24.3283 22.3108 23.5685C21.1091 22.6515 19.9075 21.7346 18.7058 20.8176C18.037 19.9392 18.5578 18.5381 19.612 18.2607C20.4944 17.9624 21.4822 18.5302 21.7668 19.3954C22.1407 20.1051 23.2407 20.1885 23.7184 19.545C24.1074 19.0928 24.0162 18.4291 23.7088 17.96C23.2085 17.0128 22.3175 16.3002 21.3003 15.9876V15.4341C21.3002 15.1193 21.1752 14.8174 20.9526 14.5949C20.73 14.3723 20.4281 14.2472 20.1134 14.2472Z" fill="#05BBC2"/>
</svg>
