<svg width="60" height="60" viewBox="0 0 60 60" fill="none" xmlns="http://www.w3.org/2000/svg">
<rect width="60" height="60" rx="30" fill="white"/>
<path d="M45.4688 37.7344V41.25C45.4688 43.8388 43.3701 45.9375 40.7812 45.9375H37.5M14.5312 37.7344V41.25C14.5312 43.8388 16.6299 45.9375 19.2188 45.9375H22.2656M14.5312 22.0312V19.2188C14.5312 16.6299 16.6299 14.5312 19.2188 14.5312H22.2656M45.4688 22.0312V19.2188C45.4688 16.6299 43.3701 14.5312 40.7812 14.5312H37.5M14.5312 32.8711V29.8828V26.8945M45.4688 32.8711V29.8828V26.8945M32.5195 14.5312H29.4141H26.7773M32.5195 45.9375H29.4141H26.7773M21.5625 35.625L27.2271 24.4729C27.2576 24.4128 27.3192 24.375 27.3866 24.375C27.4559 24.375 27.5189 24.4149 27.5484 24.4775L32.8125 35.625M24.375 32.8125H29.5312M37.9688 35.625V24.375M45.4688 37.5H48.75M22.5 45.9375V49.6875" stroke="#05BBC2" stroke-width="2.25" stroke-linecap="round"/>
<path d="M14.5312 37.5H10.7812" stroke="#05BBC2" stroke-width="2.25" stroke-linecap="round" stroke-linejoin="round"/>
<path d="M22.5 14.5312V10.7812" stroke="#05BBC2" stroke-width="2.25" stroke-linecap="round"/>
<path d="M45.4688 22.0312H48.75" stroke="#05BBC2" stroke-width="2.25" stroke-linecap="round" stroke-linejoin="round"/>
<path d="M37.5 45.9375V49.6875" stroke="#05BBC2" stroke-width="2.25" stroke-linecap="round"/>
<path d="M47.3438 28.5938H45.9375V31.4062H47.3438V28.5938ZM52.5 31.4062C53.2767 31.4062 53.9062 30.7767 53.9062 30C53.9062 29.2233 53.2767 28.5938 52.5 28.5938V31.4062ZM47.3438 31.4062H52.5V28.5938H47.3438V31.4062ZM30.9375 47.3438V45.9375H28.125V47.3438H30.9375ZM28.125 52.5C28.125 53.2767 28.7546 53.9062 29.5312 53.9062C30.3079 53.9062 30.9375 53.2767 30.9375 52.5H28.125ZM28.125 47.3438V52.5H30.9375V47.3438H28.125ZM12.6562 28.5938H14.0625V31.4062H12.6562V28.5938ZM7.5 31.4062C6.72333 31.4062 6.09375 30.7767 6.09375 30C6.09375 29.2233 6.72333 28.5938 7.5 28.5938V31.4062ZM12.6562 31.4062H7.5V28.5938H12.6562V31.4062ZM30.9375 12.1875V13.5938H28.125V12.1875H30.9375ZM28.125 7.03125C28.125 6.25458 28.7546 5.625 29.5312 5.625C30.3079 5.625 30.9375 6.25458 30.9375 7.03125H28.125ZM28.125 12.1875V7.03125H30.9375V12.1875H28.125Z" fill="#05BBC2"/>
<path d="M14.5312 22.0312H10.7812" stroke="#05BBC2" stroke-width="2.25" stroke-linecap="round" stroke-linejoin="round"/>
<path d="M37.5 14.5312V10.7812" stroke="#05BBC2" stroke-width="2.25" stroke-linecap="round"/>
</svg>
