<svg width="60" height="60" viewBox="0 0 60 60" fill="none" xmlns="http://www.w3.org/2000/svg">
<rect width="60" height="60" rx="30" fill="white"/>
<path d="M49.6226 11.0146H9.37744C8.68576 11.0146 8.125 11.5754 8.125 12.2671V42.6597C8.125 43.3513 8.68576 43.9121 9.37744 43.9121H20.9244L19.778 47.085H17.4766C16.785 47.085 16.2242 47.6457 16.2242 48.3374C16.2242 49.0291 16.785 49.5898 17.4766 49.5898H41.5234C42.2151 49.5898 42.7759 49.0291 42.7759 48.3374C42.7759 47.6457 42.2151 47.085 41.5234 47.085H39.2219L38.0744 43.9121H49.6226C50.3142 43.9121 50.875 43.3513 50.875 42.6597V12.2671C50.875 11.5754 50.3142 11.0146 49.6226 11.0146ZM48.3701 13.5195V36.3975H45.8652V27.9644C45.8652 27.2727 45.3045 26.7119 44.6128 26.7119H39.603C38.9113 26.7119 38.3506 27.2727 38.3506 27.9644V36.3975H35.8457V22.9546C35.8457 22.2629 35.2849 21.7021 34.5933 21.7021H29.5834C28.8917 21.7021 28.331 22.2629 28.331 22.9546V36.3975H25.8262V32.2227C25.8262 31.531 25.2654 30.9702 24.5737 30.9702H19.564C18.8723 30.9702 18.3115 31.531 18.3115 32.2227V36.3975H10.6299V13.5195H48.3701ZM48.3701 41.4072H10.6299V38.9023H48.3701V41.4072ZM23.3213 36.3975H20.8164V33.4751H23.3213V36.3975ZM33.3408 36.3975H30.8359V24.207H33.3408V36.3975ZM43.3604 36.3975H40.8555V29.2168H43.3604V36.3975ZM36.5582 47.085H22.4413L23.5877 43.9121H35.4107L36.5582 47.085Z" fill="#05BBC2"/>
<path d="M14.3874 18.5293H36.7642C37.4559 18.5293 38.0167 17.9685 38.0167 17.2769C38.0167 16.5852 37.4559 16.0244 36.7642 16.0244H14.3874C12.7343 16.0828 12.7223 18.466 14.3874 18.5293Z" fill="#05BBC2"/>
<path d="M14.3875 23.5391H24.5739C25.2656 23.5391 25.8263 22.9783 25.8263 22.2866C25.8263 21.5949 25.2656 21.0342 24.5739 21.0342H14.3875C12.7307 21.0943 12.7258 23.477 14.3875 23.5391Z" fill="#05BBC2"/>
<path d="M14.3875 28.5488H24.5658C25.2575 28.5488 25.8182 27.9881 25.8182 27.2964C25.8182 26.6047 25.2575 26.0439 24.5658 26.0439H14.3875C12.7307 26.1041 12.7258 28.4868 14.3875 28.5488Z" fill="#05BBC2"/>
<path d="M41.6063 18.6963H44.6121C45.3038 18.6963 45.8646 18.1355 45.8646 17.4438C45.8646 16.7522 45.3038 16.1914 44.6121 16.1914H41.6063C39.9475 16.2524 39.9465 18.6348 41.6063 18.6963Z" fill="#05BBC2"/>
</svg>
