<svg width="60" height="60" viewBox="0 0 60 60" fill="none" xmlns="http://www.w3.org/2000/svg">
<rect width="60" height="60" rx="30" fill="white"/>
<path d="M26.2979 25.2572L19.9434 21.4445C19.5768 21.2246 19.1202 21.2188 18.7484 21.4294C18.3764 21.64 18.1465 22.0344 18.1465 22.4619V30.0873C18.1465 30.5147 18.3764 30.9092 18.7484 31.1198C19.2517 31.4046 19.7295 31.233 19.9434 31.1047L26.2979 27.292C27.0605 26.8473 27.0603 25.7016 26.2979 25.2572ZM20.5195 27.9916V24.5575L23.3813 26.2746L20.5195 27.9916Z" fill="#05BBC2"/>
<path d="M48.5635 11.1094H10.4365C9.78125 11.1094 9.25 11.6406 9.25 12.2959V40.2556C9.25 40.9109 9.78125 41.4421 10.4365 41.4421H21.7449L20.8695 46.6945H19.3328C17.7602 46.7529 17.7614 49.0097 19.3328 49.0675H39.6672C41.2398 49.0092 41.2386 46.7523 39.6672 46.6945H38.1305L37.2551 41.4421H48.5635C49.2188 41.4421 49.75 40.9109 49.75 40.2556V12.2959C49.75 11.6406 49.2188 11.1094 48.5635 11.1094ZM11.623 39.0691V13.4824H32.1262V39.0691H11.623ZM23.2753 46.6945L24.1507 41.4421H34.8493L35.7247 46.6945H23.2753ZM37.2256 39.0691C38.3938 35.4765 43.4837 35.4788 44.6505 39.0691H37.2256ZM39.5828 32.6302C39.5828 31.8829 40.1908 31.275 40.9381 31.275C42.7336 31.3432 42.7331 33.9176 40.9381 33.9855C40.1907 33.9855 39.5828 33.3776 39.5828 32.6302ZM47.377 39.0691H47.0941C46.7392 37.2241 45.5736 35.6649 43.9833 34.7773C45.7278 32.3719 43.9317 28.8734 40.938 28.9019C37.9447 28.8734 36.1481 32.3725 37.8929 34.7773C36.3026 35.6648 35.137 37.2241 34.7821 39.0691H34.4992V27.4623H47.377V39.0691ZM40.9381 22.3787C42.6734 22.3787 44.1474 23.5187 44.6506 25.0892H37.2257C37.7287 23.5187 39.2028 22.3787 40.9381 22.3787ZM39.5828 18.6504C39.5828 17.9031 40.1908 17.2951 40.9381 17.2951C42.7336 17.3633 42.7331 19.9377 40.9381 20.0057C40.1907 20.0056 39.5828 19.3976 39.5828 18.6504ZM47.377 25.0892H47.0941C46.7392 23.2443 45.5736 21.685 43.9833 20.7974C45.7278 18.392 43.9317 14.8936 40.938 14.9221C37.9447 14.8935 36.1481 18.3927 37.8929 20.7974C36.3026 21.6849 35.137 23.2443 34.7821 25.0892H34.4992V13.4824H47.377V25.0892Z" fill="#05BBC2"/>
</svg>
