<svg width="60" height="60" viewBox="0 0 60 60" fill="none" xmlns="http://www.w3.org/2000/svg">
<rect width="60" height="60" rx="30" fill="white"/>
<path d="M45.1169 39.8748C45.5064 39.1733 45.7291 38.3671 45.7291 37.5095C45.7291 34.8141 43.5362 32.6211 40.8407 32.6211C38.1453 32.6211 35.9524 34.8141 35.9524 37.5095C35.9524 38.3671 36.1751 39.1733 36.5647 39.8748C35.9472 40.0151 35.3771 40.2809 34.8833 40.6452C34.8839 40.6136 34.8857 40.5823 34.8857 40.5506C34.8857 37.8552 32.6928 35.6622 29.9974 35.6622C27.3019 35.6622 25.109 37.8552 25.109 40.5506C25.109 40.5811 25.1108 40.6112 25.1113 40.6416C24.6187 40.2792 24.0504 40.0146 23.4351 39.8748C23.8247 39.1733 24.0474 38.3671 24.0474 37.5095C24.0474 34.8141 21.8545 32.6211 19.159 32.6211C16.4635 32.6211 14.2706 34.8141 14.2706 37.5095C14.2706 38.3671 14.4933 39.1733 14.8828 39.8748C12.8643 40.3334 11.3525 42.1411 11.3525 44.2965V48.1408C11.3525 48.8689 11.9428 49.4592 12.6709 49.4592H22.1909V51.1818C22.1909 51.9099 22.7812 52.5002 23.5093 52.5002H36.4855C37.2136 52.5002 37.8038 51.9099 37.8038 51.1818V49.4591H47.3289C48.057 49.4591 48.6473 48.8688 48.6473 48.1407V44.2964C48.6472 42.1411 47.1354 40.3334 45.1169 39.8748ZM40.8406 35.2578C42.0822 35.2578 43.0923 36.2679 43.0923 37.5095C43.0923 38.751 42.0822 39.7612 40.8406 39.7612C39.5991 39.7612 38.5891 38.751 38.5891 37.5095C38.5891 36.2679 39.5991 35.2578 40.8406 35.2578ZM29.9973 38.2989C31.2388 38.2989 32.2489 39.309 32.2489 40.5506C32.2489 41.7921 31.2388 42.8023 29.9973 42.8023C28.7558 42.8023 27.7456 41.7921 27.7456 40.5506C27.7456 39.309 28.7558 38.2989 29.9973 38.2989ZM19.1589 35.2578C20.4004 35.2578 21.4106 36.2679 21.4106 37.5095C21.4106 38.751 20.4004 39.7612 19.1589 39.7612C17.9174 39.7612 16.9072 38.751 16.9072 37.5095C16.9072 36.2679 17.9174 35.2578 19.1589 35.2578ZM13.9891 44.2965C13.9891 43.2496 14.8407 42.3979 15.8877 42.3979H22.4301C23.2238 42.3979 23.905 42.8877 24.1882 43.5807C23.1183 44.3058 22.374 45.4757 22.221 46.8224H13.9892L13.9891 44.2965ZM35.167 49.8635H24.8276V47.3375C24.8276 46.2906 25.6792 45.4389 26.7262 45.4389H33.2685C34.3154 45.4389 35.1671 46.2905 35.1671 47.3375V49.8635H35.167ZM46.0104 46.8224H37.7737C37.6209 45.4774 36.8782 44.3088 35.8104 43.5834C36.0929 42.8889 36.7747 42.3978 37.5695 42.3978H44.1119C45.1588 42.3978 46.0105 43.2494 46.0105 44.2964V46.8224H46.0104Z" fill="#05BBC2"/>
<path d="M43.899 7.5H16.0967C15.3686 7.5 14.7783 8.09027 14.7783 8.81836V25.0007C14.7783 25.7288 15.3686 26.3191 16.0967 26.3191H19.2151V29.3717C19.2151 29.9049 19.5363 30.3857 20.029 30.5897C20.5215 30.7937 21.0888 30.681 21.4657 30.3038L25.4506 26.3191H34.516L38.5301 30.3331C38.7822 30.5854 39.1195 30.7193 39.4625 30.7193C39.6324 30.7193 39.8037 30.6864 39.9667 30.6189C40.4593 30.4148 40.7806 29.9341 40.7806 29.4009V26.3191H43.899C44.6271 26.3191 45.2174 25.7289 45.2174 25.0008V8.81836C45.2174 8.09027 44.6271 7.5 43.899 7.5ZM42.5807 23.6823H39.4622C38.7341 23.6823 38.1439 24.2726 38.1439 25.0007V26.2181L35.9942 24.0684C35.7471 23.8212 35.4117 23.6822 35.0621 23.6822H24.9046C24.5548 23.6822 24.2195 23.8212 23.9724 24.0684L21.8519 26.1888V25.0006C21.8519 24.2725 21.2617 23.6822 20.5336 23.6822H17.4151V10.1367H42.5808V23.6823H42.5807Z" fill="#05BBC2"/>
<path d="M25.2783 18.0444C26.0064 18.0444 26.5967 17.4541 26.5967 16.7261V16.7169C26.5967 15.9888 26.0064 15.3986 25.2783 15.3986C24.5502 15.3986 23.96 15.9888 23.96 16.7169V16.7261C23.96 17.4541 24.5502 18.0444 25.2783 18.0444Z" fill="#05BBC2"/>
<path d="M29.9336 18.0444C30.6617 18.0444 31.252 17.4541 31.252 16.7261V16.7169C31.252 15.9888 30.6617 15.3986 29.9336 15.3986C29.2055 15.3986 28.6152 15.9888 28.6152 16.7169V16.7261C28.6152 17.4541 29.2055 18.0444 29.9336 18.0444Z" fill="#05BBC2"/>
<path d="M34.5881 18.0444C35.3162 18.0444 35.9065 17.4541 35.9065 16.7261V16.7169C35.9065 15.9888 35.3162 15.3986 34.5881 15.3986C33.86 15.3986 33.2698 15.9888 33.2698 16.7169V16.7261C33.2698 17.4541 33.86 18.0444 34.5881 18.0444Z" fill="#05BBC2"/>
</svg>
