<svg width="120" height="120" viewBox="0 0 120 120" fill="none" xmlns="http://www.w3.org/2000/svg">
<path d="M99.5151 64.9118C100.871 64.9254 101.986 63.8319 101.998 62.473C102.01 61.114 100.918 60.0024 99.5589 59.9902L96.233 59.9605C96.2469 59.6521 97.6362 55.8514 95.0919 51.8407C94.0483 50.1957 92.5762 48.9263 90.8408 48.1449C96.3195 43.6256 94.2347 34.6783 87.2425 33.1176C82.614 32.084 78.0089 35.012 76.9753 39.6427C76.1135 43.5032 77.9853 47.2554 81.1698 49.0304C79.13 50.4439 77.7158 52.5403 77.1719 54.9775L74.8972 65.1687L68.9109 65.0338C65.1082 64.9474 61.8124 67.845 61.4066 71.629L59.641 88.1054C53.1038 90.7201 53.8122 100.28 60.7281 101.823C64.4858 102.662 68.1888 100.402 69.217 96.7611C73.8039 96.7007 73.5989 96.7184 73.8388 96.6935C81.5548 105.876 96.8218 102.429 99.5108 90.3802C100.936 83.9967 98.0021 77.8112 92.9544 74.65L95.1367 64.8726L99.5151 64.9118ZM81.7789 40.715C82.2204 38.7374 84.1867 37.4785 86.1706 37.9212C88.1496 38.363 89.3996 40.3349 88.9573 42.3171C88.5148 44.2993 86.5448 45.5522 84.5657 45.1111C82.5956 44.6714 81.3327 42.7148 81.7789 40.715ZM68.8003 69.9546L76.8041 70.1349C77.9738 70.1593 79.0055 69.3559 79.2612 68.2107L81.9755 56.0499C82.5676 53.3967 85.2052 51.7195 87.854 52.3108C90.4739 52.8957 92.1853 55.5029 91.5845 58.1946C87.8177 74.6763 90.8483 61.4161 88.2694 72.7435C77.0469 70.2855 67.5285 81.0878 71.1016 91.816L68.8595 91.8433C68.0492 90.0493 66.5462 88.6308 64.6047 87.9773L66.3006 72.1538C66.436 70.8922 67.5286 69.9245 68.8003 69.9546ZM64.515 95.2919C64.241 96.5192 63.0272 97.2938 61.8002 97.0198C60.5773 96.7468 59.8028 95.5334 60.0777 94.3014C60.3519 93.0733 61.5666 92.2994 62.7925 92.5734C64.0201 92.8473 64.7888 94.0644 64.515 95.2919ZM94.7074 89.308C92.7969 97.8695 81.472 99.7928 76.8116 92.4462C75.4038 90.2269 74.9439 87.5913 75.5168 85.0247C76.695 79.747 81.9463 76.3743 87.2565 77.5593C92.5582 78.7427 95.8929 83.9968 94.7074 89.308Z" fill="#05BBC2"/>
<path d="M85.6479 84.7648C84.3215 84.4687 83.0062 85.3041 82.71 86.6306C82.4139 87.957 83.2493 89.2723 84.5758 89.5684C85.9022 89.8646 87.2175 89.0292 87.5136 87.7027C87.8098 86.3763 86.9743 85.0608 85.6479 84.7648Z" fill="#05BBC2"/>
<path d="M41.6143 64.0996H32.7814V60.1205L37.7346 61.0346C38.7306 61.2182 38.5293 60.9869 48.2428 58.302C51.2005 57.4579 52.9015 54.3717 52.0354 51.4199C51.2945 48.8943 48.8528 47.2299 46.2325 47.4634C43.5859 47.6986 39.6233 48.0975 38.3444 48.2272C34.9992 47.4363 32.544 46.8557 30.7378 46.4293C36.2577 41.7661 32.9167 32.765 25.7464 32.765C18.3645 32.765 15.1785 42.1561 21.0373 46.6565C19.1978 48.0022 18 50.1753 18 52.624V69.0131C18 71.1768 18.6495 73.1908 19.7612 74.874C18.7432 75.1755 18 76.1166 18 77.2324V99.5358C18 100.895 19.1018 101.997 20.4608 101.997C21.8197 101.997 22.9215 100.895 22.9215 99.5358V89.3644H37.5179L37.5087 99.3152C37.5077 100.654 38.5767 101.748 39.9148 101.777C51.9165 102.043 49.4132 101.997 49.8294 101.997C51.1889 101.997 52.2907 100.894 52.2901 99.5347L52.2777 74.7581C52.2751 68.8811 47.4914 64.0996 41.6143 64.0996ZM25.7465 37.6866C27.3043 37.6866 28.5715 38.9538 28.5715 40.5116C28.5715 42.0692 27.3043 43.3364 25.7465 43.3364C24.1889 43.3364 22.9217 42.0692 22.9217 40.5116C22.9217 38.9539 24.1889 37.6866 25.7465 37.6866ZM22.9217 84.4427V79.6931H37.5221C37.5221 79.944 37.5223 78.7847 37.5218 84.4427H22.9217ZM42.4322 96.9103C42.4322 96.8427 42.447 77.2853 42.447 77.2179C42.4479 75.859 41.3458 74.7552 39.9862 74.7552H28.6636C25.4975 74.7552 22.9215 72.1792 22.9215 69.0131V52.624C22.9215 51.3426 23.9025 50.2862 25.153 50.1663C26.725 50.5372 33.7415 52.1961 37.6148 53.112C38.3582 53.2876 38.1313 53.1247 46.6683 52.3656C47.4169 52.2973 47.5924 53.3691 46.8917 53.5693L38.0604 56.0899L30.7669 54.744C29.2558 54.4654 27.8595 55.626 27.8595 57.1639V66.5604C27.8595 67.9195 28.9613 69.0212 30.3203 69.0212H41.614C44.7784 69.0212 47.3544 71.5957 47.356 74.7603L47.367 97.0196L42.4322 96.9103Z" fill="#05BBC2"/>
<path d="M37.8521 38.4988H42.7656V42.6084C42.7656 43.9675 43.8674 45.0692 45.2263 45.0692H71.4836C72.8427 45.0692 73.9443 43.9673 73.9443 42.6084V20.4608C73.9445 19.1018 72.8427 18 71.4837 18H45.2265C43.8674 18 42.7657 19.1018 42.7657 20.4608V27.1462L36.0508 34.3613C34.5895 35.9314 35.7053 38.4988 37.8521 38.4988ZM47.0279 29.7908C47.4517 29.3354 47.6873 28.7364 47.6873 28.1143V22.9217H69.0228V40.1476H47.6873V36.038C47.6873 34.6789 46.5854 33.5772 45.2265 33.5772H43.504L47.0279 29.7908Z" fill="#05BBC2"/>
<path d="M54.5856 33.9955H55.0778V34.3236C55.0778 35.6827 56.1796 36.7844 57.5386 36.7844C58.8977 36.7844 59.9993 35.6826 59.9993 34.3236V33.9955H60.4915C61.8506 33.9955 62.9523 32.8937 62.9523 31.5347C62.9523 30.1758 61.8508 29.0738 60.4917 29.0738H59.9995V28.5816C59.9995 27.2225 58.8977 26.1208 57.5387 26.1208C56.1796 26.1208 55.078 27.2227 55.078 28.5816V29.0738H54.5858C53.2267 29.0738 52.125 30.1757 52.125 31.5346C52.125 32.8935 53.2267 33.9955 54.5856 33.9955Z" fill="#05BBC2"/>
</svg>
