<svg width="133" height="60" viewBox="0 0 133 60" fill="none" xmlns="http://www.w3.org/2000/svg">
<path d="M127.816 10H17.6484C14.8451 10 12.5645 12.4356 12.5645 15.4294V44.5706C12.5645 47.5644 14.8451 50 17.6484 50H127.816C130.619 50 132.9 47.5644 132.9 44.5707V15.4294C132.9 12.4357 130.619 10 127.816 10Z" fill="url(#paint0_linear_2149_24334)"/>
<path d="M128.375 47.7921H17.0907C15.7397 47.7921 14.6445 46.6224 14.6445 45.1796V14.8195C14.6445 13.3767 15.7397 12.207 17.0907 12.207H128.375C129.726 12.207 130.822 13.3767 130.822 14.8195V45.1796C130.822 46.6224 129.726 47.7921 128.375 47.7921Z" fill="url(#paint1_linear_2149_24334)"/>
<path d="M67.3948 37.575C66.9473 36.9692 66.3947 36.6662 65.737 36.6662C65.4475 36.6662 65.1795 36.7247 64.9328 36.8413C64.6861 36.9582 64.474 37.1169 64.2963 37.3176C64.1187 37.5185 63.9788 37.7575 63.8769 38.0348C63.7749 38.3124 63.724 38.6115 63.724 38.9327C63.724 39.2611 63.7749 39.5641 63.8769 39.8414C63.9788 40.119 64.1202 40.3598 64.3012 40.5641C64.4821 40.7686 64.6942 40.9292 64.9377 41.0459C65.181 41.1628 65.4442 41.2211 65.7271 41.2211C66.3454 41.2211 66.9014 40.9293 67.3947 40.3452V42.8854L67.1973 42.9621C66.9013 43.0788 66.625 43.1646 66.3685 43.2194C66.1119 43.2742 65.8586 43.3015 65.6087 43.3015C65.0956 43.3015 64.6037 43.1937 64.1335 42.9786C63.6631 42.7633 63.2487 42.4603 62.8902 42.0698C62.5316 41.6793 62.2439 41.2157 62.0268 40.6792C61.8097 40.1427 61.7012 39.5568 61.7012 38.9218C61.7012 38.2868 61.808 37.7048 62.0219 37.1754C62.2356 36.6463 62.5217 36.19 62.8803 35.8068C63.2388 35.4236 63.6549 35.1244 64.1285 34.909C64.6022 34.6937 65.0988 34.5859 65.6186 34.5859C65.9146 34.5859 66.2057 34.6206 66.4918 34.69C66.778 34.7594 67.0789 34.867 67.3947 35.013L67.3948 37.575Z" fill="white"/>
<path d="M68.3906 38.9438C68.3906 38.3307 68.4925 37.7596 68.6965 37.2303C68.9003 36.7012 69.1833 36.2394 69.5451 35.8452C69.9068 35.451 70.3394 35.1427 70.8427 34.9199C71.3459 34.6973 71.9 34.5859 72.5054 34.5859C73.1038 34.5859 73.6564 34.6973 74.1631 34.9199C74.6696 35.1427 75.1054 35.451 75.4705 35.8452C75.8355 36.2394 76.1201 36.7011 76.324 37.2303C76.5278 37.7596 76.6299 38.3307 76.6299 38.9438C76.6299 39.5569 76.5278 40.1282 76.324 40.6574C76.1201 41.1867 75.8355 41.6483 75.4705 42.0425C75.1054 42.4367 74.6696 42.7451 74.1631 42.9677C73.6564 43.1902 73.1038 43.3016 72.5054 43.3016C71.9 43.3016 71.3459 43.1903 70.8427 42.9677C70.3394 42.7451 69.9068 42.4367 69.5451 42.0425C69.1833 41.6483 68.9003 41.1867 68.6965 40.6574C68.4925 40.1282 68.3906 39.5569 68.3906 38.9438ZM70.4134 38.9438C70.4134 39.2723 70.4693 39.5753 70.5812 39.8526C70.6929 40.1301 70.8442 40.371 71.0351 40.5753C71.2258 40.7797 71.4479 40.9385 71.7011 41.0516C71.9543 41.1649 72.2224 41.2213 72.5054 41.2213C72.7881 41.2213 73.0562 41.1649 73.3095 41.0516C73.5627 40.9385 73.7864 40.7797 73.9805 40.5753C74.1745 40.371 74.3274 40.1301 74.4393 39.8526C74.5512 39.5753 74.6072 39.2723 74.6072 38.9438C74.6072 38.6153 74.5512 38.3126 74.4393 38.035C74.3274 37.7576 74.1745 37.5168 73.9805 37.3123C73.7864 37.1081 73.5627 36.9493 73.3095 36.836C73.0562 36.7229 72.7881 36.6663 72.5054 36.6663C72.2224 36.6663 71.9543 36.7229 71.7011 36.836C71.4478 36.9493 71.2258 37.1081 71.0351 37.3123C70.8442 37.5168 70.6929 37.7576 70.5812 38.035C70.4692 38.3126 70.4134 38.6153 70.4134 38.9438Z" fill="white"/>
<path d="M77.5176 43.0721L78.7806 34.8164H80.6949L82.1849 39.218L83.665 34.8164H85.5793L86.8424 43.0721H84.9182L84.2769 38.3201L82.5205 43.0721H81.7508L80.0832 38.3201L79.4418 43.0721H77.5176Z" fill="white"/>
<path d="M90.0004 43.0721H88.0664V34.8164H91.1451C91.9804 34.8164 92.6203 35.0573 93.0643 35.539C93.5083 36.0208 93.7304 36.6997 93.7304 37.5756C93.7304 38.4515 93.5083 39.1304 93.0643 39.6122C92.6203 40.0939 91.9804 40.3349 91.1451 40.3349H90.0004V43.0721ZM90.0004 38.6048H90.6418C91.3523 38.6048 91.7076 38.2618 91.7076 37.5756C91.7076 36.8895 91.3523 36.5464 90.6418 36.5464H90.0004V38.6048Z" fill="white"/>
<path d="M96.6918 34.8164V41.2546H99.0107V43.0721H94.7578V34.8164H96.6918Z" fill="white"/>
<path d="M101.94 34.8164V43.0721H100.006V34.8164H101.94Z" fill="white"/>
<path d="M108.058 41.6378H105.295L104.851 43.0721H102.789L105.621 34.8164H107.733L110.565 43.0721H108.502L108.058 41.6378ZM107.545 40.0063L106.677 37.258L105.809 40.0063H107.545Z" fill="white"/>
<path d="M111.412 43.0721V34.8164H113.346L116.918 39.864V34.8164H118.842V43.0721H116.918L113.346 38.0245V43.0721H111.412Z" fill="white"/>
<path d="M123.224 36.634V43.0721H121.29V36.634H119.701V34.8164H124.813V36.634H123.224Z" fill="white"/>
<path d="M65.4087 22.7937H70.7534V16.6953H74.4551V32.4967H70.7534V25.9792H65.4087V32.4968H61.707V16.6954H65.4087V22.7937Z" fill="white"/>
<path d="M81.1412 16.6953V32.4967H77.4395V16.6953H81.1412Z" fill="white"/>
<path d="M87.8267 32.4967H84.125V16.6953H90.0176C91.6164 16.6953 92.841 17.1564 93.6909 18.0784C94.5408 19.0006 94.9658 20.2999 94.9658 21.9764C94.9658 23.6529 94.5408 24.9523 93.6909 25.8744C92.841 26.7965 91.6164 27.2575 90.0176 27.2575H87.8267L87.8267 32.4967ZM87.8267 23.9463H89.0543C90.4141 23.9463 91.0941 23.2898 91.0941 21.9764C91.0941 20.6634 90.4141 20.0065 89.0543 20.0065H87.8267V23.9463Z" fill="white"/>
<path d="M104.862 29.7514H99.5745L98.7245 32.4967H94.7773L100.198 16.6953H104.239L109.66 32.4967H105.712L104.862 29.7514ZM103.88 26.6288L102.219 21.3686L100.557 26.6288H103.88Z" fill="white"/>
<path d="M120.009 29.7514H114.721L113.871 32.4967H109.924L115.344 16.6953H119.386L124.806 32.4967H120.859L120.009 29.7514ZM119.027 26.6288L117.365 21.3686L115.703 26.6288H119.027Z" fill="white"/>
<path d="M27.3532 59.2767C23.408 57.7726 19.7193 55.499 16.3895 52.5193C13.2044 49.669 10.4142 46.2328 8.09647 42.3059C5.80954 38.4311 4.03522 34.1675 2.82268 29.6335C1.58732 25.0139 0.960938 20.2047 0.960938 15.3394C0.960938 12.857 1.129 10.3469 1.46054 7.87873L2.30184 1.61417L8.33361 3.50394C10.5422 4.19588 12.8429 4.54672 15.1718 4.54672C19.1419 4.54672 23.1012 3.49068 26.6217 1.49278L29.2521 0L31.8821 1.49349C31.921 1.51559 31.9601 1.53635 31.9991 1.5574L32.0114 1.56403C32.0671 1.59405 32.1227 1.62414 32.1781 1.65457C35.6246 3.54675 39.481 4.54678 43.3307 4.54678C45.6598 4.54678 47.9602 4.19594 50.1685 3.50405L56.2002 1.61399L57.0417 7.87861C57.3733 10.3468 57.5414 12.857 57.5414 15.3394C57.5414 20.1612 56.9258 24.9292 55.712 29.511C54.5207 34.0078 52.7764 38.2423 50.5276 42.0966C48.2503 46.0001 45.5064 49.4274 42.372 52.2831C39.0989 55.2652 35.4689 57.5607 31.5828 59.1056L31.4878 59.1435C31.3777 59.1877 31.264 59.2329 31.1495 59.2766L29.2508 60L27.3532 59.2767Z" fill="url(#paint2_linear_2149_24334)"/>
<path d="M28.6176 55.9595C25.0797 54.6106 21.7621 52.5632 18.757 49.8741C15.8441 47.2674 13.2862 44.1142 11.1542 40.5021C9.03129 36.9051 7.38218 32.9402 6.2529 28.7174C5.09753 24.3971 4.51172 19.8966 4.51172 15.3411C4.51172 13.0161 4.66922 10.6651 4.97972 8.35318L5.26013 6.26504L7.2707 6.895C9.82333 7.69472 12.4813 8.10022 15.1708 8.10022C19.7543 8.10022 24.3198 6.88415 28.3737 4.58355L29.2506 4.08594L30.1272 4.58379C30.1924 4.62079 30.2582 4.65615 30.324 4.69168C30.372 4.71766 30.4202 4.7437 30.4683 4.77003C34.4366 6.94871 38.8841 8.10027 43.3297 8.10027C46.0193 8.10027 48.6772 7.69478 51.2294 6.89506L53.2401 6.26504L53.5206 8.35325C53.8311 10.6651 53.9886 13.0162 53.9886 15.3412C53.9886 19.8559 53.413 24.3179 52.2777 28.6032C51.1681 32.7914 49.5468 36.7297 47.4589 40.3085C45.3633 43.9006 42.8466 47.0466 39.979 49.6594C37.0234 52.3523 33.7566 54.4206 30.2697 55.8069L30.1699 55.8468C30.0744 55.885 29.9789 55.9231 29.8828 55.9598L29.2503 56.2008L28.6176 55.9595Z" fill="url(#paint3_linear_2149_24334)"/>
<path d="M51.7619 8.58656C49.0342 9.44123 46.2099 9.87305 43.3312 9.87305C38.554 9.87305 33.8502 8.64872 29.615 6.32361C29.494 6.25717 29.3719 6.19326 29.2517 6.125C24.9234 8.58135 20.086 9.87305 15.1722 9.87305C12.2936 9.87305 9.46867 9.44111 6.74123 8.58656C6.44076 10.8239 6.28906 13.0851 6.28906 15.338C6.28906 33.2516 15.6908 49.127 29.2517 54.2971C29.3735 54.2508 29.494 54.2016 29.615 54.1535C42.9796 48.84 52.2141 33.0909 52.2141 15.338C52.2141 13.0843 52.0624 10.8232 51.7619 8.58656Z" fill="url(#paint4_linear_2149_24334)"/>
<path d="M34.5825 24.2747L34.2732 24.1087C34.296 23.5869 33.8123 22.9981 33.0261 22.666C32.05 22.2538 30.9776 22.3932 30.6308 22.9775C30.2839 23.5618 30.794 24.3697 31.7701 24.7819C32.3416 25.0233 32.946 25.0752 33.4186 24.9598L34.037 25.2915C34.4409 25.5082 34.6591 25.8476 34.6356 26.2226C34.611 26.6158 34.3229 26.9557 33.865 27.1318L29.7598 28.711C29.8583 21.8839 29.9354 16.5407 29.9495 15.5614C30.5542 15.2945 30.9764 14.69 30.9764 13.9866C30.9764 13.0361 30.2059 12.2656 29.2555 12.2656C28.3051 12.2656 27.5345 13.0361 27.5345 13.9866C27.5345 14.6822 27.9475 15.281 28.5415 15.5524C28.5552 16.5048 28.6322 21.8347 28.7306 28.6576L24.7641 27.1318C24.3063 26.9557 24.0182 26.6158 23.9935 26.2226C23.97 25.8476 24.1882 25.5083 24.5921 25.2915L25.2105 24.9598C25.6831 25.0753 26.2875 25.0233 26.8591 24.7819C27.8351 24.3697 28.3452 23.5618 27.9984 22.9775C27.6515 22.3932 26.5791 22.2537 25.6031 22.666C24.8168 22.9981 24.3331 23.5869 24.3559 24.1087L24.0466 24.2747C23.647 24.4891 23.3252 24.7918 23.1161 25.1502C22.9116 25.5004 22.8168 25.8961 22.8418 26.2947C22.8946 27.1379 23.4725 27.8713 24.3498 28.2088L27.7075 29.5004L25.9301 30.1841C25.0526 30.5216 24.4747 31.2552 24.422 32.0985C24.3971 32.4972 24.492 32.893 24.6966 33.2432C24.9059 33.6016 25.2278 33.9044 25.6276 34.1187L28.0932 35.4402L26.4669 36.3119C25.7144 36.7153 25.2623 37.4203 25.2575 38.1978C25.2527 38.9734 25.6941 39.6817 26.4385 40.0927L28.1208 41.0215L27.7017 41.2529C26.9467 41.6697 26.5054 42.3881 26.5211 43.1746C26.5369 43.9679 27.0128 44.6753 27.7941 45.0668L28.0267 45.1834L27.9175 45.2381C27.4312 45.4818 27.0464 45.8669 26.8338 46.3226C26.6122 46.7977 26.5841 47.3299 26.7548 47.8214L27.0131 48.5653C27.0959 48.8037 27.3193 48.9531 27.5581 48.9531C27.6209 48.9531 27.6848 48.9428 27.7474 48.9211C28.0484 48.8165 28.2077 48.4878 28.1032 48.1868L27.8449 47.4429C27.6896 46.9958 27.9265 46.5243 28.4345 46.2698L28.9807 45.9961C28.9952 46.998 29.0094 47.986 29.0234 48.953C29.0252 49.0745 29.1241 49.1719 29.2456 49.1719C29.3671 49.1719 29.4661 49.0745 29.4678 48.953C29.482 47.964 29.4966 46.9529 29.5114 45.9274L30.1946 46.2697C30.7026 46.5243 30.9396 46.9957 30.7843 47.4429L30.526 48.1868C30.4214 48.4878 30.5807 48.8166 30.8817 48.9211C30.9444 48.9428 31.0082 48.9531 31.071 48.9531C31.3099 48.9531 31.5333 48.8036 31.616 48.5653L31.8743 47.8215C32.045 47.33 32.0169 46.7977 31.7953 46.3226C31.5828 45.867 31.1979 45.4819 30.7116 45.2381L30.6024 45.1834L30.8351 45.0669C31.6163 44.6753 32.0922 43.968 32.1081 43.1747C32.1238 42.3882 31.6824 41.6698 30.9275 41.253L30.5083 41.0216L32.1907 40.0927C32.935 39.6818 33.3764 38.9735 33.3716 38.1979C33.3668 37.4203 32.9147 36.7153 32.1622 36.312L30.5359 35.4403L33.0015 34.1187C33.4013 33.9044 33.7232 33.6017 33.9326 33.2433C34.1371 32.8931 34.232 32.4972 34.2071 32.0986C34.1544 31.2552 33.5766 30.5217 32.6991 30.1841L30.9217 29.5004L34.2794 28.2089C35.1567 27.8714 35.7345 27.1379 35.7873 26.2947C35.8123 25.8962 35.7175 25.5004 35.5131 25.1502C35.3039 24.7918 34.9821 24.489 34.5825 24.2747ZM25.5738 32.1705C25.5983 31.7772 25.8864 31.4372 26.3443 31.2611L28.7547 30.3339C28.7742 31.6888 28.7945 33.0903 28.815 34.5179L26.1728 33.1017C25.7687 32.885 25.5504 32.5456 25.5738 32.1705ZM26.4115 38.2051C26.4137 37.8517 26.6326 37.5324 27.0121 37.329L28.8415 36.3484C28.8596 37.6008 28.8779 38.8663 28.8961 40.1314L26.9963 39.0825C26.6225 38.8761 26.4093 38.5563 26.4115 38.2051ZM27.6748 43.1517C27.6677 42.7961 27.8808 42.4722 28.2594 42.2632L28.9215 41.8976C28.9334 42.7221 28.9453 43.5438 28.9571 44.359L28.3111 44.0352C27.914 43.8363 27.6821 43.5142 27.6748 43.1517ZM30.9543 43.1517C30.9471 43.5142 30.7151 43.8363 30.318 44.0353L29.533 44.4286C29.5455 43.5657 29.5581 42.6954 29.5706 41.822L30.3696 42.2632C30.7483 42.4722 30.9614 42.7961 30.9543 43.1517ZM32.2176 38.2051C32.2198 38.5563 32.0067 38.8761 31.6329 39.0825L29.594 40.2082C29.613 38.8927 29.6319 37.5767 29.6507 36.275L31.6171 37.329C31.9965 37.5324 32.2154 37.8518 32.2176 38.2051ZM33.0553 32.1705C33.0788 32.5456 32.8604 32.885 32.4563 33.1017L29.675 34.5925C29.6962 33.1206 29.7171 31.676 29.7372 30.2812L32.2848 31.2612C32.7427 31.4373 33.0308 31.7772 33.0553 32.1705Z" fill="white"/>
<path d="M38.9016 16.9287C37.6063 16.0242 35.8124 14.4061 35.1313 13.9446C33.8292 13.0626 33.3097 14.4819 32.6898 15.1566C31.8202 16.1033 30.9687 16.3186 30.5449 16.3253V21.6557C31.0239 21.513 31.4544 21.3826 31.8894 21.2677C32.3327 21.1506 32.9157 21.8826 34.5795 21.2372C35.4045 20.9171 36.1179 21.8534 37.7237 21.129C38.342 20.8501 39.7809 21.749 41.4253 20.7721C42.2189 20.3006 43.7266 21.2082 45.2872 19.0092C44.4285 18.8465 42.2607 19.2744 38.9016 16.9287Z" fill="white"/>
<path d="M26.6107 21.2677C27.0457 21.3826 27.4762 21.5131 27.9552 21.6557V16.3253C27.5315 16.3186 26.6798 16.1033 25.8103 15.1567C25.1904 14.4819 24.6709 13.0625 23.3688 13.9446C22.6876 14.4061 20.8938 16.0242 19.5985 16.9287C16.2393 19.2744 14.0715 18.8466 13.2129 19.0092C14.7735 21.2082 16.2813 20.3006 17.0748 20.772C18.7191 21.749 20.1581 20.85 20.7764 21.129C22.3822 21.8533 23.0956 20.9172 23.9206 21.2372C25.5845 21.8827 26.1674 21.1507 26.6107 21.2677Z" fill="white"/>
<defs>
<linearGradient id="paint0_linear_2149_24334" x1="46.5749" y1="16.0887" x2="131.358" y2="55.6229" gradientUnits="userSpaceOnUse">
<stop stop-color="#00BEFF"/>
<stop offset="1" stop-color="#007DFF"/>
</linearGradient>
<linearGradient id="paint1_linear_2149_24334" x1="72.7331" y1="11.7189" x2="72.7331" y2="49.1746" gradientUnits="userSpaceOnUse">
<stop stop-color="#005A9A"/>
<stop offset="1" stop-color="#002756"/>
</linearGradient>
<linearGradient id="paint2_linear_2149_24334" x1="29.2511" y1="0.451476" x2="29.2511" y2="59.4305" gradientUnits="userSpaceOnUse">
<stop stop-color="#00BEFF"/>
<stop offset="1" stop-color="#007DFF"/>
</linearGradient>
<linearGradient id="paint3_linear_2149_24334" x1="29.2501" y1="-16.912" x2="29.2501" y2="58.7634" gradientUnits="userSpaceOnUse">
<stop stop-color="#007DFF"/>
<stop offset="1" stop-color="#00BEFF"/>
</linearGradient>
<linearGradient id="paint4_linear_2149_24334" x1="29.2516" y1="6.12494" x2="29.2516" y2="54.2972" gradientUnits="userSpaceOnUse">
<stop stop-color="#005A9A"/>
<stop offset="1" stop-color="#002756"/>
</linearGradient>
</defs>
</svg>
