<svg width="48" height="48" viewBox="0 0 48 48" fill="none" xmlns="http://www.w3.org/2000/svg">
<rect width="48" height="48" rx="24" fill="white"/>
<path fill-rule="evenodd" clip-rule="evenodd" d="M16.3502 10.4C16.3502 9.46107 17.0352 8.69995 17.8802 8.69995H37.7702C38.6152 8.69995 39.3002 9.46107 39.3002 10.4V37.6C39.3002 38.5389 38.6152 39.3 37.7702 39.3H17.8802C17.0352 39.3 16.3502 38.5389 16.3502 37.6V32.5H10.2302C9.3852 32.5 8.7002 31.7389 8.7002 30.8V17.2C8.7002 16.261 9.3852 15.5 10.2302 15.5H16.3502V10.4ZM27.4002 15.5V10.4H18.0502V15.5H27.4002ZM29.1002 10.4V15.5H37.6002V10.4H29.1002ZM27.4002 17.2H24.0002V23.15H27.4002V17.2ZM29.1002 23.15V17.2H37.6002V23.15H29.1002ZM27.4002 24.85H24.0002V30.8H27.4002V24.85ZM29.1002 30.8V24.85H37.6002V30.8H29.1002ZM27.4002 32.5H18.0502V37.6H27.4002V32.5ZM29.1002 37.6V32.5H37.6002V37.6H29.1002ZM22.3002 17.2V30.8H10.2302V17.2H22.3002Z" fill="#05BBC2"/>
<path d="M18.5 26.5H19V27H18.5V27.5H18V27H17.5V26.5H18V26H18.5V26.5Z" fill="#05BBC2"/>
<path fill-rule="evenodd" clip-rule="evenodd" d="M13.97 24.5C13.97 24.5 11 25.8484 11 26.8668V29.0001H21V26.8668C21 25.8484 17.8602 24.5 17.8602 24.5L16.5 25.5C16.3276 25.6211 15.6724 25.6211 15.5 25.5L13.97 24.5ZM17.8602 25.5549L16.5746 26.4576C16.2298 26.6997 15.7702 26.6997 15.4254 26.4576L14.1398 25.5549C14.0896 25.5727 14.0325 25.5934 13.97 25.6168C13.725 25.7085 13.4024 25.8396 13.0831 25.9989C12.7591 26.1606 12.4624 26.3399 12.2539 26.522C12.0287 26.7187 12 26.8357 12 26.8668V28.0001H20V26.8668C20 26.8357 19.9713 26.7187 19.7461 26.522C19.5376 26.3399 19.2409 26.1606 18.9169 25.9989C18.5976 25.8396 18.275 25.7085 18.03 25.6168C17.9675 25.5934 17.9104 25.5727 17.8602 25.5549Z" fill="#05BBC2"/>
<path fill-rule="evenodd" clip-rule="evenodd" d="M18 22C18 23.1046 17.1046 24 16 24C14.8954 24 14 23.1046 14 22C14 20.8954 14.8954 20 16 20C17.1046 20 18 20.8954 18 22ZM17.2 22C17.2 22.6628 16.6628 23.2 16 23.2C15.3372 23.2 14.8 22.6628 14.8 22C14.8 21.3373 15.3372 20.8 16 20.8C16.6628 20.8 17.2 21.3373 17.2 22Z" fill="#05BBC2"/>
</svg>
