<svg width="48" height="48" viewBox="0 0 48 48" fill="none" xmlns="http://www.w3.org/2000/svg">
<rect width="48" height="48" rx="24" fill="white"/>
<path fill-rule="evenodd" clip-rule="evenodd" d="M24 6C14.0589 6 6 14.0589 6 24C6 33.9411 14.0589 42 24 42C33.9411 42 42 33.9411 42 24C42 14.0589 33.9411 6 24 6ZM24 8.7C15.053 8.7 8.7 15.053 8.7 24C8.7 32.947 15.053 39.3 24 39.3C32.947 39.3 39.3 32.947 39.3 24C39.3 15.053 32.947 8.7 24 8.7Z" fill="#05BBC2"/>
<path d="M25.8002 14.1C25.8002 13.1059 24.9943 12.3 24.0002 12.3C23.0061 12.3 22.2002 13.1059 22.2002 14.1V26.7C22.2002 27.6942 23.0061 28.5 24.0002 28.5C24.9943 28.5 25.8002 27.6942 25.8002 26.7V14.1Z" fill="#05BBC2"/>
<path d="M24.0002 32.1C24.9943 32.1 25.8002 32.9058 25.8002 33.9C25.8002 34.8941 24.9943 35.7 24.0002 35.7C23.0061 35.7 22.2002 34.8941 22.2002 33.9C22.2002 32.9058 23.0061 32.1 24.0002 32.1Z" fill="#05BBC2"/>
</svg>
