<svg width="48" height="48" viewBox="0 0 48 48" fill="none" xmlns="http://www.w3.org/2000/svg">
<rect width="48" height="48" rx="24" fill="white"/>
<path fill-rule="evenodd" clip-rule="evenodd" d="M34.2602 20.125C35.3796 20.125 36.2852 19.2194 36.2852 18.1C36.2852 16.9806 35.3796 16.075 34.2602 16.075C33.1407 16.075 32.2352 16.9806 32.2352 18.1C32.2352 19.2194 33.1407 20.125 34.2602 20.125ZM34.2602 22.825C36.8707 22.825 38.9852 20.7106 38.9852 18.1C38.9852 15.4894 36.8707 13.375 34.2602 13.375C31.6495 13.375 29.5352 15.4894 29.5352 18.1C29.5352 20.7106 31.6495 22.825 34.2602 22.825Z" fill="#05BBC2"/>
<path fill-rule="evenodd" clip-rule="evenodd" d="M14.0102 20.125C15.1296 20.125 16.0352 19.2194 16.0352 18.1C16.0352 16.9806 15.1296 16.075 14.0102 16.075C12.8907 16.075 11.9852 16.9806 11.9852 18.1C11.9852 19.2194 12.8907 20.125 14.0102 20.125ZM14.0102 22.825C16.6207 22.825 18.7352 20.7106 18.7352 18.1C18.7352 15.4894 16.6207 13.375 14.0102 13.375C11.3995 13.375 9.28516 15.4894 9.28516 18.1C9.28516 20.7106 11.3995 22.825 14.0102 22.825Z" fill="#05BBC2"/>
<path fill-rule="evenodd" clip-rule="evenodd" d="M24 17.425C24.3735 17.425 24.675 17.1235 24.675 16.75C24.675 16.3765 24.3735 16.075 24 16.075C23.6265 16.075 23.325 16.3765 23.325 16.75C23.325 17.1235 23.6265 17.425 24 17.425ZM24 20.125C25.8648 20.125 27.375 18.6148 27.375 16.75C27.375 14.8852 25.8648 13.375 24 13.375C22.1352 13.375 20.625 14.8852 20.625 16.75C20.625 18.6148 22.1352 20.125 24 20.125Z" fill="#05BBC2"/>
<path fill-rule="evenodd" clip-rule="evenodd" d="M29.6228 29.2306C28.1933 29.9671 28.0501 30.5732 28.0501 30.7336V30.925H38.8501V30.7336C38.8501 30.5732 38.7069 29.9671 37.2773 29.2306C35.9626 28.5532 34.3604 28.225 33.4501 28.225C32.5398 28.225 30.9376 28.5532 29.6228 29.2306ZM33.4501 25.525C30.7467 25.525 25.3501 27.2699 25.3501 30.7336V33.625H41.5501V30.7336C41.5501 27.2699 36.1535 25.525 33.4501 25.525Z" fill="#05BBC2"/>
<path fill-rule="evenodd" clip-rule="evenodd" d="M10.7229 29.2306C9.29343 29.9671 9.1502 30.5732 9.1502 30.7336V30.925H19.9502V30.7336C19.9502 30.5732 19.807 29.9671 18.3774 29.2306C17.0627 28.5532 15.4605 28.225 14.5502 28.225C13.6399 28.225 12.0377 28.5532 10.7229 29.2306ZM14.5502 25.525C11.8468 25.525 6.4502 27.2699 6.4502 30.7336V33.625H22.6502V30.7336C22.6502 27.2699 17.2536 25.525 14.5502 25.525Z" fill="#05BBC2"/>
<path fill-rule="evenodd" clip-rule="evenodd" d="M29.452 23.4424C29.1458 23.555 28.8435 23.6744 28.5475 23.8009C27.2037 24.3752 25.8465 25.1511 24.7923 26.1889C24.5099 26.4669 24.242 26.7717 24.0004 27.1029C23.7589 26.7717 23.4909 26.4669 23.2086 26.1889C22.1543 25.1511 20.7973 24.3752 19.4533 23.8009C19.1573 23.6744 18.8551 23.555 18.5488 23.4424C20.296 22.5371 22.5429 22.0825 24.0004 22.0825C25.4579 22.0825 27.7048 22.5371 29.452 23.4424Z" fill="#05BBC2"/>
</svg>
