<svg width="48" height="48" viewBox="0 0 48 48" fill="none" xmlns="http://www.w3.org/2000/svg">
<rect width="48" height="48" rx="24" fill="white"/>
<path fill-rule="evenodd" clip-rule="evenodd" d="M19.7502 29.0999C19.7502 29.0999 18.4776 27.3132 18.0502 27.4106C13.4566 28.4568 8.7002 31.4753 8.7002 34.6843V39.2999H39.3002V34.6843C39.3002 31.4753 34.5438 28.4568 29.9502 27.4106C29.5228 27.3132 28.2502 29.0999 28.2502 29.0999H25.4325C24.4815 29.1 24.1182 29.1 23.6161 29.0999C23.3057 29.0999 22.9425 29.0999 22.3545 29.0999H19.7502ZM25.4325 30.7999C25.4324 30.7999 25.4326 30.7999 25.4325 30.7999C24.4816 30.8 24.1178 30.8 23.6157 30.7999C23.3053 30.7999 22.942 30.7999 22.3545 30.7999H18.8739L18.3655 30.0862L18.3572 30.0746L18.3231 30.0276C18.2924 29.9856 18.2469 29.9242 18.1906 29.8501C18.0765 29.6997 17.9256 29.5074 17.7685 29.3237C17.7467 29.2982 17.7255 29.2737 17.7049 29.2502C15.848 29.7626 14.03 30.6062 12.6547 31.6097C11.0205 32.802 10.4002 33.9167 10.4002 34.6843V37.5999H37.6002V34.6843C37.6002 33.9167 36.9799 32.802 35.3457 31.6097C33.9704 30.6062 32.1524 29.7626 30.2955 29.2502C30.2749 29.2737 30.2536 29.2982 30.2319 29.3237C30.0748 29.5074 29.9239 29.6997 29.8098 29.8501C29.7535 29.9242 29.708 29.9856 29.6773 30.0276L29.6432 30.0746L29.6355 30.0852L29.6348 30.0862L29.1265 30.7999H25.4325Z" fill="#05BBC2"/>
<path fill-rule="evenodd" clip-rule="evenodd" d="M30.8003 35.9V30.8H32.5003V35.9H30.8003Z" fill="#05BBC2"/>
<path fill-rule="evenodd" clip-rule="evenodd" d="M34.2001 34.2H29.1001V32.5H34.2001V34.2Z" fill="#05BBC2"/>
<path fill-rule="evenodd" clip-rule="evenodd" d="M24 24C27.7556 24 30.8 20.9555 30.8 17.2C30.8 13.4444 27.7556 10.4 24 10.4C20.2444 10.4 17.2 13.4444 17.2 17.2C17.2 20.9555 20.2444 24 24 24ZM24 25.7C28.6944 25.7 32.5 21.8943 32.5 17.2C32.5 12.5056 28.6944 8.69995 24 8.69995C19.3056 8.69995 15.5 12.5056 15.5 17.2C15.5 21.8943 19.3056 25.7 24 25.7Z" fill="#05BBC2"/>
</svg>
