<svg width="48" height="48" viewBox="0 0 48 48" fill="none" xmlns="http://www.w3.org/2000/svg">
<rect width="48" height="48" rx="24" fill="white"/>
<path fill-rule="evenodd" clip-rule="evenodd" d="M33.8996 38.4001C36.3849 38.4001 38.3996 36.3854 38.3996 33.9001C38.3996 31.4148 36.3849 29.4001 33.8996 29.4001C31.4143 29.4001 29.3996 31.4148 29.3996 33.9001C29.3996 36.3854 31.4143 38.4001 33.8996 38.4001ZM33.8996 40.2001C37.379 40.2001 40.1996 37.3795 40.1996 33.9001C40.1996 30.4207 37.379 27.6001 33.8996 27.6001C30.4202 27.6001 27.5996 30.4207 27.5996 33.9001C27.5996 37.3795 30.4202 40.2001 33.8996 40.2001Z" fill="#05BBC2"/>
<path fill-rule="evenodd" clip-rule="evenodd" d="M33.9 30.75C34.3971 30.75 34.8 31.1529 34.8 31.65V33.5272L35.4364 34.1636C35.7878 34.5151 35.7878 35.0849 35.4364 35.4364C35.0849 35.7878 34.5151 35.7878 34.1636 35.4364L33 34.2728V31.65C33 31.1529 33.4029 30.75 33.9 30.75Z" fill="#05BBC2"/>
<path fill-rule="evenodd" clip-rule="evenodd" d="M14.9999 23.1H13.1999V24.9H14.9999V23.1ZM13.1999 21.3C12.2058 21.3 11.3999 22.1059 11.3999 23.1V24.9C11.3999 25.8942 12.2058 26.7 13.1999 26.7H14.9999C15.994 26.7 16.7999 25.8942 16.7999 24.9V23.1C16.7999 22.1059 15.994 21.3 14.9999 21.3H13.1999Z" fill="#05BBC2"/>
<path fill-rule="evenodd" clip-rule="evenodd" d="M22.2001 23.1H20.4001V24.9H22.2001V23.1ZM20.4001 21.3C19.406 21.3 18.6001 22.1059 18.6001 23.1V24.9C18.6001 25.8942 19.406 26.7 20.4001 26.7H22.2001C23.1942 26.7 24.0001 25.8942 24.0001 24.9V23.1C24.0001 22.1059 23.1942 21.3 22.2001 21.3H20.4001Z" fill="#05BBC2"/>
<path fill-rule="evenodd" clip-rule="evenodd" d="M29.3998 23.1H27.5998V24.9H29.3998V23.1ZM27.5998 21.3C26.6057 21.3 25.7998 22.1059 25.7998 23.1V24.9C25.7998 25.8942 26.6057 26.7 27.5998 26.7H29.3998C30.3939 26.7 31.1998 25.8942 31.1998 24.9V23.1C31.1998 22.1059 30.3939 21.3 29.3998 21.3H27.5998Z" fill="#05BBC2"/>
<path fill-rule="evenodd" clip-rule="evenodd" d="M14.9999 30.3H13.1999V32.1H14.9999V30.3ZM13.1999 28.5C12.2058 28.5 11.3999 29.3059 11.3999 30.3V32.1C11.3999 33.0941 12.2058 33.9 13.1999 33.9H14.9999C15.994 33.9 16.7999 33.0941 16.7999 32.1V30.3C16.7999 29.3059 15.994 28.5 14.9999 28.5H13.1999Z" fill="#05BBC2"/>
<path fill-rule="evenodd" clip-rule="evenodd" d="M22.2001 30.3H20.4001V32.1H22.2001V30.3ZM20.4001 28.5C19.406 28.5 18.6001 29.3059 18.6001 30.3V32.1C18.6001 33.0941 19.406 33.9 20.4001 33.9H22.2001C23.1942 33.9 24.0001 33.0941 24.0001 32.1V30.3C24.0001 29.3059 23.1942 28.5 22.2001 28.5H20.4001Z" fill="#05BBC2"/>
<path fill-rule="evenodd" clip-rule="evenodd" d="M9.5998 13.2C9.5998 12.7029 10.0028 12.3 10.4998 12.3H14.9998V10.5H10.4998C9.00864 10.5 7.7998 11.7088 7.7998 13.2V34.8C7.7998 36.2912 9.00864 37.5 10.4998 37.5H28.729C28.3499 36.9564 28.0542 36.3502 27.8607 35.7H10.4998C10.0028 35.7 9.5998 35.2971 9.5998 34.8V13.2ZM32.9998 27.6638C33.2937 27.6218 33.5943 27.6 33.8998 27.6C34.2054 27.6 34.5059 27.6218 34.7998 27.6638V13.2C34.7998 11.7089 33.591 10.5 32.0998 10.5H29.3998V12.3H32.0998C32.5969 12.3 32.9998 12.7029 32.9998 13.2V27.6638ZM16.7998 12.3H26.3061V10.5H16.7998V12.3Z" fill="#05BBC2"/>
<path fill-rule="evenodd" clip-rule="evenodd" d="M36 18H8V16H36V18Z" fill="#05BBC2"/>
<path d="M13.1997 8.70005C13.1997 8.203 13.6026 7.80005 14.0997 7.80005C14.5968 7.80005 14.9997 8.203 14.9997 8.70005V13.2C14.9997 13.6971 14.5968 14.1 14.0997 14.1C13.6026 14.1 13.1997 13.6971 13.1997 13.2V8.70005Z" fill="#05BBC2"/>
<path d="M25.7998 8.70005C25.7998 8.203 26.2027 7.80005 26.6998 7.80005C27.1969 7.80005 27.5998 8.203 27.5998 8.70005V13.2C27.5998 13.6971 27.1969 14.1 26.6998 14.1C26.2027 14.1 25.7998 13.6971 25.7998 13.2V8.70005Z" fill="#05BBC2"/>
</svg>
