<svg width="48" height="48" viewBox="0 0 48 48" fill="none" xmlns="http://www.w3.org/2000/svg">
<rect width="48" height="48" rx="24" fill="white"/>
<path fill-rule="evenodd" clip-rule="evenodd" d="M12.5527 30.7999V34.1999C12.5527 35.1388 13.3138 35.8999 14.2527 35.8999H39.7527C40.6916 35.8999 41.4527 35.1388 41.4527 34.1999V20.5999C41.4527 19.661 40.6916 18.8999 39.7527 18.8999H37.6367V22.0183C37.7285 22.155 37.8335 22.2827 37.9506 22.3997C38.1873 22.6365 38.4685 22.8244 38.7778 22.9524C39.0869 23.0805 39.4182 23.1464 39.7527 23.1466V31.6499C39.4228 31.6519 39.0965 31.7177 38.7917 31.844C38.4823 31.9721 38.2012 32.16 37.9644 32.3968C37.7276 32.6336 37.5398 32.9147 37.4117 33.224C37.2835 33.5334 37.2175 33.865 37.2175 34.1999H16.7992C16.7951 33.8759 16.7293 33.5555 16.6053 33.256C16.4771 32.9467 16.2892 32.6656 16.0524 32.4288C15.8157 32.1919 15.5346 32.0041 15.2252 31.876C14.9168 31.7482 14.5864 31.6823 14.2527 31.6819V30.7999H12.5527Z" fill="#05BBC2"/>
<path fill-rule="evenodd" clip-rule="evenodd" d="M21.4869 22.3002C22.4258 22.3002 23.1869 21.5391 23.1869 20.6002C23.1869 19.6613 22.4258 18.9002 21.4869 18.9002C20.548 18.9002 19.7869 19.6613 19.7869 20.6002C19.7869 21.5391 20.548 22.3002 21.4869 22.3002ZM21.4869 24.0002C23.3646 24.0002 24.8869 22.4779 24.8869 20.6002C24.8869 18.7225 23.3646 17.2002 21.4869 17.2002C19.6092 17.2002 18.0869 18.7225 18.0869 20.6002C18.0869 22.4779 19.6092 24.0002 21.4869 24.0002Z" fill="#05BBC2"/>
<path fill-rule="evenodd" clip-rule="evenodd" d="M8.73662 12.1001C7.79774 12.1001 7.03662 12.8612 7.03662 13.8001V27.4001C7.03662 28.339 7.79774 29.1001 8.73662 29.1001H34.2366C35.1755 29.1001 35.9366 28.339 35.9366 27.4001V13.8001C35.9366 12.8612 35.1755 12.1001 34.2366 12.1001H8.73662ZM11.2851 13.8001H31.6876C31.688 14.1338 31.7539 14.4643 31.8817 14.7726C32.0098 15.082 32.1976 15.3631 32.4344 15.5999C32.6713 15.8367 32.9524 16.0245 33.2617 16.1526C33.5708 16.2807 33.9021 16.3466 34.2366 16.3468V24.8502C33.9068 24.8521 33.5804 24.9179 33.2756 25.0442C32.9662 25.1723 32.6851 25.3602 32.4483 25.597C32.2116 25.8338 32.0237 26.1149 31.8955 26.4242C31.7675 26.7336 31.7015 27.0652 31.7015 27.4001H11.2831C11.279 27.0761 11.2132 26.7557 11.0891 26.4562C10.961 26.1469 10.7732 25.8658 10.5364 25.629C10.2996 25.3921 10.0185 25.2043 9.70911 25.0762C9.40076 24.9484 9.07035 24.8825 8.73662 24.8821V16.3501C9.07096 16.3499 9.40201 16.284 9.71091 16.156C10.0203 16.0279 10.3014 15.84 10.5382 15.6032C10.775 15.3664 10.9628 15.0853 11.091 14.776C11.2191 14.4666 11.2851 14.135 11.2851 13.8001Z" fill="#05BBC2"/>
</svg>
