<svg width="135" height="60" viewBox="0 0 135 60" fill="none" xmlns="http://www.w3.org/2000/svg">
<g clip-path="url(#clip0_2149_24484)">
<path d="M0.644531 8.34375V12.2813H25.9668V8.34375H0.644531Z" fill="#1F70C1"/>
<path d="M0.644531 4.40625H25.9668V0.46875H0.644531V4.40625Z" fill="#1F70C1"/>
<path d="M29.5842 8.34375V12.2813H72.7433C72.4929 10.8878 72.0608 9.56521 71.4751 8.34375H29.5842Z" fill="#1F70C1"/>
<path d="M68.7216 4.40625H29.5842V0.46875H59.5444C63.0918 0.46875 66.3185 1.96364 68.7216 4.40625Z" fill="#1F70C1"/>
<path d="M76.6113 8.34375V12.2813H101.417L100.383 8.34375H76.6113Z" fill="#1F70C1"/>
<path d="M99.3496 4.40625H76.6113V0.46875H98.3161L99.3496 4.40625Z" fill="#1F70C1"/>
<path d="M110.719 8.34375L109.685 12.2813H134.491V8.34375H110.719Z" fill="#1F70C1"/>
<path d="M134.491 4.40625H111.752L112.786 0.46875H134.491V4.40625Z" fill="#1F70C1"/>
<path d="M127.256 16.2188H108.652L107.618 20.1563H127.256V16.2188Z" fill="#1F70C1"/>
<path d="M127.256 24.0938H116.403H106.585L105.551 28.0313L104.517 24.0938H94.6986H83.8462V28.0313H94.6986V24.0938L95.9044 28.0313H105.551H115.198L116.403 24.0938V28.0313H127.256V24.0938Z" fill="#1F70C1"/>
<path d="M127.256 31.9688H116.403V35.9063H127.256V31.9688Z" fill="#1F70C1"/>
<path d="M127.256 39.8438H116.403V43.7813H127.256V39.8438Z" fill="#1F70C1"/>
<path d="M134.491 47.7188H116.403V51.6563H134.491V47.7188Z" fill="#1F70C1"/>
<path d="M134.491 55.5938H116.403V59.5313H134.491V55.5938Z" fill="#1F70C1"/>
<path d="M0.644531 59.5313H25.9668V55.5938H0.644531V59.5313Z" fill="#1F70C1"/>
<path d="M0.644531 51.6563H25.9668V47.7188H0.644531V51.6563Z" fill="#1F70C1"/>
<path d="M7.87946 43.7813H18.7318V39.8438H7.87946V43.7813Z" fill="#1F70C1"/>
<path d="M7.87946 35.9063H18.7318V31.9688H7.87946V35.9063Z" fill="#1F70C1"/>
<path d="M7.87946 28.0313H18.7318V24.0938H7.87946V28.0313Z" fill="#1F70C1"/>
<path d="M7.87946 20.1563H18.7318V16.2188H7.87946V20.1563Z" fill="#1F70C1"/>
<path d="M36.8192 16.2188V20.1563H47.6716V16.2188H36.8192Z" fill="#1F70C1"/>
<path d="M60.3327 16.2188V20.1563H72.1711C72.5916 18.9112 72.8606 17.5893 72.9555 16.2188H60.3327Z" fill="#1F70C1"/>
<path d="M83.8462 16.2188V20.1563H103.484L102.45 16.2188H83.8462Z" fill="#1F70C1"/>
<path d="M70.1622 24.0938H36.8192V28.0313H65.8672C67.5476 27.0565 69.0083 25.7083 70.1622 24.0938Z" fill="#1F70C1"/>
<path d="M65.8672 31.9688H36.8192V35.9063H70.1622C69.0083 34.2917 67.5476 32.9435 65.8672 31.9688Z" fill="#1F70C1"/>
<path d="M72.1711 39.8438H58.524V43.7813H72.9555C72.8606 42.4107 72.5916 41.0888 72.1711 39.8438Z" fill="#1F70C1"/>
<path d="M83.8462 43.7813V39.8438H94.6986V43.7813H83.8462Z" fill="#1F70C1"/>
<path d="M94.6986 47.7188H76.6113V51.6563H94.6986V47.7188Z" fill="#1F70C1"/>
<path d="M103.139 51.6563L101.934 47.7188H109.168L107.963 51.6563H103.139Z" fill="#1F70C1"/>
<path d="M94.6986 55.5938H76.6113V59.5313H94.6986V55.5938Z" fill="#1F70C1"/>
<path d="M59.5444 59.5313C63.0918 59.5313 66.3185 58.0364 68.7216 55.5938H29.5842V59.5313H59.5444Z" fill="#1F70C1"/>
<path d="M29.5842 51.6563H71.4751C72.0608 50.4348 72.4929 49.1122 72.7433 47.7188H29.5842V51.6563Z" fill="#1F70C1"/>
<path d="M36.8192 43.7813H47.6716V39.8438H36.8192V43.7813Z" fill="#1F70C1"/>
<path d="M104.345 55.5938H106.757L105.551 59.5313L104.345 55.5938Z" fill="#1F70C1"/>
<path d="M110.374 43.7813H100.728L99.5219 39.8438H111.58L110.374 43.7813Z" fill="#1F70C1"/>
<path d="M112.786 35.9063L113.992 31.9688H97.1102L98.3161 35.9063H112.786Z" fill="#1F70C1"/>
<path d="M94.6986 35.9063H83.8462V31.9688H94.6986V35.9063Z" fill="#1F70C1"/>
</g>
<defs>
<clipPath id="clip0_2149_24484">
<rect width="133.846" height="60" fill="white" transform="translate(0.644531)"/>
</clipPath>
</defs>
</svg>
