<svg width="120" height="120" viewBox="0 0 120 120" fill="none" xmlns="http://www.w3.org/2000/svg">
<path d="M89.6953 57.293H88.4015C93.2414 56.6769 96.9961 52.5356 96.9961 47.5312C96.9961 42.1034 92.5802 37.6875 87.1523 37.6875C81.7245 37.6875 77.3086 42.1034 77.3086 47.5312C77.3086 52.5356 81.0633 56.6769 85.9032 57.293H84.6094C81.8415 57.293 79.2846 58.2122 77.2266 59.7606V59.7539C77.2266 52.9691 71.7067 47.4492 64.9219 47.4492H61.9943C67.8338 46.4931 72.3047 41.4143 72.3047 35.3086C72.3047 28.5238 66.7848 23.0039 60 23.0039C53.2152 23.0039 47.6953 28.5238 47.6953 35.3086C47.6953 41.4143 52.1662 46.4931 58.0057 47.4492H55.0781C48.2933 47.4492 42.7734 52.9691 42.7734 59.7539V59.7606C40.7154 58.2122 38.1585 57.293 35.3906 57.293H34.0968C38.9367 56.6769 42.6914 52.5356 42.6914 47.5312C42.6914 42.1034 38.2755 37.6875 32.8477 37.6875C27.4198 37.6875 23.0039 42.1034 23.0039 47.5312C23.0039 52.5356 26.7586 56.6769 31.5985 57.293H30.3047C23.5199 57.293 18 62.8129 18 69.5977V94.5352C18 95.8943 19.1018 96.9961 20.4609 96.9961H99.5391C100.898 96.9961 102 95.8943 102 94.5352V69.5977C102 62.8129 96.4801 57.293 89.6953 57.293ZM82.2305 47.5312C82.2305 44.8173 84.4384 42.6094 87.1523 42.6094C89.8663 42.6094 92.0742 44.8173 92.0742 47.5312C92.0742 50.2452 89.8663 52.4531 87.1523 52.4531C84.4384 52.4531 82.2305 50.2452 82.2305 47.5312ZM52.6172 35.3086C52.6172 31.2377 55.9291 27.9258 60 27.9258C64.0709 27.9258 67.3828 31.2377 67.3828 35.3086C67.3828 39.3795 64.0709 42.6914 60 42.6914C55.9291 42.6914 52.6172 39.3795 52.6172 35.3086ZM27.9258 47.5312C27.9258 44.8173 30.1337 42.6094 32.8477 42.6094C35.5616 42.6094 37.7695 44.8173 37.7695 47.5312C37.7695 50.2452 35.5616 52.4531 32.8477 52.4531C30.1337 52.4531 27.9258 50.2452 27.9258 47.5312ZM62.1226 66.3602L60 68.6244L57.8774 66.36L60 60.0044L62.1226 66.3602ZM22.9219 69.5977C22.9219 65.5268 26.2338 62.2148 30.3047 62.2148H30.4688V74.6836C30.4688 76.0427 31.5706 77.1445 32.9297 77.1445C34.2888 77.1445 35.3906 76.0427 35.3906 74.6836V62.2148C39.4615 62.2148 42.7734 65.5268 42.7734 69.5977V92.0742H22.9219V69.5977ZM47.6953 69.5977V59.7539C47.6953 55.683 51.0072 52.3711 55.0781 52.3711H57.3602L52.7438 66.193C52.4574 67.0507 52.6644 67.9961 53.2826 68.6558L58.2045 73.9058C59.1769 74.9431 60.8241 74.9418 61.7953 73.9058L66.7172 68.6558C67.3356 67.9961 67.5424 67.0507 67.256 66.193L62.6398 52.3711H64.9219C68.9928 52.3711 72.3047 55.683 72.3047 59.7539V69.5977V92.0742H47.6953V69.5977ZM97.0781 92.0742H77.2266V69.5977C77.2266 65.5268 80.5385 62.2148 84.6094 62.2148V74.6836C84.6094 76.0427 85.7112 77.1445 87.0703 77.1445C88.4294 77.1445 89.5312 76.0427 89.5312 74.6836V62.2148H89.6953C93.7662 62.2148 97.0781 65.5268 97.0781 69.5977V92.0742Z" fill="#05BBC2"/>
</svg>
