<svg width="48" height="48" viewBox="0 0 48 48" fill="none" xmlns="http://www.w3.org/2000/svg">
<rect width="48" height="48" rx="24" fill="white"/>
<path d="M35.7752 16.5611C36.2596 16.6726 36.7426 16.3702 36.8539 15.8857C36.9654 15.4013 36.6629 14.9183 36.1785 14.8069L30.2244 13.4381C29.74 13.3267 29.257 13.6291 29.1456 14.1136C29.0343 14.598 29.3367 15.081 29.8211 15.1923L35.7752 16.5611Z" fill="#05BBC2"/>
<path fill-rule="evenodd" clip-rule="evenodd" d="M32.9998 22.1998C36.9763 22.1998 40.1998 18.9763 40.1998 14.9998C40.1998 11.0234 36.9763 7.7998 32.9998 7.7998C29.0233 7.7998 25.7998 11.0234 25.7998 14.9998C25.7998 18.9763 29.0233 22.1998 32.9998 22.1998ZM32.9998 20.3998C35.9821 20.3998 38.3998 17.9821 38.3998 14.9998C38.3998 12.0175 35.9821 9.5998 32.9998 9.5998C30.0175 9.5998 27.5998 12.0175 27.5998 14.9998C27.5998 17.9821 30.0175 20.3998 32.9998 20.3998Z" fill="#05BBC2"/>
<path fill-rule="evenodd" clip-rule="evenodd" d="M17.5002 10.7203C16.9174 9.34163 14.9686 9.20257 14.1858 10.4838L8.06334 20.5029C7.35709 21.6587 8.14673 23.1343 9.52412 23.2325L20.2039 23.9946C21.5812 24.0928 22.5833 22.7452 22.0576 21.5015L17.5002 10.7203ZM15.7293 11.4113C15.728 11.4129 15.7253 11.4164 15.7217 11.4223L9.60881 21.426L9.61021 21.427C9.61197 21.4281 9.61474 21.4297 9.61953 21.4313C9.62406 21.4329 9.63425 21.4358 9.65222 21.437L20.3319 22.1991C20.3499 22.2004 20.3609 22.199 20.3665 22.1979C20.3724 22.1968 20.3766 22.1953 20.3799 22.1937C20.3842 22.1917 20.3886 22.1888 20.3924 22.1853L15.8423 11.4211C15.8406 11.4171 15.8391 11.4144 15.8382 11.4127C15.8329 11.4096 15.8167 11.402 15.7899 11.4C15.7602 11.3979 15.7403 11.4045 15.7338 11.4076L15.7317 11.4089L15.7307 11.4098L15.7293 11.4113Z" fill="#05BBC2"/>
<path fill-rule="evenodd" clip-rule="evenodd" d="M34.246 35.123C36.9489 33.8626 38.1183 30.6497 36.8579 27.9467C35.5975 25.2439 32.3846 24.0745 29.6817 25.3349L19.8936 29.8991C17.1906 31.1596 16.0213 34.3724 17.2816 37.0754C18.5421 39.7782 21.7549 40.9477 24.4579 39.6872L34.246 35.123ZM20.6543 31.5305C18.8523 32.3708 18.0727 34.5127 18.913 36.3146C19.7533 38.1166 21.8952 38.8961 23.6972 38.0559L27.7166 36.1816L24.674 29.6569L20.6543 31.5305ZM29.3479 35.4209L26.3051 28.8954L30.4424 26.9662C32.2444 26.126 34.3863 26.9055 35.2265 28.7075C36.0668 30.5094 35.2872 32.6514 33.4852 33.4916L29.3479 35.4209Z" fill="#05BBC2"/>
</svg>
