<svg width="48" height="48" viewBox="0 0 48 48" fill="none" xmlns="http://www.w3.org/2000/svg">
<g clip-path="url(#clip0_3084_18013)">
<rect width="48" height="48" rx="24" fill="white"/>
<path d="M48 0H0V48H48V0Z" fill="white"/>
<path fill-rule="evenodd" clip-rule="evenodd" d="M36.0539 15.5142C36.5156 15.5991 36.8211 16.0422 36.7362 16.5038C35.497 23.243 32.5059 27.9161 28.2907 30.8872C24.0951 33.8443 18.7799 35.0501 12.9947 35.0501H9.5502C9.08076 35.0501 8.7002 34.6696 8.7002 34.2001C8.7002 33.7307 9.08076 33.3501 9.5502 33.3501H12.9947C18.5633 33.3501 23.4953 32.1873 27.3113 29.4976C31.1076 26.8219 33.8923 22.5698 35.0642 16.1965C35.1491 15.7347 35.5922 15.4293 36.0539 15.5142Z" fill="#05BBC2"/>
<path fill-rule="evenodd" clip-rule="evenodd" d="M36.4233 14.6749C36.659 14.7334 36.8584 14.8898 36.9713 15.1048L39.2026 19.3548C39.4208 19.7705 39.2607 20.2843 38.8451 20.5025C38.4294 20.7207 37.9156 20.5607 37.6974 20.145L35.9107 16.7418L32.9807 18.7509C32.5935 19.0165 32.0644 18.9178 31.799 18.5306C31.5335 18.1434 31.6321 17.6144 32.0193 17.3489L35.7381 14.7989C35.9383 14.6616 36.1877 14.6164 36.4233 14.6749Z" fill="#05BBC2"/>
<path fill-rule="evenodd" clip-rule="evenodd" d="M10.4002 8.7002V37.6002H39.3002V39.3002H9.5502C9.08076 39.3002 8.7002 38.9197 8.7002 38.4502V8.7002H10.4002Z" fill="#05BBC2"/>
<path fill-rule="evenodd" clip-rule="evenodd" d="M18.1118 9.32852C18.5141 8.92621 19.0598 8.7002 19.6287 8.7002H21.5717C22.1406 8.7002 22.6863 8.92621 23.0886 9.32852C23.4909 9.73083 23.7169 10.2765 23.7169 10.8454V13.2335H26.105C26.6739 13.2335 27.2196 13.4595 27.6219 13.8618C28.0242 14.2641 28.2502 14.8098 28.2502 15.3787V17.3217C28.2502 17.8906 28.0242 18.4363 27.6219 18.8386C27.2196 19.2409 26.6739 19.4669 26.105 19.4669H23.7169V21.855C23.7169 22.4239 23.4909 22.9696 23.0886 23.3719C22.6863 23.7742 22.1406 24.0002 21.5717 24.0002H19.6287C19.0598 24.0002 18.5141 23.7742 18.1118 23.3719C17.7095 22.9696 17.4835 22.4239 17.4835 21.855V19.4669H15.0954C14.5265 19.4669 13.9808 19.2409 13.5785 18.8386C13.1762 18.4363 12.9502 17.8906 12.9502 17.3217V15.3787C12.9502 14.8098 13.1762 14.2641 13.5785 13.8618C13.9808 13.4595 14.5265 13.2335 15.0954 13.2335H17.4835V10.8454C17.4835 10.2765 17.7095 9.73083 18.1118 9.32852ZM19.6287 10.4002C19.5107 10.4002 19.3974 10.4471 19.314 10.5306C19.2304 10.6141 19.1835 10.7274 19.1835 10.8454V14.0835C19.1835 14.553 18.803 14.9335 18.3335 14.9335H15.0954C14.9774 14.9335 14.8641 14.9804 14.7806 15.064C14.6971 15.1474 14.6502 15.2607 14.6502 15.3787V17.3217C14.6502 17.4397 14.6971 17.5529 14.7806 17.6364C14.8641 17.72 14.9774 17.7669 15.0954 17.7669H18.3335C18.803 17.7669 19.1835 18.1474 19.1835 18.6169V21.855C19.1835 21.973 19.2304 22.0863 19.314 22.1698C19.3974 22.2533 19.5107 22.3002 19.6287 22.3002H21.5717C21.6897 22.3002 21.8029 22.2533 21.8864 22.1698C21.97 22.0863 22.0169 21.973 22.0169 21.855V18.6169C22.0169 18.1474 22.3974 17.7669 22.8669 17.7669H26.105C26.223 17.7669 26.3363 17.72 26.4198 17.6364C26.5033 17.5529 26.5502 17.4397 26.5502 17.3217V15.3787C26.5502 15.2607 26.5033 15.1474 26.4198 15.064C26.3363 14.9804 26.223 14.9335 26.105 14.9335H22.8669C22.3974 14.9335 22.0169 14.553 22.0169 14.0835V10.8454C22.0169 10.7274 21.97 10.6141 21.8864 10.5306C21.8029 10.4471 21.6897 10.4002 21.5717 10.4002H19.6287Z" fill="#05BBC2"/>
</g>
<defs>
<clipPath id="clip0_3084_18013">
<rect width="48" height="48" rx="24" fill="white"/>
</clipPath>
</defs>
</svg>
