<svg width="48" height="48" viewBox="0 0 48 48" fill="none" xmlns="http://www.w3.org/2000/svg">
<rect width="48" height="48" rx="24" fill="white"/>
<path fill-rule="evenodd" clip-rule="evenodd" d="M16.8865 12.3946C15.5616 11.069 13.4128 11.0682 12.0869 12.393L11.4532 13.0261C10.2479 12.6836 8.89939 12.9901 7.95033 13.9455C6.54989 15.3555 6.54989 17.6437 7.95033 19.0537L8.7 19.8084V29.3999H6V31.1999H7.84546C7.26201 31.7717 6.9 32.5685 6.9 33.4499C6.9 35.1896 8.3103 36.5999 10.05 36.5999C11.7897 36.5999 13.2 35.1896 13.2 33.4499C13.2 32.5685 12.838 31.7717 12.2545 31.1999H35.7454C35.162 31.7717 34.8 32.5685 34.8 33.4499C34.8 35.1896 36.2103 36.5999 37.95 36.5999C39.6897 36.5999 41.1 35.1896 41.1 33.4499C41.1 32.5685 40.738 31.7717 40.1545 31.1999H42V29.3999H38.4V26.5985C39.9496 26.218 41.1 24.8093 41.1 23.1296C41.1 21.158 39.5149 19.5597 37.5596 19.5597H18.699C18.6257 19.5597 18.5552 19.5302 18.5032 19.4779L18.1735 19.146L18.5051 18.8147C19.831 17.4899 19.8317 15.3413 18.5067 14.0156L16.8865 12.3946ZM16.905 17.8689L17.2328 17.5414C17.8554 16.9193 17.8558 15.9105 17.2336 15.2881L15.6134 13.6671C14.9912 13.0445 13.9818 13.0441 13.3591 13.6663L13.0437 13.9815L16.905 17.8689ZM39.3 23.1296C39.3 22.1379 38.5066 21.3597 37.5596 21.3597H18.699C18.1439 21.3597 17.6145 21.1374 17.2262 20.7465L11.7309 15.2141C11.0376 14.516 9.92079 14.516 9.2274 15.2141C8.5242 15.922 8.5242 17.0772 9.2274 17.7852L16.2941 24.8996H37.5596C38.5067 24.8996 39.3 24.1213 39.3 23.1296ZM15.2477 26.4004C15.438 26.592 15.696 26.6996 15.965 26.6996H36.6V29.3999H10.5V21.6206L15.2477 26.4004ZM11.4 33.4499C11.4 34.1955 10.7956 34.7999 10.05 34.7999C9.30441 34.7999 8.7 34.1955 8.7 33.4499C8.7 32.7043 9.30441 32.0999 10.05 32.0999C10.7956 32.0999 11.4 32.7043 11.4 33.4499ZM37.95 34.7999C38.6956 34.7999 39.3 34.1955 39.3 33.4499C39.3 32.7043 38.6956 32.0999 37.95 32.0999C37.2044 32.0999 36.6 32.7043 36.6 33.4499C36.6 34.1955 37.2044 34.7999 37.95 34.7999Z" fill="#05BBC2"/>
</svg>
