<svg width="48" height="48" viewBox="0 0 48 48" fill="none" xmlns="http://www.w3.org/2000/svg">
<rect width="48" height="48" rx="24" fill="white"/>
<path d="M19.5003 15.8999V18.5999H16.8003V20.3999H19.5003V23.0999H21.3003V20.3999H24.0003V18.5999H21.3003V15.8999H19.5003Z" fill="#05BBC2"/>
<path d="M17.7003 25.7998C17.2032 25.7998 16.8003 26.2027 16.8003 26.6998C16.8003 27.1969 17.2032 27.5998 17.7003 27.5998H30.3003C30.7974 27.5998 31.2003 27.1969 31.2003 26.6998C31.2003 26.2027 30.7974 25.7998 30.3003 25.7998H17.7003Z" fill="#05BBC2"/>
<path d="M16.8003 31.1998C16.8003 30.7027 17.2032 30.2998 17.7003 30.2998H30.3003C30.7974 30.2998 31.2003 30.7027 31.2003 31.1998C31.2003 31.6969 30.7974 32.0998 30.3003 32.0998H17.7003C17.2032 32.0998 16.8003 31.6969 16.8003 31.1998Z" fill="#05BBC2"/>
<path d="M17.7003 34.7998C17.2032 34.7998 16.8003 35.2027 16.8003 35.6998C16.8003 36.1969 17.2032 36.5998 17.7003 36.5998H30.3003C30.7974 36.5998 31.2003 36.1969 31.2003 35.6998C31.2003 35.2027 30.7974 34.7998 30.3003 34.7998H17.7003Z" fill="#05BBC2"/>
<path fill-rule="evenodd" clip-rule="evenodd" d="M17.6999 8.7C17.6999 7.20884 18.9087 6 20.3999 6H27.5999C29.0911 6 30.2999 7.20884 30.2999 8.7H33.8999C35.3911 8.7 36.5999 9.90883 36.5999 11.4V39.3C36.5999 40.7912 35.3911 42 33.8999 42H14.0999C12.6087 42 11.3999 40.7912 11.3999 39.3V11.4C11.3999 9.90883 12.6087 8.7 14.0999 8.7H17.6999ZM27.5999 13.2C29.0911 13.2 30.2999 11.9912 30.2999 10.5H33.8999C34.397 10.5 34.7999 10.9029 34.7999 11.4V39.3C34.7999 39.7971 34.397 40.2 33.8999 40.2H14.0999C13.6028 40.2 13.1999 39.7971 13.1999 39.3V11.4C13.1999 10.9029 13.6028 10.5 14.0999 10.5H17.6999C17.6999 11.9912 18.9087 13.2 20.3999 13.2H27.5999ZM20.3999 7.8C19.9028 7.8 19.4999 8.20295 19.4999 8.7V10.5C19.4999 10.9971 19.9028 11.4 20.3999 11.4H27.5999C28.097 11.4 28.4999 10.9971 28.4999 10.5V8.7C28.4999 8.20295 28.097 7.8 27.5999 7.8H20.3999Z" fill="#05BBC2"/>
</svg>
