<svg width="48" height="48" viewBox="0 0 48 48" fill="none" xmlns="http://www.w3.org/2000/svg">
<rect width="48" height="48" rx="24" fill="white"/>
<path fill-rule="evenodd" clip-rule="evenodd" d="M8.7 36.5999C7.20884 36.5999 6 35.3911 6 33.8999V14.0999C6 12.6087 7.20884 11.3999 8.7 11.3999H39.3C40.7912 11.3999 42 12.6087 42 14.0999V33.8999C42 35.3911 40.7912 36.5999 39.3 36.5999H8.7ZM7.8 14.0999C7.8 13.6028 8.20295 13.1999 8.7 13.1999H39.3C39.7971 13.1999 40.2 13.6028 40.2 14.0999V16.7999H7.8V14.0999ZM8.7 34.7999C8.20295 34.7999 7.8 34.397 7.8 33.8999V23.9999H40.2V33.8999C40.2 34.397 39.7971 34.7999 39.3 34.7999H8.7Z" fill="#05BBC2"/>
</svg>
