<svg width="48" height="48" viewBox="0 0 48 48" fill="none" xmlns="http://www.w3.org/2000/svg">
<rect width="48" height="48" rx="24" fill="white"/>
<path fill-rule="evenodd" clip-rule="evenodd" d="M10.4798 37.5198V9.7998H8.7998V38.3598C8.7998 38.8237 9.17589 39.1998 9.6398 39.1998H38.1998V37.5198H10.4798Z" fill="#05BBC2"/>
<path fill-rule="evenodd" clip-rule="evenodd" d="M13 24.9201C13 24.4561 13.3761 24.0801 13.84 24.0801H18.88C19.3439 24.0801 19.72 24.4561 19.72 24.9201V38.3601C19.72 38.824 19.3439 39.2001 18.88 39.2001H13.84C13.3761 39.2001 13 38.824 13 38.3601V24.9201ZM14.68 25.7601V37.5201H18.04V25.7601H14.68Z" fill="#05BBC2"/>
<path fill-rule="evenodd" clip-rule="evenodd" d="M21.3999 21.5597C21.3999 21.0958 21.776 20.7197 22.2399 20.7197H27.2799C27.7438 20.7197 28.1199 21.0958 28.1199 21.5597V38.3597C28.1199 38.8237 27.7438 39.1997 27.2799 39.1997H22.2399C21.776 39.1997 21.3999 38.8237 21.3999 38.3597V21.5597ZM23.0799 22.3997V37.5197H26.4399V22.3997H23.0799Z" fill="#05BBC2"/>
<path fill-rule="evenodd" clip-rule="evenodd" d="M29.7998 14.84C29.7998 14.3761 30.1759 14 30.6398 14H35.6798C36.1437 14 36.5198 14.3761 36.5198 14.84V38.36C36.5198 38.8239 36.1437 39.2 35.6798 39.2H30.6398C30.1759 39.2 29.7998 38.8239 29.7998 38.36V14.84ZM31.4798 15.68V37.52H34.8398V15.68H31.4798Z" fill="#05BBC2"/>
</svg>
