<svg width="48" height="48" viewBox="0 0 48 48" fill="none" xmlns="http://www.w3.org/2000/svg">
<rect width="48" height="48" rx="24" fill="white"/>
<path fill-rule="evenodd" clip-rule="evenodd" d="M11.61 13.1953C10.2961 14.8675 9.4999 17.152 9.4999 19.5371C9.4999 20.921 9.73792 22.2452 10.1569 23.506H17.9736L21.0228 18.0851L22.9282 24.7538L25.2597 21.7561H31.0999V23.5561H26.1401L22.1716 28.6583L20.477 22.727L19.0262 25.306H5.8999V23.506H8.27219C7.9072 22.2472 7.6999 20.9219 7.6999 19.5371C7.6999 16.7693 8.61901 14.0884 10.1947 12.0832C11.7747 10.0725 14.0504 8.70605 16.728 8.70605C19.8812 8.70605 22.2791 10.4731 23.8999 12.9665C25.5206 10.4732 27.9185 8.70605 31.0718 8.70605C33.7497 8.70605 36.0253 10.0727 37.6053 12.0835C39.1809 14.0889 40.0999 16.7698 40.0999 19.5371C40.0999 25.4614 36.0106 30.4086 32.1417 33.7855C30.1851 35.4932 28.2329 36.845 26.7716 37.7693C26.0401 38.2321 25.4293 38.5892 24.9994 38.8316C24.7844 38.9528 24.6145 39.0455 24.4971 39.1084C24.4386 39.1399 24.393 39.1639 24.3615 39.1804L24.3251 39.1994L24.3149 39.2046L24.3119 39.2062L24.3109 39.2067C24.3109 39.2067 24.3103 39.2071 23.8999 38.4061C23.5095 39.217 23.5092 39.2169 23.5092 39.2169L23.5038 39.2143L23.4913 39.2081L23.4459 39.1858C23.4068 39.1665 23.3502 39.1381 23.2775 39.1011C23.132 39.027 22.9219 38.9176 22.6575 38.7742C22.1291 38.4875 21.3828 38.064 20.5031 37.5122C18.747 36.4106 16.4435 34.7883 14.2773 32.7127C13.1218 31.6057 11.9995 30.364 11.0187 28.9975C10.7289 28.5937 10.8213 28.0314 11.2251 27.7416C11.6289 27.4518 12.1913 27.5442 12.4811 27.9481C13.3851 29.2076 14.4303 30.3665 15.5225 31.4131C17.5736 33.3782 19.7701 34.9275 21.4596 35.9873C22.3029 36.5162 23.0158 36.9208 23.5159 37.192C23.6578 37.2691 23.7825 37.3353 23.888 37.3905C23.956 37.3531 24.0318 37.3108 24.1153 37.2637C24.5221 37.0343 25.1065 36.6927 25.8094 36.2481C27.2169 35.3578 29.0897 34.0602 30.9581 32.4293C34.7392 29.129 38.2999 24.6417 38.2999 19.5371C38.2999 17.1524 37.5039 14.8678 36.1899 13.1956C34.8804 11.5289 33.092 10.5061 31.0718 10.5061C28.2793 10.5061 26.1134 12.3248 24.7077 15.1877L23.8999 16.8331L23.0921 15.1877C21.6864 12.3246 19.5204 10.5061 16.728 10.5061C14.708 10.5061 12.9196 11.5287 11.61 13.1953ZM23.8999 38.4061L23.5092 39.2169L23.9124 39.4109L24.3109 39.2067L23.8999 38.4061Z" fill="#05BBC2"/>
</svg>
