<svg width="48" height="48" viewBox="0 0 48 48" fill="none" xmlns="http://www.w3.org/2000/svg">
<rect width="48" height="48" rx="24" fill="white"/>
<path d="M27.7068 7.70711C28.0973 7.31658 28.0973 6.68342 27.7068 6.29289C27.3163 5.90237 26.6831 5.90237 26.2926 6.29289L23.9999 8.58554L21.7073 6.29289C21.3168 5.90237 20.6836 5.90237 20.2931 6.29289C19.9025 6.68342 19.9025 7.31658 20.2931 7.70711L22.5857 9.99976L20.2929 12.2925C19.9024 12.683 19.9024 13.3162 20.2929 13.7067C20.6835 14.0973 21.3166 14.0973 21.7072 13.7067L23.9999 11.414L26.2927 13.7067C26.6832 14.0973 27.3164 14.0973 27.7069 13.7067C28.0974 13.3162 28.0974 12.683 27.7069 12.2925L25.4141 9.99976L27.7068 7.70711Z" fill="#05BBC2"/>
<path d="M33.9485 32.1838C34.1231 32.7077 33.84 33.274 33.316 33.4487L28.816 34.9487C28.2921 35.1233 27.7258 34.8402 27.5511 34.3162C27.3765 33.7923 27.6596 33.226 28.1836 33.0513L32.6836 31.5513C33.2075 31.3767 33.7738 31.6598 33.9485 32.1838Z" fill="#05BBC2"/>
<path fill-rule="evenodd" clip-rule="evenodd" d="M6.68378 26.4487L10 27.5541V36C10 36.4262 10.2701 36.8056 10.6729 36.945L23.6649 41.4422C23.8636 41.5131 24.086 41.5217 24.3015 41.4535L24.3161 41.4487L24.3313 41.4436L37.3271 36.945C37.7299 36.8056 38 36.4262 38 36V27.5541L41.3162 26.4487C41.6264 26.3453 41.8665 26.0968 41.9591 25.7832C42.0517 25.4697 41.9851 25.1306 41.7809 24.8753L37.7809 19.8753C37.6595 19.7236 37.5003 19.6145 37.3249 19.5542L24.3271 15.055C24.1152 14.9817 23.8848 14.9817 23.6729 15.055L10.6751 19.5543C10.4997 19.6145 10.3405 19.7236 10.2191 19.8753L6.21914 24.8753C6.01489 25.1306 5.94836 25.4697 6.04096 25.7832C6.13356 26.0968 6.3736 26.3453 6.68378 26.4487ZM21.3192 30.5735L23 28.1724V39.0956L12 35.2879V28.2208L20.1838 30.9487C20.6036 31.0886 21.0655 30.936 21.3192 30.5735ZM14.0571 20.5L24 23.9418L33.9429 20.5L24 17.0582L14.0571 20.5ZM26.6808 30.5735L25 28.1724V39.0956L36 35.2879V28.2208L27.8162 30.9487C27.3964 31.0886 26.9345 30.936 26.6808 30.5735ZM11.3399 21.6759L8.67677 25.0048L14.1881 26.8419L20.1086 28.8154L22.4212 25.5117L22.2861 25.465L11.3399 21.6759ZM39.3232 25.0048L36.6601 21.6759L25.5789 25.5117L27.8915 28.8154L39.3232 25.0048Z" fill="#05BBC2"/>
</svg>
