<svg width="48" height="48" viewBox="0 0 48 48" fill="none" xmlns="http://www.w3.org/2000/svg">
<rect width="48" height="48" rx="24" fill="white"/>
<path fill-rule="evenodd" clip-rule="evenodd" d="M10.325 37.6749V9.62494H8.625V38.5249C8.625 38.9944 9.00556 39.3749 9.475 39.3749H38.375V37.6749H10.325Z" fill="#05BBC2"/>
<path fill-rule="evenodd" clip-rule="evenodd" d="M12.875 24.9249C12.875 24.4554 13.2555 24.0749 13.725 24.0749H18.825C19.2945 24.0749 19.675 24.4554 19.675 24.9249V38.5249C19.675 38.9943 19.2945 39.3749 18.825 39.3749H13.725C13.2555 39.3749 12.875 38.9943 12.875 38.5249V24.9249ZM14.575 25.7749V37.6749H17.975V25.7749H14.575Z" fill="#05BBC2"/>
<path fill-rule="evenodd" clip-rule="evenodd" d="M12.875 31.7249C12.875 31.2555 13.2555 30.8749 13.725 30.8749H18.825C19.2945 30.8749 19.675 31.2555 19.675 31.7249V38.5249C19.675 38.9944 19.2945 39.3749 18.825 39.3749H13.725C13.2555 39.3749 12.875 38.9944 12.875 38.5249V31.7249ZM14.575 32.5749V37.6749H17.975V32.5749H14.575Z" fill="#05BBC2"/>
<path fill-rule="evenodd" clip-rule="evenodd" d="M21.375 21.525C21.375 21.0555 21.7555 20.675 22.225 20.675H27.325C27.7945 20.675 28.175 21.0555 28.175 21.525V38.525C28.175 38.9944 27.7945 39.375 27.325 39.375H22.225C21.7555 39.375 21.375 38.9944 21.375 38.525V21.525ZM23.075 22.375V37.675H26.475V22.375H23.075Z" fill="#05BBC2"/>
<path fill-rule="evenodd" clip-rule="evenodd" d="M21.375 28.325C21.375 27.8556 21.7555 27.475 22.225 27.475H27.325C27.7945 27.475 28.175 27.8556 28.175 28.325V38.525C28.175 38.9945 27.7945 39.375 27.325 39.375H22.225C21.7555 39.375 21.375 38.9945 21.375 38.525V28.325ZM23.075 29.175V37.675H26.475V29.175H23.075Z" fill="#05BBC2"/>
<path fill-rule="evenodd" clip-rule="evenodd" d="M29.875 14.7249C29.875 14.2555 30.2555 13.8749 30.725 13.8749H35.825C36.2945 13.8749 36.675 14.2555 36.675 14.7249V38.5249C36.675 38.9944 36.2945 39.3749 35.825 39.3749H30.725C30.2555 39.3749 29.875 38.9944 29.875 38.5249V14.7249ZM31.575 15.5749V37.6749H34.975V15.5749H31.575Z" fill="#05BBC2"/>
<path fill-rule="evenodd" clip-rule="evenodd" d="M29.875 24.9249C29.875 24.4554 30.2555 24.0749 30.725 24.0749H35.825C36.2945 24.0749 36.675 24.4554 36.675 24.9249V38.5249C36.675 38.9943 36.2945 39.3749 35.825 39.3749H30.725C30.2555 39.3749 29.875 38.9943 29.875 38.5249V24.9249ZM31.575 25.7749V37.6749H34.975V25.7749H31.575Z" fill="#05BBC2"/>
</svg>
