<svg width="48" height="48" viewBox="0 0 48 48" fill="none" xmlns="http://www.w3.org/2000/svg">
<rect width="48" height="48" rx="24" fill="white"/>
<path fill-rule="evenodd" clip-rule="evenodd" d="M15.5 19.7499C15.5 19.2804 15.8805 18.8999 16.35 18.8999H31.65C32.1195 18.8999 32.5 19.2804 32.5 19.7499V32.4999C32.5 32.9694 32.1195 33.3499 31.65 33.3499H16.35C15.8805 33.3499 15.5 32.9694 15.5 32.4999V19.7499ZM17.2 24.8499V27.3999H20.6V24.8499H17.2ZM17.2 31.6499V29.0999H20.6V31.6499H17.2ZM22.3 31.6499V29.0999H25.7V31.6499H22.3ZM27.4 31.6499V29.0999H30.8V31.6499H27.4ZM27.4 24.8499V27.3999H30.8V24.8499H27.4ZM22.3 27.3999H25.7V24.8499H22.3V27.3999ZM17.2 23.1499H30.8V20.5999H17.2V23.1499Z" fill="#05BBC2"/>
<path fill-rule="evenodd" clip-rule="evenodd" d="M12.1001 7.85C12.1001 7.38056 12.4806 7 12.9501 7H29.9501C30.1755 7 30.3918 7.08956 30.5511 7.24896L35.6511 12.349C35.8105 12.5083 35.9001 12.7246 35.9001 12.95V40.15C35.9001 40.6195 35.5196 41 35.0501 41H12.9501C12.4806 41 12.1001 40.6195 12.1001 40.15V7.85ZM13.8001 8.7V39.3H34.2001V13.8H29.9501C29.4806 13.8 29.1001 13.4195 29.1001 12.95V8.7H13.8001ZM30.8001 9.90208V12.1H32.998L30.8001 9.90208Z" fill="#05BBC2"/>
</svg>
