<svg width="48" height="48" viewBox="0 0 48 48" fill="none" xmlns="http://www.w3.org/2000/svg">
<rect width="48" height="48" rx="24" fill="white"/>
<path fill-rule="evenodd" clip-rule="evenodd" d="M34.2002 17.1999C34.2002 15.7915 35.3418 14.6499 36.7502 14.6499C38.1586 14.6499 39.3002 15.7915 39.3002 17.1999V34.4573L36.7502 38.2823L34.2002 34.4573V17.1999ZM36.7502 16.3499C36.2807 16.3499 35.9002 16.7304 35.9002 17.1999V33.9425L36.7502 35.2175L37.6002 33.9425V17.1999C37.6002 16.7304 37.2197 16.3499 36.7502 16.3499Z" fill="#05BBC2"/>
<path fill-rule="evenodd" clip-rule="evenodd" d="M38.4498 20.5999H35.0498V18.8999H38.4498V20.5999Z" fill="#05BBC2"/>
<path fill-rule="evenodd" clip-rule="evenodd" d="M12.1002 10.4C11.1613 10.4 10.4002 11.1611 10.4002 12.1V35.8993C10.4002 36.8382 11.1613 37.5993 12.1002 37.5993H29.1002C30.0391 37.5993 30.8002 36.8382 30.8002 35.8993V12.1C30.8002 11.1611 30.0391 10.4 29.1002 10.4H12.1002ZM8.7002 12.1C8.7002 10.2222 10.2224 8.69995 12.1002 8.69995H29.1002C30.9779 8.69995 32.5002 10.2222 32.5002 12.1V35.8993C32.5002 37.7771 30.9779 39.2993 29.1002 39.2993H12.1002C10.2224 39.2993 8.7002 37.7771 8.7002 35.8993V12.1Z" fill="#05BBC2"/>
<path fill-rule="evenodd" clip-rule="evenodd" d="M20.5996 16.35C20.5996 15.8805 20.9802 15.5 21.4496 15.5H28.2496C28.7191 15.5 29.0996 15.8805 29.0996 16.35C29.0996 16.8195 28.7191 17.2 28.2496 17.2H21.4496C20.9802 17.2 20.5996 16.8195 20.5996 16.35Z" fill="#05BBC2"/>
<path fill-rule="evenodd" clip-rule="evenodd" d="M20.5996 19.7499C20.5996 19.2804 20.9802 18.8999 21.4496 18.8999H28.2496C28.7191 18.8999 29.0996 19.2804 29.0996 19.7499C29.0996 20.2194 28.7191 20.5999 28.2496 20.5999H21.4496C20.9802 20.5999 20.5996 20.2194 20.5996 19.7499Z" fill="#05BBC2"/>
<path fill-rule="evenodd" clip-rule="evenodd" d="M20.5996 27.3998C20.5996 26.9303 20.9802 26.5498 21.4496 26.5498H28.2496C28.7191 26.5498 29.0996 26.9303 29.0996 27.3998C29.0996 27.8693 28.7191 28.2498 28.2496 28.2498H21.4496C20.9802 28.2498 20.5996 27.8693 20.5996 27.3998Z" fill="#05BBC2"/>
<path fill-rule="evenodd" clip-rule="evenodd" d="M20.5996 30.8C20.5996 30.3305 20.9802 29.95 21.4496 29.95H28.2496C28.7191 29.95 29.0996 30.3305 29.0996 30.8C29.0996 31.2694 28.7191 31.65 28.2496 31.65H21.4496C20.9802 31.65 20.5996 31.2694 20.5996 30.8Z" fill="#05BBC2"/>
<path fill-rule="evenodd" clip-rule="evenodd" d="M13.7996 27.4V29.95H16.3496V27.4H13.7996ZM12.9496 25.7H17.1996C17.6691 25.7 18.0496 26.0805 18.0496 26.55V30.8C18.0496 31.2694 17.6691 31.65 17.1996 31.65H12.9496C12.4802 31.65 12.0996 31.2694 12.0996 30.8V26.55C12.0996 26.0805 12.4802 25.7 12.9496 25.7Z" fill="#05BBC2"/>
<path fill-rule="evenodd" clip-rule="evenodd" d="M18.6506 15.7489C18.9826 16.0809 18.9826 16.6191 18.6506 16.951L14.6496 20.952L12.3486 18.651C12.0166 18.3191 12.0166 17.7809 12.3486 17.4489C12.6805 17.117 13.2187 17.117 13.5506 17.4489L14.6496 18.5479L17.4486 15.7489C17.7805 15.417 18.3187 15.417 18.6506 15.7489Z" fill="#05BBC2"/>
</svg>
