<svg width="48" height="48" viewBox="0 0 48 48" fill="none" xmlns="http://www.w3.org/2000/svg">
<rect width="48" height="48" rx="24" fill="white"/>
<path fill-rule="evenodd" clip-rule="evenodd" d="M5.51283 17.0724L7.99999 17.9484V24.6413C7.99999 24.9791 8.20257 25.2797 8.50467 25.3902L18.2487 28.954C18.3977 29.0102 18.5645 29.017 18.7261 28.9629L18.7371 28.9591L18.7485 28.9551L28.4953 25.3902C28.7974 25.2797 29 24.9791 29 24.6413V17.9484L31.4871 17.0724C31.7198 16.9905 31.8998 16.7936 31.9693 16.5451C32.0387 16.2966 31.9888 16.0279 31.8356 15.8256L28.8356 11.8634C28.7446 11.7432 28.6252 11.6567 28.4936 11.6089L18.7453 8.04356C18.5864 7.98548 18.4136 7.98548 18.2547 8.04356L8.50632 11.609C8.37477 11.6567 8.25537 11.7432 8.16432 11.8634L5.16435 15.8256C5.01117 16.0279 4.96127 16.2966 5.03072 16.5451C5.10017 16.7936 5.2802 16.9905 5.51283 17.0724ZM16.4894 20.3411L17.75 18.4384V27.0944L9.49999 24.077V18.4767L15.6378 20.6385C15.9527 20.7493 16.2991 20.6284 16.4894 20.3411ZM11.0428 12.3584L18.5 15.0859L25.9571 12.3584L18.5 9.63099L11.0428 12.3584ZM20.5106 20.3411L19.25 18.4384V27.0944L27.5 24.077V18.4767L21.3621 20.6385C21.0473 20.7493 20.7009 20.6284 20.5106 20.3411ZM9.00492 13.2903L7.00757 15.9282L11.1411 17.384L15.5814 18.9479L17.3159 16.3299L17.2146 16.2929L9.00492 13.2903ZM29.9924 15.9282L27.995 13.2903L19.6842 16.3299L21.4186 18.9479L29.9924 15.9282Z" fill="#05BBC2"/>
<path fill-rule="evenodd" clip-rule="evenodd" d="M33 36.4286C36.5504 36.4286 39.4286 33.5504 39.4286 30C39.4286 26.4496 36.5504 23.5714 33 23.5714C29.4496 23.5714 26.5714 26.4496 26.5714 30C26.5714 33.5504 29.4496 36.4286 33 36.4286ZM33 39C37.9706 39 42 34.9706 42 30C42 25.0294 37.9706 21 33 21C28.0294 21 24 25.0294 24 30C24 34.9706 28.0294 39 33 39Z" fill="#05BBC2"/>
<path fill-rule="evenodd" clip-rule="evenodd" d="M33.3333 26C34.0698 26 34.6667 26.5698 34.6667 27.2727V29.9274L35.6095 30.8273C36.1302 31.3244 36.1302 32.1302 35.6095 32.6272C35.0888 33.1243 34.2446 33.1243 33.7239 32.6272L32 30.9817V27.2727C32 26.5698 32.5969 26 33.3333 26Z" fill="#05BBC2"/>
<path fill-rule="evenodd" clip-rule="evenodd" d="M20.2415 24.2006C20.1081 23.813 20.2167 23.4242 20.4841 23.3322L23.8726 22.1665C24.1399 22.0745 24.4647 22.3142 24.5981 22.7018C24.7315 23.0895 24.6228 23.4783 24.3555 23.5702L20.967 24.736C20.6996 24.828 20.3748 24.5883 20.2415 24.2006Z" fill="#05BBC2"/>
</svg>
