<svg width="48" height="48" viewBox="0 0 48 48" fill="none" xmlns="http://www.w3.org/2000/svg">
<rect width="48" height="48" rx="24" fill="white"/>
<path fill-rule="evenodd" clip-rule="evenodd" d="M14.9999 7.8C14.0058 7.8 13.1999 8.60589 13.1999 9.6V34.8C13.1999 35.7941 14.0058 36.6 14.9999 36.6H24.8999V38.4H14.9999C13.0117 38.4 11.3999 36.7882 11.3999 34.8V9.6C11.3999 7.61177 13.0117 6 14.9999 6H32.9999C34.9881 6 36.5999 7.61177 36.5999 9.6V34.8C36.5999 36.7882 34.9881 38.4 32.9999 38.4H30.2999V36.6H32.9999C33.994 36.6 34.7999 35.7941 34.7999 34.8V9.6C34.7999 8.60589 33.994 7.8 32.9999 7.8H14.9999Z" fill="#05BBC2"/>
<path fill-rule="evenodd" clip-rule="evenodd" d="M18.5991 12.2999C18.5991 11.8028 19.0021 11.3999 19.4991 11.3999H28.4991C28.9962 11.3999 29.3991 11.8028 29.3991 12.2999C29.3991 12.797 28.9962 13.1999 28.4991 13.1999H19.4991C19.0021 13.1999 18.5991 12.797 18.5991 12.2999Z" fill="#05BBC2"/>
<path fill-rule="evenodd" clip-rule="evenodd" d="M14.9995 17.7C14.9995 17.203 15.4024 16.8 15.8995 16.8H32.0995C32.5966 16.8 32.9995 17.203 32.9995 17.7C32.9995 18.1971 32.5966 18.6 32.0995 18.6H15.8995C15.4024 18.6 14.9995 18.1971 14.9995 17.7Z" fill="#05BBC2"/>
<path fill-rule="evenodd" clip-rule="evenodd" d="M14.9995 21.2999C14.9995 20.8028 15.4024 20.3999 15.8995 20.3999H32.0995C32.5966 20.3999 32.9995 20.8028 32.9995 21.2999C32.9995 21.797 32.5966 22.1999 32.0995 22.1999H15.8995C15.4024 22.1999 14.9995 21.797 14.9995 21.2999Z" fill="#05BBC2"/>
<path fill-rule="evenodd" clip-rule="evenodd" d="M14.9995 24.9C14.9995 24.4029 15.4024 24 15.8995 24H32.0995C32.5966 24 32.9995 24.4029 32.9995 24.9C32.9995 25.3971 32.5966 25.8 32.0995 25.8H15.8995C15.4024 25.8 14.9995 25.3971 14.9995 24.9Z" fill="#05BBC2"/>
<path fill-rule="evenodd" clip-rule="evenodd" d="M27.5995 33.9C28.5937 33.9 29.3995 33.0941 29.3995 32.1C29.3995 31.1059 28.5937 30.3 27.5995 30.3C26.6054 30.3 25.7995 31.1059 25.7995 32.1C25.7995 33.0941 26.6054 33.9 27.5995 33.9ZM27.5995 35.7C29.5877 35.7 31.1995 34.0882 31.1995 32.1C31.1995 30.1118 29.5877 28.5 27.5995 28.5C25.6113 28.5 23.9995 30.1118 23.9995 32.1C23.9995 34.0882 25.6113 35.7 27.5995 35.7Z" fill="#05BBC2"/>
<path fill-rule="evenodd" clip-rule="evenodd" d="M26.6999 33.8999H24.8999V41.9999L27.5999 40.6499L30.2999 41.9999V33.8999H28.4999V39.0874L27.5999 38.6374L26.6999 39.0874V33.8999Z" fill="#05BBC2"/>
</svg>
