<svg width="48" height="48" viewBox="0 0 48 48" fill="none" xmlns="http://www.w3.org/2000/svg">
<rect width="48" height="48" rx="24" fill="white"/>
<path d="M11.0713 34.1937C11.0713 34.52 10.807 34.7836 10.4814 34.7836H8.587C8.26142 34.7836 7.99711 34.5193 7.99711 34.1937C7.99711 33.8681 8.26142 33.6038 8.587 33.6038H10.4807C10.807 33.6031 11.0713 33.8674 11.0713 34.1937ZM23.6088 33.6031H21.7151C21.3895 33.6031 21.1252 33.8674 21.1252 34.1929C21.1252 34.5185 21.3895 34.7828 21.7151 34.7828H23.6088C23.9344 34.7828 24.1987 34.5185 24.1987 34.1929C24.1987 33.8674 23.9344 33.6031 23.6088 33.6031ZM15.1518 21.6554H17.0433C17.3696 21.6554 17.6332 21.3911 17.6332 21.0656C17.6332 20.74 17.3689 20.4757 17.0433 20.4757H15.1518C14.8255 20.4757 14.5619 20.74 14.5619 21.0656C14.5619 21.3911 14.8262 21.6554 15.1518 21.6554ZM42.9001 17.5011V32.6448C42.9001 33.4539 42.2423 34.1117 41.4331 34.1117H32.5383V36.1376C32.5383 37.0087 31.8296 37.7175 30.9584 37.7175H19.8104C19.436 37.7175 19.0913 37.5861 18.8203 37.3668C18.5494 37.5853 18.2053 37.7175 17.8303 37.7175H6.68223C5.80959 37.7175 5.1001 37.0087 5.1001 36.1376V24.9895C5.1001 24.1184 5.80959 23.4096 6.68223 23.4096H11.7181C11.6848 23.2819 11.6649 23.1483 11.6649 23.0102V11.8621C11.6649 10.991 12.3736 10.2822 13.2448 10.2822H24.3929C25.264 10.2822 25.9728 10.991 25.9728 11.8621V23.0102C25.9728 23.1483 25.9529 23.2819 25.9196 23.4096H29.6767V17.5019C29.6767 16.6927 30.3346 16.0349 31.1437 16.0349H32.8669C33.1016 15.7256 33.4656 15.5262 33.8746 15.5262H34.2327C34.4807 14.5827 35.3076 13.888 36.2873 13.888C37.2677 13.888 38.0961 14.5835 38.3442 15.5262H38.7022C39.1105 15.5262 39.4737 15.7256 39.7085 16.0349H41.4309C42.2416 16.0342 42.9001 16.6927 42.9001 17.5011ZM33.7735 16.8529V17.7256C33.7735 17.8097 33.8274 17.8718 33.8761 17.8718H38.7044C38.7517 17.8718 38.8049 17.809 38.8049 17.7256V16.8529C38.8049 16.7688 38.7517 16.7068 38.7044 16.7068H37.8318C37.5062 16.7068 37.2419 16.4424 37.2419 16.1169C37.2419 15.5388 36.8144 15.0685 36.2895 15.0685C35.7653 15.0685 35.3394 15.5388 35.3394 16.1169C35.3394 16.4432 35.0751 16.7068 34.7495 16.7068H33.8768C33.8274 16.706 33.7735 16.7688 33.7735 16.8529ZM24.4586 28.3066L25.0337 27.8836C25.2419 27.7308 25.5254 27.73 25.7328 27.8836L26.3102 28.3081V24.5901H24.4578V28.3066H24.4586ZM17.893 15.18L18.4704 14.7555C18.6786 14.6026 18.9621 14.6026 19.1695 14.7555L19.7446 15.1785V11.462H17.8923V15.18H17.893ZM13.2456 23.4096H17.831H19.8111H24.3943C24.6114 23.4096 24.7937 23.2265 24.7937 23.0102V11.8621C24.7937 11.6451 24.6107 11.4627 24.3943 11.4627H20.9266V16.3472C20.9266 16.5702 20.8011 16.7732 20.6025 16.8736C20.5184 16.9164 20.4268 16.9371 20.336 16.9371C20.212 16.9371 20.0894 16.898 19.9861 16.8219L18.8203 15.964L17.6531 16.8219C17.4737 16.9541 17.236 16.9733 17.0374 16.8729C16.8388 16.7725 16.714 16.5687 16.714 16.3465V11.462H13.2463C13.03 11.462 12.8469 11.6451 12.8469 11.8614V23.0095C12.8454 23.2265 13.0285 23.4096 13.2456 23.4096ZM11.3282 28.3081L11.9056 27.8836C12.1138 27.7308 12.3965 27.7308 12.6047 27.8836L13.1821 28.3081V24.5901H11.3282V28.3081ZM18.2304 36.1376V24.9895C18.2304 24.7725 18.0473 24.5901 17.831 24.5901H14.3633V29.4746C14.3633 29.6968 14.2378 29.9006 14.0399 30.001C13.9558 30.0438 13.8642 30.0645 13.7734 30.0645C13.6501 30.0645 13.5268 30.0261 13.4235 29.95L12.2555 29.0914L11.0876 29.9493C10.9082 30.0815 10.6704 30.1006 10.4718 30.0002C10.2732 29.8998 10.1485 29.6961 10.1485 29.4738V24.5894H6.68223C6.46075 24.5894 6.28061 24.7688 6.28061 24.9888V36.1368C6.28061 36.3576 6.46075 36.5362 6.68223 36.5362H17.8303C18.0473 36.537 18.2304 36.3539 18.2304 36.1376ZM31.3585 34.1117H31.1452C30.336 34.1117 29.6782 33.4539 29.6782 32.6448V24.5894H27.4914V29.4738C27.4914 29.6961 27.3659 29.8998 27.1681 30.0002C27.0839 30.0431 26.9923 30.0637 26.9015 30.0637C26.7782 30.0637 26.655 30.0253 26.5516 29.9493L25.3844 29.0914L24.2186 29.9493C24.0392 30.0815 23.8008 30.1014 23.6022 30.001C23.4036 29.9006 23.2781 29.6968 23.2781 29.4746V24.5901H19.8104C19.5896 24.5901 19.4109 24.7695 19.4109 24.9895V36.1376C19.4109 36.3583 19.5903 36.537 19.8104 36.537H30.9584C31.1747 36.537 31.3578 36.3539 31.3578 36.1376V34.1117H31.3585ZM41.7196 17.5011C41.7196 17.3461 41.5882 17.2147 41.4331 17.2147H39.9846V17.7256C39.9846 18.4572 39.4102 19.0523 38.7037 19.0523H33.8753C33.1681 19.0523 32.5922 18.4572 32.5922 17.7256V17.2147H31.1437C30.9887 17.2147 30.8573 17.3461 30.8573 17.5011V32.6448C30.8573 32.7998 30.9887 32.9312 31.1437 32.9312H41.4317C41.5867 32.9312 41.7181 32.7998 41.7181 32.6448V17.5011H41.7196ZM34.4187 24.878L33.4442 25.8541L32.8905 25.3003C32.6601 25.07 32.2866 25.07 32.0562 25.3003C31.8259 25.5307 31.8259 25.9043 32.0562 26.1346L33.0271 27.1054C33.1378 27.2162 33.2877 27.2782 33.4442 27.2782C33.6007 27.2782 33.7513 27.2162 33.8613 27.1047L35.253 25.7108C35.4833 25.4805 35.4833 25.1062 35.2522 24.8766C35.0212 24.647 34.6491 24.647 34.4187 24.878ZM40.1042 25.4015H36.8816C36.556 25.4015 36.2917 25.6658 36.2917 25.9914C36.2917 26.317 36.556 26.5813 36.8816 26.5813H40.1042C40.4298 26.5813 40.6941 26.317 40.6941 25.9914C40.6941 25.6658 40.4298 25.4015 40.1042 25.4015ZM33.0278 23.0213C33.143 23.1364 33.2943 23.194 33.4449 23.194C33.5955 23.194 33.7469 23.1364 33.8621 23.0213L35.2537 21.6296C35.4841 21.3993 35.4841 21.0257 35.2537 20.7954C35.0234 20.565 34.6498 20.565 34.4195 20.7954L33.4449 21.7699L32.8912 21.2162C32.6609 20.9858 32.2873 20.9858 32.057 21.2162C31.8266 21.4465 31.8266 21.8201 32.057 22.0504L33.0278 23.0213ZM40.1042 21.3166H36.8816C36.556 21.3166 36.2917 21.5809 36.2917 21.9065C36.2917 22.232 36.556 22.4964 36.8816 22.4964H40.1042C40.4298 22.4964 40.6941 22.232 40.6941 21.9065C40.6941 21.5809 40.4298 21.3166 40.1042 21.3166ZM34.4195 28.963L33.4449 29.9375L32.8912 29.3853C32.6609 29.1549 32.2866 29.1556 32.0562 29.386C31.8259 29.6171 31.8266 29.9906 32.057 30.221L33.0278 31.1896C33.143 31.3048 33.2936 31.3616 33.4449 31.3616C33.5963 31.3616 33.7469 31.304 33.8621 31.1889L35.2537 29.7972C35.4841 29.5669 35.4841 29.1933 35.2537 28.963C35.0234 28.7319 34.6498 28.7319 34.4195 28.963ZM40.1042 29.4864H36.8816C36.556 29.4864 36.2917 29.7507 36.2917 30.0763C36.2917 30.4019 36.556 30.6662 36.8816 30.6662H40.1042C40.4298 30.6662 40.6941 30.4019 40.6941 30.0763C40.6941 29.7507 40.4298 29.4864 40.1042 29.4864Z" fill="#05BBC2"/>
</svg>
