<svg width="48" height="48" viewBox="0 0 48 48" fill="none" xmlns="http://www.w3.org/2000/svg">
<rect width="48" height="48" rx="24" fill="white"/>
<path fill-rule="evenodd" clip-rule="evenodd" d="M17.4545 13V14.4189C17.4545 14.4136 17.4544 14.4107 17.4539 14.4107C17.453 14.4106 17.4514 14.4157 17.4481 14.4266C17.4341 14.4717 17.3896 14.6149 17.2492 14.8739C17.0681 15.2076 16.809 15.5871 16.5239 15.9626C16.243 16.3324 15.9586 16.6696 15.7428 16.9159C15.6355 17.0383 15.5467 17.1364 15.4856 17.203C15.4552 17.2363 15.4317 17.2614 15.4165 17.2777L15.4001 17.2953L15.3968 17.2987L15 17.7167V35.1429C15 39.4823 18.3578 43 22.5 43C25.9331 43 28.8273 40.5836 29.7177 37.2857H26.8135C26.0475 38.975 24.4039 40.1429 22.5 40.1429C19.8641 40.1429 17.7273 37.9043 17.7273 35.1429V18.876L17.7515 18.8483C17.9959 18.5696 18.3252 18.1797 18.658 17.7417C18.9863 17.3093 19.341 16.8001 19.6201 16.2857C19.6894 16.1581 19.7632 16.0141 19.8337 15.8573L25.0751 15.8571C25.3955 16.7656 25.9541 17.5273 26.3876 18.0407C26.707 18.4193 27.023 18.7371 27.2727 18.9717V20.1429H30V17.5941L29.4597 17.1674L29.4582 17.1663L29.4469 17.157C29.4349 17.1473 29.4147 17.1307 29.3879 17.1079C29.3337 17.062 29.2526 16.9916 29.1535 16.9003C28.9534 16.7159 28.69 16.4553 28.4306 16.1481C27.849 15.459 27.5455 14.8364 27.5455 14.4287V13.0003L17.4545 13Z" fill="#05BBC2"/>
<path d="M32 30C32 31.6569 30.6569 33 29 33C27.3431 33 26 31.6569 26 30C26 28.5918 26.8268 27.0649 27.7954 25.7936C28.2258 25.2287 28.6581 24.748 29 24.3933C29.3419 24.748 29.7742 25.2287 30.2046 25.7936C31.1732 27.0649 32 28.5918 32 30Z" stroke="#05BBC2" stroke-width="2"/>
<path d="M17 5H28V10H17V5Z" fill="#05BBC2"/>
</svg>
