<svg width="48" height="48" viewBox="0 0 48 48" fill="none" xmlns="http://www.w3.org/2000/svg">
<rect width="48" height="48" rx="24" fill="#05BBC2"/>
<path d="M30.2857 30.3714C34.3719 23.9594 33.8583 24.7594 33.976 24.5922C35.4637 22.4938 36.25 20.0242 36.25 17.45C36.25 10.6235 30.7104 5 23.875 5C17.0619 5 11.5 10.6124 11.5 17.45C11.5 20.0225 12.3028 22.5568 13.8393 24.6835L17.4642 30.3715C13.5885 30.967 7 32.7419 7 36.65C7 38.0746 7.92985 40.1049 12.3597 41.6869C15.4528 42.7916 19.5423 43.4 23.875 43.4C31.9769 43.4 40.75 41.1146 40.75 36.65C40.75 32.7412 34.1692 30.9682 30.2857 30.3714ZM15.7187 23.4459C15.7063 23.4265 15.6934 23.4076 15.6799 23.389C14.4014 21.6301 13.75 19.5456 13.75 17.45C13.75 11.8237 18.2805 7.25 23.875 7.25C29.4579 7.25 34 11.8257 34 17.45C34 19.549 33.3609 21.5628 32.1516 23.2753C32.0432 23.4183 32.6086 22.5399 23.875 36.2442L15.7187 23.4459ZM23.875 41.15C15.0255 41.15 9.25 38.5488 9.25 36.65C9.25 35.3738 12.2176 33.2754 18.7936 32.4574L22.9263 38.9422C23.1328 39.2663 23.4906 39.4625 23.8749 39.4625C24.2593 39.4625 24.6171 39.2662 24.8236 38.9422L28.9562 32.4574C35.5323 33.2754 38.5 35.3738 38.5 36.65C38.5 38.5327 32.7765 41.15 23.875 41.15Z" fill="white"/>
<path d="M23.875 11.825C20.7734 11.825 18.25 14.3483 18.25 17.45C18.25 20.5516 20.7734 23.075 23.875 23.075C26.9766 23.075 29.5 20.5516 29.5 17.45C29.5 14.3483 26.9766 11.825 23.875 11.825ZM23.875 20.825C22.014 20.825 20.5 19.3109 20.5 17.45C20.5 15.589 22.014 14.075 23.875 14.075C25.736 14.075 27.25 15.589 27.25 17.45C27.25 19.3109 25.736 20.825 23.875 20.825Z" fill="white"/>
</svg>
