<svg width="282" height="60" viewBox="0 0 282 60" fill="none" xmlns="http://www.w3.org/2000/svg">
<g clip-path="url(#clip0_2149_24454)">
<path d="M117.373 11.9987V47.9987H111.118V19.7487H111.035L99.86 47.9987H95.6903L84.2653 19.7487H84.1819V47.9987H78.4277V11.9987H87.4343L97.7752 38.6654H97.942L108.867 11.9987H117.373ZM122.543 14.7487C122.543 13.7487 122.877 12.9154 123.627 12.2487C124.378 11.582 125.212 11.2487 126.213 11.2487C127.297 11.2487 128.214 11.582 128.881 12.2487C129.548 12.9154 129.965 13.7487 129.965 14.7487C129.965 15.7487 129.632 16.582 128.881 17.2487C128.131 17.9154 127.297 18.2487 126.213 18.2487C125.128 18.2487 124.294 17.9154 123.627 17.2487C122.96 16.4987 122.543 15.6654 122.543 14.7487ZM129.298 22.1654V47.9987H123.21V22.1654H129.298ZM147.728 43.582C148.646 43.582 149.646 43.4154 150.73 42.9154C151.815 42.4987 152.815 41.9154 153.733 41.2487V46.9154C152.732 47.4987 151.648 47.9154 150.397 48.1654C149.146 48.4154 147.812 48.582 146.311 48.582C142.474 48.582 139.389 47.4154 137.054 44.9987C134.635 42.582 133.468 39.4987 133.468 35.832C133.468 31.6654 134.719 28.2487 137.137 25.582C139.556 22.9154 142.975 21.582 147.478 21.582C148.646 21.582 149.813 21.7487 150.897 21.9987C152.065 22.2487 152.982 22.6654 153.649 22.9987V28.832C152.732 28.1654 151.731 27.582 150.814 27.2487C149.813 26.9154 148.812 26.6654 147.812 26.6654C145.393 26.6654 143.475 27.4154 141.974 28.9987C140.473 30.582 139.806 32.6654 139.806 35.332C139.806 37.9154 140.556 39.9987 141.974 41.4154C143.392 42.832 145.31 43.582 147.728 43.582ZM170.995 21.7487C171.496 21.7487 171.913 21.7487 172.329 21.832C172.746 21.9154 173.08 21.9987 173.33 22.082V28.2487C172.997 27.9987 172.58 27.7487 171.913 27.582C171.245 27.4154 170.578 27.2487 169.661 27.2487C168.16 27.2487 166.909 27.9154 165.908 29.1654C164.907 30.4154 164.324 32.332 164.324 34.9987V47.9987H158.236V22.1654H164.324V26.2487H164.407C164.991 24.832 165.825 23.7487 166.909 22.9154C168.076 22.1654 169.411 21.7487 170.995 21.7487ZM173.664 35.4987C173.664 31.2487 174.915 27.832 177.25 25.332C179.668 22.832 183.004 21.582 187.257 21.582C191.26 21.582 194.429 22.7487 196.681 25.1654C198.932 27.582 200.1 30.832 200.1 34.9154C200.1 39.082 198.849 42.4154 196.514 44.9154C194.095 47.4154 190.843 48.6654 186.673 48.6654C182.67 48.6654 179.501 47.4987 177.166 45.1654C174.831 42.7487 173.664 39.4987 173.664 35.4987ZM180.002 35.2487C180.002 37.9154 180.585 39.9987 181.836 41.4154C183.087 42.832 184.839 43.582 187.09 43.582C189.258 43.582 191.01 42.9154 192.177 41.4154C193.345 39.9987 193.929 37.9154 193.929 35.082C193.929 32.332 193.345 30.2487 192.177 28.7487C191.01 27.332 189.258 26.582 187.174 26.582C184.922 26.582 183.254 27.332 182.003 28.832C180.585 30.4154 180.002 32.4987 180.002 35.2487ZM209.19 28.9987C209.19 29.832 209.44 30.582 210.024 31.082C210.607 31.582 211.775 32.1654 213.693 32.9154C216.111 33.9154 217.863 34.9987 218.78 36.1654C219.781 37.4154 220.281 38.832 220.281 40.582C220.281 42.9987 219.364 44.9154 217.446 46.4154C215.611 47.9154 213.026 48.582 209.857 48.582C208.773 48.582 207.605 48.4154 206.271 48.1654C204.937 47.9154 203.852 47.582 202.935 47.1654V41.1654C204.019 41.9154 205.27 42.582 206.521 42.9987C207.772 43.4154 208.939 43.6654 210.024 43.6654C211.358 43.6654 212.442 43.4987 213.026 43.082C213.693 42.6654 214.027 42.082 214.027 41.1654C214.027 40.332 213.693 39.6654 213.026 38.9987C212.359 38.4154 211.024 37.7487 209.19 36.9987C206.938 36.082 205.354 34.9987 204.436 33.832C203.519 32.6654 203.019 31.1654 203.019 29.332C203.019 26.9987 203.936 25.082 205.771 23.582C207.605 22.082 210.024 21.332 212.942 21.332C213.86 21.332 214.86 21.4154 215.945 21.6654C217.029 21.9154 218.029 22.1654 218.78 22.4154V28.332C217.946 27.832 217.029 27.332 215.945 26.9154C214.86 26.4987 213.776 26.332 212.776 26.332C211.608 26.332 210.691 26.582 210.107 26.9987C209.523 27.582 209.19 28.1654 209.19 28.9987ZM222.866 35.4987C222.866 31.2487 224.117 27.832 226.452 25.332C228.871 22.832 232.206 21.582 236.46 21.582C240.462 21.582 243.631 22.7487 245.883 25.1654C248.135 27.582 249.302 30.832 249.302 34.9154C249.302 39.082 248.051 42.4154 245.716 44.9154C243.298 47.4154 240.045 48.6654 235.876 48.6654C231.873 48.6654 228.704 47.4987 226.369 45.1654C224.117 42.7487 222.866 39.4987 222.866 35.4987ZM229.204 35.2487C229.204 37.9154 229.788 39.9987 231.039 41.4154C232.29 42.832 234.041 43.582 236.293 43.582C238.461 43.582 240.212 42.9154 241.38 41.4154C242.547 39.9987 243.131 37.9154 243.131 35.082C243.131 32.332 242.547 30.2487 241.38 28.7487C240.212 27.332 238.461 26.582 236.376 26.582C234.125 26.582 232.457 27.332 231.206 28.832C229.871 30.4154 229.204 32.4987 229.204 35.2487ZM269.567 27.1654H260.477V47.9987H254.306V27.1654H249.969V22.1654H254.306V18.582C254.306 15.9154 255.223 13.6654 256.974 11.9154C258.726 10.1654 260.977 9.33203 263.729 9.33203C264.48 9.33203 265.147 9.41536 265.731 9.41536C266.315 9.41536 266.815 9.58203 267.232 9.7487V14.9987C267.065 14.9154 266.648 14.7487 266.148 14.582C265.647 14.4154 265.064 14.332 264.397 14.332C263.146 14.332 262.145 14.7487 261.478 15.4987C260.811 16.2487 260.477 17.4987 260.477 18.9987V22.082H269.567V16.2487L275.655 14.4154V22.082H281.826V27.082H275.655V39.1654C275.655 40.7487 275.988 41.832 276.489 42.4987C277.072 43.1654 277.99 43.4987 279.241 43.4987C279.574 43.4987 279.991 43.4154 280.492 43.2487C280.992 43.082 281.409 42.9154 281.743 42.6654V47.6654C281.326 47.9154 280.742 48.082 279.824 48.2487C278.907 48.4154 278.073 48.4987 277.156 48.4987C274.571 48.4987 272.653 47.832 271.402 46.4987C270.151 45.1654 269.484 43.082 269.484 40.332L269.567 27.1654Z" fill="#737373"/>
<path d="M28.8079 0H0.287109V28.5H28.8079V0Z" fill="#F25022"/>
<path d="M60.3313 0H31.8105V28.5H60.3313V0Z" fill="#7FBA00"/>
<path d="M28.8079 31.5H0.287109V60H28.8079V31.5Z" fill="#00A4EF"/>
<path d="M60.3313 31.5H31.8105V60H60.3313V31.5Z" fill="#FFB900"/>
</g>
<defs>
<clipPath id="clip0_2149_24454">
<rect width="281.538" height="60" fill="white" transform="translate(0.287109)"/>
</clipPath>
</defs>
</svg>
