<svg width="60" height="60" viewBox="0 0 60 60" fill="none" xmlns="http://www.w3.org/2000/svg">
<rect width="60" height="60" rx="30" fill="white"/>
<path fill-rule="evenodd" clip-rule="evenodd" d="M17.125 45.2805V45.5581C17.125 46.8007 16.1177 47.8081 14.875 47.8081H11.5C10.2574 47.8081 9.25 46.8007 9.25 45.5581V33.1883C9.25 31.9457 10.2574 30.9383 11.5 30.9383H14.875C15.9392 30.9383 16.8309 31.6772 17.065 32.67C18.555 32.1331 20.2952 31.4939 20.8277 31.2512C21.28 31.0452 21.8022 30.9752 22.2361 30.9501C22.6924 30.9238 23.1658 30.942 23.58 30.9741C23.9979 31.0064 24.3771 31.0546 24.6509 31.0944C24.7884 31.1145 24.9009 31.1326 24.9802 31.1459C25.0199 31.1526 25.0514 31.158 25.0737 31.1621L25.1001 31.1668L25.1079 31.1682L25.1119 31.1689L25.1321 31.1728L32.657 32.8608L32.704 32.8759L32.7168 32.8798L32.7687 32.8957C32.8161 32.91 32.8879 32.931 32.9806 32.9567C33.1664 33.0082 33.4334 33.0776 33.7518 33.147C34.3986 33.2881 35.2133 33.4198 35.973 33.4198C36.6749 33.4198 37.401 33.6814 37.7891 34.3923C38.1224 35.0026 38.0448 35.6727 37.9201 36.1368C37.7647 36.7144 37.443 37.3222 37.0339 37.8386C37.5859 37.6304 38.1894 37.3838 38.8372 37.118L38.9756 37.0611C40.8015 36.3119 42.9666 35.4233 44.8763 35.1075C47.0584 34.7465 48.6467 35.5387 49.3667 36.944C50.0076 38.1949 49.8588 39.8367 48.8942 40.8259C48.6521 41.0742 48.2832 41.3347 47.9128 41.575C47.5172 41.8315 47.03 42.1214 46.4886 42.4284C45.4044 43.0434 44.0621 43.7504 42.7145 44.4338C40.046 45.7872 37.2488 47.1033 36.3599 47.4288C35.3299 47.8061 34.2234 47.8418 33.1594 47.787C32.5798 47.7572 31.9065 47.6902 31.2372 47.6236C30.7537 47.5756 30.2724 47.5277 29.8302 47.4942C27.6614 47.3299 25.9969 46.8006 24.4636 46.313L24.2772 46.2537C22.6936 45.7511 21.2205 45.3052 19.2686 45.2266C18.8223 45.2086 17.9312 45.2413 17.125 45.2805ZM21.7609 33.2985C21.833 33.2657 22.0243 33.2162 22.3658 33.1964C22.6849 33.178 23.0489 33.1897 23.4064 33.2173C23.7604 33.2448 24.0875 33.2862 24.327 33.3209C24.4461 33.3383 24.542 33.3538 24.6069 33.3647C24.6394 33.3702 24.664 33.3745 24.6798 33.3773L24.6823 33.3778L32.0707 35.0352L32.1215 35.0506C32.1829 35.0691 32.2703 35.0946 32.3797 35.125C32.598 35.1855 32.9062 35.2654 33.2722 35.3453C33.9306 35.4889 34.8126 35.6405 35.7117 35.6661C35.6476 35.848 35.539 36.0628 35.3918 36.2766C35.2123 36.5376 35.0151 36.7395 34.8532 36.855C34.3845 37.1898 34.0063 37.3299 33.7767 37.3895C33.6605 37.4197 33.5787 37.4301 33.5383 37.4337L33.5211 37.4351L33.5146 37.4354L27.4823 37.3625L27.267 39.5942L27.4687 38.4874L27.2681 39.5944L27.328 39.6052L27.4995 39.636C27.648 39.6627 27.8619 39.7007 28.1248 39.7467C28.6502 39.8387 29.3719 39.9627 30.1565 40.0905C31.7027 40.3425 33.5664 40.6217 34.6238 40.6855C35.3541 40.7296 36.2046 40.5055 36.9955 40.2414C37.821 39.9659 38.7534 39.5844 39.691 39.1996C41.623 38.4072 43.5902 37.6008 45.2435 37.3274C46.6727 37.0909 47.1814 37.613 47.3642 37.9699C47.6261 38.4812 47.4837 39.0495 47.2833 39.2551C47.2342 39.3055 47.057 39.4481 46.6884 39.6872C46.345 39.91 45.9002 40.1754 45.3786 40.4713C44.3367 41.0622 43.0287 41.7516 41.6968 42.4271C39.0064 43.7917 36.3283 45.0442 35.5861 45.316C34.9852 45.5362 34.2424 45.5897 33.2752 45.5399C32.7038 45.5105 32.1618 45.4554 31.5708 45.3952C31.0931 45.3466 30.5834 45.2949 30.0002 45.2507C28.0969 45.1064 26.6499 44.6468 25.0993 44.1541L24.958 44.1092C23.352 43.5994 21.6334 43.07 19.3591 42.9784C18.8471 42.9578 17.9357 42.9894 17.125 43.0278V35.0393C18.7062 34.4734 21.048 33.6236 21.7609 33.2985ZM24.9057 32.2749L25.1119 31.1689C25.1122 31.169 25.1119 31.1689 24.9057 32.2749ZM14.875 33.1883H11.5V45.5581H14.875V33.1883Z" fill="#05BBC2"/>
<path fill-rule="evenodd" clip-rule="evenodd" d="M35.8861 19.3334C35.6118 18.5572 34.8716 18 34 18V17.5H33V18C31.8954 18 31 18.8954 31 20C31 21.1046 31.8954 22 33 22V24C32.5653 24 32.1943 23.7224 32.0568 23.3334C31.9648 23.073 31.6791 22.9365 31.4187 23.0286C31.1583 23.1206 31.0219 23.4063 31.1139 23.6666C31.3882 24.4428 32.1284 25 33 25V25.5H34V25C35.1046 25 36 24.1046 36 23C36 21.8954 35.1046 21 34 21V19C34.4347 19 34.8057 19.2776 34.9432 19.6666C35.0352 19.927 35.3209 20.0635 35.5813 19.9714C35.8417 19.8794 35.9781 19.5937 35.8861 19.3334ZM33 19C32.4477 19 32 19.4477 32 20C32 20.5523 32.4477 21 33 21V19ZM34 24C34.5523 24 35 23.5523 35 23C35 22.4477 34.5523 22 34 22V24Z" fill="#05BBC2"/>
<path fill-rule="evenodd" clip-rule="evenodd" d="M41 21.5C41 25.6421 37.6421 29 33.5 29C29.3579 29 26 25.6421 26 21.5C26 17.3579 29.3579 14 33.5 14C37.6421 14 41 17.3579 41 21.5ZM39.5 21.5C39.5 25.0898 37.0898 27.5 33.5 27.5C29.9102 27.5 27.5 25.0898 27.5 21.5C27.5 17.9102 29.9102 15.5 33.5 15.5C37.0898 15.5 39.5 17.9102 39.5 21.5Z" fill="#05BBC2"/>
</svg>
