<svg width="206" height="60" viewBox="0 0 206 60" fill="none" xmlns="http://www.w3.org/2000/svg">
<g clip-path="url(#clip0_2149_24460)">
<path fill-rule="evenodd" clip-rule="evenodd" d="M191.022 24.1864C190.838 24.2233 190.653 24.6295 190.653 24.8509C190.616 26.3273 190.579 30.2403 190.579 32.8978C190.579 32.9717 190.69 33.1192 190.801 33.1192C191.354 33.1562 192.683 33.1931 193.828 33.1931C195.415 33.1931 196.338 32.9717 196.855 32.7503C198.183 32.0859 198.811 30.6461 198.811 29.0588C198.811 25.4784 196.301 24.1125 192.572 24.1125C192.314 24.0759 191.576 24.0759 191.022 24.1864ZM200.546 40.6865C200.546 37.0322 197.851 35.0018 192.979 35.0018C192.757 35.0018 191.207 34.9649 190.838 35.0388C190.727 35.0757 190.579 35.1496 190.579 35.2605C190.579 37.8811 190.542 42.0524 190.653 43.6763C190.727 44.3777 191.244 45.3744 191.871 45.6697C192.536 46.0389 194.049 46.1125 195.083 46.1125C197.999 46.1125 200.546 44.4886 200.546 40.6865ZM183.492 22.1563C183.861 22.1563 184.969 22.2668 187.811 22.2668C190.506 22.2668 192.647 22.1932 195.267 22.1932C198.479 22.1932 202.908 23.3374 202.908 28.1359C202.908 30.4985 201.247 32.3811 199.069 33.3039C198.959 33.3408 198.959 33.4144 199.069 33.4513C202.17 34.2267 204.902 36.1462 204.902 39.7635C204.902 43.3073 202.687 45.5587 199.475 46.9616C197.519 47.8105 195.083 48.1058 192.61 48.1058C190.727 48.1058 185.67 47.8844 182.865 47.9583C182.57 47.8474 183.123 46.5185 183.381 46.2971C184.046 46.2601 184.563 46.2232 185.264 46.0018C186.261 45.7435 186.371 45.4482 186.519 43.9348C186.593 42.6428 186.593 38.0654 186.593 34.8172C186.593 30.3507 186.63 27.3239 186.593 25.8475C186.556 24.7033 186.15 24.3341 185.338 24.1124C184.71 24.0019 183.677 23.8541 182.828 23.7435C182.643 23.5588 183.271 22.3037 183.492 22.1563ZM162.193 45.1159C163.08 45.817 164.814 46.1123 166.365 46.1123C168.358 46.1123 170.351 45.7434 172.271 44.0083C174.227 42.2366 175.593 39.5051 175.593 35.1494C175.593 30.9781 174.005 27.5822 170.757 25.5891C168.912 24.4446 166.549 23.9648 163.818 23.9648C163.006 23.9648 162.23 24.0018 161.751 24.2232C161.64 24.2971 161.381 24.6293 161.381 24.8137C161.308 25.5521 161.308 31.2365 161.308 34.5588C161.308 37.9917 161.308 42.7902 161.381 43.3438C161.381 43.8978 161.64 44.7467 162.193 45.1159ZM153.814 22.1562C154.516 22.1562 157.21 22.2668 158.502 22.2668C160.828 22.2668 162.489 22.1562 166.881 22.1562C170.573 22.1562 173.673 23.153 175.888 25.0352C178.583 27.3609 179.985 30.5724 179.985 34.485C179.985 40.0588 177.438 43.2703 174.891 45.116C172.345 46.9985 169.022 48.1058 164.298 48.1058C161.788 48.1058 157.469 48.0318 153.888 47.9949H153.851C153.667 47.663 154.146 46.371 154.442 46.334C155.401 46.2232 155.66 46.1862 156.14 46.0018C156.915 45.7065 157.063 45.3004 157.173 43.9348C157.284 41.3878 157.247 38.3241 157.247 34.8542C157.247 32.3811 157.284 27.5453 157.21 25.995C157.1 24.7033 156.546 24.3711 155.438 24.1493C154.885 24.0388 154.146 23.891 153.113 23.7805C152.965 23.5218 153.63 22.3776 153.814 22.1562Z" fill="#8E714E"/>
<path fill-rule="evenodd" clip-rule="evenodd" d="M109.149 46.5543C108.226 46.4435 107.562 46.296 106.75 45.9268C106.639 45.8529 106.454 45.484 106.454 45.3362C106.38 44.0442 106.38 40.353 106.38 37.8798C106.38 35.8864 106.049 34.1517 105.199 32.9336C104.203 31.5307 102.763 30.7188 100.918 30.7188C99.2933 30.7188 97.1154 31.8263 95.3068 33.3767C95.2698 33.4133 94.9745 33.6719 95.0115 33.2658C95.0115 32.8597 95.0854 32.0477 95.1223 31.4941C95.1593 30.9771 94.864 30.7188 94.864 30.7188C93.6825 31.3093 90.3605 32.0847 89.1424 32.1952C88.2565 32.3799 88.0352 33.2288 88.958 33.5241H88.9949C89.9913 33.8194 90.6558 34.1517 91.1724 34.4839C91.5416 34.7792 91.5047 35.1853 91.5047 35.5176C91.5416 38.286 91.5416 42.5308 91.4311 44.8565C91.3942 45.7793 91.1358 46.1112 90.4713 46.259L90.5449 46.2221C90.0282 46.3329 89.6221 46.4435 88.9946 46.5174C88.7732 46.7387 88.7732 47.9202 88.9946 48.1786C89.4007 48.1786 91.5416 48.0677 93.3137 48.0677C95.7499 48.0677 97.0049 48.1786 97.6324 48.1786C97.8908 47.8833 97.9647 46.7757 97.8169 46.5174C97.1154 46.4804 96.5988 46.4068 96.1191 46.259C95.4546 46.1112 95.2698 45.7793 95.2329 45.004C95.1593 43.0475 95.1593 38.9135 95.1593 36.1081C95.1593 35.3328 95.3807 34.9636 95.6021 34.7422C96.451 34.0042 97.8169 33.4872 99.035 33.4872C100.216 33.4872 100.991 33.8564 101.582 34.3364C102.394 35.0006 102.652 35.9603 102.763 36.6617C102.948 38.249 102.874 41.3867 102.874 44.1181C102.874 45.5946 102.763 45.9637 102.21 46.1482C101.951 46.259 101.287 46.4068 100.511 46.4804C100.253 46.7387 100.327 47.8833 100.511 48.1416C101.582 48.1416 102.837 48.0307 104.683 48.0307C106.971 48.0307 108.448 48.1416 109.038 48.1416C109.223 47.9202 109.297 46.8496 109.149 46.5543H109.149ZM119.374 32.4539C117.418 32.4539 116.2 33.9673 116.2 36.3296C116.2 38.7288 117.27 41.4972 120.297 41.4972C120.814 41.4972 121.773 41.2758 122.216 40.7592C122.918 40.0947 123.398 38.7658 123.398 37.3632C123.398 34.2995 121.884 32.4539 119.374 32.4539ZM119.115 48.7691C118.377 48.7691 117.86 48.9905 117.529 49.1753C115.978 50.1717 115.277 51.1314 115.277 52.276C115.277 53.3462 115.683 54.1951 116.569 54.9335C117.639 55.8563 119.115 56.2994 120.998 56.2994C124.763 56.2994 126.424 54.269 126.424 52.276C126.424 50.8731 125.723 49.9503 124.283 49.4336C123.25 48.9905 121.367 48.7691 119.115 48.7691ZM119.374 58.3664C117.122 58.3664 115.498 57.8863 114.096 56.8161C112.73 55.7824 112.139 54.2321 112.139 53.1618C112.139 52.8665 112.213 52.0542 112.877 51.3162C113.283 50.8731 114.169 50.0242 116.273 48.5847C116.347 48.5477 116.384 48.5108 116.384 48.4369C116.384 48.363 116.31 48.2891 116.236 48.2525C114.501 47.588 113.985 46.5174 113.837 45.9268V45.8529C113.8 45.6315 113.726 45.4101 114.059 45.1884C114.317 45.004 114.686 44.7826 115.092 44.5243C115.719 44.1551 116.384 43.7489 116.79 43.4167C116.864 43.3428 116.864 43.2692 116.864 43.1953C116.864 43.1214 116.79 43.0475 116.716 43.0109C114.132 42.1616 112.84 40.2421 112.84 37.3632C112.84 35.4806 113.689 33.7825 115.203 32.7122C116.236 31.8999 118.82 30.9035 120.518 30.9035H120.629C122.364 30.9401 123.324 31.3093 124.689 31.7894C125.428 32.0477 126.129 32.1582 127.089 32.1582C128.528 32.1582 129.156 31.7155 129.672 31.1988C129.709 31.2724 129.783 31.4571 129.82 31.9368C129.857 32.4169 129.709 33.118 129.34 33.635C129.045 34.0408 128.381 34.3364 127.716 34.3364H127.532C126.867 34.2625 126.572 34.1886 126.572 34.1886L126.424 34.2625C126.387 34.3364 126.424 34.41 126.461 34.5208L126.498 34.5948C126.572 34.927 126.72 35.9234 126.72 36.182C126.72 39.2088 125.501 40.5374 124.209 41.5341C122.954 42.4569 121.515 43.0475 119.891 43.1953C119.854 43.1953 119.706 43.1953 119.374 43.2323C119.189 43.2323 118.931 43.2692 118.894 43.2692H118.857C118.562 43.3428 117.824 43.712 117.824 44.3395C117.824 44.8931 118.156 45.5576 119.743 45.6685C120.075 45.7054 120.407 45.7054 120.777 45.7424C122.881 45.8898 125.501 46.0746 126.72 46.4804C128.417 47.1079 129.488 48.6213 129.488 50.4303C129.488 53.1618 127.532 55.7088 124.283 57.2958C122.696 57.9972 121.109 58.3664 119.374 58.3664ZM140.414 32.6383C139.639 32.6383 138.937 32.8227 138.421 33.1919C136.981 34.0778 136.243 35.8498 136.243 38.4335C136.243 43.2692 138.679 46.6652 142.149 46.6652C143.183 46.6652 143.995 46.3699 144.696 45.7793C145.766 44.8931 146.32 43.1214 146.32 40.6483C146.32 35.8498 143.921 32.6383 140.414 32.6383ZM141.079 48.437C134.804 48.437 132.552 43.8229 132.552 39.5042C132.552 36.4774 133.77 34.1517 136.206 32.4905C137.941 31.4203 140.008 30.8297 141.854 30.8297C146.652 30.8297 150.012 34.2626 150.012 39.2089C150.012 42.5679 148.683 45.2254 146.136 46.8497C144.917 47.6616 142.814 48.437 141.078 48.437H141.079ZM75.3004 32.6383C74.5251 32.6383 73.824 32.8227 73.307 33.1919C71.8675 34.0778 71.1291 35.8498 71.1291 38.4335C71.1291 43.2692 73.5653 46.6652 77.0351 46.6652C78.0688 46.6652 78.8808 46.3699 79.5822 45.7793C80.6525 44.8931 81.2064 43.1214 81.2064 40.6483C81.2064 35.8498 78.8438 32.6383 75.3004 32.6383ZM75.9649 48.437C69.6897 48.437 67.4379 43.8229 67.4379 39.5042C67.4379 36.4774 68.656 34.1517 71.0922 32.4905C72.8273 31.4203 74.8943 30.8297 76.7399 30.8297C81.5387 30.8297 84.8977 34.2626 84.8977 39.2089C84.8977 42.5679 83.5687 45.2254 81.0217 46.8497C79.8405 47.6616 77.7366 48.437 75.9649 48.437ZM33.7736 48.0677C33.6997 47.9572 33.6258 47.6249 33.6627 47.2188C33.6627 46.9235 33.7366 46.7387 33.7736 46.6652C34.5486 46.5543 34.9547 46.4434 35.3975 46.3329C36.1359 46.1482 36.4312 45.7424 36.4681 44.8196C36.579 42.6047 36.579 38.3965 36.542 35.4806V35.4067C36.542 35.0745 36.542 34.6683 36.1359 34.373C35.5453 34.0042 34.8439 33.6719 33.9211 33.4133C33.5888 33.3027 33.3675 33.118 33.4044 32.8966C33.4044 32.6752 33.6258 32.4169 34.1058 32.343C35.3239 32.2321 38.4982 31.4571 39.7532 30.9035C39.8271 30.9771 39.938 31.1988 39.938 31.4941L39.901 31.8999C39.8641 32.306 39.8271 32.7861 39.8271 33.2658C39.8271 33.4133 39.9749 33.5241 40.1224 33.5241C40.1963 33.5241 40.2702 33.4872 40.3441 33.4502C42.7064 31.6046 44.8473 30.9401 45.9545 30.9401C47.7636 30.9401 49.1661 31.7894 50.2367 33.5611C50.3103 33.6719 50.3842 33.7086 50.495 33.7086C50.5689 33.7086 50.6794 33.6719 50.7164 33.598C52.8943 31.9368 55.0721 30.9401 56.5116 30.9401C59.9445 30.9401 61.9749 33.4872 61.9749 37.8059C61.9749 39.024 61.9749 40.6113 61.9379 42.0511C61.9379 43.3428 61.901 44.5243 61.901 45.3732C61.901 45.5576 62.1593 46.1482 62.5654 46.259C63.0821 46.5174 63.7835 46.6282 64.7063 46.7757H64.7433C64.8172 47.034 64.6694 47.9938 64.5219 48.1786C64.3002 48.1786 63.968 48.1786 63.5991 48.1416C62.8977 48.1046 61.901 48.0677 60.7937 48.0677C58.505 48.0677 57.3239 48.1046 56.1793 48.1786C56.1058 47.8833 56.0688 46.9974 56.1793 46.7757C56.8438 46.6652 57.1761 46.5543 57.5822 46.4434C58.3206 46.2221 58.505 45.8898 58.542 44.9301C58.542 44.229 58.6894 38.249 58.4681 36.8092C58.2467 35.3328 57.1391 33.598 54.7029 33.598C53.7801 33.598 52.3406 33.9672 50.9378 35.0375C50.8642 35.1114 50.7903 35.2958 50.7903 35.4067V35.4437C50.9378 36.2186 50.9378 37.1048 50.9378 38.4704V40.8696C50.9378 42.5308 50.9008 44.0812 50.9378 45.2623C50.9378 46.0746 51.4178 46.259 51.824 46.4068C52.0454 46.4434 52.1928 46.4804 52.3776 46.5174C52.7098 46.5913 53.0421 46.6652 53.5587 46.7757C53.6326 46.9235 53.6326 47.4032 53.5218 47.8094C53.4848 48.0307 53.4109 48.1416 53.3743 48.1786C52.1193 48.1416 50.8273 48.1046 48.9447 48.1046C48.3911 48.1046 47.4313 48.1416 46.619 48.1416C45.9545 48.1416 45.327 48.1786 44.9582 48.1786C44.9212 48.1046 44.8473 47.8463 44.8473 47.4402C44.8473 47.1079 44.9212 46.8496 44.9951 46.7757C45.1795 46.7387 45.327 46.7021 45.5118 46.7021C45.9545 46.6282 46.3237 46.5543 46.6929 46.4804C47.3204 46.296 47.5418 45.9637 47.5788 45.1518C47.6896 43.3062 47.8002 38.0277 47.5418 36.6987C47.0991 34.5578 45.881 33.4872 43.9245 33.4872C42.7803 33.4872 41.3405 34.0408 40.1594 34.927C39.9749 35.0745 39.8271 35.4437 39.8271 35.7759V37.9537C39.8271 40.6113 39.8271 43.9337 39.8641 45.3732C39.901 45.8159 40.0485 46.3329 40.8977 46.5174C41.0822 46.5543 41.3775 46.6282 41.7466 46.6652L42.4111 46.7757C42.485 46.9974 42.4481 47.8833 42.3003 48.1786C41.9311 48.1786 41.4883 48.1416 40.9713 48.1416C40.1963 48.1046 39.1996 48.0677 38.0924 48.0677C36.8004 48.0677 35.8776 48.1046 35.1392 48.1416C34.6225 48.0677 34.2164 48.0677 33.7736 48.0677Z" fill="#442D22"/>
<g clip-path="url(#clip1_2149_24460)">
<path fill-rule="evenodd" clip-rule="evenodd" d="M14.3566 56.928L12.8432 56.411C12.8432 56.411 13.028 48.6963 10.2596 48.1427C8.41396 46.0018 10.5549 -42.6625 17.1989 47.8474C17.1989 47.8474 14.9106 48.9916 14.5044 50.948C14.0613 52.8676 14.3566 56.928 14.3566 56.928Z" fill="white"/>
<path fill-rule="evenodd" clip-rule="evenodd" d="M14.3566 56.928L12.8432 56.411C12.8432 56.411 13.028 48.6963 10.2596 48.1427C8.41396 46.0018 10.5549 -42.6625 17.1989 47.8474C17.1989 47.8474 14.9106 48.9916 14.5044 50.948C14.0613 52.8676 14.3566 56.928 14.3566 56.928Z" fill="#A6A385"/>
<path fill-rule="evenodd" clip-rule="evenodd" d="M15.1694 49.4719C15.1694 49.4719 28.421 40.7605 25.3203 22.6362C22.3305 9.45856 15.2799 5.1398 14.5049 3.4786C13.656 2.29746 12.8438 0.230469 12.8438 0.230469L13.3977 36.8845C13.3977 36.9214 12.2532 48.106 15.1694 49.4719Z" fill="white"/>
<path fill-rule="evenodd" clip-rule="evenodd" d="M15.1694 49.4719C15.1694 49.4719 28.421 40.7605 25.3203 22.6362C22.3305 9.45856 15.2799 5.1398 14.5049 3.4786C13.656 2.29746 12.8438 0.230469 12.8438 0.230469L13.3977 36.8845C13.3977 36.9214 12.2532 48.106 15.1694 49.4719Z" fill="#499D4A"/>
<path fill-rule="evenodd" clip-rule="evenodd" d="M12.0688 49.951C12.0688 49.951 -0.37083 41.461 0.367555 26.5116C1.06864 11.5619 9.85397 4.21637 11.5518 2.88741C12.6594 1.70627 12.6963 1.26317 12.7702 0.0820312C13.5452 1.74323 13.3977 24.9243 13.5083 27.6558C13.8405 38.1759 12.9177 47.9579 12.0688 49.951Z" fill="white"/>
<path fill-rule="evenodd" clip-rule="evenodd" d="M12.0688 49.951C12.0688 49.951 -0.37083 41.461 0.367555 26.5116C1.06864 11.5619 9.85397 4.21637 11.5518 2.88741C12.6594 1.70627 12.6963 1.26317 12.7702 0.0820312C13.5452 1.74323 13.3977 24.9243 13.5083 27.6558C13.8405 38.1759 12.9177 47.9579 12.0688 49.951Z" fill="#58AA50"/>
</g>
</g>
<defs>
<clipPath id="clip0_2149_24460">
<rect width="204.8" height="60" fill="white" transform="translate(0.335938)"/>
</clipPath>
<clipPath id="clip1_2149_24460">
<rect width="25.6" height="57.2" fill="white" transform="translate(0.335938)"/>
</clipPath>
</defs>
</svg>
