<svg width="200" height="26" viewBox="0 0 200 26" fill="none" xmlns="http://www.w3.org/2000/svg">
<g clip-path="url(#clip0_2149_24486)">
<path d="M86.2249 16.9121H99.4197L92.45 5.65668L79.6361 25.9857H73.8093L89.3937 1.59608C89.7334 1.10939 90.1848 0.711205 90.7101 0.434883C91.2354 0.15856 91.8193 0.0121467 92.4128 0.00790727C93.0063 0.00366784 93.5922 0.141726 94.1214 0.410516C94.6506 0.679307 95.1076 1.071 95.4543 1.55279L111.082 25.9857H105.255L102.511 21.4402H89.1599L86.2508 16.9121M146.796 21.4402V0.254084H141.844V23.5268C141.843 23.8502 141.908 24.1704 142.034 24.4681C142.161 24.7657 142.346 25.0346 142.58 25.2584C142.814 25.4982 143.094 25.6885 143.404 25.8179C143.713 25.9473 144.045 26.0132 144.381 26.0117H166.892L169.827 21.4662H146.77M64.9175 17.6567C67.2252 17.6567 69.4384 16.7399 71.0702 15.1081C72.7021 13.4763 73.6188 11.2631 73.6188 8.95538C73.6188 6.64765 72.7021 4.43445 71.0702 2.80264C69.4384 1.17083 67.2252 0.254084 64.9175 0.254084H43.2725V25.9857H48.2162V4.8082H64.6145C65.719 4.8082 66.7782 5.24696 67.5592 6.02795C68.3402 6.80895 68.779 7.8682 68.779 8.9727C68.779 10.0772 68.3402 11.1365 67.5592 11.9174C66.7782 12.6984 65.719 13.1372 64.6145 13.1372H50.6664L65.437 25.9857H72.6145L62.6924 17.6567H64.9175ZM12.8655 25.9857H27.8179C31.1712 25.8987 34.358 24.5055 36.6989 22.1029C39.0399 19.7004 40.35 16.4786 40.35 13.1242C40.35 9.76978 39.0399 6.54799 36.6989 4.14548C34.358 1.74298 31.1712 0.349753 27.8179 0.262742H12.8655C11.1485 0.218188 9.43986 0.517907 7.84047 1.14423C6.24109 1.77054 4.7833 2.71078 3.55309 3.90948C2.32287 5.10819 1.34514 6.54109 0.677548 8.1237C0.00995389 9.7063 -0.333984 11.4066 -0.333984 13.1242C-0.333984 14.8419 0.00995389 16.5421 0.677548 18.1247C1.34514 19.7073 2.32287 21.1402 3.55309 22.3389C4.7833 23.5377 6.24109 24.4779 7.84047 25.1042C9.43986 25.7305 11.1485 26.0302 12.8655 25.9857ZM27.4803 21.4576H13.1945C11.0332 21.3878 8.98365 20.4802 7.47938 18.9267C5.97511 17.3731 5.13405 15.2954 5.13405 13.1329C5.13405 10.9704 5.97511 8.89265 7.47938 7.33908C8.98365 5.78552 11.0332 4.87791 13.1945 4.8082H27.4803C28.5961 4.77221 29.7077 4.9609 30.7491 5.36306C31.7906 5.76521 32.7405 6.37263 33.5426 7.1492C34.3446 7.92577 34.9823 8.85565 35.4178 9.88358C35.8533 10.9115 36.0778 12.0165 36.0778 13.1329C36.0778 14.2493 35.8533 15.3542 35.4178 16.3822C34.9823 17.4101 34.3446 18.34 33.5426 19.1165C32.7405 19.8931 31.7906 20.5005 30.7491 20.9027C29.7077 21.3048 28.5961 21.4935 27.4803 21.4576ZM121.411 25.9857H136.675L139.567 21.4576H121.749C120.633 21.4935 119.521 21.3048 118.48 20.9027C117.438 20.5005 116.488 19.8931 115.686 19.1165C114.884 18.34 114.247 17.4101 113.811 16.3822C113.376 15.3542 113.151 14.2493 113.151 13.1329C113.151 12.0165 113.376 10.9115 113.811 9.88358C114.247 8.85565 114.884 7.92577 115.686 7.1492C116.488 6.37263 117.438 5.76521 118.48 5.36306C119.521 4.9609 120.633 4.77221 121.749 4.8082H136.251L139.177 0.262742H121.411C119.694 0.218188 117.985 0.517907 116.386 1.14423C114.787 1.77054 113.329 2.71078 112.099 3.90948C110.868 5.10819 109.891 6.54109 109.223 8.1237C108.555 9.7063 108.211 11.4066 108.211 13.1242C108.211 14.8419 108.555 16.5421 109.223 18.1247C109.891 19.7073 110.868 21.1402 112.099 22.3389C113.329 23.5377 114.787 24.4779 116.386 25.1042C117.985 25.7305 119.694 26.0302 121.411 25.9857ZM181.905 21.4576C180.09 21.4582 178.326 20.8667 176.879 19.7728C175.432 18.6788 174.381 17.1424 173.887 15.3969H195.03L197.939 10.8601H173.887C174.38 9.11395 175.43 7.5767 176.877 6.48257C178.325 5.38845 180.09 4.79742 181.905 4.79954H196.415L199.316 0.254084H181.567C178.214 0.341095 175.027 1.73432 172.686 4.13683C170.345 6.53933 169.035 9.76112 169.035 13.1156C169.035 16.47 170.345 19.6918 172.686 22.0943C175.027 24.4968 178.214 25.89 181.567 25.977H196.831L199.731 21.4489H181.896" fill="#C74634"/>
</g>
<defs>
<clipPath id="clip0_2149_24486">
<rect width="200" height="25.974" fill="white" transform="translate(0 0.0117188)"/>
</clipPath>
</defs>
</svg>
