<svg width="48" height="49" viewBox="0 0 48 49" fill="none" xmlns="http://www.w3.org/2000/svg">
<rect y="0.384277" width="48" height="48" rx="24" fill="white"/>
<path d="M31.0312 28.1812H28.2188V26.2909C30.13 24.9553 31.3828 22.7392 31.3828 20.2358V16.9312H32.4375C33.02 16.9312 33.4922 16.4589 33.4922 15.8765V9.54834C33.4922 7.80368 32.0728 6.38428 30.3281 6.38428H17.6719C15.9272 6.38428 14.5078 7.80368 14.5078 9.54834V15.8765C14.5078 16.4589 14.98 16.9312 15.5625 16.9312H16.6172V20.2358C16.6172 22.7392 17.87 24.9553 19.7812 26.2909V28.1812H16.9688C12.5102 28.1812 8.88281 31.8085 8.88281 36.2671V41.3296C8.88281 41.9121 9.35503 42.3843 9.9375 42.3843H38.0625C38.645 42.3843 39.1172 41.9121 39.1172 41.3296V36.2671C39.1172 31.8085 35.4898 28.1812 31.0312 28.1812ZM16.6172 9.54834C16.6172 8.96679 17.0903 8.49365 17.6719 8.49365H30.3281C30.9097 8.49365 31.3828 8.96679 31.3828 9.54834V14.8218H16.6172V9.54834ZM18.7266 20.2358V16.9312H29.2734V20.2358C29.2734 23.1435 26.9078 25.5092 24 25.5092C21.0922 25.5092 18.7266 23.1435 18.7266 20.2358ZM24 27.6186C24.7327 27.6186 25.4407 27.5108 26.1094 27.311V29.028C25.6613 30.0164 24.7395 30.3738 24 30.3738C23.2605 30.3738 22.3387 30.0164 21.8906 29.028V27.311C22.5593 27.5108 23.2673 27.6186 24 27.6186ZM37.0078 40.2749H33.4922V38.3765C33.4922 37.794 33.02 37.3218 32.4375 37.3218C31.855 37.3218 31.3828 37.794 31.3828 38.3765V40.2749H16.6172V38.3765C16.6172 37.794 16.145 37.3218 15.5625 37.3218C14.98 37.3218 14.5078 37.794 14.5078 38.3765V40.2749H10.9922V36.2671C10.9922 32.9716 13.6733 30.2905 16.9688 30.2905H20.1729C20.9573 31.6428 22.3902 32.4832 24 32.4832C25.6098 32.4832 27.0427 31.6428 27.8271 30.2905H31.0312C34.3267 30.2905 37.0078 32.9716 37.0078 36.2671V40.2749Z" fill="#05BBC2"/>
<path d="M22.5938 12.7124H22.9453V13.064C22.9453 13.6464 23.4175 14.1187 24 14.1187C24.5825 14.1187 25.0547 13.6464 25.0547 13.064V12.7124H25.4062C25.9887 12.7124 26.4609 12.2402 26.4609 11.6577C26.4609 11.0752 25.9887 10.603 25.4062 10.603H25.0547V10.2515C25.0547 9.669 24.5825 9.19678 24 9.19678C23.4175 9.19678 22.9453 9.669 22.9453 10.2515V10.603H22.5938C22.0113 10.603 21.5391 11.0752 21.5391 11.6577C21.5391 12.2402 22.0113 12.7124 22.5938 12.7124Z" fill="#05BBC2"/>
<path d="M20.4844 34.5093H17.6719C17.0894 34.5093 16.6172 34.9815 16.6172 35.564C16.6172 36.1464 17.0894 36.6187 17.6719 36.6187H20.4844C21.0668 36.6187 21.5391 36.1464 21.5391 35.564C21.5391 34.9815 21.0668 34.5093 20.4844 34.5093Z" fill="#05BBC2"/>
</svg>
