<svg width="48" height="49" viewBox="0 0 48 49" fill="none" xmlns="http://www.w3.org/2000/svg">
<rect y="0.384277" width="48" height="48" rx="24" fill="white"/>
<path d="M16.6212 14.9622H15.5012V13.8422C15.5012 13.2965 15.0587 12.854 14.513 12.854C13.9672 12.854 13.5247 13.2965 13.5247 13.8422V14.9622H12.4047C11.859 14.9622 11.4165 15.4047 11.4165 15.9505C11.4165 16.4962 11.859 16.9387 12.4047 16.9387H13.5247V18.0587C13.5247 18.6045 13.9672 19.0469 14.513 19.0469C15.0587 19.0469 15.5012 18.6045 15.5012 18.0587V16.9387H16.6212C17.167 16.9387 17.6094 16.4962 17.6094 15.9505C17.6094 15.4047 17.167 14.9622 16.6212 14.9622Z" fill="#05BBC2"/>
<path d="M28.2172 21.6837H35.5961C36.1418 21.6837 36.5843 21.2413 36.5843 20.6955C36.5843 20.1497 36.1418 19.7073 35.5961 19.7073H28.2172C27.6715 19.7073 27.229 20.1497 27.229 20.6955C27.229 21.2413 27.6715 21.6837 28.2172 21.6837Z" fill="#05BBC2"/>
<path d="M28.2172 25.8991H35.5961C36.1418 25.8991 36.5843 25.4566 36.5843 24.9108C36.5843 24.3651 36.1418 23.9226 35.5961 23.9226H28.2172C27.6715 23.9226 27.229 24.3651 27.229 24.9108C27.229 25.4566 27.6715 25.8991 28.2172 25.8991Z" fill="#05BBC2"/>
<path d="M39.812 9.69246H20.7441L19.5338 7.99804C19.3483 7.73833 19.0488 7.58423 18.7296 7.58423H8.18843C7.64266 7.58423 7.2002 8.02669 7.2002 8.57246V40.196C7.2002 40.7418 7.64266 41.1842 8.18843 41.1842H39.812C40.3577 41.1842 40.8002 40.7418 40.8002 40.196C40.8002 37.3005 40.8002 14.0562 40.8002 10.6807C40.8002 10.1349 40.3577 9.69246 39.812 9.69246ZM26.2745 39.2078H13.3931V37.1338C13.3931 31.3916 20.3611 28.5532 24.3891 32.5791C25.6048 33.7949 26.2744 35.4124 26.2744 37.1338L26.2745 39.2078ZM17.1076 25.9905C17.1076 24.4873 18.3306 23.2642 19.8339 23.2642C21.3372 23.2642 22.5602 24.4872 22.5602 25.9905C22.5602 27.4903 21.3408 28.7167 19.8338 28.7167C18.3311 28.7167 17.1076 27.4942 17.1076 25.9905ZM38.8237 39.2078H28.2509V37.1338C28.2509 33.6257 26.112 30.6376 23.0985 29.3707C26.1351 26.4371 24.0401 21.2878 19.8339 21.2878C15.635 21.2878 13.5267 26.4373 16.5729 29.3741C13.5464 30.6508 11.4167 33.6481 11.4167 37.1338V39.2078H9.17667V9.5607H18.221L23.196 16.5257C23.3815 16.7854 23.681 16.9395 24.0002 16.9395H38.8237V39.2078ZM38.8237 14.9631H24.5088L22.1559 11.6689H38.8237V14.9631Z" fill="#05BBC2"/>
</svg>
