<svg width="48" height="49" viewBox="0 0 48 49" fill="none" xmlns="http://www.w3.org/2000/svg">
<rect y="0.384277" width="48" height="48" rx="24" fill="white"/>
<path d="M39.4199 19.233H35.1363V12.6765C35.1363 12.1464 34.7066 11.7167 34.1765 11.7167H30.7858V8.96538C30.7858 8.43533 30.3561 8.00562 29.826 8.00562H18.3011C17.7711 8.00562 17.3414 8.43533 17.3414 8.96538V11.7167H13.8228C13.2927 11.7167 12.863 12.1464 12.863 12.6765V19.233H8.57939C8.04935 19.233 7.61963 19.6627 7.61963 20.1928V39.8059C7.61963 40.3359 8.04935 40.7656 8.57939 40.7656H39.4199C39.9499 40.7656 40.3796 40.3359 40.3796 39.8059V20.1928C40.3796 19.6627 39.9499 19.233 39.4199 19.233ZM9.53916 21.1525H12.863V38.8461H9.53916V21.1525ZM26.2972 38.8461H21.4603V32.9213H26.2972V38.8461ZM33.2168 38.8461H28.2167V31.9616C28.2167 31.4315 27.787 31.0018 27.2569 31.0018H20.5005C19.9705 31.0018 19.5408 31.4315 19.5408 31.9616V38.8461H14.7826V13.6362H18.3012C18.8312 13.6362 19.2609 13.2065 19.2609 12.6765V9.92515H28.8663V12.6765C28.8663 13.2065 29.296 13.6362 29.826 13.6362H33.2167V38.8461H33.2168ZM38.4601 38.8461H35.1363V21.1525H38.4601V38.8461Z" fill="#05BBC2"/>
<path d="M25.9504 13.779H24.9759V12.8045C24.9759 12.2744 24.5462 11.8447 24.0161 11.8447C23.4861 11.8447 23.0564 12.2744 23.0564 12.8045V13.779H22.0818C21.5518 13.779 21.1221 14.2088 21.1221 14.7388C21.1221 15.2689 21.5518 15.6986 22.0818 15.6986H23.0564V16.6731C23.0564 17.2032 23.4861 17.6329 24.0161 17.6329C24.5462 17.6329 24.9759 17.2032 24.9759 16.6731V15.6986H25.9504C26.4804 15.6986 26.9102 15.2689 26.9102 14.7388C26.9102 14.2088 26.4804 13.779 25.9504 13.779Z" fill="#05BBC2"/>
<path d="M29.3791 27.1978H28.3455C27.8155 27.1978 27.3857 27.6275 27.3857 28.1575C27.3857 28.6876 27.8155 29.1173 28.3455 29.1173H29.3791C29.9092 29.1173 30.3389 28.6876 30.3389 28.1575C30.3389 27.6274 29.9092 27.1978 29.3791 27.1978Z" fill="#05BBC2"/>
<path d="M24.5163 27.1978H23.4827C22.9527 27.1978 22.5229 27.6275 22.5229 28.1575C22.5229 28.6876 22.9527 29.1173 23.4827 29.1173H24.5163C25.0464 29.1173 25.4761 28.6876 25.4761 28.1575C25.4761 27.6274 25.0464 27.1978 24.5163 27.1978Z" fill="#05BBC2"/>
<path d="M19.6535 27.1978H18.6199C18.0899 27.1978 17.6602 27.6275 17.6602 28.1575C17.6602 28.6876 18.0899 29.1173 18.6199 29.1173H19.6535C20.1836 29.1173 20.6133 28.6876 20.6133 28.1575C20.6133 27.6274 20.1836 27.1978 19.6535 27.1978Z" fill="#05BBC2"/>
<path d="M28.3455 19.5195C27.8155 19.5195 27.3857 19.9493 27.3857 20.4793C27.3857 21.0093 27.8155 21.4391 28.3455 21.4391H29.3791C29.9092 21.4391 30.3389 21.0093 30.3389 20.4793C30.3389 19.9493 29.9092 19.5195 29.3791 19.5195H28.3455Z" fill="#05BBC2"/>
<path d="M24.5163 19.5195H23.4827C22.9527 19.5195 22.5229 19.9493 22.5229 20.4793C22.5229 21.0093 22.9527 21.4391 23.4827 21.4391H24.5163C25.0464 21.4391 25.4761 21.0093 25.4761 20.4793C25.4761 19.9492 25.0464 19.5195 24.5163 19.5195Z" fill="#05BBC2"/>
<path d="M19.6535 19.5195H18.6199C18.0899 19.5195 17.6602 19.9493 17.6602 20.4793C17.6602 21.0093 18.0899 21.4391 18.6199 21.4391H19.6535C20.1836 21.4391 20.6133 21.0093 20.6133 20.4793C20.6133 19.9492 20.1836 19.5195 19.6535 19.5195Z" fill="#05BBC2"/>
<path d="M29.3791 23.3586H28.3455C27.8155 23.3586 27.3857 23.7884 27.3857 24.3184C27.3857 24.8485 27.8155 25.2782 28.3455 25.2782H29.3791C29.9092 25.2782 30.3389 24.8485 30.3389 24.3184C30.3389 23.7883 29.9092 23.3586 29.3791 23.3586Z" fill="#05BBC2"/>
<path d="M24.5163 23.3586H23.4827C22.9527 23.3586 22.5229 23.7884 22.5229 24.3184C22.5229 24.8485 22.9527 25.2782 23.4827 25.2782H24.5163C25.0464 25.2782 25.4761 24.8485 25.4761 24.3184C25.4761 23.7883 25.0464 23.3586 24.5163 23.3586Z" fill="#05BBC2"/>
<path d="M19.6535 23.3586H18.6199C18.0899 23.3586 17.6602 23.7884 17.6602 24.3184C17.6602 24.8485 18.0899 25.2782 18.6199 25.2782H19.6535C20.1836 25.2782 20.6133 24.8485 20.6133 24.3184C20.6133 23.7883 20.1836 23.3586 19.6535 23.3586Z" fill="#05BBC2"/>
</svg>
