<svg width="48" height="49" viewBox="0 0 48 49" fill="none" xmlns="http://www.w3.org/2000/svg">
<rect y="0.384277" width="48" height="48" rx="24" fill="white"/>
<path d="M39.4951 40.8646L38.8635 35.7481C38.4393 32.3124 35.8426 29.6093 32.5575 28.9498C32.3219 27.5679 31.3362 26.4392 30.0351 25.9984C31.2119 24.6154 31.9232 22.8246 31.9232 20.8707V16.903C33.1263 16.4764 33.9904 15.3275 33.9904 13.98V13.291C33.9904 10.4413 31.6721 8.123 28.8225 8.123H26.8825L22.1529 6.94064C21.6333 6.81075 21.0985 6.74487 20.563 6.74487C16.9483 6.74487 14.0076 9.68565 14.0076 13.3003V13.98C14.0076 15.3275 14.8718 16.4764 16.0748 16.903V20.8707C16.0748 22.9259 16.8615 24.8008 18.1493 26.2104C17.1331 26.7286 16.38 27.6911 16.1491 28.8408C12.5345 29.2297 9.58879 32.0688 9.13456 35.7481L8.5029 40.8646C8.46665 41.1586 8.55816 41.454 8.75434 41.6759C8.95051 41.8977 9.23254 42.0249 9.5287 42.0249H38.4693C38.7655 42.0249 39.0475 41.8978 39.2437 41.6759C39.4399 41.4541 39.5315 41.1586 39.4951 40.8646ZM31.5787 34.9964C32.1486 34.9964 32.6123 35.4601 32.6123 36.03C32.6123 36.6 32.1486 37.0636 31.5787 37.0636C31.0088 37.0636 30.5451 36.6 30.5451 36.03C30.5451 35.4601 31.0088 34.9964 31.5787 34.9964ZM30.3508 28.7949H28.4779V27.8655H28.8225C29.4864 27.8655 30.0633 28.2433 30.3508 28.7949ZM16.0748 13.98V13.3003C16.0748 10.8255 18.0882 8.81206 20.563 8.81206C20.9296 8.81206 21.2959 8.85713 21.6515 8.94601L26.5046 10.1592C26.5866 10.1798 26.6707 10.1902 26.7553 10.1902H28.8225C30.5322 10.1902 31.9232 11.5812 31.9232 13.291V13.98C31.9232 14.55 31.4596 15.0136 30.8896 15.0136C29.8327 15.0136 28.839 14.602 28.0916 13.8547L27.4862 13.2492C27.2923 13.0553 27.0294 12.9464 26.7553 12.9464C26.4811 12.9464 26.2182 13.0553 26.0244 13.2492L25.419 13.8546C24.6715 14.602 23.6778 15.0136 22.6209 15.0136H17.1084C16.5385 15.0136 16.0748 14.55 16.0748 13.98ZM18.142 20.8707V17.0808H22.6209C24.1715 17.0808 25.6328 16.4989 26.7553 15.4383C27.6242 16.2593 28.6967 16.792 29.8561 16.9914V20.8707C29.8561 24.1002 27.2286 26.7277 23.999 26.7277C20.7695 26.7277 18.142 24.1002 18.142 20.8707ZM26.4107 28.4192V29.4004L23.999 31.8121L21.5873 29.4004V28.4192C22.3481 28.6628 23.1584 28.7949 23.999 28.7949C24.8397 28.7949 25.6499 28.6628 26.4107 28.4192ZM19.5201 27.9002V28.7949H18.3363C18.5727 28.3413 19.0048 28.0052 19.5201 27.9002ZM10.6978 39.9577L11.1862 36.0014C11.5094 33.3832 13.5399 31.3417 16.0748 30.9368V31.6729C14.1019 32.1409 12.6295 33.9162 12.6295 36.0301V37.4082C12.6295 37.979 13.0923 38.4418 13.6631 38.4418H15.0412C15.612 38.4418 16.0748 37.979 16.0748 37.4082C16.0748 36.8374 15.612 36.3746 15.0412 36.3746H14.6967V36.0301C14.6967 34.7003 15.7786 33.6184 17.1084 33.6184C18.4382 33.6184 19.5201 34.7003 19.5201 36.0301V36.3746H19.1756C18.6048 36.3746 18.142 36.8374 18.142 37.4082C18.142 37.979 18.6048 38.4418 19.1756 38.4418H20.5537C21.1245 38.4418 21.5873 37.979 21.5873 37.4082V36.0301C21.5873 33.9163 20.1148 32.1409 18.142 31.6729V30.8621H20.1256L23.2681 34.0046C23.47 34.2064 23.7345 34.3074 23.999 34.3074C24.2635 34.3074 24.5281 34.2064 24.7298 34.0046L27.8724 30.8621H30.5451V33.107C29.3421 33.5337 28.4779 34.6826 28.4779 36.03C28.4779 37.7398 29.8689 39.1308 31.5787 39.1308C33.2885 39.1308 34.6795 37.7398 34.6795 36.03C34.6795 34.6826 33.8153 33.5337 32.6123 33.107V31.0889C34.819 31.7229 36.5185 33.6251 36.8119 36.0014L37.3003 39.9577H10.6978Z" fill="#05BBC2"/>
</svg>
