<svg width="48" height="48" viewBox="0 0 48 48" fill="none" xmlns="http://www.w3.org/2000/svg">
<rect width="48" height="48" rx="24" fill="white"/>
<path fill-rule="evenodd" clip-rule="evenodd" d="M14.0999 10.5002C13.6028 10.5002 13.1999 10.9031 13.1999 11.4002V39.3002C13.1999 39.7973 13.6028 40.2002 14.0999 40.2002H33.8999C34.397 40.2002 34.7999 39.7973 34.7999 39.3002V11.4002C34.7999 10.9031 34.397 10.5002 33.8999 10.5002H28.8749V8.7002H33.8999C35.3911 8.7002 36.5999 9.90902 36.5999 11.4002V39.3002C36.5999 40.7914 35.3911 42.0002 33.8999 42.0002H14.0999C12.6087 42.0002 11.3999 40.7914 11.3999 39.3002V11.4002C11.3999 9.90903 12.6087 8.7002 14.0999 8.7002H19.1249V10.5002H14.0999Z" fill="#05BBC2"/>
<path fill-rule="evenodd" clip-rule="evenodd" d="M17.7002 8.7C17.7002 7.20884 18.909 6 20.4002 6H27.6002C29.0914 6 30.3002 7.20884 30.3002 8.7V10.5C30.3002 11.9912 29.0914 13.2 27.6002 13.2H20.4002C18.909 13.2 17.7002 11.9912 17.7002 10.5V8.7ZM20.4002 7.8C19.9031 7.8 19.5002 8.20295 19.5002 8.7V10.5C19.5002 10.9971 19.9031 11.4 20.4002 11.4H27.6002C28.0973 11.4 28.5002 10.9971 28.5002 10.5V8.7C28.5002 8.20295 28.0973 7.8 27.6002 7.8H20.4002Z" fill="#05BBC2"/>
<path fill-rule="evenodd" clip-rule="evenodd" d="M15.8999 21.2999C15.8999 20.8028 16.3028 20.3999 16.7999 20.3999H23.0999C23.597 20.3999 23.9999 20.8028 23.9999 21.2999C23.9999 21.797 23.597 22.1999 23.0999 22.1999H16.7999C16.3028 22.1999 15.8999 21.797 15.8999 21.2999Z" fill="#05BBC2"/>
<path fill-rule="evenodd" clip-rule="evenodd" d="M15.8999 16.7999C15.8999 16.3028 16.3028 15.8999 16.7999 15.8999H30.7499C31.247 15.8999 31.6499 16.3028 31.6499 16.7999C31.6499 17.297 31.247 17.6999 30.7499 17.6999H16.7999C16.3028 17.6999 15.8999 17.297 15.8999 16.7999Z" fill="#05BBC2"/>
<path fill-rule="evenodd" clip-rule="evenodd" d="M17.6999 28.5002V30.3002H19.4999V28.5002H17.6999ZM16.7999 26.7002C16.3028 26.7002 15.8999 27.1031 15.8999 27.6002V31.2002C15.8999 31.6973 16.3028 32.1002 16.7999 32.1002H20.3999C20.897 32.1002 21.2999 31.6973 21.2999 31.2002V27.6002C21.2999 27.1031 20.897 26.7002 20.3999 26.7002H16.7999Z" fill="#05BBC2"/>
<path fill-rule="evenodd" clip-rule="evenodd" d="M28 29C28.5529 29 29 28.5529 29 28C29 27.4471 28.5529 27 28 27C27.4471 27 27 27.4471 27 28C27 28.5529 27.4471 29 28 29ZM28 31C29.6575 31 31 29.6575 31 28C31 26.3425 29.6575 25 28 25C26.3425 25 25 26.3425 25 28C25 29.6575 26.3425 31 28 31Z" fill="#05BBC2"/>
<path fill-rule="evenodd" clip-rule="evenodd" d="M24 35.2793C24.0127 35.2645 24.0305 35.2451 24.0549 35.2212C24.2186 35.061 24.5353 34.8488 25.0312 34.6382C26.0311 34.2133 27.2648 34 28 34C28.7352 34 29.9689 34.2133 30.9688 34.6382C31.4647 34.8488 31.7814 35.061 31.9451 35.2212C31.9695 35.2451 31.9873 35.2645 32 35.2793V37H24V35.2793ZM28 32C25.9975 32 22 33.0659 22 35.1818V39H34V35.1818C34 33.0659 30.0025 32 28 32Z" fill="#05BBC2"/>
</svg>
