<svg width="48" height="48" viewBox="0 0 48 48" fill="none" xmlns="http://www.w3.org/2000/svg">
<rect width="48" height="48" rx="24" fill="white"/>
<path fill-rule="evenodd" clip-rule="evenodd" d="M10.4002 37.675V9.625H8.7002V38.525C8.7002 38.9945 9.08076 39.375 9.5502 39.375H38.4502V37.675H10.4002Z" fill="#05BBC2"/>
<path fill-rule="evenodd" clip-rule="evenodd" d="M16.1563 26.7404L10.2063 33.9654L8.89404 32.8847L14.8441 25.6597L16.1563 26.7404Z" fill="#05BBC2"/>
<path fill-rule="evenodd" clip-rule="evenodd" d="M24.5229 27.8349L19.4229 25.7099L20.0767 24.1406L25.1767 26.2656L24.5229 27.8349Z" fill="#05BBC2"/>
<path fill-rule="evenodd" clip-rule="evenodd" d="M34.8641 19.9311L29.7641 26.3061L28.4365 25.2441L33.5365 18.8691L34.8641 19.9311Z" fill="#05BBC2"/>
<path fill-rule="evenodd" clip-rule="evenodd" d="M17.1998 25.7748C18.1387 25.7748 18.8998 25.0137 18.8998 24.0748C18.8998 23.1359 18.1387 22.3748 17.1998 22.3748C16.2609 22.3748 15.4998 23.1359 15.4998 24.0748C15.4998 25.0137 16.2609 25.7748 17.1998 25.7748ZM17.1998 27.4748C19.0775 27.4748 20.5998 25.9525 20.5998 24.0748C20.5998 22.1971 19.0775 20.6748 17.1998 20.6748C15.3221 20.6748 13.7998 22.1971 13.7998 24.0748C13.7998 25.9525 15.3221 27.4748 17.1998 27.4748Z" fill="#05BBC2"/>
<path fill-rule="evenodd" clip-rule="evenodd" d="M27.4 29.1752C28.3389 29.1752 29.1 28.4141 29.1 27.4752C29.1 26.5363 28.3389 25.7752 27.4 25.7752C26.4611 25.7752 25.7 26.5363 25.7 27.4752C25.7 28.4141 26.4611 29.1752 27.4 29.1752ZM27.4 30.8752C29.2777 30.8752 30.8 29.3529 30.8 27.4752C30.8 25.5975 29.2777 24.0752 27.4 24.0752C25.5223 24.0752 24 25.5975 24 27.4752C24 29.3529 25.5223 30.8752 27.4 30.8752Z" fill="#05BBC2"/>
<path fill-rule="evenodd" clip-rule="evenodd" d="M35.9 18.975C36.8389 18.975 37.6 18.2139 37.6 17.275C37.6 16.3361 36.8389 15.575 35.9 15.575C34.9611 15.575 34.2 16.3361 34.2 17.275C34.2 18.2139 34.9611 18.975 35.9 18.975ZM35.9 20.675C37.7777 20.675 39.3 19.1527 39.3 17.275C39.3 15.3973 37.7777 13.875 35.9 13.875C34.0223 13.875 32.5 15.3973 32.5 17.275C32.5 19.1527 34.0223 20.675 35.9 20.675Z" fill="#05BBC2"/>
</svg>
