<svg width="48" height="48" viewBox="0 0 48 48" fill="none" xmlns="http://www.w3.org/2000/svg">
<rect width="48" height="48" rx="24" fill="white"/>
<path fill-rule="evenodd" clip-rule="evenodd" d="M32.0999 7.8999C27.6817 7.8999 24.0999 11.4816 24.0999 15.8999V23.0999C24.0999 23.5417 24.4581 23.8999 24.8999 23.8999H32.0999C36.5181 23.8999 40.0999 20.3181 40.0999 15.8999C40.0999 11.4816 36.5181 7.8999 32.0999 7.8999ZM25.6999 15.8999C25.6999 12.3653 28.5653 9.4999 32.0999 9.4999C35.6345 9.4999 38.4999 12.3653 38.4999 15.8999C38.4999 19.4345 35.6345 22.2999 32.0999 22.2999H25.6999V15.8999ZM10.4999 14.1221C10.4999 13.7817 10.7817 13.4999 11.1221 13.4999H16.0999C16.4403 13.4999 16.7221 13.7817 16.7221 14.1221C16.7221 15.9833 17.0196 17.7723 17.5709 19.4437C17.64 19.6685 17.5886 19.9073 17.4116 20.0845L13.8719 23.6241L14.1353 24.1418C16.2607 28.3188 19.6831 31.7254 23.856 33.8634L24.3745 34.1291L27.9153 30.5882C28.0841 30.4196 28.333 30.3668 28.5409 30.4381L28.5494 30.4409C30.2231 30.9937 32.0286 31.2919 33.8777 31.2919C34.2181 31.2919 34.4999 31.5737 34.4999 31.9141V36.8777C34.4999 37.2181 34.2181 37.4999 33.8777 37.4999C20.9649 37.4999 10.4999 27.0349 10.4999 14.1221ZM11.1221 11.8999C9.89808 11.8999 8.8999 12.8981 8.8999 14.1221C8.8999 27.9186 20.0812 39.0999 33.8777 39.0999C35.1017 39.0999 36.0999 38.1017 36.0999 36.8777V31.9141C36.0999 30.6901 35.1017 29.6919 33.8777 29.6919C32.2009 29.6919 30.5661 29.4216 29.055 28.9229C28.2685 28.6553 27.3821 28.8588 26.784 29.4569L24.0731 32.1678C20.5981 30.2633 17.7232 27.3984 15.8309 23.9278L18.5429 21.2158C19.1611 20.5976 19.3378 19.7291 19.096 18.9596L19.0942 18.9541L19.0924 18.9485C18.5928 17.4361 18.3221 15.8141 18.3221 14.1221C18.3221 12.8981 17.324 11.8999 16.0999 11.8999H11.1221ZM28.0999 15.0999H31.2999V11.8999H32.8999V15.0999H36.0999V16.6999H32.8999V19.8999H31.2999V16.6999H28.0999V15.0999Z" fill="#05BBC2"/>
</svg>
