<svg width="48" height="48" viewBox="0 0 48 48" fill="none" xmlns="http://www.w3.org/2000/svg">
<rect width="48" height="48" rx="24" fill="white"/>
<path fill-rule="evenodd" clip-rule="evenodd" d="M33.9001 38.4001C36.3854 38.4001 38.4001 36.3854 38.4001 33.9001C38.4001 31.4148 36.3854 29.4001 33.9001 29.4001C31.4148 29.4001 29.4001 31.4148 29.4001 33.9001C29.4001 36.3854 31.4148 38.4001 33.9001 38.4001ZM33.9001 40.2001C37.3795 40.2001 40.2001 37.3795 40.2001 33.9001C40.2001 30.4207 37.3795 27.6001 33.9001 27.6001C30.4207 27.6001 27.6001 30.4207 27.6001 33.9001C27.6001 37.3795 30.4207 40.2001 33.9001 40.2001Z" fill="#05BBC2"/>
<path fill-rule="evenodd" clip-rule="evenodd" d="M33.9 30.75C34.3971 30.75 34.8 31.1529 34.8 31.65V33.5272L35.4364 34.1636C35.7878 34.5151 35.7878 35.0849 35.4364 35.4364C35.0849 35.7878 34.5151 35.7878 34.1636 35.4364L33 34.2728V31.65C33 31.1529 33.4029 30.75 33.9 30.75Z" fill="#05BBC2"/>
<path fill-rule="evenodd" clip-rule="evenodd" d="M14.9999 23.0998H13.1999V24.8998H14.9999V23.0998ZM13.1999 21.2998C12.2058 21.2998 11.3999 22.1057 11.3999 23.0998V24.8998C11.3999 25.8939 12.2058 26.6998 13.1999 26.6998H14.9999C15.994 26.6998 16.7999 25.8939 16.7999 24.8998V23.0998C16.7999 22.1057 15.994 21.2998 14.9999 21.2998H13.1999Z" fill="#05BBC2"/>
<path fill-rule="evenodd" clip-rule="evenodd" d="M22.2001 23.0998H20.4001V24.8998H22.2001V23.0998ZM20.4001 21.2998C19.406 21.2998 18.6001 22.1057 18.6001 23.0998V24.8998C18.6001 25.8939 19.406 26.6998 20.4001 26.6998H22.2001C23.1942 26.6998 24.0001 25.8939 24.0001 24.8998V23.0998C24.0001 22.1057 23.1942 21.2998 22.2001 21.2998H20.4001Z" fill="#05BBC2"/>
<path fill-rule="evenodd" clip-rule="evenodd" d="M29.3998 23.0998H27.5998V24.8998H29.3998V23.0998ZM27.5998 21.2998C26.6057 21.2998 25.7998 22.1057 25.7998 23.0998V24.8998C25.7998 25.8939 26.6057 26.6998 27.5998 26.6998H29.3998C30.3939 26.6998 31.1998 25.8939 31.1998 24.8998V23.0998C31.1998 22.1057 30.3939 21.2998 29.3998 21.2998H27.5998Z" fill="#05BBC2"/>
<path fill-rule="evenodd" clip-rule="evenodd" d="M14.9999 30.3H13.1999V32.1H14.9999V30.3ZM13.1999 28.5C12.2058 28.5 11.3999 29.3059 11.3999 30.3V32.1C11.3999 33.0941 12.2058 33.9 13.1999 33.9H14.9999C15.994 33.9 16.7999 33.0941 16.7999 32.1V30.3C16.7999 29.3059 15.994 28.5 14.9999 28.5H13.1999Z" fill="#05BBC2"/>
<path fill-rule="evenodd" clip-rule="evenodd" d="M22.2001 30.3H20.4001V32.1H22.2001V30.3ZM20.4001 28.5C19.406 28.5 18.6001 29.3059 18.6001 30.3V32.1C18.6001 33.0941 19.406 33.9 20.4001 33.9H22.2001C23.1942 33.9 24.0001 33.0941 24.0001 32.1V30.3C24.0001 29.3059 23.1942 28.5 22.2001 28.5H20.4001Z" fill="#05BBC2"/>
<path fill-rule="evenodd" clip-rule="evenodd" d="M9.5998 13.2C9.5998 12.7029 10.0028 12.3 10.4998 12.3H14.9998V10.5H10.4998C9.00864 10.5 7.7998 11.7088 7.7998 13.2V34.8C7.7998 36.2912 9.00864 37.5 10.4998 37.5H28.729C28.3499 36.9564 28.0542 36.3502 27.8607 35.7H10.4998C10.0028 35.7 9.5998 35.2971 9.5998 34.8V13.2ZM32.9998 27.6638C33.2937 27.6218 33.5943 27.6 33.8998 27.6C34.2054 27.6 34.5059 27.6218 34.7998 27.6638V13.2C34.7998 11.7089 33.591 10.5 32.0998 10.5H29.3998V12.3H32.0998C32.5969 12.3 32.9998 12.7029 32.9998 13.2V27.6638ZM16.7998 12.3H26.3061V10.5H16.7998V12.3Z" fill="#05BBC2"/>
<path fill-rule="evenodd" clip-rule="evenodd" d="M36 18H8V16H36V18Z" fill="#05BBC2"/>
<path d="M13.1997 8.6998C13.1997 8.20275 13.6026 7.7998 14.0997 7.7998C14.5968 7.7998 14.9997 8.20275 14.9997 8.6998V13.1998C14.9997 13.6969 14.5968 14.0998 14.0997 14.0998C13.6026 14.0998 13.1997 13.6969 13.1997 13.1998V8.6998Z" fill="#05BBC2"/>
<path d="M25.7998 8.6998C25.7998 8.20275 26.2027 7.7998 26.6998 7.7998C27.1969 7.7998 27.5998 8.20275 27.5998 8.6998V13.1998C27.5998 13.6969 27.1969 14.0998 26.6998 14.0998C26.2027 14.0998 25.7998 13.6969 25.7998 13.1998V8.6998Z" fill="#05BBC2"/>
</svg>
