<svg width="48" height="48" viewBox="0 0 48 48" fill="none" xmlns="http://www.w3.org/2000/svg">
<rect width="48" height="48" rx="24" fill="white"/>
<path fill-rule="evenodd" clip-rule="evenodd" d="M14.8416 35.742C17.0451 37.7322 19.4589 39.3753 22.1844 40.6709C23.6443 41.3649 25.3758 41.3017 26.7754 40.5033C29.136 39.1567 31.1904 37.5361 33.1768 35.742C37.3873 31.939 39.8419 26.7049 40.0032 21.1854L40.1912 14.7494C40.2131 14.0002 40.1923 12.3501 40.1923 12.3501C39.2501 12.1946 38.2974 12.0805 37.3461 11.9666C34.4035 11.6143 31.4734 11.2635 28.9021 9.69191L27.068 8.57093C25.4954 7.60983 23.4776 7.60982 21.9051 8.57093L20.1487 9.6444C17.2092 11.441 13.6262 11.7815 10.158 12.1111C9.37242 12.1857 8.59272 12.2597 7.82774 12.3501C7.82774 12.3501 7.80554 14.0101 7.82774 14.7699L8.01517 21.1854C8.17644 26.7049 10.631 31.939 14.8416 35.742ZM9.61806 13.9718C9.61875 14.2584 9.62132 14.5242 9.62696 14.7174L9.81441 21.1328C9.9609 26.1466 12.1905 30.922 16.0481 34.4061C18.1285 36.2851 20.3974 37.8284 22.9573 39.0453C23.8874 39.4874 24.9973 39.4454 25.8835 38.9398C28.0932 37.6793 30.041 36.1486 31.9702 34.4061C35.8279 30.922 38.0574 26.1466 38.2039 21.1327L38.3919 14.6968C38.3978 14.4953 38.4005 14.2126 38.4011 13.9096C37.9798 13.8553 37.5519 13.8041 37.1145 13.7518L37.0655 13.7459C36.0978 13.63 35.0833 13.5078 34.0756 13.3368C32.056 12.994 29.9431 12.4377 27.9634 11.2278L26.1293 10.1068C25.133 9.49787 23.8401 9.49787 22.8438 10.1068L21.0874 11.1803C19.0007 12.4557 16.6955 13.06 14.4755 13.4173C13.0987 13.6389 11.6157 13.7806 10.2264 13.9134C10.0214 13.9329 9.81838 13.9524 9.61806 13.9718Z" fill="#05BBC2"/>
<path fill-rule="evenodd" clip-rule="evenodd" d="M22.2002 32.1495L22.2011 15.95L25.8011 15.9501L25.8002 32.1497L22.2002 32.1495Z" fill="#05BBC2"/>
<path fill-rule="evenodd" clip-rule="evenodd" d="M32.1009 25.8498H15.9009V22.2498H32.1009V25.8498Z" fill="#05BBC2"/>
</svg>
