<svg width="48" height="48" viewBox="0 0 48 48" fill="none" xmlns="http://www.w3.org/2000/svg">
<rect width="48" height="48" rx="24" fill="white"/>
<path d="M35.0832 16.7352C35.6214 16.859 36.1581 16.523 36.2818 15.9847C36.4056 15.4465 36.0695 14.9098 35.5313 14.7861L28.9156 13.2652C28.3774 13.1414 27.8408 13.4774 27.717 14.0157C27.5933 14.5539 27.9293 15.0906 28.4675 15.2143L35.0832 16.7352Z" fill="#05BBC2"/>
<path fill-rule="evenodd" clip-rule="evenodd" d="M32 23C36.4183 23 40 19.4183 40 15C40 10.5817 36.4183 7 32 7C27.5817 7 24 10.5817 24 15C24 19.4183 27.5817 23 32 23ZM32 21C35.3137 21 38 18.3137 38 15C38 11.6863 35.3137 9 32 9C28.6863 9 26 11.6863 26 15C26 18.3137 28.6863 21 32 21Z" fill="#05BBC2"/>
<path fill-rule="evenodd" clip-rule="evenodd" d="M16.7782 9.24516C16.1307 7.71335 13.9653 7.55884 13.0955 8.98238L6.29281 20.1148C5.50809 21.399 6.38547 23.0385 7.9159 23.1477L19.7823 23.9944C21.3127 24.1036 22.4261 22.6062 21.842 21.2243L16.7782 9.24516ZM14.8106 10.013C14.8091 10.0148 14.8061 10.0186 14.8021 10.0252L8.01 21.1404L8.01156 21.1415C8.01351 21.1428 8.01659 21.1445 8.02192 21.1463C8.02695 21.1481 8.03827 21.1513 8.05824 21.1527L19.9246 21.9994C19.9446 22.0009 19.9568 21.9993 19.963 21.9981C19.9696 21.9969 19.9742 21.9952 19.9779 21.9934C19.9827 21.9912 19.9875 21.988 19.9918 21.9841L14.9361 10.0239C14.9342 10.0194 14.9326 10.0164 14.9316 10.0145C14.9257 10.0111 14.9077 10.0026 14.8779 10.0004C14.8449 9.99809 14.8228 10.0054 14.8156 10.0089L14.8132 10.0103L14.8121 10.0113L14.8106 10.013Z" fill="#05BBC2"/>
<path fill-rule="evenodd" clip-rule="evenodd" d="M33.3845 36.3592C36.3877 34.9588 37.6871 31.3889 36.2866 28.3856C34.8862 25.3824 31.3163 24.0831 28.3131 25.4835L17.4374 30.5549C14.4341 31.9554 13.1348 35.5252 14.5352 38.5285C15.9357 41.5317 19.5055 42.8311 22.5088 41.4306L33.3845 36.3592ZM18.2826 32.3675C16.2804 33.3012 15.4142 35.6811 16.3478 37.6832C17.2815 39.6854 19.6614 40.5516 21.6636 39.618L26.1296 37.5354L22.749 30.2858L18.2826 32.3675ZM27.9422 36.6902L24.5613 29.4397L29.1583 27.2961C31.1605 26.3625 33.5404 27.2287 34.474 29.2309C35.4076 31.233 34.5414 33.613 32.5392 34.5466L27.9422 36.6902Z" fill="#05BBC2"/>
</svg>
