<svg width="48" height="48" viewBox="0 0 48 48" fill="none" xmlns="http://www.w3.org/2000/svg">
<rect width="48" height="48" rx="24" fill="white"/>
<path fill-rule="evenodd" clip-rule="evenodd" d="M24 8.7C15.5501 8.7 8.7 15.5501 8.7 24C8.7 32.4499 15.5501 39.3 24 39.3C32.4499 39.3 39.3 32.4499 39.3 24C39.3 15.5501 32.4499 8.7 24 8.7ZM7 24C7 14.6112 14.6112 7 24 7C33.3888 7 41 14.6112 41 24C41 33.3888 33.3888 41 24 41C14.6112 41 7 33.3888 7 24Z" fill="#05BBC2"/>
<path fill-rule="evenodd" clip-rule="evenodd" d="M38.411 16.6613L10.4384 32.8113L9.58838 31.339L37.561 15.189L38.411 16.6613Z" fill="#05BBC2"/>
<path fill-rule="evenodd" clip-rule="evenodd" d="M24.8499 7.84998V24H23.1499V7.84998H24.8499Z" fill="#05BBC2"/>
</svg>
