<svg width="48" height="48" viewBox="0 0 48 48" fill="none" xmlns="http://www.w3.org/2000/svg">
<rect width="48" height="48" rx="24" fill="white"/>
<path fill-rule="evenodd" clip-rule="evenodd" d="M10.4002 37.675V9.625H8.7002V38.525C8.7002 38.9945 9.08076 39.375 9.5502 39.375H38.4502V37.675H10.4002Z" fill="#05BBC2"/>
<path fill-rule="evenodd" clip-rule="evenodd" d="M16.1563 26.7404L10.2063 33.9654L8.89404 32.8847L14.8441 25.6597L16.1563 26.7404Z" fill="#05BBC2"/>
<path fill-rule="evenodd" clip-rule="evenodd" d="M24.5229 27.8347L19.4229 25.7097L20.0767 24.1404L25.1767 26.2654L24.5229 27.8347Z" fill="#05BBC2"/>
<path fill-rule="evenodd" clip-rule="evenodd" d="M34.8641 19.9309L29.7641 26.3059L28.4365 25.2439L33.5365 18.8689L34.8641 19.9309Z" fill="#05BBC2"/>
<path fill-rule="evenodd" clip-rule="evenodd" d="M17.1998 25.775C18.1387 25.775 18.8998 25.014 18.8998 24.075C18.8998 23.1361 18.1387 22.375 17.1998 22.375C16.2609 22.375 15.4998 23.1361 15.4998 24.075C15.4998 25.014 16.2609 25.775 17.1998 25.775ZM17.1998 27.475C19.0775 27.475 20.5998 25.9528 20.5998 24.075C20.5998 22.1973 19.0775 20.675 17.1998 20.675C15.3221 20.675 13.7998 22.1973 13.7998 24.075C13.7998 25.9528 15.3221 27.475 17.1998 27.475Z" fill="#05BBC2"/>
<path fill-rule="evenodd" clip-rule="evenodd" d="M27.4 29.175C28.3389 29.175 29.1 28.4139 29.1 27.475C29.1 26.536 28.3389 25.775 27.4 25.775C26.4611 25.775 25.7 26.536 25.7 27.475C25.7 28.4139 26.4611 29.175 27.4 29.175ZM27.4 30.875C29.2777 30.875 30.8 29.3527 30.8 27.475C30.8 25.5972 29.2777 24.075 27.4 24.075C25.5223 24.075 24 25.5972 24 27.475C24 29.3527 25.5223 30.875 27.4 30.875Z" fill="#05BBC2"/>
<path fill-rule="evenodd" clip-rule="evenodd" d="M35.9 18.975C36.8389 18.975 37.6 18.2139 37.6 17.275C37.6 16.3361 36.8389 15.575 35.9 15.575C34.9611 15.575 34.2 16.3361 34.2 17.275C34.2 18.2139 34.9611 18.975 35.9 18.975ZM35.9 20.675C37.7777 20.675 39.3 19.1527 39.3 17.275C39.3 15.3973 37.7777 13.875 35.9 13.875C34.0223 13.875 32.5 15.3973 32.5 17.275C32.5 19.1527 34.0223 20.675 35.9 20.675Z" fill="#05BBC2"/>
</svg>
