<svg width="48" height="48" viewBox="0 0 48 48" fill="none" xmlns="http://www.w3.org/2000/svg">
<rect width="48" height="48" rx="24" fill="white"/>
<path d="M11.0713 34.1938C11.0713 34.5201 10.807 34.7837 10.4814 34.7837H8.587C8.26142 34.7837 7.99711 34.5194 7.99711 34.1938C7.99711 33.8682 8.26142 33.6039 8.587 33.6039H10.4807C10.807 33.6032 11.0713 33.8675 11.0713 34.1938ZM23.6088 33.6032H21.7151C21.3895 33.6032 21.1252 33.8675 21.1252 34.1931C21.1252 34.5186 21.3895 34.7829 21.7151 34.7829H23.6088C23.9344 34.7829 24.1987 34.5186 24.1987 34.1931C24.1987 33.8675 23.9344 33.6032 23.6088 33.6032ZM15.1518 21.6556H17.0433C17.3696 21.6556 17.6332 21.3913 17.6332 21.0657C17.6332 20.7401 17.3689 20.4758 17.0433 20.4758H15.1518C14.8255 20.4758 14.5619 20.7401 14.5619 21.0657C14.5619 21.3913 14.8262 21.6556 15.1518 21.6556ZM42.9001 17.5013V32.6449C42.9001 33.454 42.2423 34.1119 41.4331 34.1119H32.5383V36.1377C32.5383 37.0089 31.8296 37.7176 30.9584 37.7176H19.8104C19.436 37.7176 19.0913 37.5862 18.8203 37.3669C18.5494 37.5855 18.2053 37.7176 17.8303 37.7176H6.68223C5.80959 37.7176 5.1001 37.0089 5.1001 36.1377V24.9896C5.1001 24.1185 5.80959 23.4097 6.68223 23.4097H11.7181C11.6848 23.282 11.6649 23.1484 11.6649 23.0103V11.8623C11.6649 10.9911 12.3736 10.2823 13.2448 10.2823H24.3929C25.264 10.2823 25.9728 10.9911 25.9728 11.8623V23.0103C25.9728 23.1484 25.9529 23.282 25.9196 23.4097H29.6767V17.502C29.6767 16.6928 30.3346 16.035 31.1437 16.035H32.8669C33.1016 15.7257 33.4656 15.5264 33.8746 15.5264H34.2327C34.4807 14.5828 35.3076 13.8881 36.2873 13.8881C37.2677 13.8881 38.0961 14.5836 38.3442 15.5264H38.7022C39.1105 15.5264 39.4737 15.7257 39.7085 16.035H41.4309C42.2416 16.0343 42.9001 16.6928 42.9001 17.5013ZM33.7735 16.8531V17.7257C33.7735 17.8099 33.8274 17.8719 33.8761 17.8719H38.7044C38.7517 17.8719 38.8049 17.8091 38.8049 17.7257V16.8531C38.8049 16.7689 38.7517 16.7069 38.7044 16.7069H37.8318C37.5062 16.7069 37.2419 16.4426 37.2419 16.117C37.2419 15.5389 36.8144 15.0686 36.2895 15.0686C35.7653 15.0686 35.3394 15.5389 35.3394 16.117C35.3394 16.4433 35.0751 16.7069 34.7495 16.7069H33.8768C33.8274 16.7061 33.7735 16.7689 33.7735 16.8531ZM24.4586 28.3067L25.0337 27.8837C25.2419 27.7309 25.5254 27.7301 25.7328 27.8837L26.3102 28.3082V24.5902H24.4578V28.3067H24.4586ZM17.893 15.1801L18.4704 14.7556C18.6786 14.6028 18.9621 14.6028 19.1695 14.7556L19.7446 15.1786V11.4621H17.8923V15.1801H17.893ZM13.2456 23.4097H17.831H19.8111H24.3943C24.6114 23.4097 24.7937 23.2266 24.7937 23.0103V11.8623C24.7937 11.6452 24.6107 11.4629 24.3943 11.4629H20.9266V16.3473C20.9266 16.5703 20.8011 16.7733 20.6025 16.8737C20.5184 16.9165 20.4268 16.9372 20.336 16.9372C20.212 16.9372 20.0894 16.8981 19.9861 16.822L18.8203 15.9642L17.6531 16.822C17.4737 16.9542 17.236 16.9734 17.0374 16.873C16.8388 16.7726 16.714 16.5688 16.714 16.3466V11.4621H13.2463C13.03 11.4621 12.8469 11.6452 12.8469 11.8615V23.0096C12.8454 23.2266 13.0285 23.4097 13.2456 23.4097ZM11.3282 28.3082L11.9056 27.8837C12.1138 27.7309 12.3965 27.7309 12.6047 27.8837L13.1821 28.3082V24.5902H11.3282V28.3082ZM18.2304 36.1377V24.9896C18.2304 24.7726 18.0473 24.5902 17.831 24.5902H14.3633V29.4747C14.3633 29.6969 14.2378 29.9007 14.0399 30.0011C13.9558 30.0439 13.8642 30.0646 13.7734 30.0646C13.6501 30.0646 13.5268 30.0262 13.4235 29.9502L12.2555 29.0915L11.0876 29.9494C10.9082 30.0816 10.6704 30.1008 10.4718 30.0004C10.2732 29.9 10.1485 29.6962 10.1485 29.474V24.5895H6.68223C6.46075 24.5895 6.28061 24.7689 6.28061 24.9889V36.137C6.28061 36.3577 6.46075 36.5364 6.68223 36.5364H17.8303C18.0473 36.5371 18.2304 36.354 18.2304 36.1377ZM31.3585 34.1119H31.1452C30.336 34.1119 29.6782 33.454 29.6782 32.6449V24.5895H27.4914V29.474C27.4914 29.6962 27.3659 29.9 27.1681 30.0004C27.0839 30.0432 26.9923 30.0639 26.9015 30.0639C26.7782 30.0639 26.655 30.0255 26.5516 29.9494L25.3844 29.0915L24.2186 29.9494C24.0392 30.0816 23.8008 30.1015 23.6022 30.0011C23.4036 29.9007 23.2781 29.6969 23.2781 29.4747V24.5902H19.8104C19.5896 24.5902 19.4109 24.7696 19.4109 24.9896V36.1377C19.4109 36.3584 19.5903 36.5371 19.8104 36.5371H30.9584C31.1747 36.5371 31.3578 36.354 31.3578 36.1377V34.1119H31.3585ZM41.7196 17.5013C41.7196 17.3462 41.5882 17.2148 41.4331 17.2148H39.9846V17.7257C39.9846 18.4573 39.4102 19.0524 38.7037 19.0524H33.8753C33.1681 19.0524 32.5922 18.4573 32.5922 17.7257V17.2148H31.1437C30.9887 17.2148 30.8573 17.3462 30.8573 17.5013V32.6449C30.8573 32.7999 30.9887 32.9313 31.1437 32.9313H41.4317C41.5867 32.9313 41.7181 32.7999 41.7181 32.6449V17.5013H41.7196ZM34.4187 24.8782L33.4442 25.8542L32.8905 25.3005C32.6601 25.0701 32.2866 25.0701 32.0562 25.3005C31.8259 25.5308 31.8259 25.9044 32.0562 26.1347L33.0271 27.1056C33.1378 27.2163 33.2877 27.2783 33.4442 27.2783C33.6007 27.2783 33.7513 27.2163 33.8613 27.1048L35.253 25.7109C35.4833 25.4806 35.4833 25.1063 35.2522 24.8767C35.0212 24.6471 34.6491 24.6471 34.4187 24.8782ZM40.1042 25.4016H36.8816C36.556 25.4016 36.2917 25.6659 36.2917 25.9915C36.2917 26.3171 36.556 26.5814 36.8816 26.5814H40.1042C40.4298 26.5814 40.6941 26.3171 40.6941 25.9915C40.6941 25.6659 40.4298 25.4016 40.1042 25.4016ZM33.0278 23.0214C33.143 23.1366 33.2943 23.1941 33.4449 23.1941C33.5955 23.1941 33.7469 23.1366 33.8621 23.0214L35.2537 21.6297C35.4841 21.3994 35.4841 21.0258 35.2537 20.7955C35.0234 20.5651 34.6498 20.5651 34.4195 20.7955L33.4449 21.77L32.8912 21.2163C32.6609 20.986 32.2873 20.986 32.057 21.2163C31.8266 21.4466 31.8266 21.8202 32.057 22.0506L33.0278 23.0214ZM40.1042 21.3167H36.8816C36.556 21.3167 36.2917 21.581 36.2917 21.9066C36.2917 22.2322 36.556 22.4965 36.8816 22.4965H40.1042C40.4298 22.4965 40.6941 22.2322 40.6941 21.9066C40.6941 21.581 40.4298 21.3167 40.1042 21.3167ZM34.4195 28.9631L33.4449 29.9376L32.8912 29.3854C32.6609 29.155 32.2866 29.1558 32.0562 29.3861C31.8259 29.6172 31.8266 29.9908 32.057 30.2211L33.0278 31.1897C33.143 31.3049 33.2936 31.3618 33.4449 31.3618C33.5963 31.3618 33.7469 31.3042 33.8621 31.189L35.2537 29.7973C35.4841 29.567 35.4841 29.1934 35.2537 28.9631C35.0234 28.732 34.6498 28.732 34.4195 28.9631ZM40.1042 29.4865H36.8816C36.556 29.4865 36.2917 29.7508 36.2917 30.0764C36.2917 30.402 36.556 30.6663 36.8816 30.6663H40.1042C40.4298 30.6663 40.6941 30.402 40.6941 30.0764C40.6941 29.7508 40.4298 29.4865 40.1042 29.4865Z" fill="#05BBC2"/>
</svg>
