<svg width="48" height="48" viewBox="0 0 48 48" fill="none" xmlns="http://www.w3.org/2000/svg">
<rect x="0.5" y="0.5" width="47" height="47" rx="23.5" stroke="#05BBC2"/>
<path d="M35.6999 11.4C35.6999 10.9029 35.297 10.5 34.7999 10.5C34.3028 10.5 33.8999 10.9029 33.8999 11.4V13.4725L34.951 15.0492C35.2268 15.4628 35.7856 15.5746 36.1991 15.2989C36.6127 15.0231 36.7245 14.4643 36.4488 14.0508L35.6999 12.9275V11.4Z" fill="#05BBC2"/>
<path fill-rule="evenodd" clip-rule="evenodd" d="M34.7999 18.5998C37.7822 18.5998 40.1999 16.1821 40.1999 13.1998C40.1999 10.2175 37.7822 7.7998 34.7999 7.7998C31.8176 7.7998 29.3999 10.2175 29.3999 13.1998C29.3999 16.1821 31.8176 18.5998 34.7999 18.5998ZM34.7999 16.7998C36.7881 16.7998 38.3999 15.188 38.3999 13.1998C38.3999 11.2116 36.7881 9.5998 34.7999 9.5998C32.8117 9.5998 31.1999 11.2116 31.1999 13.1998C31.1999 15.188 32.8117 16.7998 34.7999 16.7998Z" fill="#05BBC2"/>
<path fill-rule="evenodd" clip-rule="evenodd" d="M18.6863 15.9947C17.3614 14.6691 15.2126 14.6684 13.8867 15.9931L13.253 16.6262C12.0477 16.2837 10.6992 16.5902 9.75013 17.5457C8.3497 18.9556 8.3497 21.2438 9.75013 22.6538L10.4998 23.4085V33H7.7998V34.8H10.5453C9.96181 35.3718 9.5998 36.1686 9.5998 37.05C9.5998 38.7897 11.0101 40.2 12.7498 40.2C14.4895 40.2 15.8998 38.7897 15.8998 37.05C15.8998 36.1686 15.5378 35.3718 14.9544 34.8H33.0453C32.4618 35.3718 32.0998 36.1686 32.0998 37.05C32.0998 38.7897 33.5101 40.2 35.2498 40.2C36.9895 40.2 38.3998 38.7897 38.3998 37.05C38.3998 36.1686 38.0378 35.3718 37.4544 34.8H40.1998V33H36.5998V30.2997H36.6594C38.6147 30.2997 40.1998 28.7014 40.1998 26.7297C40.1998 24.7581 38.6147 23.1598 36.6594 23.1598H20.4988C20.4255 23.1598 20.355 23.1303 20.3031 23.078L19.9733 22.7461L20.3049 22.4148C21.6308 21.09 21.6315 18.9414 20.3065 17.6157L18.6863 15.9947ZM34.7998 33V30.2997H17.7648C17.4958 30.2997 17.2378 30.1921 17.0475 30.0005L12.2998 25.2207V33H34.7998ZM18.7048 21.469L19.0326 21.1415C19.6552 20.5194 19.6556 19.5106 19.0334 18.8882L17.4132 17.2672C16.791 16.6446 15.7816 16.6442 15.1589 17.2664L14.8435 17.5816L18.7048 21.469ZM36.6594 24.9598H20.4988C19.9437 24.9598 19.4143 24.7375 19.026 24.3466L13.5307 18.8142C12.8374 18.1161 11.7206 18.1161 11.0272 18.8142C10.324 19.5221 10.324 20.6773 11.0272 21.3853L18.0939 28.4997H36.6594C37.6065 28.4997 38.3998 27.7214 38.3998 26.7297C38.3998 25.738 37.6065 24.9598 36.6594 24.9598ZM14.0998 37.05C14.0998 37.7956 13.4954 38.4 12.7498 38.4C12.0042 38.4 11.3998 37.7956 11.3998 37.05C11.3998 36.3044 12.0042 35.7 12.7498 35.7C13.4954 35.7 14.0998 36.3044 14.0998 37.05ZM35.2498 38.4C35.9954 38.4 36.5998 37.7956 36.5998 37.05C36.5998 36.3044 35.9954 35.7 35.2498 35.7C34.5042 35.7 33.8998 36.3044 33.8998 37.05C33.8998 37.7956 34.5042 38.4 35.2498 38.4Z" fill="#05BBC2"/>
</svg>
