<svg width="48" height="48" viewBox="0 0 48 48" fill="none" xmlns="http://www.w3.org/2000/svg">
<rect x="0.5" y="0.5" width="47" height="47" rx="23.5" stroke="#05BBC2"/>
<path fill-rule="evenodd" clip-rule="evenodd" d="M23.8837 17.2531H26.2501C26.7471 17.2531 27.1501 16.8502 27.1501 16.3531C27.1501 15.8561 26.7471 15.4531 26.2501 15.4531H23.8837C23.5693 15.4532 23.2034 15.5045 22.8488 15.6776C21.5663 16.3034 20.8404 17.3852 20.442 18.4393C20.3074 18.7954 20.2074 19.1547 20.1341 19.5031H21.986C22.0261 19.3598 22.0725 19.2167 22.1257 19.0757C22.4155 18.3093 22.8863 17.6621 23.6381 17.2952C23.68 17.2748 23.7571 17.2531 23.8837 17.2531ZM18.6001 20.4031C18.103 20.4031 17.6887 20.8134 17.8229 21.2921C18.3429 23.1455 20.4568 24.5875 23.1001 24.8576V26.26C22.4746 26.2753 21.8246 26.3251 21.2735 26.4856C20.8428 26.611 20.3864 26.8259 20.0372 27.218C19.6716 27.6286 19.5 28.1472 19.5 28.7255C19.5 29.3044 19.6712 29.8235 20.0362 30.235C20.3852 30.6282 20.8415 30.8439 21.2726 30.9698C21.5607 31.054 21.8757 31.1078 22.2 31.1423V29.33C22.046 29.308 21.905 29.2793 21.7775 29.242C21.5336 29.1708 21.4274 29.0907 21.3826 29.0402C21.3539 29.0079 21.3 28.9355 21.3 28.7255C21.3 28.5177 21.3535 28.4466 21.3816 28.415C21.4262 28.3649 21.5323 28.285 21.7766 28.2138C22.1222 28.1132 22.5667 28.0754 23.1001 28.0614V29.3949L23.1 31.1964L23.1001 33.0031H20.4001V34.8031H27.6001V33.0031H24.9001V28.02C25.8916 27.9422 26.6953 27.7244 27.3 27.3347C28.1511 26.7863 28.5 25.9698 28.5 25.1032C28.5 24.6322 28.3968 24.1796 28.1663 23.7788C29.1786 23.1408 29.9017 22.2742 30.1772 21.2921C30.3114 20.8134 29.8971 20.4031 29.4001 20.4031H18.6001ZM26.325 25.8217C26.07 25.986 25.628 26.1421 24.9001 26.2131V24.8576C25.4584 24.8005 25.9932 24.6912 26.4944 24.5366C26.6427 24.678 26.7 24.8498 26.7 25.1032C26.7 25.4366 26.599 25.645 26.325 25.8217Z" fill="#05BBC2"/>
<path fill-rule="evenodd" clip-rule="evenodd" d="M31.1998 31.1998H40.1998V16.7998H31.1998V7.7998H16.7998V16.7998H7.7998V31.1998H16.7998V40.1998H31.1998V31.1998ZM29.3998 38.3998V29.3998H38.3998V18.5998H29.3998V9.5998H18.5998V18.5998H9.5998V29.3998H18.5998V38.3998H29.3998Z" fill="#05BBC2"/>
</svg>
