<svg width="120" height="120" viewBox="0 0 120 120" fill="none" xmlns="http://www.w3.org/2000/svg">
<path fill-rule="evenodd" clip-rule="evenodd" d="M26.2234 80V90C26.2234 92.7615 28.4619 95 31.2234 95H106.223C108.985 95 111.223 92.7615 111.223 90V50C111.223 47.2385 108.985 45 106.223 45H99.9999V54.1717C100.27 54.5737 100.579 54.9495 100.923 55.2935C101.619 55.99 102.446 56.5425 103.356 56.9193C104.265 57.296 105.239 57.4897 106.223 57.4902V82.5C105.253 82.5057 104.293 82.6995 103.397 83.071C102.487 83.4478 101.66 84.0003 100.964 84.6968C100.267 85.3932 99.7149 86.22 99.3379 87.1297C98.9609 88.0397 98.7669 89.015 98.7669 90H38.7129C38.7009 89.047 38.5074 88.1047 38.1426 87.2237C37.7656 86.314 37.2131 85.4873 36.5166 84.7908C35.8204 84.0943 34.9936 83.5417 34.0836 83.165C33.1766 82.7892 32.2049 82.5953 31.2234 82.594V80H26.2234Z" fill="#05BBC2"/>
<path fill-rule="evenodd" clip-rule="evenodd" d="M52.5 55C55.2615 55 57.5 52.7615 57.5 50C57.5 47.2385 55.2615 45 52.5 45C49.7385 45 47.5 47.2385 47.5 50C47.5 52.7615 49.7385 55 52.5 55ZM52.5 60C58.0227 60 62.5 55.5227 62.5 50C62.5 44.4773 58.0227 40 52.5 40C46.9773 40 42.5 44.4773 42.5 50C42.5 55.5227 46.9773 60 52.5 60Z" fill="#05BBC2"/>
<path fill-rule="evenodd" clip-rule="evenodd" d="M15 25C12.2386 25 10 27.2385 10 30V70C10 72.7615 12.2386 75 15 75H90C92.7615 75 95 72.7615 95 70V30C95 27.2385 92.7615 25 90 25H15ZM22.4954 30H82.5027C82.504 30.9815 82.698 31.9535 83.0737 32.8603C83.4505 33.7703 84.003 34.597 84.6995 35.2935C85.396 35.99 86.2227 36.5425 87.1325 36.9193C88.0417 37.296 89.016 37.4898 90 37.4903V62.5002C89.03 62.5057 88.07 62.6995 87.1735 63.071C86.2635 63.4478 85.4367 64.0003 84.7402 64.6968C84.044 65.3932 83.4915 66.22 83.1145 67.1297C82.7377 68.0397 82.5438 69.015 82.5438 70H22.4895C22.4776 69.047 22.2841 68.1047 21.9192 67.2237C21.5423 66.314 20.9898 65.4873 20.2934 64.7907C19.597 64.0942 18.7702 63.5418 17.8603 63.165C16.9534 62.7893 15.9816 62.5952 15 62.594V37.5C15.9833 37.4995 16.957 37.3055 17.8656 36.929C18.7755 36.5522 19.6023 35.9997 20.2987 35.3032C20.9952 34.6067 21.5476 33.78 21.9245 32.8702C22.3014 31.9602 22.4954 30.985 22.4954 30Z" fill="#05BBC2"/>
</svg>
