<svg width="48" height="48" viewBox="0 0 48 48" fill="none" xmlns="http://www.w3.org/2000/svg">
<g clip-path="url(#clip0_3097_23635)">
<path fill-rule="evenodd" clip-rule="evenodd" d="M8.53597 13.9275C8.12929 14.3342 8.12929 14.9935 8.53597 15.4002C8.94265 15.807 9.60201 15.807 10.0087 15.4002L10.7455 14.6634L14.4269 18.3448L11.4814 21.2903C11.0747 21.697 11.0747 22.3564 11.4814 22.7631C11.8881 23.1698 12.5474 23.1698 12.9541 22.7631L14.4264 21.2907L16.2947 23.1591C16.7525 23.0873 17.2217 23.0501 17.6996 23.0501C18.0713 23.0501 18.4377 23.0727 18.7976 23.1164L15.6992 20.018L20.5173 15.1997L31.1096 25.7924L26.5413 30.3608C26.6452 30.908 26.6996 31.4726 26.6996 32.0501C26.6996 32.5281 26.6624 32.9973 26.5906 33.4551L26.9451 33.8097C28.4548 35.3195 30.6611 35.7083 32.5296 34.9761L33.5721 36.0186C34.1174 36.5639 34.8897 36.7437 35.5847 36.5578L37.9906 38.9637C38.3972 39.3704 39.0565 39.3704 39.4633 38.9637C39.87 38.5571 39.87 37.8976 39.4633 37.4909L37.0571 35.0847C37.2424 34.39 37.0626 33.6181 36.5176 33.0731L35.475 32.0305C36.2072 30.162 35.8184 27.9557 34.3087 26.4459L21.79 13.9269L23.2632 12.4538C23.6699 12.0471 23.6699 11.3877 23.2632 10.981C22.8565 10.5743 22.1971 10.5743 21.7905 10.981L18.845 13.9265L15.1637 10.2451L15.8995 9.50922C16.3063 9.10253 16.3063 8.44316 15.8995 8.03646C15.4929 7.62977 14.8336 7.62977 14.4269 8.03646L8.53597 13.9275ZM31.873 33.2995L33.7986 31.374C34.2783 30.1512 34.024 28.7068 33.0359 27.7186L32.5823 27.2651L27.7642 32.0833L28.2178 32.5369C29.206 33.5251 30.6502 33.7793 31.873 33.2995ZM34.8449 34.7458L34.1034 34.0042C34.1731 33.9416 34.2415 33.8767 34.3087 33.8097C34.3757 33.7425 34.4406 33.6741 34.5033 33.6044L35.2449 34.346C35.3553 34.4564 35.3553 34.6354 35.2449 34.7458C35.1344 34.8563 34.9553 34.8563 34.8449 34.7458ZM17.5723 15.1994L13.8909 11.5179L12.0183 13.3906L15.6997 17.072L17.5723 15.1994Z" fill="#05BBC2"/>
<path fill-rule="evenodd" clip-rule="evenodd" d="M15.2184 28.2952C15.6907 27.9823 16.2255 27.7562 16.8 27.6396V26.6496C16.303 26.6496 15.9 26.2467 15.9 25.7496C15.9 25.2525 16.303 24.8496 16.8 24.8496H18.6C19.0971 24.8496 19.5 25.2525 19.5 25.7496C19.5 26.2467 19.0971 26.6496 18.6 26.6496V27.6396C19.1745 27.7562 19.7094 27.9823 20.1817 28.2952L20.9272 27.5495C20.5758 27.1981 20.5758 26.6283 20.9272 26.2767C21.2787 25.9253 21.8486 25.9253 22.2 26.2767L23.4728 27.5495C23.8243 27.9011 23.8243 28.4708 23.4728 28.8224C23.1214 29.1738 22.5515 29.1738 22.2 28.8224L21.4545 29.5679C21.7673 30.0403 21.9934 30.575 22.11 31.1496H23.1C23.1 30.6525 23.503 30.2496 24 30.2496C24.4971 30.2496 24.9 30.6525 24.9 31.1496V32.9496C24.9 33.4467 24.4971 33.8496 24 33.8496C23.503 33.8496 23.1 33.4467 23.1 32.9496H22.11C21.9934 33.5242 21.7673 34.0589 21.4545 34.5313L22.2 35.2769C22.5515 34.9255 23.1214 34.9255 23.4728 35.2769C23.8243 35.6284 23.8243 36.1982 23.4728 36.5497L22.2 37.8225C21.8486 38.1739 21.2787 38.1739 20.9272 37.8225C20.5758 37.471 20.5758 36.9011 20.9272 36.5497L20.1817 35.804C19.7094 36.1169 19.1745 36.343 18.6 36.4596V37.4496C19.0971 37.4496 19.5 37.8525 19.5 38.3496C19.5 38.8467 19.0971 39.2496 18.6 39.2496H16.8C16.303 39.2496 15.9 38.8467 15.9 38.3496C15.9 37.8525 16.303 37.4496 16.8 37.4496V36.4596C16.2255 36.343 15.6907 36.1169 15.2184 35.804L14.4727 36.5497C14.8243 36.9011 14.8243 37.471 14.4727 37.8225C14.1213 38.1739 13.5514 38.1739 13.1999 37.8225L11.9272 36.5497C11.5757 36.1982 11.5757 35.6284 11.9272 35.2769C12.2786 34.9255 12.8485 34.9255 13.1999 35.2769L13.9456 34.5313C13.6327 34.0589 13.4067 33.5242 13.29 32.9496H12.3C12.3 33.4467 11.8971 33.8496 11.4 33.8496C10.9029 33.8496 10.5 33.4467 10.5 32.9496V31.1496C10.5 30.6525 10.9029 30.2496 11.4 30.2496C11.8971 30.2496 12.3 30.6525 12.3 31.1496H13.29C13.4067 30.575 13.6327 30.0403 13.9456 29.5679L13.2 28.8225C12.8486 29.1739 12.2787 29.1739 11.9272 28.8225C11.5758 28.471 11.5758 27.9011 11.9272 27.5497L12.5552 26.9218L12.5636 26.9132L12.5721 26.9048L13.2 26.2769C13.5515 25.9255 14.1214 25.9255 14.4728 26.2769C14.8243 26.6284 14.8243 27.1982 14.4728 27.5497L15.2184 28.2952ZM15 32.0496C15 30.5585 16.2088 29.3496 17.7 29.3496C19.1911 29.3496 20.4 30.5585 20.4 32.0496C20.4 33.5408 19.1911 34.7496 17.7 34.7496C16.2088 34.7496 15 33.5408 15 32.0496Z" fill="#05BBC2"/>
</g>
<rect x="0.5" y="0.5" width="47" height="47" rx="23.5" stroke="#05BBC2"/>
<defs>
<clipPath id="clip0_3097_23635">
<rect width="48" height="48" rx="24" fill="white"/>
</clipPath>
</defs>
</svg>
