<svg width="120" height="120" viewBox="0 0 120 120" fill="none" xmlns="http://www.w3.org/2000/svg">
<g clip-path="url(#clip0_2769_38055)">
<path fill-rule="evenodd" clip-rule="evenodd" d="M17.0453 32.1595C15.9156 33.2893 15.9156 35.1208 17.0453 36.2505C18.1749 37.3803 20.0065 37.3803 21.1362 36.2505L23.1829 34.2038L33.4089 44.4298L25.2271 52.6118C24.0974 53.7415 24.0974 55.5733 25.2271 56.7028C26.3566 57.8325 28.1881 57.8325 29.3179 56.7028L33.4076 52.613L38.5974 57.8028C39.8689 57.6035 41.1724 57.5 42.4999 57.5C43.5324 57.5 44.5501 57.5628 45.5499 57.6843L36.9431 49.0775L50.3266 35.6935L79.7499 65.1175L67.0601 77.8075C67.3486 79.3275 67.4999 80.896 67.4999 82.5C67.4999 83.8278 67.3964 85.1313 67.1969 86.403L68.1816 87.3878C72.3754 91.5818 78.5039 92.6618 83.6941 90.6278L86.5901 93.5238C88.1049 95.0385 90.2501 95.5378 92.1806 95.0215L98.8636 101.705C99.9931 102.834 101.825 102.834 102.954 101.705C104.084 100.575 104.084 98.7433 102.954 97.6135L96.2706 90.9295C96.7854 88.9998 96.2859 86.8558 94.7721 85.3418L91.8759 82.4458C93.9099 77.2553 92.8299 71.1268 88.6361 66.9328L53.8621 32.158L57.9541 28.066C59.0839 26.9363 59.0839 25.1045 57.9541 23.9749C56.8246 22.8452 54.9929 22.8452 53.8634 23.9749L45.6814 32.1568L35.4556 21.9308L37.4996 19.8866C38.6294 18.7569 38.6294 16.9253 37.4996 15.7956C36.3701 14.6659 34.5386 14.6659 33.4089 15.7956L17.0453 32.1595ZM81.8704 85.9708L87.2191 80.622C88.5516 77.2253 87.8454 73.2133 85.1006 70.4683L83.8406 69.2085L70.4571 82.5923L71.7171 83.8523C74.4619 86.5973 78.4736 87.3035 81.8704 85.9708ZM90.1256 89.9883L88.0659 87.9283C88.2596 87.7543 88.4496 87.574 88.6361 87.3878C88.8224 87.2013 89.0026 87.0113 89.1766 86.8175L91.2366 88.8775C91.5434 89.1843 91.5434 89.6815 91.2366 89.9883C90.9299 90.295 90.4324 90.295 90.1256 89.9883ZM42.1461 35.6925L31.9201 25.4663L26.7184 30.6683L36.9444 40.8943L42.1461 35.6925Z" fill="#05BBC2"/>
<path fill-rule="evenodd" clip-rule="evenodd" d="M35.6066 72.071C36.9186 71.202 38.4041 70.574 40.0001 70.25V67.5C38.6193 67.5 37.5001 66.3807 37.5001 65C37.5001 63.6193 38.6193 62.5 40.0001 62.5H45.0001C46.3808 62.5 47.5001 63.6193 47.5001 65C47.5001 66.3807 46.3808 67.5 45.0001 67.5V70.25C46.5958 70.574 48.0816 71.202 49.3936 72.071L51.4646 69.9998C50.4883 69.0235 50.4883 67.4407 51.4646 66.4642C52.4408 65.488 54.0238 65.488 55.0001 66.4642L58.5356 69.9998C59.5121 70.9763 59.5121 72.559 58.5356 73.5355C57.5593 74.5117 55.9763 74.5117 55.0001 73.5355L52.9291 75.6065C53.7981 76.9185 54.4261 78.404 54.7501 80H57.5001C57.5001 78.6192 58.6193 77.5 60.0001 77.5C61.3808 77.5 62.5001 78.6192 62.5001 80V85C62.5001 86.3808 61.3808 87.5 60.0001 87.5C58.6193 87.5 57.5001 86.3808 57.5001 85H54.7501C54.4261 86.596 53.7981 88.0815 52.9291 89.3935L55.0001 91.4647C55.9763 90.4885 57.5593 90.4885 58.5356 91.4647C59.5121 92.441 59.5121 94.024 58.5356 95.0002L55.0001 98.5357C54.0238 99.512 52.4408 99.512 51.4646 98.5357C50.4883 97.5595 50.4883 95.9765 51.4646 95.0002L49.3936 92.929C48.0816 93.798 46.5958 94.426 45.0001 94.75V97.5C46.3808 97.5 47.5001 98.6193 47.5001 100C47.5001 101.381 46.3808 102.5 45.0001 102.5H40.0001C38.6193 102.5 37.5001 101.381 37.5001 100C37.5001 98.6193 38.6193 97.5 40.0001 97.5V94.75C38.4041 94.426 36.9186 93.798 35.6066 92.929L33.5353 95.0002C34.5118 95.9765 34.5118 97.5595 33.5353 98.5357C32.5591 99.512 30.9761 99.512 29.9998 98.5357L26.4643 95.0002C25.4881 94.024 25.4881 92.441 26.4643 91.4647C27.4406 90.4885 29.0236 90.4885 29.9998 91.4647L32.0711 89.3935C31.2021 88.0815 30.5741 86.596 30.2501 85H27.5001C27.5001 86.3808 26.3808 87.5 25 87.5C23.6193 87.5 22.5 86.3808 22.5 85V80C22.5 78.6192 23.6193 77.5 25 77.5C26.3808 77.5 27.5001 78.6192 27.5001 80H30.2501C30.5741 78.404 31.2021 76.9185 32.0711 75.6065L30.0001 73.5358C29.0238 74.512 27.4408 74.512 26.4646 73.5358C25.4883 72.5595 25.4883 70.9765 26.4646 70.0002L28.2088 68.256L28.2323 68.2323L28.2558 68.209L30.0001 66.4647C30.9763 65.4885 32.5593 65.4885 33.5356 66.4647C34.5121 67.441 34.5121 69.024 33.5356 70.0002L35.6066 72.071ZM35.0001 82.5C35.0001 78.358 38.3578 75 42.5001 75C46.6421 75 50.0001 78.358 50.0001 82.5C50.0001 86.6423 46.6421 90 42.5001 90C38.3578 90 35.0001 86.6423 35.0001 82.5Z" fill="#05BBC2"/>
</g>
<defs>
<clipPath id="clip0_2769_38055">
<rect width="120" height="120" fill="white"/>
</clipPath>
</defs>
</svg>
