<svg width="120" height="120" viewBox="0 0 120 120" fill="none" xmlns="http://www.w3.org/2000/svg">
<path fill-rule="evenodd" clip-rule="evenodd" d="M59.7213 23.7504C58.5845 18.7402 54.104 15 48.75 15C42.5367 15 37.5 20.0368 37.5 26.25C37.5 32.4632 42.5367 37.5 48.75 37.5C54.1038 37.5 58.584 33.7603 59.721 28.7505L60 28.75C60.104 28.75 60.2065 28.7438 60.3073 28.7313C60.8832 30.9488 62.208 32.5 63.75 32.5C65.821 32.5 67.5 29.7017 67.5 26.25C67.5 22.7982 65.821 20 63.75 20C62.208 20 60.8832 21.5513 60.3073 23.7687C60.2065 23.7564 60.104 23.75 60 23.75L59.7213 23.7504ZM54.4137 28.8963C53.4175 31.0253 51.256 32.5 48.75 32.5C45.642 32.5 43.064 30.2315 42.5812 27.26C46.6532 29.0585 50.1542 29.0493 54.4137 28.8963ZM43.8683 22.3468C45.0138 20.9162 46.7747 20 48.75 20C51.3562 20 53.59 21.5953 54.528 23.8628L54.4632 23.865C49.8575 24.022 47.332 24.1082 43.8683 22.3468Z" fill="#05BBC2"/>
<path fill-rule="evenodd" clip-rule="evenodd" d="M21.5685 48.7475C25.6987 43.7945 31.9008 40 39.4 40C42.6823 40 45.5835 42.1345 46.5602 45.268L49.7467 55.4903H52.5C56.6423 55.4903 60 58.8483 60 62.9902C60 67.1325 56.6423 70.4902 52.5 70.4902H44.2285C40.9863 70.4902 38.116 68.4075 37.105 65.3363C36.103 68.022 35.3382 70.9588 35 74.0455V97.5C35 101.642 31.6423 105 27.5 105C23.3579 105 20 101.642 20 97.5V80.031C19.5177 79.2643 18.9228 78.2775 18.3205 77.1733C17.6236 75.896 16.8507 74.3412 16.2351 72.7113C15.6638 71.1985 15 69.0405 15 66.7247C15 60.155 17.4691 53.6635 21.5685 48.7475ZM39.4 45C33.6845 45 28.7997 47.883 25.4085 51.9495C22.03 56.001 20 61.3692 20 66.7247C20 68.151 20.4225 69.6467 20.9126 70.9447C21.4185 72.284 22.0769 73.6185 22.7099 74.779C23.3465 75.946 23.9797 76.9773 24.4524 77.7155C24.5027 77.794 24.5513 77.8695 24.5979 77.9415C24.8604 78.3465 25 78.8188 25 79.3013V97.5C25 98.8807 26.1193 100 27.5 100C28.8807 100 30 98.8807 30 97.5V73.9115C30 73.8237 30.0045 73.736 30.0138 73.649C30.6815 67.3253 32.896 61.6395 35.3848 57.1963C35.873 56.3248 36.8327 55.8275 37.826 55.9315C38.8193 56.0353 39.6555 56.7205 39.9528 57.674L41.8418 63.7342C42.1675 64.7787 43.1345 65.4902 44.2285 65.4902H52.5C53.8807 65.4902 55 64.371 55 62.9902C55 61.6095 53.8807 60.4902 52.5 60.4902H47.9073C46.8133 60.4902 45.8463 59.7787 45.5205 58.7342L41.7868 46.756C41.4613 45.7115 40.494 45 39.4 45Z" fill="#05BBC2"/>
<path fill-rule="evenodd" clip-rule="evenodd" d="M93.75 45C99.9632 45 105 39.9632 105 33.75C105 27.5367 99.9632 22.5 93.75 22.5C87.5367 22.5 82.5 27.5367 82.5 33.75C82.5 39.9632 87.5367 45 93.75 45ZM93.75 40C97.2017 40 100 37.2017 100 33.75C100 30.2983 97.2017 27.5 93.75 27.5C90.2983 27.5 87.5 30.2983 87.5 33.75C87.5 37.2017 90.2983 40 93.75 40Z" fill="#05BBC2"/>
<path fill-rule="evenodd" clip-rule="evenodd" d="M85.947 44.424C84.5072 41.223 81.0425 39.452 77.6105 40.1512C77.5665 40.1592 77.5365 40.1665 77.5228 40.1697L77.516 40.1712L77.4788 40.1795L77.4248 40.1915L77.4162 40.1935C77.3757 40.2027 77.3323 40.2132 77.2858 40.2245C77.1925 40.2475 77.0872 40.2747 76.9705 40.3072C76.7373 40.372 76.4577 40.4572 76.1387 40.5685C75.5015 40.7907 74.7025 41.118 73.7995 41.5932C71.9832 42.5495 69.7718 44.0935 67.6468 46.5342C63.3035 51.5235 60 59.45 60 71.6672C60 72.9445 60.2465 77.3507 64.6338 79.5112C65.058 79.7202 65.4735 79.879 65.866 80H40V105H45V87.5H72.5V105H77.5V83.849C78.2435 84.362 78.994 84.901 79.7302 85.4477C81.062 86.4367 82.2438 87.3727 83.106 88.0812C83.4093 88.3305 83.664 88.5442 83.8647 88.7155C84.0602 89.0272 84.313 89.4425 84.6183 89.9535C85.3073 91.1077 86.1697 92.5935 87.0595 94.1382C87.4752 94.8597 87.9035 95.6057 88.323 96.3367L88.3302 96.3495L88.3972 96.466L88.3988 96.4687L88.4002 96.4715C89.65 98.6487 90.86 100.757 91.3545 101.532C93.5815 105.025 98.218 106.051 101.711 103.824C105.203 101.598 106.23 96.9612 104.003 93.4685C103.716 93.019 102.782 91.3942 101.537 89.2242L101.533 89.2185C101.069 88.4105 100.569 87.5397 100.057 86.65C99.1625 85.098 98.2505 83.5257 97.4973 82.2642C97.1228 81.6367 96.7637 81.0465 96.4532 80.557L96.44 80.536C96.2298 80.205 95.7545 79.4555 95.2283 78.8467C94.7823 78.3305 94.2038 77.8267 93.997 77.6467L93.9525 77.608C93.596 77.297 93.1457 76.9167 92.6295 76.4925C91.5947 75.642 90.2195 74.5535 88.6732 73.4052C88.3512 73.1662 88.015 72.9192 87.6667 72.6672H97.5C101.642 72.6672 105 69.3092 105 65.1672C105 61.025 101.642 57.6672 97.5 57.6672H91.9038L85.947 44.424ZM78.8205 78.7152C78.7233 78.652 78.6228 78.5962 78.5195 78.548C78.432 78.4737 78.3393 78.4057 78.242 78.3442C76.7845 77.4225 75.3217 76.5965 74.033 76.056C72.029 75.2152 70.6365 75.2962 69.5175 75.3635L69.4198 75.3692C69.1498 75.3857 68.773 75.407 68.4258 75.3947C68.0718 75.382 67.4645 75.332 66.8428 75.0257C65.2135 74.2232 65 72.5905 65 71.6672C65 60.3712 68.0365 53.7017 71.418 49.8172C73.0935 47.8927 74.798 46.7182 76.1287 46.0175C76.7925 45.668 77.3612 45.4375 77.7852 45.2897C77.9055 45.2477 78.0145 45.2122 78.1108 45.1827C78.4123 45.177 78.7127 45.1167 78.9965 45.0027C80.0053 44.9575 80.9615 45.5287 81.387 46.475L88.007 61.1927C88.4108 62.09 89.3032 62.6672 90.287 62.6672H97.5C98.8807 62.6672 100 63.7865 100 65.1672C100 66.548 98.8807 67.6672 97.5 67.6672H87.0535C86.0697 67.6672 85.1773 67.09 84.7735 66.1927L82.2153 60.5052C81.8055 59.5937 80.892 59.014 79.8927 59.031C78.8932 59.0482 78.0003 59.6587 77.6217 60.5837C76.5107 63.2982 75.714 66.1045 75.2402 69.0902C75.065 70.195 75.645 71.2817 76.6603 71.7512C79.6308 73.1245 83.0283 75.4412 85.6923 77.4195C87.167 78.5145 88.4778 79.5522 89.455 80.3555C89.9433 80.7567 90.355 81.1047 90.666 81.376L90.6898 81.397C90.793 81.487 90.9333 81.6092 91.0822 81.7487C91.238 81.8942 91.3645 82.0225 91.4452 82.116C91.5597 82.2485 91.6985 82.4337 91.848 82.6507C91.9938 82.8625 92.124 83.0665 92.2315 83.236C92.5068 83.6697 92.839 84.2155 93.2043 84.8272C93.9362 86.053 94.8317 87.5965 95.7245 89.146C96.236 90.034 96.7355 90.9042 97.2007 91.7145L97.2052 91.7222L97.2908 91.8712C98.4463 93.8842 99.4272 95.593 99.7865 96.1565C100.529 97.3207 100.187 98.8662 99.0225 99.6085C97.8583 100.351 96.3127 100.009 95.5705 98.8445C95.148 98.1815 93.985 96.1572 92.6628 93.8532L92.6605 93.8495C92.241 93.1185 91.8105 92.3685 91.392 91.6422C90.5008 90.095 89.6217 88.5805 88.9112 87.3905C88.5552 86.7942 88.2495 86.2927 88.0098 85.9152C87.9555 85.8295 87.9088 85.7572 87.8695 85.697C87.7445 85.5055 87.594 85.332 87.422 85.1815L87.381 85.1455L87.3783 85.1432C87.113 84.912 86.7407 84.5965 86.2805 84.2182C85.3607 83.4625 84.1145 82.4757 82.7113 81.4337C81.4415 80.4907 80.1123 79.5547 78.8205 78.7152Z" fill="#05BBC2"/>
</svg>
