<svg width="120" height="120" viewBox="0 0 120 120" fill="none" xmlns="http://www.w3.org/2000/svg">
<path d="M95.5352 78.3822C98.3883 72.8783 100 66.6273 100 60C100 37.9085 82.0915 20 60 20C37.9085 20 20 37.9085 20 60C20 66.6275 21.6117 72.8783 24.4647 78.3822L21.8259 83.8385C17.5003 76.9265 15 68.7552 15 60C15 35.1472 35.1472 15 60 15C84.8528 15 105 35.1472 105 60C105 68.7552 102.5 76.9265 98.1742 83.8385L95.5352 78.3822Z" fill="#05BBC2"/>
<path fill-rule="evenodd" clip-rule="evenodd" d="M60 42.5C53.0965 42.5 47.5 48.0965 47.5 55C47.5 61.9035 53.0965 67.5 60 67.5C66.9035 67.5 72.5 61.9035 72.5 55C72.5 48.0965 66.9035 42.5 60 42.5ZM52.5 55C52.5 50.8577 55.8577 47.5 60 47.5C64.1423 47.5 67.5 50.8577 67.5 55C67.5 59.1423 64.1423 62.5 60 62.5C55.8577 62.5 52.5 59.1423 52.5 55Z" fill="#05BBC2"/>
<path fill-rule="evenodd" clip-rule="evenodd" d="M35.1457 63.1327C35.2492 62.8875 35.3617 62.6483 35.4829 62.4148C35.1662 60.8258 34.9999 59.1823 34.9999 57.5C34.9999 43.693 46.1929 32.5 59.9999 32.5C73.8069 32.5 84.9999 43.693 84.9999 57.5C84.9999 59.182 84.8337 60.8255 84.5172 62.4142C84.6382 62.648 84.7509 62.8875 84.8544 63.1327L96.6722 91.1095C99.4569 97.702 94.6169 105 87.4602 105H78.9169C78.8087 105.002 78.7004 105.002 78.5927 105H41.4074C41.2994 105.002 41.1912 105.002 41.0829 105H32.5399C25.3832 105 20.5432 97.702 23.328 91.1095L35.1457 63.1327ZM59.9999 37.5C48.9542 37.5 39.9999 46.4542 39.9999 57.5C39.9999 57.6737 40.0022 57.847 40.0067 58.0197C41.1664 57.459 42.4414 57.119 43.7689 57.0412C43.8527 58.7887 44.2124 60.4638 44.8057 62.024H44.3574C42.3479 62.024 40.5334 63.227 39.7514 65.0782L27.9339 93.055C26.5414 96.3512 28.9614 100 32.5399 100H33.3444C32.3069 97.8115 32.1782 95.2048 33.2074 92.803L39.4092 78.3335C41.5759 73.278 46.5469 70 52.0472 70H67.9524C73.4529 70 78.4239 73.278 80.5907 78.3335L86.7922 92.803C87.8214 95.2048 87.6929 97.8115 86.6554 100H87.4602C91.0387 100 93.4587 96.3512 92.0662 93.055L80.2487 65.0782C79.4667 63.227 77.6522 62.024 75.6427 62.024H75.1942C75.7874 60.4638 76.1472 58.7887 76.2312 57.0412C77.5587 57.119 78.8334 57.459 79.9934 58.0197C79.9977 57.847 79.9999 57.6737 79.9999 57.5C79.9999 46.4542 71.0457 37.5 59.9999 37.5ZM80.2269 99.6967C79.7664 99.8942 79.2877 99.9925 78.8147 100H78.6867C77.7954 99.9852 76.9334 99.651 76.2632 99.059C76.1729 98.9792 76.0779 98.907 75.9794 98.8422L71.0712 86.5715C70.5584 85.2895 69.1034 84.666 67.8214 85.1787C66.5394 85.6915 65.9159 87.1465 66.4287 88.4285L71.0574 100H48.9424L53.5712 88.4285C54.0839 87.1465 53.4604 85.6915 52.1784 85.1787C50.8964 84.666 49.4414 85.2895 48.9287 86.5715L44.0207 98.842C43.9219 98.9068 43.8272 98.979 43.7367 99.0588C43.0664 99.651 42.2042 99.9852 41.3129 100H41.1852C40.7124 99.9925 40.2334 99.8942 39.7727 99.6967C37.8692 98.881 36.9874 96.6762 37.8032 94.7728L44.0047 80.303C45.3837 77.086 48.5469 75 52.0472 75H67.9524C71.4527 75 74.6162 77.086 75.9949 80.303L82.1967 94.7728C83.0124 96.6762 82.1307 98.881 80.2269 99.6967Z" fill="#05BBC2"/>
<path d="M48.4406 30.9535C52.0908 29.4715 55.9973 28.723 59.9368 28.7507C63.8763 28.7785 67.7718 29.5817 71.4011 31.115L73.3468 26.5092C69.1128 24.7205 64.5681 23.7832 59.9721 23.7509C55.3758 23.7185 50.8183 24.5918 46.5596 26.3207L48.4406 30.9535Z" fill="#05BBC2"/>
</svg>
