<svg width="48" height="48" viewBox="0 0 48 48" fill="none" xmlns="http://www.w3.org/2000/svg">
<rect x="0.5" y="0.5" width="47" height="47" rx="23.5" stroke="#05BBC2"/>
<path fill-rule="evenodd" clip-rule="evenodd" d="M23.9035 10.9499C23.4942 9.14628 21.8812 7.7998 19.9538 7.7998C17.717 7.7998 15.9038 9.61305 15.9038 11.8498C15.9038 14.0866 17.717 15.8998 19.9538 15.8998C21.8812 15.8998 23.494 14.5535 23.9034 12.75L24.0038 12.7498C24.0412 12.7498 24.0781 12.7476 24.1144 12.7431C24.3218 13.5414 24.7987 14.0998 25.3538 14.0998C26.0994 14.0998 26.7038 13.0924 26.7038 11.8498C26.7038 10.6072 26.0994 9.5998 25.3538 9.5998C24.7987 9.5998 24.3218 10.1583 24.1144 10.9565C24.0781 10.9521 24.0412 10.9498 24.0038 10.9498L23.9035 10.9499ZM21.9928 12.8025C21.6341 13.5689 20.856 14.0998 19.9538 14.0998C18.8349 14.0998 17.9068 13.2831 17.7331 12.2134C19.199 12.8609 20.4593 12.8575 21.9928 12.8025ZM18.1964 10.4447C18.6088 9.92965 19.2427 9.5998 19.9538 9.5998C20.8921 9.5998 21.6962 10.1741 22.0339 10.9904L22.0106 10.9912C20.3525 11.0477 19.4433 11.0787 18.1964 10.4447Z" fill="#05BBC2"/>
<path fill-rule="evenodd" clip-rule="evenodd" d="M10.1684 19.9489C11.6553 18.1658 13.888 16.7998 16.5877 16.7998C17.7693 16.7998 18.8138 17.5682 19.1654 18.6963L20.3125 22.3763H21.3037C22.7949 22.3763 24.0037 23.5852 24.0037 25.0763C24.0037 26.5675 22.7949 27.7763 21.3037 27.7763H18.326C17.1588 27.7763 16.1255 27.0265 15.7615 25.9209C15.4008 26.8877 15.1255 27.945 15.0037 29.0562V37.4998C15.0037 38.991 13.7949 40.1998 12.3037 40.1998C10.8125 40.1998 9.60371 38.991 9.60371 37.4998V31.211C9.43007 30.9349 9.21591 30.5797 8.99909 30.1822C8.74822 29.7224 8.46996 29.1627 8.24835 28.5759C8.04269 28.0313 7.80371 27.2544 7.80371 26.4207C7.80371 24.0556 8.69258 21.7187 10.1684 19.9489ZM16.5877 18.5998C14.5301 18.5998 12.7716 19.6377 11.5508 21.1016C10.3345 22.5602 9.60371 24.4927 9.60371 26.4207C9.60371 26.9342 9.75582 27.4726 9.93226 27.9399C10.1144 28.422 10.3514 28.9025 10.5793 29.3202C10.8084 29.7404 11.0364 30.1116 11.2066 30.3774C11.2247 30.4056 11.2422 30.4328 11.259 30.4587C11.3534 30.6045 11.4037 30.7746 11.4037 30.9483V37.4998C11.4037 37.9969 11.8066 38.3998 12.3037 38.3998C12.8008 38.3998 13.2037 37.9969 13.2037 37.4998V29.0079C13.2037 28.9764 13.2053 28.9448 13.2087 28.9134C13.4491 26.6369 14.2463 24.59 15.1422 22.9905C15.318 22.6767 15.6635 22.4977 16.0211 22.5351C16.3786 22.5725 16.6797 22.8192 16.7867 23.1624L17.4667 25.3441C17.584 25.7202 17.9321 25.9763 18.326 25.9763H21.3037C21.8008 25.9763 22.2037 25.5734 22.2037 25.0763C22.2037 24.5792 21.8008 24.1763 21.3037 24.1763H19.6503C19.2565 24.1763 18.9084 23.9202 18.7911 23.5441L17.4469 19.232C17.3298 18.8559 16.9816 18.5998 16.5877 18.5998Z" fill="#05BBC2"/>
<path fill-rule="evenodd" clip-rule="evenodd" d="M37.5 18C39.9853 18 42 15.9853 42 13.5C42 11.0147 39.9853 9 37.5 9C35.0147 9 33 11.0147 33 13.5C33 15.9853 35.0147 18 37.5 18ZM37.5 16C38.8807 16 40 14.8807 40 13.5C40 12.1193 38.8807 11 37.5 11C36.1193 11 35 12.1193 35 13.5C35 14.8807 36.1193 16 37.5 16Z" fill="#05BBC2"/>
<path fill-rule="evenodd" clip-rule="evenodd" d="M33.3446 18.3926C32.8263 17.2402 31.579 16.6026 30.3435 16.8544C30.3277 16.8572 30.3169 16.8599 30.3119 16.861L30.3095 16.8616L30.2961 16.8645L30.2766 16.8688L30.2736 16.8696C30.259 16.8729 30.2433 16.8767 30.2266 16.8807C30.193 16.889 30.1551 16.8988 30.1131 16.9105C30.0291 16.9338 29.9285 16.9645 29.8137 17.0046C29.5843 17.0846 29.2966 17.2024 28.9715 17.3735C28.3177 17.7177 27.5215 18.2736 26.7565 19.1522C25.193 20.9484 24.0037 23.8019 24.0037 28.2001C24.0037 28.6599 24.0925 30.2462 25.6719 31.024C25.8246 31.0992 25.9742 31.1564 26.1155 31.1999H16.8037V40.1999H18.6037V33.8999H28.5037V40.1999H30.3037V32.5856C30.5714 32.7702 30.8415 32.9643 31.1066 33.1611C31.586 33.5171 32.0115 33.8541 32.3219 34.1092C32.431 34.1989 32.5227 34.2758 32.595 34.3375C32.6654 34.4497 32.7564 34.5992 32.8663 34.7832C33.1143 35.1987 33.4248 35.7336 33.7451 36.2897C33.8948 36.5494 34.049 36.818 34.2 37.0811L34.2026 37.0857L34.2267 37.1277L34.2273 37.1287L34.2278 37.1297C34.6777 37.9135 35.1133 38.6724 35.2913 38.9516C36.0931 40.209 37.7622 40.5784 39.0195 39.7767C40.2769 38.9751 40.6463 37.306 39.8446 36.0486C39.7415 35.8868 39.4053 35.3018 38.9569 34.5206L38.9557 34.5186C38.7886 34.2277 38.6086 33.9142 38.4241 33.5939C38.1022 33.0352 37.7739 32.4692 37.5027 32.015C37.3679 31.7891 37.2387 31.5767 37.1269 31.4004L37.1221 31.3929C37.0464 31.2737 36.8753 31.0039 36.6859 30.7847C36.5253 30.5989 36.3171 30.4175 36.2426 30.3527L36.2266 30.3388C36.0983 30.2268 35.9362 30.0899 35.7503 29.9372C35.3778 29.631 34.8827 29.2392 34.3261 28.8258C34.2102 28.7398 34.0891 28.6508 33.9637 28.5601H37.5037C38.9949 28.5601 40.2037 27.3512 40.2037 25.8601C40.2037 24.3689 38.9949 23.1601 37.5037 23.1601H35.4891L33.3446 18.3926ZM30.7791 30.7374C30.7441 30.7146 30.7079 30.6946 30.6707 30.6772C30.6392 30.6505 30.6058 30.626 30.5708 30.6038C30.0461 30.272 29.5195 29.9747 29.0556 29.7801C28.3342 29.4774 27.8328 29.5066 27.43 29.5308L27.3948 29.5328C27.2976 29.5388 27.162 29.5464 27.037 29.542C26.9095 29.5374 26.6909 29.5194 26.4671 29.4092C25.8806 29.1203 25.8037 28.5325 25.8037 28.2001C25.8037 24.1336 26.8969 21.7325 28.1142 20.3341C28.7174 19.6413 29.331 19.2185 29.8101 18.9662C30.049 18.8404 30.2538 18.7574 30.4064 18.7042C30.4497 18.6891 30.4889 18.6763 30.5236 18.6657C30.6321 18.6636 30.7403 18.6419 30.8425 18.6009C31.2056 18.5846 31.5498 18.7903 31.703 19.1309L34.0862 24.4293C34.2316 24.7523 34.5529 24.9601 34.907 24.9601H37.5037C38.0008 24.9601 38.4037 25.3631 38.4037 25.8601C38.4037 26.3572 38.0008 26.7601 37.5037 26.7601H33.743C33.3888 26.7601 33.0675 26.5523 32.9222 26.2293L32.0012 24.1818C31.8537 23.8537 31.5248 23.645 31.1651 23.6511C30.8053 23.6573 30.4838 23.8771 30.3475 24.2101C29.9476 25.1873 29.6608 26.1975 29.4902 27.2724C29.4271 27.6701 29.6359 28.0613 30.0014 28.2304C31.0708 28.7247 32.2939 29.5588 33.2529 30.2709C33.7838 30.6651 34.2557 31.0387 34.6075 31.3279C34.7833 31.4723 34.9315 31.5976 35.0435 31.6953L35.052 31.7028C35.0892 31.7352 35.1397 31.7792 35.1933 31.8295C35.2494 31.8818 35.2949 31.928 35.324 31.9617C35.3652 32.0094 35.4152 32.0761 35.469 32.1542C35.5215 32.2304 35.5684 32.3039 35.6071 32.3649C35.7061 32.521 35.8258 32.7175 35.9572 32.9377C36.2208 33.379 36.5431 33.9347 36.8645 34.4925C37.0487 34.8122 37.2285 35.1254 37.396 35.4171L37.3976 35.4199L37.4284 35.4736C37.8444 36.1982 38.1975 36.8134 38.3269 37.0163C38.5941 37.4354 38.4709 37.9918 38.0518 38.259C37.6327 38.5262 37.0763 38.4031 36.8091 37.9839C36.657 37.7453 36.2383 37.0165 35.7623 36.1871L35.7615 36.1857C35.6105 35.9226 35.4555 35.6526 35.3048 35.3911C34.984 34.8341 34.6675 34.2889 34.4118 33.8605C34.2836 33.6458 34.1735 33.4653 34.0872 33.3294C34.0677 33.2985 34.0509 33.2725 34.0367 33.2508C33.9917 33.1819 33.9375 33.1194 33.8756 33.0653L33.8609 33.0523L33.8599 33.0515C33.7644 32.9682 33.6304 32.8547 33.4647 32.7185C33.1336 32.4464 32.6849 32.0912 32.1798 31.7161C31.7226 31.3766 31.2441 31.0396 30.7791 30.7374Z" fill="#05BBC2"/>
</svg>
