<svg width="120" height="120" viewBox="0 0 120 120" fill="none" xmlns="http://www.w3.org/2000/svg">
<path d="M51.0091 55.5058C53.4956 55.5058 55.5111 53.4903 55.5111 51.0038C55.5111 48.5175 53.4956 46.5018 51.0091 46.5018C48.5226 46.5018 46.5071 48.5175 46.5071 51.0038C46.5071 53.4903 48.5226 55.5058 51.0091 55.5058Z" fill="#05BBC2"/>
<path fill-rule="evenodd" clip-rule="evenodd" d="M28.5235 75.021V105H71.3045V88.7202H82.0368C82.707 88.7202 83.3465 88.5882 83.9307 88.349L77.978 83.7202H66.3045V100H33.5235V73.0045L32.1248 71.5525C28.0195 67.29 20.0002 57.3285 20 44.9375C19.9999 40.8613 21.5383 34.6213 26.1643 29.4635C30.2485 24.91 37.0975 20.801 48.5077 20.1039V37.7318C42.2447 38.904 37.505 44.3993 37.505 51.001C37.505 58.4567 43.5502 64.501 51.0077 64.501C53.8457 64.501 56.4795 63.6258 58.653 62.1302L93.8297 89.4363C93.7757 89.7495 93.7475 90.0713 93.7475 90.3997C93.7475 93.507 96.2665 96.026 99.3737 96.026C102.481 96.026 105 93.507 105 90.3997C105 87.2925 102.481 84.7735 99.3737 84.7735C98.441 84.7735 97.5612 85.0005 96.7867 85.4023L62.2008 58.5545C63.659 56.3988 64.5107 53.7993 64.5107 51.001C64.5107 44.399 59.7707 38.904 53.5077 37.7318V20.0136C59.8647 20.1298 64.27 20.9829 67.6025 22.232C71.133 23.5553 73.7495 25.43 76.3868 27.8755L76.7415 28.2043C79.3278 30.601 80.0988 31.3155 80.535 32.4778C83.7913 41.1518 88.3217 53.2118 91.1182 60.654H82.0368V67.875L87.0368 71.763V65.654H91.118C94.6105 65.654 97.0295 62.1713 95.801 58.902C93.005 51.4603 88.4727 39.3965 85.216 30.7205C84.3435 28.3965 82.6537 26.8445 80.5295 24.8938C80.2872 24.6713 80.0395 24.4437 79.7865 24.2092C73.878 18.7304 67.1475 15 51.9952 15C22.514 15 14.9999 34.688 15 44.9375C15.0002 59.3553 24.2078 70.54 28.5235 75.021ZM51.0077 59.501C55.7047 59.501 59.5107 55.6945 59.5107 51.001C59.5107 46.3075 55.7047 42.501 51.0077 42.501C46.3107 42.501 42.505 46.3075 42.505 51.001C42.505 55.6945 46.3107 59.501 51.0077 59.501Z" fill="#05BBC2"/>
</svg>
