<svg width="48" height="48" viewBox="0 0 48 48" fill="none" xmlns="http://www.w3.org/2000/svg">
<rect x="0.5" y="0.5" width="47" height="47" rx="23.5" stroke="#05BBC2"/>
<path fill-rule="evenodd" clip-rule="evenodd" d="M32.0998 19.0812C33.1467 19.3941 33.8998 19.4998 33.8998 19.4998V16.7998H35.6998C38.1851 16.7998 40.1998 14.7851 40.1998 12.2998C40.1998 9.81453 38.1851 7.7998 35.6998 7.7998H30.5123C27.9097 7.7998 25.7998 9.90967 25.7998 12.5123C25.7998 16.5786 29.7133 18.368 32.0998 19.0812ZM38.3998 12.2998C38.3998 13.791 37.191 14.9998 35.6998 14.9998H32.0998V17.1914C31.6395 17.0336 31.1451 16.8358 30.6567 16.5908C28.8727 15.696 27.5998 14.4245 27.5998 12.5123C27.5998 10.9038 28.9038 9.5998 30.5123 9.5998H35.6998C37.191 9.5998 38.3998 10.8086 38.3998 12.2998Z" fill="#05BBC2"/>
<path fill-rule="evenodd" clip-rule="evenodd" d="M15.7349 18.5936C13.3156 18.5056 11.3999 16.5189 11.3999 14.0981C11.3999 11.6136 13.4139 9.59961 15.8984 9.59961H18.7499C21.1523 9.59961 23.0999 11.5472 23.0999 13.9496C23.0999 17.5873 19.8325 19.2509 17.6999 19.9494C16.6667 20.2877 15.8999 20.3996 15.8999 20.3996V18.5996L15.7349 18.5936ZM17.6999 16.8639L15.8004 16.7948C14.3491 16.742 13.1999 15.5502 13.1999 14.0981C13.1999 12.6078 14.4081 11.3996 15.8984 11.3996H18.7499C20.1583 11.3996 21.2999 12.5413 21.2999 13.9496C21.2999 15.6726 20.2049 16.8029 18.6684 17.6031C18.3438 17.7722 18.0157 17.9166 17.6999 18.0389V16.8639Z" fill="#05BBC2"/>
<path fill-rule="evenodd" clip-rule="evenodd" d="M27.5999 24.0004C27.5999 25.9894 25.9889 27.6004 23.9999 27.6004C22.0109 27.6004 20.3999 25.9894 20.3999 24.0004C20.3999 22.0114 22.0109 20.4004 23.9999 20.4004C25.9889 20.4004 27.5999 22.0114 27.5999 24.0004ZM25.7999 24.0004C25.7999 24.9953 24.9948 25.8004 23.9999 25.8004C23.005 25.8004 22.1999 24.9953 22.1999 24.0004C22.1999 23.0055 23.005 22.2004 23.9999 22.2004C24.9948 22.2004 25.7999 23.0055 25.7999 24.0004Z" fill="#05BBC2"/>
<path fill-rule="evenodd" clip-rule="evenodd" d="M19.4998 25.8002C19.4998 27.7892 17.8888 29.4002 15.8998 29.4002C13.9108 29.4002 12.2998 27.7892 12.2998 25.8002C12.2998 23.8112 13.9108 22.2002 15.8998 22.2002C17.8888 22.2002 19.4998 23.8112 19.4998 25.8002ZM17.6998 25.8002C17.6998 26.7951 16.8947 27.6002 15.8998 27.6002C14.9049 27.6002 14.0998 26.7951 14.0998 25.8002C14.0998 24.8053 14.9049 24.0002 15.8998 24.0002C16.8947 24.0002 17.6998 24.8053 17.6998 25.8002Z" fill="#05BBC2"/>
<path fill-rule="evenodd" clip-rule="evenodd" d="M7.7998 35.2913C7.7998 32.5708 13.1964 31.2004 15.8998 31.2004C16.4263 31.2004 17.055 31.2524 17.726 31.3562C18.9342 30.4717 21.1451 29.4004 23.9999 29.4004C26.8547 29.4004 29.0655 30.4717 30.2737 31.3562C30.9447 31.2524 31.5733 31.2004 32.0998 31.2004C34.8031 31.2004 40.1998 32.5708 40.1998 35.2913V40.2004H7.7998V35.2913ZM21.8869 34.821C22.1998 35.1127 22.1998 35.2644 22.1998 35.2913V38.4004H9.5998V35.2913C9.5998 35.2644 9.59977 35.1127 9.91269 34.821C10.2399 34.516 10.7786 34.1907 11.5112 33.8943C12.9801 33.2999 14.7755 33.0004 15.8998 33.0004C17.0241 33.0004 18.8195 33.2999 20.2884 33.8943C21.021 34.1907 21.5597 34.516 21.8869 34.821ZM27.7272 31.9705C26.7579 31.5482 25.4906 31.2004 23.9999 31.2004C22.5092 31.2004 21.2418 31.5482 20.2725 31.9705C22.2666 32.6414 23.9998 33.7496 23.9998 35.2913C23.9998 33.7496 25.7331 32.6414 27.7272 31.9705ZM38.3998 35.2913C38.3998 35.2644 38.3998 35.1127 38.087 34.821C37.7597 34.516 37.221 34.1907 36.4884 33.8943C35.0195 33.2999 33.2241 33.0004 32.0998 33.0004C30.9755 33.0004 29.1801 33.2999 27.7112 33.8943C26.9786 34.1907 26.4399 34.516 26.1127 34.821C25.7998 35.1127 25.7998 35.2644 25.7998 35.2913V38.4004H38.3998V35.2913Z" fill="#05BBC2"/>
<path fill-rule="evenodd" clip-rule="evenodd" d="M32.1 29.4002C34.089 29.4002 35.7 27.7892 35.7 25.8002C35.7 23.8112 34.089 22.2002 32.1 22.2002C30.111 22.2002 28.5 23.8112 28.5 25.8002C28.5 27.7892 30.111 29.4002 32.1 29.4002ZM32.1 27.6002C33.0949 27.6002 33.9 26.7951 33.9 25.8002C33.9 24.8053 33.0949 24.0002 32.1 24.0002C31.1051 24.0002 30.3 24.8053 30.3 25.8002C30.3 26.7951 31.1051 27.6002 32.1 27.6002Z" fill="#05BBC2"/>
</svg>
