<svg width="120" height="120" viewBox="0 0 120 120" fill="none" xmlns="http://www.w3.org/2000/svg">
<path fill-rule="evenodd" clip-rule="evenodd" d="M59.6771 41.2573H66.2503C67.6308 41.2573 68.7503 40.138 68.7503 38.7573C68.7503 37.3765 67.6308 36.2573 66.2503 36.2573H59.6771C58.8036 36.2575 57.7873 36.4 56.8023 36.8808C53.2398 38.619 51.2233 41.6243 50.1168 44.5523C49.7428 45.5413 49.4651 46.5395 49.2613 47.5073H54.4056C54.5171 47.109 54.6458 46.7115 54.7938 46.32C55.5986 44.191 56.9063 42.3933 58.9948 41.3743C59.1111 41.3175 59.3253 41.2573 59.6771 41.2573ZM45.0003 50.0073C43.6196 50.0073 42.4686 51.147 42.8416 52.4765C44.2858 57.625 50.1578 61.6305 57.5003 62.3808V66.2763C55.7628 66.3188 53.9573 66.4573 52.4263 66.903C51.2301 67.2513 49.9623 67.8483 48.9923 68.9375C47.9768 70.078 47.5001 71.5185 47.5001 73.125C47.5001 74.733 47.9756 76.175 48.9896 77.318C49.9591 78.4103 51.2266 79.0095 52.4241 79.3593C53.2243 79.593 54.0993 79.7425 55.0001 79.8383V74.8043C54.5723 74.743 54.1806 74.6633 53.8263 74.5598C53.1488 74.362 52.8538 74.1395 52.7296 73.9993C52.6498 73.9095 52.5001 73.7083 52.5001 73.125C52.5001 72.5478 52.6486 72.3503 52.7268 72.2625C52.8506 72.1233 53.1453 71.9013 53.8241 71.7035C54.7838 71.4243 56.0186 71.3193 57.5003 71.2803V74.9845L57.5001 79.9885L57.5003 85.0073H50.0003V90.0073H70.0003V85.0073H62.5003V71.1653C65.2546 70.9493 67.4871 70.344 69.1668 69.2615C71.5308 67.7383 72.5001 65.4703 72.5001 63.063C72.5001 61.7548 72.2133 60.4975 71.5731 59.384C74.3851 57.612 76.3936 55.2048 77.1588 52.4765C77.5318 51.147 76.3808 50.0073 75.0003 50.0073H45.0003ZM66.4583 65.0588C65.7501 65.5153 64.5223 65.9488 62.5003 66.146V62.3808C64.0513 62.2223 65.5368 61.9185 66.9288 61.4893C67.3408 61.882 67.5001 62.359 67.5001 63.063C67.5001 63.989 67.2196 64.568 66.4583 65.0588Z" fill="#05BBC2"/>
<path fill-rule="evenodd" clip-rule="evenodd" d="M80 80H105V40H80V15H40V40H15V80H40V105H80V80ZM75 100V75H100V45H75V20H45V45H20V75H45V100H75Z" fill="#05BBC2"/>
</svg>
