<svg width="120" height="120" viewBox="0 0 120 120" fill="none" xmlns="http://www.w3.org/2000/svg">
<g clip-path="url(#clip0_2769_38489)">
<path d="M18.9562 92.3625C18.9562 93.3984 18.1172 94.2352 17.0836 94.2352H11.0695C10.0359 94.2352 9.19688 93.3961 9.19688 92.3625C9.19688 91.3289 10.0359 90.4898 11.0695 90.4898H17.0812C18.1172 90.4875 18.9562 91.3266 18.9562 92.3625ZM58.7578 90.4875H52.7461C51.7125 90.4875 50.8734 91.3266 50.8734 92.3602C50.8734 93.3937 51.7125 94.2328 52.7461 94.2328H58.7578C59.7914 94.2328 60.6305 93.3937 60.6305 92.3602C60.6305 91.3266 59.7914 90.4875 58.7578 90.4875ZM31.9102 52.5586H37.9148C38.9508 52.5586 39.7875 51.7195 39.7875 50.6859C39.7875 49.6523 38.9484 48.8133 37.9148 48.8133H31.9102C30.8742 48.8133 30.0375 49.6523 30.0375 50.6859C30.0375 51.7195 30.8766 52.5586 31.9102 52.5586ZM120 39.3703V87.4453C120 90.0141 117.912 92.1023 115.343 92.1023H87.1055V98.5336C87.1055 101.299 84.8555 103.549 82.0898 103.549H46.6992C45.5109 103.549 44.4164 103.132 43.5562 102.436C42.6961 103.13 41.6039 103.549 40.4133 103.549H5.02266C2.25234 103.549 0 101.299 0 98.5336V63.143C0 60.3773 2.25234 58.1273 5.02266 58.1273H21.0094C20.9039 57.7219 20.8406 57.2977 20.8406 56.8594V21.4688C20.8406 18.7031 23.0906 16.4531 25.8563 16.4531H61.2469C64.0125 16.4531 66.2625 18.7031 66.2625 21.4688V56.8594C66.2625 57.2977 66.1992 57.7219 66.0938 58.1273H78.0211V39.3727C78.0211 36.8039 80.1094 34.7156 82.6781 34.7156H88.1484C88.8938 33.7336 90.0492 33.1008 91.3477 33.1008H92.4844C93.2719 30.1055 95.8969 27.9 99.007 27.9C102.12 27.9 104.749 30.1078 105.537 33.1008H106.673C107.97 33.1008 109.123 33.7336 109.868 34.7156H115.336C117.909 34.7133 120 36.8039 120 39.3703ZM91.0266 37.3125V40.0828C91.0266 40.35 91.1977 40.5469 91.3523 40.5469H106.68C106.83 40.5469 106.999 40.3477 106.999 40.0828V37.3125C106.999 37.0453 106.83 36.8484 106.68 36.8484H103.91C102.877 36.8484 102.037 36.0094 102.037 34.9758C102.037 33.1406 100.68 31.6477 99.0141 31.6477C97.35 31.6477 95.9977 33.1406 95.9977 34.9758C95.9977 36.0117 95.1586 36.8484 94.125 36.8484H91.3547C91.1977 36.8461 91.0266 37.0453 91.0266 37.3125ZM61.4555 73.6734L63.2812 72.3305C63.9422 71.8453 64.8422 71.843 65.5008 72.3305L67.3336 73.6781V61.875H61.4531V73.6734H61.4555ZM40.6125 32.0016L42.4453 30.6539C43.1063 30.1687 44.0063 30.1687 44.6648 30.6539L46.4906 31.9969V20.1984H40.6102V32.0016H40.6125ZM25.8586 58.1273H40.4156H46.7016H61.2516C61.9406 58.1273 62.5195 57.5461 62.5195 56.8594V21.4688C62.5195 20.7797 61.9383 20.2008 61.2516 20.2008H50.243V35.707C50.243 36.4148 49.8445 37.0594 49.2141 37.3781C48.9469 37.5141 48.6562 37.5797 48.368 37.5797C47.9742 37.5797 47.5852 37.4555 47.257 37.2141L43.5562 34.4906L39.8508 37.2141C39.2812 37.6336 38.5266 37.6945 37.8961 37.3758C37.2656 37.057 36.8695 36.4102 36.8695 35.7047V20.1984H25.8609C25.1742 20.1984 24.593 20.7797 24.593 21.4664V56.857C24.5883 57.5461 25.1695 58.1273 25.8586 58.1273ZM19.7719 73.6781L21.6047 72.3305C22.2656 71.8453 23.1633 71.8453 23.8242 72.3305L25.657 73.6781V61.875H19.7719V73.6781ZM41.6836 98.5336V63.143C41.6836 62.4539 41.1023 61.875 40.4156 61.875H29.407V77.3813C29.407 78.0867 29.0086 78.7336 28.3805 79.0523C28.1133 79.1883 27.8227 79.2539 27.5344 79.2539C27.143 79.2539 26.7516 79.132 26.4234 78.8906L22.7156 76.1648L19.0078 78.8883C18.4383 79.3078 17.6836 79.3688 17.0531 79.05C16.4227 78.7313 16.0266 78.0844 16.0266 77.3789V61.8727H5.02266C4.31953 61.8727 3.74766 62.4422 3.74766 63.1406V98.5312C3.74766 99.232 4.31953 99.7992 5.02266 99.7992H40.4133C41.1023 99.8016 41.6836 99.2203 41.6836 98.5336ZM83.3602 92.1023H82.6828C80.1141 92.1023 78.0258 90.0141 78.0258 87.4453V61.8727H71.0836V77.3789C71.0836 78.0844 70.6852 78.7313 70.057 79.05C69.7898 79.1859 69.4992 79.2516 69.2109 79.2516C68.8195 79.2516 68.4281 79.1297 68.1 78.8883L64.3945 76.1648L60.6937 78.8883C60.1242 79.3078 59.3672 79.3711 58.7367 79.0523C58.1063 78.7336 57.7078 78.0867 57.7078 77.3813V61.875H46.6992C45.9984 61.875 45.4312 62.4445 45.4312 63.143V98.5336C45.4312 99.2344 46.0008 99.8016 46.6992 99.8016H82.0898C82.7766 99.8016 83.3578 99.2203 83.3578 98.5336V92.1023H83.3602ZM116.252 39.3703C116.252 38.8781 115.835 38.4609 115.343 38.4609H110.745V40.0828C110.745 42.4055 108.921 44.2945 106.678 44.2945H91.35C89.1047 44.2945 87.2766 42.4055 87.2766 40.0828V38.4609H82.6781C82.1859 38.4609 81.7688 38.8781 81.7688 39.3703V87.4453C81.7688 87.9375 82.1859 88.3547 82.6781 88.3547H115.338C115.83 88.3547 116.248 87.9375 116.248 87.4453V39.3703H116.252ZM93.075 62.7891L89.9813 65.8875L88.2234 64.1297C87.4922 63.3984 86.3063 63.3984 85.575 64.1297C84.8438 64.8609 84.8438 66.0469 85.575 66.7781L88.657 69.8602C89.0086 70.2117 89.4844 70.4086 89.9813 70.4086C90.4781 70.4086 90.9563 70.2117 91.3055 69.8578L95.7234 65.4328C96.4547 64.7016 96.4547 63.5133 95.7211 62.7844C94.9875 62.0555 93.8063 62.0555 93.075 62.7891ZM111.124 64.4508H100.894C99.8602 64.4508 99.0211 65.2898 99.0211 66.3234C99.0211 67.357 99.8602 68.1961 100.894 68.1961H111.124C112.158 68.1961 112.997 67.357 112.997 66.3234C112.997 65.2898 112.158 64.4508 111.124 64.4508ZM88.6594 56.8945C89.025 57.2602 89.5055 57.443 89.9836 57.443C90.4617 57.443 90.9422 57.2602 91.3078 56.8945L95.7258 52.4766C96.457 51.7453 96.457 50.5594 95.7258 49.8281C94.9945 49.0969 93.8086 49.0969 93.0773 49.8281L89.9836 52.9219L88.2258 51.1641C87.4945 50.4328 86.3086 50.4328 85.5773 51.1641C84.8461 51.8953 84.8461 53.0813 85.5773 53.8125L88.6594 56.8945ZM111.124 51.4828H100.894C99.8602 51.4828 99.0211 52.3219 99.0211 53.3555C99.0211 54.3891 99.8602 55.2281 100.894 55.2281H111.124C112.158 55.2281 112.997 54.3891 112.997 53.3555C112.997 52.3219 112.158 51.4828 111.124 51.4828ZM93.0773 75.757L89.9836 78.8508L88.2258 77.0977C87.4945 76.3664 86.3063 76.3688 85.575 77.1C84.8438 77.8336 84.8461 79.0195 85.5773 79.7508L88.6594 82.8258C89.025 83.1914 89.5031 83.3719 89.9836 83.3719C90.4641 83.3719 90.9422 83.1891 91.3078 82.8234L95.7258 78.4055C96.457 77.6742 96.457 76.4883 95.7258 75.757C94.9945 75.0234 93.8086 75.0234 93.0773 75.757ZM111.124 77.4187H100.894C99.8602 77.4187 99.0211 78.2578 99.0211 79.2914C99.0211 80.325 99.8602 81.1641 100.894 81.1641H111.124C112.158 81.1641 112.997 80.325 112.997 79.2914C112.997 78.2578 112.158 77.4187 111.124 77.4187Z" fill="#05BBC2"/>
</g>
<defs>
<clipPath id="clip0_2769_38489">
<rect width="120" height="120" fill="white"/>
</clipPath>
</defs>
</svg>
