<svg width="120" height="120" viewBox="0 0 120 120" fill="none" xmlns="http://www.w3.org/2000/svg">
<path fill-rule="evenodd" clip-rule="evenodd" d="M82.5 46.3373C85.408 47.2063 87.5 47.5 87.5 47.5V40H92.5C99.4035 40 105 34.4035 105 27.5C105 20.5964 99.4035 15 92.5 15H78.0902C70.8607 15 65 20.8607 65 28.0903C65 39.3855 75.8708 44.356 82.5 46.3373ZM100 27.5C100 31.6423 96.6423 35 92.5 35H82.5V41.0878C81.2213 40.6495 79.848 40.1 78.4915 39.4195C73.5358 36.934 70 33.402 70 28.0903C70 23.6222 73.6222 20 78.0902 20H92.5C96.6423 20 100 23.3579 100 27.5Z" fill="#05BBC2"/>
<path fill-rule="evenodd" clip-rule="evenodd" d="M37.0417 44.9832C30.3215 44.739 25 39.2202 25 32.4957C25 25.5945 30.5945 20 37.4957 20H45.4168C52.09 20 57.5 25.41 57.5 32.0832C57.5 42.188 48.424 46.8092 42.5 48.7495C39.63 49.6892 37.5 50 37.5 50V45L37.0417 44.9832ZM42.5 40.1785L37.2235 39.9868C33.1922 39.84 30 36.5295 30 32.4957C30 28.356 33.356 25 37.4957 25H45.4168C49.3288 25 52.5 28.1712 52.5 32.0832C52.5 36.8695 49.4582 40.0092 45.1902 42.232C44.2885 42.7017 43.3773 43.1028 42.5 43.4425V40.1785Z" fill="#05BBC2"/>
<path fill-rule="evenodd" clip-rule="evenodd" d="M70 60C70 65.525 65.525 70 60 70C54.475 70 50 65.525 50 60C50 54.475 54.475 50 60 50C65.525 50 70 54.475 70 60ZM65 60C65 62.7635 62.7635 65 60 65C57.2365 65 55 62.7635 55 60C55 57.2365 57.2365 55 60 55C62.7635 55 65 57.2365 65 60Z" fill="#05BBC2"/>
<path fill-rule="evenodd" clip-rule="evenodd" d="M47.5 65C47.5 70.525 43.025 75 37.5 75C31.975 75 27.5 70.525 27.5 65C27.5 59.475 31.975 55 37.5 55C43.025 55 47.5 59.475 47.5 65ZM42.5 65C42.5 67.7635 40.2635 70 37.5 70C34.7365 70 32.5 67.7635 32.5 65C32.5 62.2365 34.7365 60 37.5 60C40.2635 60 42.5 62.2365 42.5 65Z" fill="#05BBC2"/>
<path fill-rule="evenodd" clip-rule="evenodd" d="M15 91.3638C15 83.8068 29.9905 80 37.5 80C38.9625 80 40.7088 80.1445 42.5728 80.4327C45.9288 77.9757 52.0702 75 60.0002 75C67.9302 75 74.0715 77.9757 77.4275 80.4327C79.2915 80.1445 81.0375 80 82.5 80C90.0092 80 105 83.8068 105 91.3638V105H15V91.3638ZM54.1307 90.0572C55 90.8675 55 91.289 55 91.3638V100H20V91.3638C20 91.289 19.9999 90.8675 20.8691 90.0572C21.7779 89.21 23.2745 88.3065 25.3095 87.483C29.3898 85.832 34.377 85 37.5 85C40.623 85 45.6102 85.832 49.6905 87.483C51.7255 88.3065 53.222 89.21 54.1307 90.0572ZM70.3538 82.1393C67.6615 80.966 64.141 80 60.0002 80C55.8595 80 52.3388 80.966 49.6465 82.1393C55.1855 84.0028 60 87.081 60 91.3638C60 87.081 64.8148 84.0028 70.3538 82.1393ZM100 91.3638C100 91.289 100 90.8675 99.131 90.0572C98.222 89.21 96.7255 88.3065 94.6905 87.483C90.6103 85.832 85.623 85 82.5 85C79.377 85 74.3898 85.832 70.3095 87.483C68.2745 88.3065 66.778 89.21 65.8693 90.0572C65 90.8675 65 91.289 65 91.3638V100H100V91.3638Z" fill="#05BBC2"/>
<path fill-rule="evenodd" clip-rule="evenodd" d="M82.5 75C88.025 75 92.5 70.525 92.5 65C92.5 59.475 88.025 55 82.5 55C76.975 55 72.5 59.475 72.5 65C72.5 70.525 76.975 75 82.5 75ZM82.5 70C85.2635 70 87.5 67.7635 87.5 65C87.5 62.2365 85.2635 60 82.5 60C79.7365 60 77.5 62.2365 77.5 65C77.5 67.7635 79.7365 70 82.5 70Z" fill="#05BBC2"/>
</svg>
