<svg width="48" height="48" viewBox="0 0 48 48" fill="none" xmlns="http://www.w3.org/2000/svg">
<rect x="0.5" y="0.5" width="47" height="47" rx="23.5" stroke="#05BBC2"/>
<path d="M36.7925 30.6179C37.8196 28.6365 38.3998 26.3861 38.3998 24.0003C38.3998 16.0474 31.9527 9.60029 23.9998 9.60029C16.0469 9.60029 9.5998 16.0474 9.5998 24.0003C9.5998 26.3862 10.18 28.6365 11.2071 30.6179L10.2571 32.5822C8.69992 30.0938 7.7998 27.1522 7.7998 24.0003C7.7998 15.0533 15.0528 7.80029 23.9998 7.80029C32.9468 7.80029 40.1998 15.0533 40.1998 24.0003C40.1998 27.1522 39.2997 30.0938 37.7425 32.5822L36.7925 30.6179Z" fill="#05BBC2"/>
<path fill-rule="evenodd" clip-rule="evenodd" d="M24 17C21.2386 17 19 19.2386 19 22C19 24.7614 21.2386 27 24 27C26.7614 27 29 24.7614 29 22C29 19.2386 26.7614 17 24 17ZM21 22C21 20.3431 22.3431 19 24 19C25.6569 19 27 20.3431 27 22C27 23.6569 25.6569 25 24 25C22.3431 25 21 23.6569 21 22Z" fill="#05BBC2"/>
<path fill-rule="evenodd" clip-rule="evenodd" d="M15.0526 25.1279C15.0899 25.0396 15.1304 24.9535 15.1741 24.8694C15.06 24.2974 15.0002 23.7057 15.0002 23.1001C15.0002 18.1296 19.0297 14.1001 24.0002 14.1001C28.9707 14.1001 33.0002 18.1296 33.0002 23.1001C33.0002 23.7056 32.9403 24.2973 32.8264 24.8692C32.8699 24.9534 32.9105 25.0396 32.9478 25.1279L37.2022 35.1995C38.2047 37.5728 36.4623 40.2003 33.8859 40.2003H30.8103C30.7713 40.201 30.7324 40.201 30.6936 40.2003H17.3069C17.268 40.201 17.229 40.201 17.1901 40.2003H14.1146C11.5381 40.2003 9.79574 37.5728 10.7983 35.1995L15.0526 25.1279ZM24.0002 15.9001C20.0237 15.9001 16.8002 19.1236 16.8002 23.1001C16.8002 23.1626 16.801 23.225 16.8026 23.2872C17.2201 23.0853 17.6791 22.9629 18.157 22.9349C18.1872 23.564 18.3167 24.167 18.5302 24.7287H18.3689C17.6455 24.7287 16.9922 25.1618 16.7107 25.8283L12.4564 35.8999C11.9551 37.0865 12.8263 38.4003 14.1146 38.4003H14.4042C14.0307 37.6122 13.9843 36.6738 14.3549 35.8092L16.5875 30.6002C17.3675 28.7802 19.1571 27.6001 21.1372 27.6001H26.8631C28.8433 27.6001 30.6328 28.7802 31.4128 30.6002L33.6454 35.8092C34.0159 36.6738 33.9697 37.6122 33.5962 38.4003H33.8859C35.1741 38.4003 36.0453 37.0865 35.544 35.8999L31.2897 25.8283C31.0082 25.1618 30.355 24.7287 29.6316 24.7287H29.4701C29.6837 24.167 29.8132 23.564 29.8434 22.9349C30.3213 22.9629 30.7802 23.0853 31.1978 23.2872C31.1994 23.225 31.2002 23.1626 31.2002 23.1001C31.2002 19.1236 27.9766 15.9001 24.0002 15.9001ZM31.2819 38.2909C31.1161 38.362 30.9438 38.3974 30.7735 38.4003H30.7274C30.4066 38.3948 30.0962 38.2745 29.8549 38.0613C29.8225 38.0326 29.7883 38.0066 29.7528 37.9833L27.9858 33.5658C27.8012 33.1043 27.2774 32.8799 26.8159 33.0644C26.3544 33.249 26.1299 33.7728 26.3145 34.2344L27.9809 38.4001H20.0195L21.6858 34.2344C21.8704 33.7728 21.646 33.249 21.1844 33.0644C20.7229 32.8799 20.1991 33.1043 20.0145 33.5658L18.2476 37.9832C18.2121 38.0065 18.178 38.0325 18.1454 38.0612C17.9041 38.2745 17.5937 38.3948 17.2729 38.4003H17.2269C17.0567 38.3974 16.8842 38.362 16.7184 38.2909C16.0331 37.9973 15.7157 37.2035 16.0093 36.5183L18.2419 31.3092C18.7383 30.1511 19.8771 29.4001 21.1372 29.4001H26.8631C28.1232 29.4001 29.262 30.1511 29.7584 31.3092L31.991 36.5183C32.2847 37.2035 31.9672 37.9973 31.2819 38.2909Z" fill="#05BBC2"/>
<path d="M19.8388 13.5439C21.1529 13.0104 22.5592 12.741 23.9774 12.751C25.3957 12.7609 26.798 13.0501 28.1046 13.6021L28.805 11.944C27.2808 11.3001 25.6447 10.9626 23.9901 10.951C22.3355 10.9394 20.6948 11.2537 19.1616 11.8762L19.8388 13.5439Z" fill="#05BBC2"/>
</svg>
