<svg width="120" height="120" viewBox="0 0 120 120" fill="none" xmlns="http://www.w3.org/2000/svg">
<path d="M92.5 25C92.5 23.6193 91.3807 22.5 90 22.5C88.6193 22.5 87.5 23.6193 87.5 25V30.757L90.4198 35.1367C91.1858 36.2855 92.738 36.596 93.8867 35.8302C95.0355 35.0642 95.346 33.512 94.5802 32.3633L92.5 29.243V25Z" fill="#05BBC2"/>
<path fill-rule="evenodd" clip-rule="evenodd" d="M90 45C98.2843 45 105 38.2843 105 30C105 21.7157 98.2843 15 90 15C81.7158 15 75 21.7157 75 30C75 38.2843 81.7158 45 90 45ZM90 40C95.5228 40 100 35.5228 100 30C100 24.4771 95.5228 20 90 20C84.4773 20 80 24.4771 80 30C80 35.5228 84.4773 40 90 40Z" fill="#05BBC2"/>
<path fill-rule="evenodd" clip-rule="evenodd" d="M45.2402 37.763C41.56 34.0808 35.591 34.0788 31.908 37.7585L30.1478 39.5173C26.7998 38.5658 23.0539 39.4173 20.4176 42.0713C16.5275 45.9878 16.5275 52.344 20.4176 56.2605L22.5 58.357V85H15V90H22.6263C21.0056 91.5882 20 93.8018 20 96.25C20 101.082 23.9175 105 28.75 105C33.5825 105 37.5 101.082 37.5 96.25C37.5 93.8018 36.4945 91.5882 34.8738 90H85.1263C83.5055 91.5882 82.5 93.8018 82.5 96.25C82.5 101.082 86.4175 105 91.25 105C96.0825 105 100 101.082 100 96.25C100 93.8018 98.9945 91.5882 97.3737 90H105V85H95V77.4993H95.1655C100.597 77.4993 105 73.0595 105 67.5825C105 62.1058 100.597 57.666 95.1655 57.666H50.275C50.0713 57.666 49.8755 57.5842 49.7313 57.439L48.8153 56.517L49.7363 55.5968C53.4195 51.9168 53.4215 45.9482 49.7407 42.2657L45.2402 37.763ZM90 85V77.4993H42.6805C41.9333 77.4993 41.2167 77.2002 40.688 76.668L27.5 63.3908V85H90ZM45.2917 52.9695L46.2022 52.0597C47.9318 50.3318 47.9328 47.5295 46.2045 45.8005L41.704 41.2978C39.9755 39.5683 37.1717 39.5673 35.442 41.2955L34.5658 42.171L45.2917 52.9695ZM95.1655 62.666H50.275C48.733 62.666 47.2625 62.0485 46.184 60.9627L30.9192 45.595C28.9932 43.6558 25.891 43.6558 23.965 45.595C22.0117 47.5615 22.0117 50.7703 23.965 52.737L43.5948 72.4993H95.1655C97.7965 72.4993 100 70.3373 100 67.5825C100 64.8278 97.7962 62.666 95.1655 62.666ZM32.5 96.25C32.5 98.321 30.821 100 28.75 100C26.679 100 25 98.321 25 96.25C25 94.179 26.679 92.5 28.75 92.5C30.821 92.5 32.5 94.179 32.5 96.25ZM91.25 100C93.321 100 95 98.321 95 96.25C95 94.179 93.321 92.5 91.25 92.5C89.179 92.5 87.5 94.179 87.5 96.25C87.5 98.321 89.179 100 91.25 100Z" fill="#05BBC2"/>
</svg>
