<svg width="48" height="48" viewBox="0 0 48 48" fill="none" xmlns="http://www.w3.org/2000/svg">
<rect x="0.5" y="0.5" width="47" height="47" rx="23.5" stroke="#05BBC2"/>
<path fill-rule="evenodd" clip-rule="evenodd" d="M11.8647 31.1996V34.7996C11.8647 35.7937 12.6706 36.5996 13.6647 36.5996H40.6647C41.6588 36.5996 42.4647 35.7937 42.4647 34.7996V20.3996C42.4647 19.4055 41.6588 18.5996 40.6647 18.5996H38.4243V21.9014C38.5215 22.0462 38.6326 22.1814 38.7566 22.3053C39.0072 22.556 39.3049 22.7549 39.6324 22.8905C39.9598 23.0262 40.3105 23.0959 40.6647 23.0961V32.0996C40.3155 32.1017 39.9699 32.1714 39.6472 32.3052C39.3196 32.4408 39.022 32.6397 38.7712 32.8904C38.5205 33.1412 38.3217 33.4388 38.186 33.7663C38.0502 34.0939 37.9804 34.445 37.9804 34.7996H16.361C16.3566 34.4565 16.287 34.1173 16.1557 33.8002C16.02 33.4726 15.8211 33.175 15.5703 32.9243C15.3197 32.6735 15.022 32.4746 14.6944 32.339C14.3679 32.2037 14.0181 32.1339 13.6647 32.1335V31.1996H11.8647Z" fill="#05BBC2"/>
<path fill-rule="evenodd" clip-rule="evenodd" d="M21.3246 22.1998C22.3187 22.1998 23.1246 21.3939 23.1246 20.3998C23.1246 19.4057 22.3187 18.5998 21.3246 18.5998C20.3305 18.5998 19.5246 19.4057 19.5246 20.3998C19.5246 21.3939 20.3305 22.1998 21.3246 22.1998ZM21.3246 23.9998C23.3128 23.9998 24.9246 22.388 24.9246 20.3998C24.9246 18.4116 23.3128 16.7998 21.3246 16.7998C19.3364 16.7998 17.7246 18.4116 17.7246 20.3998C17.7246 22.388 19.3364 23.9998 21.3246 23.9998Z" fill="#05BBC2"/>
<path fill-rule="evenodd" clip-rule="evenodd" d="M7.82441 11.4004C6.8303 11.4004 6.02441 12.2063 6.02441 13.2004V27.6004C6.02441 28.5945 6.8303 29.4004 7.82441 29.4004H34.8244C35.8186 29.4004 36.6244 28.5945 36.6244 27.6004V13.2004C36.6244 12.2063 35.8186 11.4004 34.8244 11.4004H7.82441ZM10.5228 13.2004H32.1254C32.1259 13.5537 32.1957 13.9037 32.331 14.2301C32.4666 14.5577 32.6655 14.8553 32.9162 15.1061C33.167 15.3568 33.4646 15.5557 33.7921 15.6913C34.1194 15.827 34.4702 15.8967 34.8244 15.8969V24.9005C34.4752 24.9025 34.1296 24.9722 33.8069 25.1059C33.4793 25.2416 33.1816 25.4405 32.9309 25.6912C32.6803 25.942 32.4814 26.2396 32.3456 26.5671C32.21 26.8947 32.1402 27.2458 32.1402 27.6004H10.5206C10.5163 27.2573 10.4467 26.9181 10.3153 26.6009C10.1796 26.2734 9.98076 25.9758 9.73005 25.7251C9.47932 25.4743 9.18168 25.2754 8.8541 25.1398C8.52762 25.0045 8.17777 24.9347 7.82441 24.9342V15.9004C8.17842 15.9002 8.52894 15.8304 8.85601 15.6948C9.18359 15.5592 9.48123 15.3603 9.73195 15.1096C9.98268 14.8588 10.1816 14.5612 10.3172 14.2337C10.4529 13.9061 10.5228 13.555 10.5228 13.2004Z" fill="#05BBC2"/>
</svg>
