<svg width="48" height="48" viewBox="0 0 48 48" fill="none" xmlns="http://www.w3.org/2000/svg">
<rect x="0.5" y="0.5" width="47" height="47" rx="23.5" stroke="#05BBC2"/>
<path d="M20.4038 22.2022C21.3984 22.2022 22.2046 21.396 22.2046 20.4014C22.2046 19.4069 21.3984 18.6006 20.4038 18.6006C19.4092 18.6006 18.603 19.4069 18.603 20.4014C18.603 21.396 19.4092 22.2022 20.4038 22.2022Z" fill="#05BBC2"/>
<path fill-rule="evenodd" clip-rule="evenodd" d="M12.6683 29.4074V40.1998H28.0694V34.3391H31.933C32.1743 34.3391 32.4045 34.2916 32.6149 34.2054L30.4719 32.5391H26.2694V38.3998H14.4683V28.6814L13.9647 28.1587C12.4868 26.6242 9.59986 23.0381 9.5998 18.5773C9.59979 17.1099 10.1536 14.8635 11.8189 13.0067C13.2893 11.3674 15.7549 9.88817 19.8626 9.6372V15.9832C17.6079 16.4052 15.9016 18.3835 15.9016 20.7602C15.9016 23.4442 18.0779 25.6202 20.7626 25.6202C21.7843 25.6202 22.7324 25.3051 23.5149 24.7667L36.1785 34.5969C36.1591 34.7096 36.1489 34.8255 36.1489 34.9437C36.1489 36.0623 37.0557 36.9692 38.1744 36.9692C39.293 36.9692 40.1998 36.0623 40.1998 34.9437C40.1998 33.8251 39.293 32.9183 38.1744 32.9183C37.8386 32.9183 37.5219 33 37.243 33.1446L24.7921 23.4794C25.317 22.7034 25.6237 21.7675 25.6237 20.7602C25.6237 18.3834 23.9173 16.4052 21.6626 15.9832V9.60469C23.9511 9.64652 25.537 9.95366 26.7367 10.4033C28.0077 10.8797 28.9496 11.5546 29.899 12.435L30.0267 12.5533C30.9578 13.4162 31.2354 13.6734 31.3924 14.0918C32.5647 17.2144 34.1956 21.556 35.2024 24.2352H31.933V26.8348L33.733 28.2345V26.0352H35.2023C36.4596 26.0352 37.3304 24.7815 36.8882 23.6045C35.8816 20.9255 34.25 16.5825 33.0776 13.4592C32.7635 12.6225 32.1552 12.0638 31.3904 11.3616C31.3032 11.2815 31.214 11.1995 31.1229 11.1151C28.9959 9.14276 26.5729 7.7998 21.1181 7.7998C10.5048 7.7998 7.79976 14.8875 7.7998 18.5773C7.79987 23.7677 11.1146 27.7942 12.6683 29.4074ZM20.7626 23.8202C22.4535 23.8202 23.8237 22.4498 23.8237 20.7602C23.8237 19.0705 22.4535 17.7002 20.7626 17.7002C19.0717 17.7002 17.7016 19.0705 17.7016 20.7602C17.7016 22.4498 19.0717 23.8202 20.7626 23.8202Z" fill="#05BBC2"/>
</svg>
