<svg width="48" height="48" viewBox="0 0 48 48" fill="none" xmlns="http://www.w3.org/2000/svg">
<rect width="48" height="48" rx="24" fill="white"/>
<path d="M42.7001 22.3H40.0158C39.6231 18.6262 37.9916 15.1955 35.3897 12.5723C32.7878 9.94908 29.3706 8.28964 25.7001 7.86698V5.29998C25.7001 4.84911 25.521 4.41671 25.2022 4.09789C24.8834 3.77908 24.451 3.59998 24.0001 3.59998C23.5492 3.59998 23.1168 3.77908 22.798 4.09789C22.4792 4.41671 22.3001 4.84911 22.3001 5.29998V7.83468C18.5749 8.19918 15.0894 9.83702 12.4311 12.4721C9.77285 15.1071 8.10448 18.5781 7.7073 22.3H5.3001C4.84923 22.3 4.41683 22.4791 4.09802 22.7979C3.7792 23.1167 3.6001 23.5491 3.6001 24C3.6001 24.4508 3.7792 24.8832 4.09802 25.2021C4.41683 25.5209 4.84923 25.7 5.3001 25.7H7.7073C8.10448 29.4218 9.77285 32.8929 12.4311 35.5279C15.0894 38.1629 18.5749 39.8008 22.3001 40.1653V42.7C22.3001 43.1508 22.4792 43.5832 22.798 43.9021C23.1168 44.2209 23.5492 44.4 24.0001 44.4C24.451 44.4 24.8834 44.2209 25.2022 43.9021C25.521 43.5832 25.7001 43.1508 25.7001 42.7V40.133C29.3706 39.7103 32.7878 38.0509 35.3897 35.4277C37.9916 32.8045 39.6231 29.3738 40.0158 25.7H42.7001C43.151 25.7 43.5834 25.5209 43.9022 25.2021C44.221 24.8832 44.4001 24.4508 44.4001 24C44.4001 23.5491 44.221 23.1167 43.9022 22.7979C43.5834 22.4791 43.151 22.3 42.7001 22.3ZM25.7001 36.6973V34.2C25.7001 33.7491 25.521 33.3167 25.2022 32.9979C24.8834 32.6791 24.451 32.5 24.0001 32.5C23.5492 32.5 23.1168 32.6791 22.798 32.9979C22.4792 33.3167 22.3001 33.7491 22.3001 34.2V36.7398C19.4824 36.3898 16.8598 35.117 14.8415 33.1199C12.8231 31.1229 11.5227 28.5138 11.143 25.7H13.8001C14.251 25.7 14.6834 25.5209 15.0022 25.2021C15.321 24.8832 15.5001 24.4508 15.5001 24C15.5001 23.5491 15.321 23.1167 15.0022 22.7979C14.6834 22.4791 14.251 22.3 13.8001 22.3H10.5005C10.8802 19.4861 12.8231 16.8771 14.8415 14.88C16.8598 12.8829 19.4824 11.6101 22.3001 11.2602V13.8C22.3001 14.2508 22.4792 14.6832 22.798 15.0021C23.1168 15.3209 23.5492 15.5 24.0001 15.5C24.451 15.5 24.8834 15.3209 25.2022 15.0021C25.521 14.6832 25.7001 14.2508 25.7001 13.8V11.3027C28.4615 11.7063 31.0166 12.9977 32.9794 14.9816C34.9422 16.9656 36.2061 19.5344 36.5801 22.3H34.2001C33.7492 22.3 33.3168 22.4791 32.998 22.7979C32.6792 23.1167 32.5001 23.5491 32.5001 24C32.5001 24.4508 32.6792 24.8832 32.998 25.2021C33.3168 25.5209 33.7492 25.7 34.2001 25.7H36.5801C36.2061 28.4656 34.9422 31.0344 32.9794 33.0183C31.0166 35.0023 28.4615 36.2936 25.7001 36.6973Z" fill="#05BBC2"/>
<path d="M24.0009 18.8998C22.9922 18.8998 22.0062 19.1989 21.1675 19.7593C20.3288 20.3197 19.6751 21.1162 19.2891 22.0481C18.9031 22.98 18.8021 24.0054 18.9989 24.9947C19.1957 25.984 19.6814 26.8928 20.3946 27.606C21.1079 28.3193 22.0166 28.805 23.0059 29.0018C23.9952 29.1986 25.0207 29.0976 25.9526 28.7116C26.8845 28.3256 27.681 27.6719 28.2414 26.8332C28.8018 25.9945 29.1009 25.0085 29.1009 23.9998C29.1009 22.6472 28.5636 21.35 27.6071 20.3935C26.6507 19.4371 25.3535 18.8998 24.0009 18.8998ZM24.0009 25.6998C23.6647 25.6998 23.336 25.6001 23.0564 25.4133C22.7768 25.2265 22.559 24.961 22.4303 24.6503C22.3016 24.3397 22.268 23.9979 22.3335 23.6681C22.3991 23.3384 22.5611 23.0354 22.7988 22.7977C23.0366 22.5599 23.3395 22.398 23.6692 22.3324C23.999 22.2669 24.3408 22.3005 24.6514 22.4292C24.9621 22.5579 25.2276 22.7757 25.4144 23.0553C25.6012 23.3349 25.7009 23.6636 25.7009 23.9998C25.7009 24.4506 25.5218 24.883 25.203 25.2019C24.8842 25.5207 24.4517 25.6998 24.0009 25.6998Z" fill="#05BBC2"/>
</svg>
