<svg width="48" height="48" viewBox="0 0 48 48" fill="none" xmlns="http://www.w3.org/2000/svg">
<rect width="48" height="48" rx="24" fill="white"/>
<path fill-rule="evenodd" clip-rule="evenodd" d="M14.0999 10.5C13.6028 10.5 13.1999 10.9029 13.1999 11.4V39.3C13.1999 39.7971 13.6028 40.2 14.0999 40.2H33.8999C34.397 40.2 34.7999 39.7971 34.7999 39.3V11.4C34.7999 10.9029 34.397 10.5 33.8999 10.5H28.8749V8.69998H33.8999C35.3911 8.69998 36.5999 9.90881 36.5999 11.4V39.3C36.5999 40.7912 35.3911 42 33.8999 42H14.0999C12.6087 42 11.3999 40.7912 11.3999 39.3V11.4C11.3999 9.90882 12.6087 8.69998 14.0999 8.69998H19.1249V10.5H14.0999Z" fill="#05BBC2"/>
<path fill-rule="evenodd" clip-rule="evenodd" d="M17.7002 8.70003C17.7002 7.20887 18.909 6.00003 20.4002 6.00003H27.6002C29.0914 6.00003 30.3002 7.20887 30.3002 8.70003V10.5C30.3002 11.9912 29.0914 13.2 27.6002 13.2H20.4002C18.909 13.2 17.7002 11.9912 17.7002 10.5V8.70003ZM20.4002 7.80003C19.9031 7.80003 19.5002 8.20298 19.5002 8.70003V10.5C19.5002 10.9971 19.9031 11.4 20.4002 11.4H27.6002C28.0973 11.4 28.5002 10.9971 28.5002 10.5V8.70003C28.5002 8.20298 28.0973 7.80003 27.6002 7.80003H20.4002Z" fill="#05BBC2"/>
<path fill-rule="evenodd" clip-rule="evenodd" d="M15.8999 22.6512C15.8999 22.1541 16.3029 22.2012 16.8 22.2012L23.1 22.2012C23.5971 22.2012 24 22.1541 24 22.6512C24 23.1483 23.5971 23.1012 23.1 23.1012H16.8C16.3029 23.1012 15.8999 23.1483 15.8999 22.6512Z" fill="#05BBC2"/>
<path fill-rule="evenodd" clip-rule="evenodd" d="M15.8999 17.2501C15.8999 16.753 16.3028 16.8001 16.7999 16.8001L30.7499 16.8001C31.247 16.8001 31.6499 16.753 31.6499 17.2501C31.6499 17.7471 31.247 17.7001 30.7499 17.7001H16.7999C16.3028 17.7001 15.8999 17.7471 15.8999 17.2501Z" fill="#05BBC2"/>
<path fill-rule="evenodd" clip-rule="evenodd" d="M15.8999 19.95C15.8999 19.4543 16.1762 19.5012 16.517 19.5012L26.0828 19.5012C26.4236 19.5012 26.6999 19.4543 26.6999 19.95C26.6999 20.4458 26.4236 20.3988 26.0828 20.3988H16.517C16.1762 20.3988 15.8999 20.4458 15.8999 19.95Z" fill="#05BBC2"/>
<path fill-rule="evenodd" clip-rule="evenodd" d="M29 23C29 24.1046 28.1046 25 27 25C25.8954 25 25 24.1046 25 23C25 21.8954 25.8954 21 27 21C28.1046 21 29 21.8954 29 23ZM28.2 23C28.2 23.6628 27.6628 24.2 27 24.2C26.3372 24.2 25.8 23.6628 25.8 23C25.8 22.3373 26.3372 21.8 27 21.8C27.6628 21.8 28.2 22.3373 28.2 23Z" fill="#05BBC2"/>
<path d="M24 37.5V34H24.8908V37.5C24.8908 37.7761 25.0902 38 25.3362 38H25.3748C25.6052 38 25.7976 37.8028 25.8184 37.5452L26.1055 34H27L26.7055 37.6358C26.7032 37.6644 26.7002 37.6928 26.6965 37.7208C26.6884 37.7824 26.677 37.8426 26.6625 37.9013C26.5051 38.5399 25.9843 39 25.3748 39H25.3362C24.5982 39 24 38.3285 24 37.5Z" fill="#05BBC2"/>
<path d="M28.1816 37.5452L27.8945 34H27L27.2945 37.6358C27.2968 37.6644 27.2998 37.6928 27.3035 37.7208C27.3116 37.7824 27.323 37.8426 27.3375 37.9013C27.4949 38.5399 28.0157 39 28.6252 39H28.6638C29.4017 39 30 38.3285 30 37.5V34H29.1092V37.5C29.1092 37.7761 28.9098 38 28.6638 38H28.6252C28.3948 38 28.2024 37.8028 28.1816 37.5452Z" fill="#05BBC2"/>
<path fill-rule="evenodd" clip-rule="evenodd" d="M21.4286 26C21.1919 26 21 26.1843 21 26.4118V32.5882C21 32.8157 21.1919 33 21.4286 33H32.5714C32.8081 33 33 32.8157 33 32.5882V26.4118C33 26.1843 32.8081 26 32.5714 26H21.4286ZM21.8571 26.8235V32.1765H25.0714C25.0714 31.9469 25.1825 31.7471 25.2975 31.6002C25.418 31.4467 25.577 31.3069 25.7483 31.1889C25.9822 31.0278 26.2708 30.8856 26.5714 30.8044V29.9118H26.2286C25.9703 29.9118 25.6086 30.0617 25.2614 30.2639C25.0988 30.3586 24.9573 30.4539 24.8565 30.5257C24.8062 30.5614 24.7666 30.591 24.7401 30.6111C24.7269 30.6212 24.717 30.6289 24.7107 30.6338L24.704 30.6391L24.7028 30.6399C24.7028 30.6399 24.7029 30.6398 24.4286 30.3235C24.1542 30.0072 24.1543 30.0071 24.1543 30.0071L24.1559 30.0059L24.1591 30.0033L24.17 29.9948C24.1791 29.9877 24.192 29.9776 24.2084 29.9652C24.2412 29.9403 24.288 29.9055 24.3462 29.864C24.4623 29.7814 24.6262 29.6708 24.8172 29.5596C25.1771 29.35 25.7154 29.0882 26.2286 29.0882H26.5714V28.2647H26.3571C26.1132 28.2647 25.7961 28.3467 25.5125 28.4458C25.3766 28.4933 25.2587 28.541 25.1752 28.5767C25.1335 28.5944 25.1008 28.6091 25.079 28.619C25.0681 28.624 25.0599 28.6278 25.0548 28.6301L25.0494 28.6327C25.0494 28.6327 25.0488 28.633 24.8571 28.2647C24.6655 27.8964 24.6656 27.8963 24.6656 27.8963L24.667 27.8957L24.6698 27.8944L24.679 27.89C24.6868 27.8864 24.6977 27.8813 24.7115 27.875C24.7391 27.8625 24.7783 27.8449 24.8271 27.8241C24.9243 27.7826 25.0609 27.7273 25.2196 27.6718C25.5253 27.565 25.9582 27.4412 26.3571 27.4412H26.5714V26.8235H21.8571ZM27.4286 29.9118H27.9C28.221 29.9118 28.5508 30.0626 28.827 30.2488C28.9601 30.3385 29.0694 30.4288 29.1449 30.4963C29.1825 30.5299 29.2112 30.5574 29.2297 30.5756C29.2389 30.5847 29.2456 30.5915 29.2495 30.5955L29.2532 30.5993C29.2532 30.5993 29.2529 30.599 29.5714 30.3235C29.89 30.0481 29.8898 30.0479 29.8898 30.0479L29.8881 30.0461L29.8851 30.0429L29.8756 30.0331C29.8678 30.025 29.857 30.0141 29.8434 30.0007C29.8162 29.9739 29.7775 29.937 29.7287 29.8934C29.6316 29.8065 29.4917 29.6909 29.3194 29.5747C28.9849 29.3492 28.479 29.0882 27.9 29.0882H27.4286V28.2647H27.75C28.0476 28.2647 28.3368 28.3475 28.5614 28.4383C28.6716 28.4829 28.7611 28.5273 28.8218 28.5599C28.8521 28.5762 28.8749 28.5893 28.8891 28.5977C28.8963 28.6019 28.9013 28.6049 28.904 28.6066L28.9053 28.6074C28.9053 28.6074 28.9051 28.6073 29.1429 28.2647C29.3806 27.9221 29.3804 27.922 29.3804 27.922L29.3786 27.9208L29.3757 27.919L29.3669 27.9136C29.3598 27.9092 29.3503 27.9034 29.3384 27.8963C29.3146 27.8823 29.2813 27.8632 29.2395 27.8408C29.1564 27.7962 29.0382 27.7377 28.894 27.6793C28.6096 27.5643 28.2024 27.4412 27.75 27.4412H27.4286V26.8235H32.1429V32.1765H28.9286C28.9286 31.945 28.8139 31.7421 28.6989 31.5949C28.5773 31.4391 28.4166 31.2955 28.2432 31.1744C28.0146 31.0147 27.7281 30.8694 27.4286 30.7926V29.9118ZM28.0684 32.1765C28.0627 32.1629 28.0482 32.1338 28.0132 32.089C27.954 32.0131 27.8602 31.925 27.739 31.8403C27.4919 31.6677 27.2116 31.5636 27.0137 31.559C26.7804 31.5779 26.4879 31.6927 26.2478 31.8582C26.1282 31.9406 26.0381 32.0244 25.9822 32.0957C25.9498 32.1371 25.9365 32.1639 25.9313 32.1765H28.0684Z" fill="#05BBC2"/>
</svg>
