<svg width="48" height="48" viewBox="0 0 48 48" fill="none" xmlns="http://www.w3.org/2000/svg">
<rect width="48" height="48" rx="24" fill="white"/>
<path fill-rule="evenodd" clip-rule="evenodd" d="M36.7502 10.4H11.2502C10.7807 10.4 10.4002 10.7806 10.4002 11.25V36.75C10.4002 37.2195 10.7808 37.6 11.2502 37.6H36.7502C37.2197 37.6 37.6002 37.2195 37.6002 36.75V11.25C37.6002 10.7806 37.2197 10.4 36.7502 10.4ZM11.2502 8.7C9.84187 8.7 8.7002 9.84167 8.7002 11.25V36.75C8.7002 38.1584 9.84187 39.3 11.2502 39.3H36.7502C38.1586 39.3 39.3002 38.1584 39.3002 36.75V11.25C39.3002 9.84167 38.1586 8.7 36.7502 8.7H11.2502Z" fill="#05BBC2"/>
<path fill-rule="evenodd" clip-rule="evenodd" d="M15.4999 21.45C15.0304 21.45 14.6499 21.8305 14.6499 22.3V35.05C14.6499 35.5195 15.0304 35.9 15.4999 35.9H19.7499C19.7499 35.3959 19.9741 34.9424 20.2263 34.5908C20.4874 34.2268 20.8362 33.8907 21.2176 33.6036C21.7638 33.1923 22.445 32.8315 23.1499 32.6397V30.0745H21.6199C20.608 30.0745 19.6354 30.4127 18.89 30.7762C18.5225 30.9555 18.223 31.1347 18.0173 31.2676C17.9148 31.3339 17.8366 31.3881 17.7856 31.4244C17.7602 31.4426 17.7417 31.4561 17.7305 31.4644L17.7193 31.4729C17.7195 31.4727 17.7194 31.4727 17.1999 30.8C16.6804 30.1272 16.6806 30.1271 16.6807 30.127L16.6823 30.1259L16.6848 30.1238L16.6924 30.1181L16.7163 30.1001C16.7361 30.0854 16.7638 30.0651 16.7988 30.0402C16.8687 29.9903 16.9684 29.9214 17.0943 29.84C17.3456 29.6776 17.7048 29.4629 18.1448 29.2483C19.0144 28.8241 20.2518 28.3745 21.6199 28.3745H23.1499V26.55H22.2149C21.4502 26.55 20.7209 26.7336 20.1695 26.9271C19.897 27.0227 19.6758 27.1179 19.5253 27.1879C19.4503 27.2228 19.3933 27.2512 19.357 27.2698C19.3388 27.2791 19.3258 27.286 19.3184 27.29L19.3123 27.2932C19.3125 27.2932 19.3127 27.2931 18.8999 26.55C18.4871 25.8069 18.4873 25.8068 18.4875 25.8068L18.4888 25.806L18.4911 25.8047L18.4974 25.8013L18.5167 25.7909C18.5324 25.7824 18.5541 25.7711 18.5812 25.7571C18.6356 25.7293 18.7121 25.6912 18.8084 25.6464C19.0006 25.5571 19.2735 25.4398 19.6066 25.3229C20.2664 25.0914 21.1946 24.85 22.2149 24.85H23.1499V23.15H24.8499V24.85H25.5299C26.4233 24.85 27.413 25.0927 28.1352 25.3115C28.5057 25.4238 28.825 25.5359 29.0525 25.6201C29.1664 25.6623 29.2579 25.6978 29.3218 25.723C29.3539 25.7357 29.379 25.7458 29.3967 25.753L29.4175 25.7615L29.4237 25.7641L29.4266 25.7653C29.4267 25.7654 29.4268 25.7654 29.0999 26.55C28.773 27.3346 28.7731 27.3346 28.7732 27.3347L28.7704 27.3335L28.7565 27.3279C28.7436 27.3226 28.7234 27.3145 28.6967 27.3039C28.6431 27.2827 28.5632 27.2518 28.4621 27.2143C28.2592 27.1391 27.9729 27.0387 27.6422 26.9384C26.9618 26.7323 26.1665 26.55 25.5299 26.55H24.8499V28.3745H26.0399C27.2376 28.3745 28.5583 28.826 29.5149 29.2289C30.0069 29.4362 30.4308 29.643 30.7322 29.7981C30.8831 29.8759 31.0042 29.9411 31.0886 29.9875C31.1307 30.0107 31.1639 30.0292 31.1871 30.0423L31.2143 30.0578L31.2221 30.0622L31.2245 30.0636L31.2253 30.0642C31.2255 30.0642 31.2259 30.0645 30.7999 30.8C30.3739 31.5355 30.374 31.5356 30.3741 31.5357L30.3698 31.5332L30.3507 31.5223C30.333 31.5123 30.3057 31.497 30.2695 31.4772C30.1973 31.4374 30.0898 31.3795 29.9539 31.3096C29.6815 31.1692 29.2979 30.9822 28.8549 30.7956C27.9415 30.4108 26.8822 30.0745 26.0399 30.0745H24.8499V32.6122C25.5514 32.7901 26.228 33.159 26.7622 33.5669C27.1481 33.8617 27.5011 34.2073 27.7652 34.5772C28.0181 34.9313 28.2499 35.3923 28.2499 35.9H32.4999C32.9694 35.9 33.3499 35.5195 33.3499 35.05V22.3C33.3499 21.8305 32.9694 21.45 32.4999 21.45H15.4999ZM26.5498 35.9C26.5494 35.8952 26.5462 35.8676 26.5247 35.8141C26.4992 35.7505 26.454 35.6662 26.3819 35.5653C26.2363 35.3614 26.0124 35.1333 25.7304 34.9181C25.1554 34.479 24.4992 34.211 24.0286 34.2003C23.4811 34.2477 22.7995 34.5404 22.2401 34.9616C21.9619 35.1711 21.7461 35.3887 21.6077 35.5817C21.5392 35.6771 21.4972 35.7562 21.4735 35.8157C21.4515 35.8712 21.45 35.898 21.4499 35.9H26.5498Z" fill="#05BBC2"/>
<path fill-rule="evenodd" clip-rule="evenodd" d="M27.8248 15.9251C27.8248 18.0376 26.1123 19.7501 23.9998 19.7501C21.8873 19.7501 20.1748 18.0376 20.1748 15.9251C20.1748 13.8126 21.8873 12.1001 23.9998 12.1001C26.1123 12.1001 27.8248 13.8126 27.8248 15.9251Z" fill="#05BBC2"/>
</svg>
