<svg width="48" height="48" viewBox="0 0 48 48" fill="none" xmlns="http://www.w3.org/2000/svg">
<rect width="48" height="48" rx="24" fill="white"/>
<path fill-rule="evenodd" clip-rule="evenodd" d="M33.9001 38.4C36.3854 38.4 38.4001 36.3853 38.4001 33.9C38.4001 31.4148 36.3854 29.4 33.9001 29.4C31.4148 29.4 29.4001 31.4148 29.4001 33.9C29.4001 36.3853 31.4148 38.4 33.9001 38.4ZM33.9001 40.2C37.3795 40.2 40.2001 37.3794 40.2001 33.9C40.2001 30.4206 37.3795 27.6 33.9001 27.6C30.4207 27.6 27.6001 30.4206 27.6001 33.9C27.6001 37.3794 30.4207 40.2 33.9001 40.2Z" fill="#05BBC2"/>
<path fill-rule="evenodd" clip-rule="evenodd" d="M33.9 30.7499C34.3971 30.7499 34.8 31.1529 34.8 31.6499V33.5271L35.4364 34.1635C35.7878 34.515 35.7878 35.0849 35.4364 35.4363C35.0849 35.7878 34.5151 35.7878 34.1636 35.4363L33 34.2727V31.6499C33 31.1529 33.4029 30.7499 33.9 30.7499Z" fill="#05BBC2"/>
<path fill-rule="evenodd" clip-rule="evenodd" d="M14.9999 23.1H13.1999V24.9H14.9999V23.1ZM13.1999 21.3C12.2058 21.3 11.3999 22.1058 11.3999 23.1V24.9C11.3999 25.8941 12.2058 26.7 13.1999 26.7H14.9999C15.994 26.7 16.7999 25.8941 16.7999 24.9V23.1C16.7999 22.1058 15.994 21.3 14.9999 21.3H13.1999Z" fill="#05BBC2"/>
<path fill-rule="evenodd" clip-rule="evenodd" d="M22.2001 23.1H20.4001V24.9H22.2001V23.1ZM20.4001 21.3C19.406 21.3 18.6001 22.1058 18.6001 23.1V24.9C18.6001 25.8941 19.406 26.7 20.4001 26.7H22.2001C23.1942 26.7 24.0001 25.8941 24.0001 24.9V23.1C24.0001 22.1058 23.1942 21.3 22.2001 21.3H20.4001Z" fill="#05BBC2"/>
<path fill-rule="evenodd" clip-rule="evenodd" d="M29.3998 23.1H27.5998V24.9H29.3998V23.1ZM27.5998 21.3C26.6057 21.3 25.7998 22.1058 25.7998 23.1V24.9C25.7998 25.8941 26.6057 26.7 27.5998 26.7H29.3998C30.3939 26.7 31.1998 25.8941 31.1998 24.9V23.1C31.1998 22.1058 30.3939 21.3 29.3998 21.3H27.5998Z" fill="#05BBC2"/>
<path fill-rule="evenodd" clip-rule="evenodd" d="M14.9999 30.2999H13.1999V32.0999H14.9999V30.2999ZM13.1999 28.4999C12.2058 28.4999 11.3999 29.3058 11.3999 30.2999V32.0999C11.3999 33.0941 12.2058 33.8999 13.1999 33.8999H14.9999C15.994 33.8999 16.7999 33.0941 16.7999 32.0999V30.2999C16.7999 29.3058 15.994 28.4999 14.9999 28.4999H13.1999Z" fill="#05BBC2"/>
<path fill-rule="evenodd" clip-rule="evenodd" d="M22.2001 30.2999H20.4001V32.0999H22.2001V30.2999ZM20.4001 28.4999C19.406 28.4999 18.6001 29.3058 18.6001 30.2999V32.0999C18.6001 33.0941 19.406 33.8999 20.4001 33.8999H22.2001C23.1942 33.8999 24.0001 33.0941 24.0001 32.0999V30.2999C24.0001 29.3058 23.1942 28.4999 22.2001 28.4999H20.4001Z" fill="#05BBC2"/>
<path fill-rule="evenodd" clip-rule="evenodd" d="M9.5998 13.1999C9.5998 12.7029 10.0028 12.2999 10.4998 12.2999H14.9998V10.4999H10.4998C9.00864 10.4999 7.7998 11.7087 7.7998 13.1999V34.7999C7.7998 36.2911 9.00864 37.4999 10.4998 37.4999H28.729C28.3499 36.9563 28.0542 36.3501 27.8607 35.6999H10.4998C10.0028 35.6999 9.5998 35.297 9.5998 34.7999V13.1999ZM32.9998 27.6637C33.2937 27.6217 33.5943 27.5999 33.8998 27.5999C34.2054 27.5999 34.5059 27.6217 34.7998 27.6637V13.1999C34.7998 11.7088 33.591 10.4999 32.0998 10.4999H29.3998V12.2999H32.0998C32.5969 12.2999 32.9998 12.7029 32.9998 13.1999V27.6637ZM16.7998 12.2999H26.3061V10.4999H16.7998V12.2999Z" fill="#05BBC2"/>
<path fill-rule="evenodd" clip-rule="evenodd" d="M36 18H8V16H36V18Z" fill="#05BBC2"/>
<path d="M13.1997 8.69997C13.1997 8.20292 13.6026 7.79997 14.0997 7.79997C14.5968 7.79997 14.9997 8.20292 14.9997 8.69997V13.2C14.9997 13.697 14.5968 14.1 14.0997 14.1C13.6026 14.1 13.1997 13.697 13.1997 13.2V8.69997Z" fill="#05BBC2"/>
<path d="M25.7998 8.69997C25.7998 8.20292 26.2027 7.79997 26.6998 7.79997C27.1969 7.79997 27.5998 8.20292 27.5998 8.69997V13.2C27.5998 13.697 27.1969 14.1 26.6998 14.1C26.2027 14.1 25.7998 13.697 25.7998 13.2V8.69997Z" fill="#05BBC2"/>
</svg>
