<svg width="48" height="48" viewBox="0 0 48 48" fill="none" xmlns="http://www.w3.org/2000/svg">
<rect width="48" height="48" rx="24" fill="white"/>
<path fill-rule="evenodd" clip-rule="evenodd" d="M8.7 36.6C7.20884 36.6 6 35.3912 6 33.9V14.1C6 12.6088 7.20884 11.4 8.7 11.4H39.3C40.7912 11.4 42 12.6088 42 14.1V33.9C42 35.3912 40.7912 36.6 39.3 36.6H8.7ZM7.8 14.1C7.8 13.6029 8.20295 13.2 8.7 13.2H39.3C39.7971 13.2 40.2 13.6029 40.2 14.1V16.8H7.8V14.1ZM8.7 34.8C8.20295 34.8 7.8 34.3971 7.8 33.9V24H40.2V33.9C40.2 34.3971 39.7971 34.8 39.3 34.8H8.7Z" fill="#05BBC2"/>
</svg>
