<svg width="48" height="48" viewBox="0 0 48 48" fill="none" xmlns="http://www.w3.org/2000/svg">
<rect width="48" height="48" rx="24" fill="white"/>
<path fill-rule="evenodd" clip-rule="evenodd" d="M8.72993 17.0007C7.69166 16.9761 6.6509 17.6133 6.31292 18.6051C6.22856 18.8527 6.18205 19.1767 6.14993 19.4723C6.11495 19.7944 6.08786 20.1806 6.06684 20.6022C6.02473 21.4468 6.00506 22.4743 6.00087 23.496C5.9926 25.5136 6.04438 27.6139 6.11744 28.2649C6.24538 29.405 6.90096 30.467 7.47134 31.391L7.53486 31.4939C7.70785 31.7746 7.87915 32.0526 8.04708 32.3402C8.80081 33.6314 9.62116 34.5013 10.3643 35.2894L10.3811 35.3073C10.7987 35.7501 11.1856 36.1616 11.5516 36.6209C11.2098 36.9797 11 37.4654 11 38V40C11 41.1046 11.8954 42 13 42H21C22.1046 42 23 41.1046 23 40V38C23 36.9426 22.1794 36.0768 21.1402 36.0048C21.0049 34.869 20.8298 33.3348 20.8138 32.8979C20.7999 32.5222 20.6739 32.1549 20.5565 31.8758C20.4314 31.5785 20.275 31.287 20.1301 31.0398C19.9838 30.79 19.8398 30.5694 19.733 30.4118C19.6793 30.3326 19.6342 30.2682 19.6019 30.2227C19.5858 30.1999 19.5727 30.1819 19.5634 30.169L19.5522 30.1535L19.5488 30.1488L19.547 30.1464L19.5363 30.1319L16.2933 26.0424L16.2638 26.0113L16.263 26.0105L16.2587 26.0058L16.2353 25.9805C16.2139 25.957 16.1811 25.9206 16.1395 25.8731C16.0561 25.7779 15.9384 25.6391 15.8057 25.4698C15.5348 25.1241 15.2253 24.6815 15.0093 24.2393C14.7811 23.7723 14.3495 23.3229 13.6864 23.2894C13.1206 23.2607 12.6781 23.5604 12.4197 23.7913C12.2828 23.9135 12.1528 24.0562 12.0334 24.2129C12.0181 24.0195 12.0031 23.8186 11.9876 23.6107L11.9827 23.5455C11.8846 22.2267 11.7659 20.6319 11.3786 19.3554C10.9251 17.8606 9.91635 17.0288 8.72993 17.0007ZM18.7417 30.7393L19.547 30.1464C19.5469 30.1463 19.5468 30.1462 18.7417 30.7393ZM19.1255 36C18.9954 34.9004 18.8332 33.463 18.8151 32.9713C18.8147 32.9676 18.8118 32.9398 18.7963 32.8835C18.7792 32.8218 18.752 32.7441 18.713 32.6513C18.6342 32.464 18.5243 32.2553 18.4045 32.0508C18.2863 31.849 18.1674 31.6666 18.0775 31.5341C18.0329 31.4682 17.9962 31.4158 17.9713 31.3807L17.9451 31.3442L14.7775 27.3498L14.7588 27.3295C14.7287 27.2965 14.6865 27.2497 14.6349 27.1908C14.532 27.0733 14.3905 26.9063 14.2315 26.7035C14.0078 26.418 13.7374 26.0463 13.4906 25.6306L13.4842 25.6423C13.3937 25.8086 13.344 25.9612 13.3286 26.0612C13.2741 26.416 13.3023 26.6599 13.3301 26.7922C13.3442 26.8595 13.3589 26.901 13.3648 26.9164L13.3659 26.9192L15.197 30.5569L13.4958 31.5957L13.4714 31.5623L13.402 31.4668C13.342 31.3841 13.2558 31.265 13.1503 31.1185C12.9394 30.8257 12.6511 30.4226 12.3417 29.9823C11.7347 29.1182 11.0091 28.0581 10.6508 27.4227C10.3827 26.9472 10.2586 26.3178 10.1796 25.7492C10.0971 25.155 10.0457 24.4652 9.99475 23.7812L9.99311 23.7593C9.88897 22.3612 9.78094 20.9783 9.46476 19.936C9.32661 19.4806 9.14891 19.2516 9.02071 19.1407C8.89848 19.0349 8.78384 19.0025 8.68251 19.0001C8.40972 18.9937 8.22887 19.1835 8.20588 19.2509C8.20414 19.2573 8.19484 19.2915 8.18191 19.3654C8.16762 19.4471 8.15279 19.5544 8.13823 19.6884C8.10911 19.9564 8.08439 20.2999 8.06436 20.7018C8.02437 21.5039 8.00498 22.4978 8.00085 23.5042C7.99249 25.543 8.04706 27.5259 8.10496 28.0419C8.17737 28.6871 8.57856 29.3757 9.23739 30.4445L9.23999 30.4487C9.41045 30.7252 9.59333 31.0219 9.77431 31.3319C10.4069 32.4155 11.0894 33.1432 11.8362 33.9352L11.8526 33.9526C12.4094 34.543 13.0129 35.183 13.583 36H19.1255ZM13.8001 25.2459C13.8001 25.2455 13.7964 25.2474 13.7889 25.2527C13.7963 25.2489 13.8001 25.2462 13.8001 25.2459ZM21 40V38H13V40H21Z" fill="#05BBC2"/>
<path fill-rule="evenodd" clip-rule="evenodd" d="M41.6871 18.6051C41.3491 17.6133 40.3084 16.9761 39.2701 17.0007C38.0837 17.0288 37.0749 17.8606 36.6214 19.3554C36.2342 20.6319 36.1155 22.2266 36.0173 23.5454L36.0124 23.6107C35.997 23.8186 35.982 24.0195 35.9667 24.2129C35.8472 24.0562 35.7172 23.9135 35.5804 23.7913C35.322 23.5604 34.8794 23.2607 34.3137 23.2894C33.6505 23.3229 33.219 23.7723 32.9908 24.2393C32.7747 24.6815 32.4652 25.1241 32.1944 25.4698C32.0617 25.6391 31.944 25.7779 31.8605 25.8731C31.819 25.9206 31.7862 25.957 31.7647 25.9805L31.7414 26.0058L31.737 26.0105L31.7362 26.0113L31.7068 26.0424L28.4638 30.1319L28.453 30.1464L28.4513 30.1488L28.4478 30.1535L28.4366 30.169C28.4273 30.1819 28.4143 30.1999 28.3981 30.2227C28.3658 30.2682 28.3208 30.3326 28.267 30.4118C28.1602 30.5694 28.0163 30.79 27.8699 31.0398C27.7251 31.287 27.5686 31.5785 27.4435 31.8758C27.3261 32.1549 27.2001 32.5222 27.1863 32.8979C27.1702 33.3348 26.9951 34.869 26.8598 36.0048C25.8207 36.0768 25 36.9426 25 38V40C25 41.1046 25.8955 42 27 42H35C36.1046 42 37 41.1046 37 40V38C37 37.4654 36.7902 36.9797 36.4485 36.6209C36.8145 36.1616 37.2013 35.7501 37.6189 35.3073L37.6358 35.2894C38.3789 34.5013 39.1992 33.6313 39.953 32.3402C40.1209 32.0526 40.2922 31.7746 40.4652 31.4939L40.5287 31.391C41.0991 30.467 41.7547 29.405 41.8826 28.2649C41.9557 27.6139 42.0074 25.5136 41.9992 23.496C41.995 22.4743 41.9753 21.4468 41.9332 20.6022C41.9122 20.1806 41.8851 19.7944 41.8501 19.4723C41.818 19.1767 41.7715 18.8527 41.6871 18.6051ZM29.2584 30.7393C28.4532 30.1462 28.4531 30.1463 28.453 30.1464L29.2584 30.7393ZM34.4171 36C34.9872 35.183 35.5906 34.543 36.1474 33.9526L36.1638 33.9352C36.9106 33.1432 37.5931 32.4155 38.2257 31.3319C38.4066 31.0221 38.5893 30.7257 38.7597 30.4493L38.7626 30.4445C39.4215 29.3757 39.8227 28.6871 39.8951 28.0419C39.953 27.5259 40.0075 25.543 39.9992 23.5042C39.9951 22.4978 39.9757 21.5039 39.9357 20.7018C39.9156 20.2999 39.8909 19.9564 39.8618 19.6884C39.8472 19.5544 39.8324 19.4471 39.8181 19.3654C39.8052 19.2915 39.7959 19.2573 39.7942 19.2509C39.7712 19.1835 39.5903 18.9937 39.3175 19.0001C39.2162 19.0025 39.1016 19.0349 38.9793 19.1407C38.8511 19.2516 38.6734 19.4806 38.5353 19.936C38.2191 20.9783 38.1111 22.3612 38.0069 23.7593L38.0053 23.7812C37.9543 24.4652 37.903 25.155 37.8204 25.7492C37.7415 26.3178 37.6173 26.9472 37.3492 27.4227C36.991 28.0581 36.2654 29.1182 35.6583 29.9823C35.3489 30.4226 35.0606 30.8257 34.8498 31.1185C34.7443 31.265 34.658 31.3841 34.598 31.4668L34.5286 31.5623L34.5042 31.5957L32.803 30.5569L34.6341 26.9192L34.6353 26.9164C34.6412 26.901 34.6558 26.8595 34.6699 26.7922C34.6977 26.6599 34.7259 26.416 34.6714 26.0612C34.6561 25.9612 34.6063 25.8086 34.5158 25.6423L34.5094 25.6306C34.2626 26.0463 33.9922 26.418 33.7685 26.7035C33.6096 26.9063 33.468 27.0733 33.3651 27.1908C33.3136 27.2497 33.2714 27.2965 33.2412 27.3295L33.2225 27.3498L30.0549 31.3442L30.0288 31.3807C30.0039 31.4158 29.9671 31.4682 29.9225 31.5341C29.8326 31.6666 29.7138 31.849 29.5955 32.0508C29.4758 32.2553 29.3658 32.464 29.2871 32.6513C29.248 32.7441 29.2208 32.8218 29.2038 32.8835C29.1882 32.9398 29.1854 32.9676 29.185 32.9713C29.1669 33.463 29.0046 34.9004 28.8745 36H34.4171ZM34.1999 25.2459C34.1999 25.2455 34.2036 25.2474 34.2111 25.2527C34.2037 25.2489 34.2 25.2462 34.1999 25.2459ZM27 40V38H35V40H27Z" fill="#05BBC2"/>
<path d="M23.0922 11.6601L24 13.6246L24.9078 11.6601C25.7039 9.93708 26.8537 9 28.2188 9C29.2093 9 30.1315 9.53021 30.8417 10.4905C31.5549 11.455 32 12.7947 32 14.2069C32 17.223 30.0138 19.9206 27.82 21.9551C26.7431 22.9538 25.662 23.7499 24.8484 24.2967C24.5046 24.5278 24.2102 24.7132 23.9866 24.8494C23.7649 24.7209 23.4744 24.5463 23.1356 24.3279C22.3246 23.8051 21.2469 23.0381 20.1734 22.0603C17.9941 20.0751 16 17.3767 16 14.2069C16 12.7945 16.4451 11.4548 17.1584 10.4904C17.8686 9.53012 18.7908 9 19.7812 9C21.1463 9 22.296 9.93699 23.0922 11.6601Z" stroke="#05BBC2" stroke-width="2"/>
</svg>
