<svg width="48" height="48" viewBox="0 0 48 48" fill="none" xmlns="http://www.w3.org/2000/svg">
<rect width="48" height="48" rx="24" fill="#05BBC2"/>
<path d="M41.5597 37.0376C41.5595 35.8178 40.8341 34.7209 39.7117 34.2434L31.1022 30.5805V28.4339C32.0138 27.2896 32.5901 25.9267 32.7832 24.4633H34.5432C36.218 24.4633 37.5807 23.1007 37.5807 21.4258V17.0713C37.5807 15.5399 36.4411 14.2703 34.9656 14.0638C34.7467 7.47599 31.0635 4 24.28 4C17.4965 4 13.8133 7.47599 13.5944 14.0638C12.1189 14.2703 10.9793 15.5399 10.9793 17.0713V21.4258C10.9793 23.1007 12.342 24.4633 14.0168 24.4633H15.7768C15.9699 25.927 16.5462 27.2899 17.4578 28.4339V30.5805L8.8486 34.2434C7.72589 34.7209 7.00053 35.8178 7 37.0378V37.547C7 37.8157 7.10652 38.0733 7.29663 38.2631C7.48647 38.453 7.74408 38.5597 8.0125 38.5597H40.5475C40.8162 38.5597 41.0738 38.453 41.2636 38.2631C41.4535 38.073 41.56 37.8154 41.56 37.547L41.5597 37.0376ZM29.0783 31.2908C29.0791 31.3151 29.1358 33.7725 27.6843 35.2841C26.8872 36.1139 25.7418 36.5345 24.28 36.5345C22.8235 36.5345 21.681 36.1168 20.8844 35.2931C19.4155 33.7736 19.4812 31.3122 19.4817 31.2908C19.4825 31.2771 19.4828 31.2637 19.4828 31.25V30.2475C20.8691 31.1247 22.5229 31.5959 24.28 31.5959C26.0371 31.5959 27.6909 31.1247 29.0772 30.2475V31.25C29.0772 31.2637 29.0775 31.2771 29.0783 31.2908ZM30.8307 22.909L28.9045 24.1933C28.2928 24.6012 27.5806 24.8169 26.845 24.8169H25.1325C24.5735 24.8169 24.12 25.2701 24.12 25.8294C24.12 26.3886 24.5735 26.8419 25.1325 26.8419H26.845C27.9817 26.8419 29.0825 26.5086 30.028 25.8779L30.4156 25.6195C29.502 27.977 27.1654 29.5709 24.28 29.5709C20.5456 29.5709 17.7293 26.9012 17.7293 23.3609V15.1525C18.1285 13.2968 18.7068 12.1174 19.4039 11.7393C20.0982 11.3622 21.107 11.7543 22.0826 12.1332C22.8427 12.4283 23.5607 12.7072 24.28 12.7072C25.0059 12.7072 25.7152 12.4254 26.4664 12.1272C27.443 11.739 28.3656 11.3725 29.049 11.729C29.5471 11.9887 30.2572 12.7974 30.8307 15.1654V22.909ZM35.5557 17.0713V21.4258C35.5557 21.984 35.1014 22.4383 34.5432 22.4383H32.8557V16.0588H34.5432C35.1014 16.0588 35.5557 16.5131 35.5557 17.0713ZM17.4245 8.50536C18.8267 6.85952 21.1331 6.025 24.28 6.025C27.4269 6.025 29.7333 6.85952 31.1355 8.50536C32.2395 9.80131 32.8443 11.6594 32.9379 14.0338H32.6273C32.0159 11.8622 31.1674 10.5499 29.9853 9.93341C28.4795 9.14819 26.9486 9.75622 25.7186 10.2451C25.1775 10.46 24.618 10.6822 24.2797 10.6822C23.9399 10.6822 23.3682 10.4602 22.8156 10.2456C21.542 9.75068 19.9568 9.13501 18.4378 9.95925C17.2924 10.581 16.4632 11.9181 15.914 14.0338H15.6221C15.7154 11.6594 16.3205 9.80131 17.4245 8.50536ZM13.0043 21.4258V17.0713C13.0043 16.5131 13.4586 16.0588 14.0168 16.0588H15.7043V22.4383H14.0168C13.4586 22.4383 13.0043 21.984 13.0043 21.4258ZM9.6412 36.1068L17.5738 32.7318C17.7515 33.8305 18.1929 35.3255 19.275 36.5347H9.15895C9.26626 36.3473 9.43343 36.1951 9.6412 36.1068ZM29.285 36.5347C30.3671 35.3255 30.8085 33.8305 30.9862 32.7318L38.9188 36.1068C39.1266 36.1951 39.2935 36.3473 39.4011 36.5347H29.285Z" fill="white"/>
</svg>
