<svg width="120" height="120" viewBox="0 0 120 120" fill="none" xmlns="http://www.w3.org/2000/svg">
<path d="M28.0078 45.0703C33.4357 45.0703 37.8516 40.6544 37.8516 35.2266C37.8516 29.7987 33.4357 25.3828 28.0078 25.3828C22.58 25.3828 18.1641 29.7987 18.1641 35.2266C18.1641 40.6544 22.58 45.0703 28.0078 45.0703ZM28.0078 30.3047C30.7217 30.3047 32.9297 32.5126 32.9297 35.2266C32.9297 37.9405 30.7217 40.1484 28.0078 40.1484C25.2939 40.1484 23.0859 37.9405 23.0859 35.2266C23.0859 32.5126 25.2939 30.3047 28.0078 30.3047Z" fill="#05BBC2"/>
<path d="M102 35.2266C102 29.7987 97.5841 25.3828 92.1562 25.3828C86.7284 25.3828 82.3125 29.7987 82.3125 35.2266C82.3125 40.6544 86.7284 45.0703 92.1562 45.0703C97.5841 45.0703 102 40.6544 102 35.2266ZM92.1562 40.1484C89.4423 40.1484 87.2344 37.9405 87.2344 35.2266C87.2344 32.5126 89.4423 30.3047 92.1562 30.3047C94.8702 30.3047 97.0781 32.5126 97.0781 35.2266C97.0781 37.9405 94.8702 40.1484 92.1562 40.1484Z" fill="#05BBC2"/>
<path d="M92.1562 45.0703C86.7284 45.0703 82.3125 49.4862 82.3125 54.9141V64.9219H77.2266V60C78.5857 60 79.6875 58.8982 79.6875 57.5391C79.6875 56.18 78.5857 55.0781 77.2266 55.0781H72.3047V52.4531C72.3047 45.6683 66.7848 40.1484 60 40.1484C53.2152 40.1484 47.6953 45.6683 47.6953 52.4531V55.0781H42.7734C41.4143 55.0781 40.3125 56.18 40.3125 57.5391C40.3125 58.8982 41.4143 60 42.7734 60V64.9219H37.6875V54.9141C37.6875 49.4862 33.2716 45.0703 27.8438 45.0703C22.4159 45.0703 18 49.4862 18 54.9141V97.0781C18 98.4372 19.1018 99.5391 20.4609 99.5391H99.5391C100.898 99.5391 102 98.4372 102 97.0781C102 96.5672 102 56.0354 102 54.9141C102 49.4862 97.5841 45.0703 92.1562 45.0703ZM52.6172 52.4531C52.6172 48.3822 55.9291 45.0703 60 45.0703C64.0709 45.0703 67.3828 48.3822 67.3828 52.4531V55.0781H52.6172V52.4531ZM22.9219 79.5234H32.7656V94.6172H22.9219V79.5234ZM35.2266 74.6016H22.9219V54.9141C22.9219 52.2001 25.1298 49.9922 27.8438 49.9922C30.5577 49.9922 32.7656 52.2001 32.7656 54.9141V67.3828C32.7656 68.7419 33.8675 69.8438 35.2266 69.8438H42.7734V94.6172H37.6875V77.0625C37.6875 75.7034 36.5857 74.6016 35.2266 74.6016ZM47.6953 60H72.3047V94.6172H47.6953C47.6953 93.5155 47.6953 60.5724 47.6953 60ZM77.2266 69.8438H84.7734C86.1325 69.8438 87.2344 68.7419 87.2344 67.3828V54.9141C87.2344 52.2001 89.4423 49.9922 92.1562 49.9922C94.8702 49.9922 97.0781 52.2001 97.0781 54.9141V74.7656H84.7734C83.4143 74.7656 82.3125 75.8675 82.3125 77.2266V94.6172H77.2266V69.8438ZM97.0781 79.6875V94.6172H87.2344V79.6875H97.0781Z" fill="#05BBC2"/>
<path d="M69.8438 30.3047C69.8438 24.8768 65.4278 20.4609 60 20.4609C54.5722 20.4609 50.1562 24.8768 50.1562 30.3047C50.1562 35.7325 54.5722 40.1484 60 40.1484C65.4278 40.1484 69.8438 35.7325 69.8438 30.3047ZM60 35.2266C57.2861 35.2266 55.0781 33.0186 55.0781 30.3047C55.0781 27.5908 57.2861 25.3828 60 25.3828C62.7139 25.3828 64.9219 27.5908 64.9219 30.3047C64.9219 33.0186 62.7139 35.2266 60 35.2266Z" fill="#05BBC2"/>
<path d="M60.0004 69.9996C55.9249 69.9996 52.6094 73.3152 52.6094 77.3906C52.6094 81.4661 55.9249 84.7817 60.0004 84.7817C64.0759 84.7817 67.3914 81.4661 67.3914 77.3906C67.3914 73.3152 64.0759 69.9996 60.0004 69.9996ZM60.0004 79.8598C58.6388 79.8598 57.5312 78.7522 57.5312 77.3906C57.5312 76.0291 58.6388 74.9215 60.0004 74.9215C61.3619 74.9215 62.4695 76.0291 62.4695 77.3906C62.4695 78.7522 61.3619 79.8598 60.0004 79.8598Z" fill="#05BBC2"/>
</svg>
