<svg width="60" height="60" viewBox="0 0 60 60" fill="none" xmlns="http://www.w3.org/2000/svg">
<rect width="60" height="60" rx="30" fill="white"/>
<path d="M44.5159 26.1292C43.7422 26.1261 42.986 26.359 42.3481 26.7969C42.0857 26.0397 41.5947 25.3826 40.943 24.9164C40.2912 24.4501 39.5108 24.1976 38.7094 24.1937C37.9357 24.1906 37.1795 24.4235 36.5417 24.8614C36.2792 24.1042 35.7883 23.4472 35.1365 22.9809C34.4848 22.5146 33.7043 22.2621 32.903 22.2582C32.2208 22.261 31.552 22.4483 30.9675 22.8001V13.5485C30.9679 12.9734 30.8402 12.4055 30.5936 11.886C30.347 11.3664 29.9878 10.9084 29.542 10.5451C29.0962 10.1817 28.5751 9.92233 28.0165 9.78567C27.4579 9.649 26.8758 9.63851 26.3127 9.75496C25.4231 9.95543 24.6301 10.4569 24.0676 11.1745C23.5052 11.8922 23.2077 12.782 23.2256 13.6937V36.1356L20.5739 33.1066C19.7539 32.1761 18.6078 31.596 17.3724 31.4862C16.137 31.3763 14.9066 31.7451 13.9352 32.5163L13.2578 33.0582C12.7063 33.4849 12.332 34.1004 12.207 34.7864C12.0819 35.4724 12.2149 36.1805 12.5804 36.7743L19.4804 47.9034C20.8052 50.3266 22.7413 52.361 25.0961 53.8041C27.4508 55.2471 30.1423 56.0487 32.903 56.1292C37.0096 56.1292 40.9479 54.4978 43.8517 51.594C46.7555 48.6902 48.3868 44.7519 48.3868 40.6453V30.0001C48.3868 28.9735 47.979 27.9889 47.2531 27.2629C46.5271 26.537 45.5425 26.1292 44.5159 26.1292ZM46.4514 40.6453C46.4514 44.2385 45.0239 47.6846 42.4831 50.2254C39.9423 52.7663 36.4962 54.1937 32.903 54.1937C30.4784 54.1125 28.1173 53.398 26.0545 52.1213C23.9917 50.8445 22.2991 49.05 21.1449 46.9163L14.2643 35.7292C14.1528 35.5435 14.1119 35.3239 14.1493 35.1106C14.1866 34.8973 14.2996 34.7046 14.4675 34.5679L15.1449 34.0259C15.7278 33.5654 16.4651 33.3459 17.205 33.4125C17.9448 33.4791 18.631 33.8268 19.1223 34.384L23.4675 39.3485C23.5974 39.4959 23.7691 39.6002 23.9598 39.6476C24.1504 39.695 24.351 39.6832 24.5348 39.6139C24.7186 39.5446 24.877 39.421 24.9888 39.2595C25.1007 39.098 25.1608 38.9063 25.161 38.7098V13.6937C25.139 13.2242 25.2789 12.7614 25.5572 12.3826C25.8355 12.0039 26.2354 11.7322 26.6901 11.613C27.0062 11.5469 27.3339 11.561 27.6432 11.654C27.9526 11.7469 28.2337 11.9158 28.461 12.1453C28.6457 12.3288 28.7914 12.5476 28.8895 12.7887C28.9876 13.0298 29.0361 13.2882 29.032 13.5485V32.9034C29.032 33.16 29.134 33.4062 29.3155 33.5876C29.4969 33.7691 29.7431 33.8711 29.9997 33.8711C30.2564 33.8711 30.5026 33.7691 30.684 33.5876C30.8655 33.4062 30.9675 33.16 30.9675 32.9034V26.1292C30.9675 25.6158 31.1714 25.1235 31.5344 24.7606C31.8974 24.3976 32.3897 24.1937 32.903 24.1937C33.4163 24.1937 33.9086 24.3976 34.2716 24.7606C34.6345 25.1235 34.8385 25.6158 34.8385 26.1292V32.9034C34.8385 33.16 34.9404 33.4062 35.1219 33.5876C35.3034 33.7691 35.5495 33.8711 35.8062 33.8711C36.0629 33.8711 36.309 33.7691 36.4905 33.5876C36.672 33.4062 36.7739 33.16 36.7739 32.9034V28.0646C36.7739 27.5513 36.9779 27.059 37.3408 26.696C37.7038 26.3331 38.1961 26.1292 38.7094 26.1292C39.2227 26.1292 39.715 26.3331 40.078 26.696C40.441 27.059 40.6449 27.5513 40.6449 28.0646V32.9034C40.6449 33.16 40.7469 33.4062 40.9284 33.5876C41.1098 33.7691 41.356 33.8711 41.6127 33.8711C41.8693 33.8711 42.1155 33.7691 42.2969 33.5876C42.4784 33.4062 42.5804 33.16 42.5804 32.9034V30.0001C42.5804 29.4868 42.7843 28.9945 43.1473 28.6315C43.5103 28.2686 44.0026 28.0646 44.5159 28.0646C45.0292 28.0646 45.5215 28.2686 45.8845 28.6315C46.2474 28.9945 46.4514 29.4868 46.4514 30.0001V40.6453ZM27.0965 8.7098C27.3532 8.7098 27.5993 8.60784 27.7808 8.42636C27.9623 8.24487 28.0643 7.99872 28.0643 7.74206V4.83884C28.0643 4.58217 27.9623 4.33603 27.7808 4.15454C27.5993 3.97305 27.3532 3.87109 27.0965 3.87109C26.8399 3.87109 26.5937 3.97305 26.4122 4.15454C26.2307 4.33603 26.1288 4.58217 26.1288 4.83884V7.74206C26.1288 7.99872 26.2307 8.24487 26.4122 8.42636C26.5937 8.60784 26.8399 8.7098 27.0965 8.7098Z" fill="#05BBC2"/>
<path d="M32.9028 12.5789C32.9028 12.8356 33.0047 13.0817 33.1862 13.2632C33.3677 13.4447 33.6139 13.5467 33.8705 13.5467H36.7738C37.0304 13.5467 37.2766 13.4447 37.458 13.2632C37.6395 13.0817 37.7415 12.8356 37.7415 12.5789C37.7415 12.3223 37.6395 12.0761 37.458 11.8946C37.2766 11.7132 37.0304 11.6112 36.7738 11.6112H33.8705C33.6139 11.6112 33.3677 11.7132 33.1862 11.8946C33.0047 12.0761 32.9028 12.3223 32.9028 12.5789ZM17.4189 13.5467H20.3221C20.5788 13.5467 20.825 13.4447 21.0064 13.2632C21.1879 13.0817 21.2899 12.8356 21.2899 12.5789C21.2899 12.3223 21.1879 12.0761 21.0064 11.8946C20.825 11.7132 20.5788 11.6112 20.3221 11.6112H17.4189C17.1623 11.6112 16.9161 11.7132 16.7346 11.8946C16.5531 12.0761 16.4512 12.3223 16.4512 12.5789C16.4512 12.8356 16.5531 13.0817 16.7346 13.2632C16.9161 13.4447 17.1623 13.5467 17.4189 13.5467ZM21.5705 9.39506C21.6605 9.48577 21.7675 9.55776 21.8855 9.60689C22.0034 9.65602 22.1299 9.68132 22.2576 9.68132C22.3854 9.68132 22.5119 9.65602 22.6298 9.60689C22.7477 9.55776 22.8548 9.48577 22.9447 9.39506C23.0354 9.3051 23.1074 9.19807 23.1566 9.08014C23.2057 8.96221 23.231 8.83572 23.231 8.70797C23.231 8.58021 23.2057 8.45372 23.1566 8.3358C23.1074 8.21787 23.0354 8.11083 22.9447 8.02087L21.0092 6.08539C20.919 5.99516 20.8119 5.92358 20.694 5.87475C20.5761 5.82592 20.4497 5.80078 20.3221 5.80078C20.0644 5.80078 19.8173 5.90316 19.635 6.08539C19.4528 6.26762 19.3504 6.51477 19.3504 6.77248C19.3504 7.03019 19.4528 7.27735 19.635 7.45958L21.5705 9.39506ZM31.935 9.67571C32.0624 9.67645 32.1887 9.65203 32.3066 9.60387C32.4245 9.55571 32.5317 9.48476 32.6221 9.39506L34.5576 7.45958C34.6479 7.36935 34.7194 7.26223 34.7683 7.14434C34.8171 7.02644 34.8422 6.90009 34.8422 6.77248C34.8422 6.64488 34.8171 6.51852 34.7683 6.40063C34.7194 6.28274 34.6479 6.17562 34.5576 6.08539C34.4674 5.99516 34.3603 5.92358 34.2424 5.87475C34.1245 5.82592 33.9981 5.80078 33.8705 5.80078C33.7429 5.80078 33.6166 5.82592 33.4987 5.87475C33.3808 5.92358 33.2737 5.99516 33.1834 6.08539L31.2479 8.02087C31.1572 8.11083 31.0852 8.21787 31.0361 8.3358C30.987 8.45372 30.9617 8.58021 30.9617 8.70797C30.9617 8.83572 30.987 8.96221 31.0361 9.08014C31.0852 9.19807 31.1572 9.3051 31.2479 9.39506C31.3384 9.48476 31.4456 9.55571 31.5635 9.60387C31.6814 9.65203 31.8077 9.67645 31.935 9.67571Z" fill="#05BBC2"/>
</svg>
