<svg width="60" height="60" viewBox="0 0 60 60" fill="none" xmlns="http://www.w3.org/2000/svg">
<rect width="60" height="60" rx="30" fill="white"/>
<path fill-rule="evenodd" clip-rule="evenodd" d="M17.125 45.2805V45.5581C17.125 46.8007 16.1177 47.8081 14.875 47.8081H11.5C10.2574 47.8081 9.25 46.8007 9.25 45.5581V33.1883C9.25 31.9457 10.2574 30.9383 11.5 30.9383H14.875C15.9392 30.9383 16.8309 31.6772 17.065 32.67C18.555 32.1331 20.2952 31.4939 20.8277 31.2512C21.28 31.0452 21.8022 30.9752 22.2361 30.9501C22.6924 30.9238 23.1658 30.942 23.58 30.9741C23.9979 31.0064 24.3771 31.0546 24.6509 31.0944C24.7884 31.1145 24.9009 31.1326 24.9802 31.1459C25.0199 31.1526 25.0514 31.158 25.0737 31.1621L25.1001 31.1668L25.1079 31.1682L25.1119 31.1689L25.1321 31.1728L32.657 32.8608L32.704 32.8759L32.7168 32.8798L32.7687 32.8957C32.8161 32.91 32.8879 32.931 32.9806 32.9567C33.1664 33.0082 33.4334 33.0776 33.7518 33.147C34.3986 33.2881 35.2133 33.4198 35.973 33.4198C36.6749 33.4198 37.401 33.6814 37.7891 34.3923C38.1224 35.0026 38.0448 35.6727 37.9201 36.1368C37.7647 36.7144 37.443 37.3222 37.0339 37.8386C37.5859 37.6304 38.1894 37.3838 38.8372 37.118L38.9756 37.0611C40.8015 36.3119 42.9666 35.4233 44.8763 35.1075C47.0584 34.7465 48.6467 35.5387 49.3667 36.944C50.0076 38.1949 49.8588 39.8367 48.8942 40.8259C48.6521 41.0742 48.2832 41.3347 47.9128 41.575C47.5172 41.8315 47.03 42.1214 46.4886 42.4284C45.4044 43.0434 44.0621 43.7504 42.7145 44.4338C40.046 45.7872 37.2488 47.1033 36.3599 47.4288C35.3299 47.8061 34.2234 47.8418 33.1594 47.787C32.5798 47.7572 31.9065 47.6902 31.2372 47.6236C30.7537 47.5756 30.2724 47.5277 29.8302 47.4942C27.6614 47.3299 25.9969 46.8006 24.4636 46.313L24.2772 46.2537C22.6936 45.7511 21.2205 45.3052 19.2686 45.2266C18.8223 45.2086 17.9312 45.2413 17.125 45.2805ZM21.7609 33.2985C21.833 33.2657 22.0243 33.2162 22.3658 33.1964C22.6849 33.178 23.0489 33.1897 23.4064 33.2173C23.7604 33.2448 24.0875 33.2862 24.327 33.3209C24.4461 33.3383 24.542 33.3538 24.6069 33.3647C24.6394 33.3702 24.664 33.3745 24.6798 33.3773L24.6823 33.3778L32.0707 35.0352L32.1215 35.0506C32.1829 35.0691 32.2703 35.0946 32.3797 35.125C32.598 35.1855 32.9062 35.2654 33.2722 35.3453C33.9306 35.4889 34.8126 35.6405 35.7117 35.6661C35.6476 35.848 35.539 36.0628 35.3918 36.2766C35.2123 36.5376 35.0151 36.7395 34.8532 36.855C34.3845 37.1898 34.0063 37.3299 33.7767 37.3895C33.6605 37.4197 33.5787 37.4301 33.5383 37.4337L33.5211 37.4351L33.5146 37.4354L27.4823 37.3625L27.267 39.5942L27.4687 38.4874L27.2681 39.5944L27.328 39.6052L27.4995 39.636C27.648 39.6627 27.8619 39.7007 28.1248 39.7467C28.6502 39.8387 29.3719 39.9627 30.1565 40.0905C31.7027 40.3425 33.5664 40.6217 34.6238 40.6855C35.3541 40.7296 36.2046 40.5055 36.9955 40.2414C37.821 39.9659 38.7534 39.5844 39.691 39.1996C41.623 38.4072 43.5902 37.6008 45.2435 37.3274C46.6727 37.0909 47.1814 37.613 47.3642 37.9699C47.6261 38.4812 47.4837 39.0495 47.2833 39.2551C47.2342 39.3055 47.057 39.4481 46.6884 39.6872C46.345 39.91 45.9002 40.1754 45.3786 40.4713C44.3367 41.0622 43.0287 41.7516 41.6968 42.4271C39.0064 43.7917 36.3283 45.0442 35.5861 45.316C34.9852 45.5362 34.2424 45.5897 33.2752 45.5399C32.7038 45.5105 32.1618 45.4554 31.5708 45.3952C31.0931 45.3466 30.5834 45.2949 30.0002 45.2507C28.0969 45.1064 26.6499 44.6468 25.0993 44.1541L24.958 44.1092C23.352 43.5994 21.6334 43.07 19.3591 42.9784C18.8471 42.9578 17.9357 42.9894 17.125 43.0278V35.0393C18.7062 34.4734 21.048 33.6236 21.7609 33.2985ZM24.9057 32.2749L25.1119 31.1689C25.1122 31.169 25.1119 31.1689 24.9057 32.2749ZM14.875 33.1883H11.5V45.5581H14.875V33.1883Z" fill="#05BBC2"/>
<path fill-rule="evenodd" clip-rule="evenodd" d="M28.7546 26.7159C29.8263 27.6572 31.179 28.6031 32.5046 29.2159C33.2146 29.5442 34.3239 29.5935 35.0046 29.2159C36.1527 28.579 37.4344 27.5645 38.4005 26.7159C40.4483 24.9172 41.8011 21.8265 41.8796 19.2159V16.0909C41.8902 15.7366 41.8796 15.0943 41.8796 15.0943C41.4214 15.0207 41.8796 14.8409 39.8785 14.2159C38.4005 13.7543 37.5052 13.7092 36.2546 12.9659L35.0046 12.3409C34.2397 11.8863 33.2694 11.8864 32.5046 12.341L31.2546 12.9659C29.8249 13.8156 28.1299 13.5909 26.6008 14.2159C25.005 14.8409 25.3771 15.0516 25.005 15.0943C25.005 15.0943 24.9939 15.8698 25.0047 16.2291V19.2159C25.0832 21.8265 26.7067 24.9172 28.7546 26.7159ZM26.5053 15.8613C26.5056 15.9969 26.5069 16.1226 26.5096 16.214L26.6008 19.2483C26.672 21.6197 27.7564 23.8783 29.6326 25.5262C30.6444 26.4149 31.7479 27.1448 32.9929 27.7204C33.4453 27.9295 33.9851 27.9097 34.4162 27.6705C35.4909 27.0743 36.4382 26.3504 37.3765 25.5262C39.2527 23.8783 40.3371 21.6197 40.4083 19.2483L40.4998 16.2043C40.5027 16.1089 40.5039 15.9752 40.5042 15.8319C40.2993 15.8062 40.0912 15.782 39.8785 15.7572L39.8546 15.7545C39.384 15.6997 38.8906 15.6418 38.4005 15.561C37.4182 15.3989 36.3906 15.1357 35.4278 14.5635L34.5357 14.0333C34.0511 13.7453 33.4223 13.7453 32.9378 14.0333L32.0835 14.541C31.0686 15.1442 29.9475 15.4301 28.8677 15.5991C28.1981 15.7039 27.4769 15.7709 26.8011 15.8337C26.7014 15.8429 26.6027 15.8521 26.5053 15.8613Z" fill="#05BBC2"/>
<path d="M37.9531 19.2148C38.1888 18.9947 38.1888 18.35 37.9531 18.1299C37.7175 17.9098 37.2111 17.9098 36.9754 18.1299L32.5741 22.2405L30.5868 20.3845C30.3511 20.1644 29.7923 20.1644 29.5566 20.3845C29.3209 20.6046 29.321 21.0781 29.5566 21.2982L32.5741 24.2148L37.9531 19.2148Z" fill="#05BBC2"/>
</svg>
